<?xml version="1.0" standalone="no"?>
<!DOCTYPE svg PUBLIC "-//W3C//DTD SVG 1.1//EN" "http://www.w3.org/Graphics/SVG/1.1/DTD/svg11.dtd" >
<svg xmlns="http://www.w3.org/2000/svg" xmlns:xlink="http://www.w3.org/1999/xlink" version="1.1">
<metadata>
Created by FontForge 20170731 at Mon Mar  9 20:30:53 2020
 By Aleksey,,,
Copyright (c) 2020 by Fontastica. All rights reserved.
</metadata>
<defs>
<font id="Groteska-BookItalic" horiz-adv-x="649" >
  <font-face 
    font-family="Groteska Book"
    font-weight="400"
    font-style="italic"
    font-stretch="normal"
    units-per-em="1000"
    panose-1="0 0 5 0 0 0 0 0 0 0"
    ascent="800"
    descent="-200"
    x-height="558"
    cap-height="726"
    bbox="-217 -250 1953 960"
    underline-thickness="50"
    underline-position="-200"
    slope="-9"
    unicode-range="U+0020-2265"
  />
<missing-glyph horiz-adv-x="550" 
d="M68 1l115 723h412l-115 -723h-412zM230 689l107 -284l200 284h-307zM352 363l102 -267l85 533zM208 625l-83 -527l183 265zM325 320l-198 -283h307z" />
    <glyph glyph-name=".notdef" horiz-adv-x="550" 
d="M68 1l115 723h412l-115 -723h-412zM230 689l107 -284l200 284h-307zM352 363l102 -267l85 533zM208 625l-83 -527l183 265zM325 320l-198 -283h307z" />
    <glyph glyph-name=".null" horiz-adv-x="0" 
 />
    <glyph glyph-name="nonmarkingreturn" horiz-adv-x="333" 
 />
    <glyph glyph-name="space" unicode=" " horiz-adv-x="350" 
 />
    <glyph glyph-name="exclam" unicode="!" horiz-adv-x="236" 
d="M174 177h-55l87 549h55zM131 80q17 0 30 -12q8 -13 5 -31q-3 -15 -14 -30q-17 -13 -35 -13q-19 0 -28.5 12t-6.5 31t17 31t32 12z" />
    <glyph glyph-name="quotedbl" unicode="&#x22;" horiz-adv-x="297" 
d="M215 542h-56l32 204h56zM310 542h-55l32 204h55z" />
    <glyph glyph-name="numbersign" unicode="#" horiz-adv-x="701" 
d="M657 726l-65 -211h144l-9 -54h-152l-58 -186h150l-9 -53h-158l-68 -222h-57l68 222h-164l-68 -222h-57l68 222h-140l9 53h148l58 186h-146l9 54h154l65 211h57l-66 -211h164l66 211h57zM518 461h-165l-57 -186h165z" />
    <glyph glyph-name="dollar" unicode="$" horiz-adv-x="652" 
d="M362 0l-16 -104h-53l16 104q-91 9 -148 61.5t-65 145.5l56 30q6 -166 166 -182l44 281q-41 8 -64 14t-56.5 20.5t-49.5 32.5t-25.5 50t-3.5 73q14 89 90.5 141t170.5 59l16 104h53l-16 -105q170 -19 192 -180l-54 -38q-14 151 -147 164l-46 -290q67 -14 103 -27
q40 -15 77 -56q28 -43 17 -106q-9 -59 -50 -103t-94 -64.5t-113 -24.5zM371 393l44 279q-52 -5 -88 -19q-94 -43 -108 -127q-6 -46 13 -70q16 -24 55 -39q26 -10 84 -24zM413 324l-42 -269q71 5 127 39t66 98q7 43 -11 69q-34 38 -140 63z" />
    <glyph glyph-name="percent" unicode="%" horiz-adv-x="829" 
d="M322 726q80 0 112.5 -56.5t19.5 -138.5q-13 -83 -62.5 -136.5t-130.5 -53.5q-80 0 -113.5 54t-20.5 136t64.5 138.5t130.5 56.5zM742 726h66l-607 -726h-66zM314 673q-55 0 -88.5 -41.5t-42.5 -100.5t11 -98.5t75 -39.5t87.5 39.5t41.5 98.5t-10.5 100.5t-73.5 41.5z
M684 385q80 0 113 -55t20 -137t-63.5 -137.5t-130.5 -55.5t-114 55.5t-20 137.5q13 82 64 137t131 55zM676 333q-55 0 -89 -40.5t-43 -99.5q-10 -59 10.5 -99.5t76.5 -40.5q54 0 87.5 40.5t43.5 99.5q9 58 -11.5 99t-74.5 41z" />
    <glyph glyph-name="ampersand" unicode="&#x26;" horiz-adv-x="617" 
d="M582 60q18 -13 50 -17l-9 -54q-34 2 -60 15.5t-40 28t-39 45.5q-90 -87 -220 -87q-88 0 -144.5 44.5t-43.5 129.5q13 79 66 129t146 101q-37 64 -48 94q-15 43 -8 85q11 73 64 116t127 43q70 0 108.5 -37t26.5 -106q-11 -71 -61.5 -119t-132.5 -92l49 -81q17 -28 63 -100
q14 -24 19 -30q20 27 35 59.5t21.5 53.5t20.5 70h54q-33 -135 -102 -228q33 -43 58 -63zM288 574q-6 -35 15 -85l6 -11q2 -3 7 -13.5t11 -21t12 -20.5q69 37 112.5 75t51.5 92q7 42 -18.5 65.5t-69.5 23.5q-46 0 -85 -29q-35 -30 -42 -76zM269 43q109 0 187 78
q-43 68 -75 121l-13 22l-55 87q-45 -24 -90 -53q-79 -51 -93 -133q-9 -59 33.5 -90.5t105.5 -31.5z" />
    <glyph glyph-name="quotesingle" unicode="'" horiz-adv-x="202" 
d="M215 542h-56l32 204h56z" />
    <glyph glyph-name="parenleft" unicode="(" horiz-adv-x="312" 
d="M402 818l23 -43q-216 -157 -263 -459q-48 -302 117 -459l-36 -42q-103 100 -131.5 220.5t-3.5 280.5q26 164 91.5 282.5t202.5 219.5z" />
    <glyph glyph-name="parenright" unicode=")" horiz-adv-x="314" 
d="M133 777l42 41q101 -101 128.5 -220.5t2.5 -281.5q-25 -159 -91.5 -280t-198.5 -221l-29 40q219 161 266 461q23 145 -3 259.5t-117 201.5z" />
    <glyph glyph-name="asterisk" unicode="*" horiz-adv-x="586" 
d="M411 590l212 67l7 -55l-208 -62l96 -168l-48 -34l-97 170l-148 -170l-39 34l150 168l-190 62l25 55l190 -67l32 209h54z" />
    <glyph glyph-name="plus" unicode="+" horiz-adv-x="675" 
d="M406 606h55l-37 -231h233l-8 -53h-233l-38 -239h-55l38 239h-233l8 53h233z" />
    <glyph glyph-name="comma" unicode="," horiz-adv-x="240" 
d="M186 51q4 -17 1 -38q-14 -84 -102 -127l-45 37q75 27 93 71h-5q-17 0 -27 13t-7 30q3 18 18.5 30.5t32.5 12.5q32 0 41 -29z" />
    <glyph glyph-name="hyphen" unicode="-" horiz-adv-x="481" 
d="M449 273h-331l9 55h331z" />
    <glyph glyph-name="period" unicode="." horiz-adv-x="222" 
d="M123 80q17 0 29 -10q11 -14 8 -33q-3 -18 -17.5 -30.5t-33.5 -12.5t-28.5 12t-6.5 31t17 31t32 12z" />
    <glyph glyph-name="slash" unicode="/" horiz-adv-x="422" 
d="M85 -73h-58l424 872h58z" />
    <glyph glyph-name="zero" unicode="0" horiz-adv-x="637" 
d="M317 -9q-61 0 -104.5 22.5t-66.5 58.5t-34 86t-10 99.5t10 105.5t24 105.5t41 99.5t60.5 86t85 58.5t111.5 22.5t104.5 -22.5t66.5 -58.5t34 -86t10 -100t-10 -105t-23.5 -105t-41 -100t-61 -86t-85 -58.5t-111.5 -22.5zM325 43q61 0 108.5 29.5t76.5 79.5t46.5 101.5
t26.5 109.5q8 45 9.5 87t-6 85.5t-24.5 75t-52 52t-84 20.5q-61 0 -108.5 -29t-77 -79.5t-46.5 -101.5t-27 -110q-11 -53 -8.5 -109.5t15.5 -103t51.5 -77t99.5 -30.5z" />
    <glyph glyph-name="one" unicode="1" horiz-adv-x="355" 
d="M368 726h47l-115 -726h-55l98 616q-76 -72 -189 -110l-11 51q144 50 225 169z" />
    <glyph glyph-name="two" unicode="2" horiz-adv-x="614" 
d="M171 53h396l-8 -53h-460l-4 -3l1 3h-31l7 43q167 125 288 220q178 141 196 252q13 81 -28 124.5t-123 43.5q-86 0 -142.5 -54t-75.5 -146h-56q26 117 98.5 184.5t183.5 67.5q106 0 159.5 -57t37.5 -163q-22 -133 -206 -282q-83 -68 -233 -180z" />
    <glyph glyph-name="three" unicode="3" horiz-adv-x="590" 
d="M500 368q39 -21 56.5 -71t9.5 -100q-14 -93 -89.5 -149.5t-170.5 -56.5q-98 0 -156 47.5t-66 145.5l58 3q6 -70 45 -108q49 -36 127 -36q72 0 129 42t68 113q11 68 -26.5 105t-108.5 37h-124l8 52h124q72 0 124 40q47 42 57 103q11 70 -32.5 112t-116.5 42
q-156 0 -218 -144l-56 3q77 194 283 194q95 0 152.5 -56t42.5 -150q-9 -55 -40 -100t-80 -68z" />
    <glyph glyph-name="four" unicode="4" horiz-adv-x="656" 
d="M521 726h51l-73 -459h144l-8 -53h-144l-34 -214h-55l34 214h-347l6 39zM502 632l-15 -17l-313 -348h270z" />
    <glyph glyph-name="five" unicode="5" horiz-adv-x="608" 
d="M391 455q103 0 158.5 -63.5t38.5 -167.5q-16 -103 -92.5 -168t-182.5 -65q-219 0 -227 203h58q1 -151 177 -151q80 0 139 50t72 131q13 78 -28.5 128.5t-120.5 50.5q-125 0 -206 -90h-46l100 413h410l-8 -53h-361l-66 -271q74 53 185 53z" />
    <glyph glyph-name="six" unicode="6" horiz-adv-x="602" 
d="M385 451q107 0 160 -63t37 -169q-17 -105 -91.5 -166.5t-180.5 -61.5q-61 0 -104 22.5t-65 58.5t-31.5 86.5t-8 99.5t10.5 105q9 55 25 105.5t44.5 100t64.5 86t88.5 58.5t113.5 22q80 0 123.5 -39.5t57.5 -122.5h-58q-21 110 -131 110q-63 0 -114 -31t-83 -82.5
t-50.5 -106t-28.5 -114.5l-2 -15q37 54 96.5 85.5t126.5 31.5zM318 43q82 0 138.5 48t69.5 130q13 80 -28 128t-121 48q-72 0 -134 -52t-73 -124q-12 -76 29.5 -127t118.5 -51z" />
    <glyph glyph-name="seven" unicode="7" horiz-adv-x="629" 
d="M599 673h-437l8 53h519l-7 -41q-290 -267 -386 -685h-58q48 203 134.5 369.5t226.5 303.5z" />
    <glyph glyph-name="eight" unicode="8" horiz-adv-x="618" 
d="M481 383q61 -27 92 -75t21 -112q-10 -66 -56 -114t-105.5 -69.5t-123.5 -21.5q-83 0 -127 26q-52 25 -79 72.5t-17 106.5q10 64 56.5 112t115.5 75q-104 52 -87 166q15 93 87 139.5t168 46.5q94 0 151.5 -47t42.5 -139q-18 -114 -139 -166zM225 549q-11 -68 33.5 -104
t116.5 -36q71 0 125.5 36t65.5 104q9 57 -29 97q-43 37 -119 37q-72 0 -127 -33.5t-66 -100.5zM504 118q30 39 36 78q7 38 -11 79q-46 78 -163 78q-80 0 -146.5 -40.5t-78.5 -116.5q-12 -73 42.5 -113t133.5 -40q116 0 187 75z" />
    <glyph glyph-name="nine" unicode="9" horiz-adv-x="602" 
d="M406 734q258 0 198 -372q-11 -70 -35 -132.5t-63.5 -118t-100.5 -88.5t-137 -33q-155 0 -181 162h57q24 -110 133 -110q51 0 94.5 21t72.5 53.5t52 78t35.5 89.5t20.5 92l2 14q-38 -54 -97.5 -84.5t-127.5 -30.5q-105 0 -158 63t-36 168q17 106 90.5 167t180.5 61z
M337 328q73 0 135.5 52t74.5 124q15 100 -61 155q-37 23 -87 23q-83 0 -139.5 -48t-69.5 -130q-13 -79 27.5 -127.5t119.5 -48.5z" />
    <glyph glyph-name="colon" unicode=":" horiz-adv-x="247" 
d="M212 559q18 0 28 -10q11 -15 8 -31q-3 -19 -17 -31.5t-33 -12.5t-28.5 12t-6.5 32q3 18 17 29.5t32 11.5zM136 80q17 0 28 -11q11 -12 8 -32q-3 -18 -17 -30.5t-33 -12.5t-28.5 12t-6.5 31t17 31t32 12z" />
    <glyph glyph-name="semicolon" unicode=";" horiz-adv-x="266" 
d="M221 475q-17 0 -27 12t-7 31q3 18 16.5 29.5t31.5 11.5q19 0 30 -11q7 -15 5 -30q-3 -19 -16.5 -31t-32.5 -12zM157 80q27 0 36.5 -19.5t5.5 -47.5q-14 -85 -103 -127l-44 37q74 27 92 71h-4q-18 0 -27.5 13t-6.5 30q3 18 18 30.5t33 12.5z" />
    <glyph glyph-name="less" unicode="&#x3c;" horiz-adv-x="675" 
d="M605 48l-456 262l7 42l538 263l-10 -63l-456 -220l387 -221z" />
    <glyph glyph-name="equal" unicode="=" horiz-adv-x="676" 
d="M648 425h-485l9 53h485zM615 212h-485l8 54h485z" />
    <glyph glyph-name="greater" unicode="&#x3e;" horiz-adv-x="676" 
d="M96 111l457 221l-388 220l10 63l457 -263l-7 -42l-539 -262z" />
    <glyph glyph-name="question" unicode="?" horiz-adv-x="537" 
d="M392 735q95 0 147.5 -50t38.5 -144q-16 -101 -77 -156t-168 -88l-22 -140h-54l28 180q42 12 69.5 22t59.5 27t52 37t36 50t22 68q10 67 -30.5 104.5t-109.5 37.5q-87 0 -138.5 -41.5t-81.5 -133.5l-48 19q34 109 101.5 158.5t174.5 49.5zM272 80q17 0 29 -12q9 -12 6 -31
q-4 -18 -15 -30q-16 -13 -34 -13t-28.5 12.5t-7.5 30.5t18 33q17 10 32 10z" />
    <glyph glyph-name="at" unicode="@" horiz-adv-x="1026" 
d="M634 735q210 0 308 -122.5t64 -337.5q-21 -125 -70 -203q-23 -38 -57 -62t-64 -24q-74 0 -72 117q-98 -119 -245 -119q-122 0 -184 82t-42 206q19 122 107.5 204.5t210.5 82.5q68 0 120.5 -29.5t82.5 -79.5l9 55h53l-57 -357q-16 -109 25 -113h3q30 3 69 63q39 70 56 177
q29 186 -54 297t-271 111q-186 0 -313 -114.5t-157 -305.5q-30 -187 65.5 -298t286.5 -111q146 0 262 94l28 -45q-63 -48 -143.5 -74.5t-154.5 -26.5q-214 0 -324 122t-75 339q34 212 176 342t357 130zM507 38q99 0 170 67t87 167q16 99 -34.5 166.5t-148.5 67.5t-169 -67.5
t-87 -166.5q-16 -100 34 -167t148 -67z" />
    <glyph glyph-name="A" unicode="A" horiz-adv-x="831" 
d="M55 0l476 726l245 -726h-62l-74 220h-379l-143 -220h-63zM294 270h328l-110 333z" />
    <glyph glyph-name="B" unicode="B" horiz-adv-x="671" 
d="M555 365q112 -47 91 -173q-30 -192 -279 -192h-312l115 726h312q104 0 159 -48t39 -150q-18 -113 -125 -163zM474 674l-258 -1l-45 -284h258q176 0 197 138q12 74 -31 109.5t-121 37.5zM162 336l-45 -283h258q195 0 217 139q13 79 -36 111.5t-136 32.5h-258z" />
    <glyph glyph-name="C" unicode="C" horiz-adv-x="825" 
d="M418 -10q-160 0 -246 104.5t-60 267.5q26 161 144 266.5t280 105.5q113 0 193 -56.5t112 -155.5l-60 -1q-29 75 -94.5 118t-158.5 43q-135 0 -237.5 -91t-124.5 -229q-21 -137 51.5 -228.5t209.5 -91.5q102 0 188 53.5t136 144.5l57 -1q-58 -113 -161 -181t-229 -68z" />
    <glyph glyph-name="D" unicode="D" horiz-adv-x="714" 
d="M302 0h-247l115 726h247q174 0 250.5 -93.5t49.5 -268.5q-58 -364 -415 -364zM409 673h-193l-99 -620h193q303 0 352 311q23 146 -40 229q-67 80 -213 80z" />
    <glyph glyph-name="E" unicode="E" horiz-adv-x="660" 
d="M549 389l-9 -53h-376l-45 -283h494l-8 -53h-550l115 726h550l-8 -53h-494l-45 -284h376z" />
    <glyph glyph-name="F" unicode="F" horiz-adv-x="660" 
d="M549 389l-9 -53h-376l-53 -336h-56l115 726h550l-8 -53h-494l-45 -284h376z" />
    <glyph glyph-name="G" unicode="G" horiz-adv-x="817" 
d="M505 336l9 53h310l-62 -389h-54l19 120q-125 -130 -309 -130q-160 0 -246 104.5t-60 267.5q26 161 144 266.5t280 105.5q113 0 193 -56.5t112 -155.5l-60 -1q-29 75 -94.5 118t-158.5 43q-135 0 -237.5 -91t-124.5 -229q-21 -137 51.5 -228.5t209.5 -91.5q100 0 184 50.5
t133 135.5l17 108h-256z" />
    <glyph glyph-name="H" unicode="H" horiz-adv-x="666" 
d="M225 726l-53 -337h446l53 337h55l-115 -726h-55l53 336h-446l-53 -336h-55l115 726h55z" />
    <glyph glyph-name="I" unicode="I" horiz-adv-x="165" 
d="M110 0h-55l115 726h55z" />
    <glyph glyph-name="J" unicode="J" horiz-adv-x="666" 
d="M332 -9q-279 0 -239 247l23 150h55l-23 -150q-31 -195 192 -195t254 195l77 488h55l-77 -488q-39 -247 -317 -247z" />
    <glyph glyph-name="K" unicode="K" horiz-adv-x="686" 
d="M746 726l-352 -279l233 -447h-69l-215 407l-193 -154l-40 -253h-55l115 726h55l-62 -394l500 394h83z" />
    <glyph glyph-name="L" unicode="L" horiz-adv-x="660" 
d="M605 0h-550l115 726h56l-106 -672h494z" />
    <glyph glyph-name="M" unicode="M" horiz-adv-x="759" 
d="M224 726l170 -636l371 636h54l-115 -726h-55l94 585l-340 -585h-48l-153 585l-92 -585h-55l115 726h54z" />
    <glyph glyph-name="N" unicode="N" horiz-adv-x="664" 
d="M221 726l350 -628l98 628h55l-115 -726h-52l-349 628l-98 -628h-55l115 726h51z" />
    <glyph glyph-name="O" unicode="O" horiz-adv-x="843" 
d="M418 -10q-160 0 -246 104.5t-60 267.5q26 161 144 266.5t280 105.5t248.5 -104t60.5 -268q-25 -161 -144 -266.5t-283 -105.5zM427 42q138 0 240 90.5t124 229.5q22 138 -50.5 229t-212.5 91q-135 0 -237.5 -91t-124.5 -229q-21 -137 51.5 -228.5t209.5 -91.5z" />
    <glyph glyph-name="P" unicode="P" horiz-adv-x="653" 
d="M163 336l-53 -336h-55l115 726h291q53 0 94 -9.5t74 -30.5t47.5 -61t5.5 -96q-30 -193 -283 -193h-236zM453 673h-236l-45 -284h236q198 0 220 140q12 79 -38.5 111.5t-136.5 32.5z" />
    <glyph glyph-name="Q" unicode="Q" horiz-adv-x="843" 
d="M845 362q-27 -173 -162 -282l89 -68l-42 -41l-97 76q-97 -57 -215 -57q-160 0 -246 104.5t-60 267.5q26 161 144 266.5t280 105.5t248.5 -104t60.5 -268zM427 42q84 0 162 38l-159 122l41 42l171 -132q58 44 97.5 109t51.5 141q22 138 -50.5 229t-212.5 91
q-135 0 -237.5 -91t-124.5 -229q-21 -137 51.5 -228.5t209.5 -91.5z" />
    <glyph glyph-name="R" unicode="R" horiz-adv-x="674" 
d="M451 337l168 -337h-68l-168 336h-220l-53 -336h-55l115 726h291q53 0 94 -9.5t74 -30.5t47.5 -61t5.5 -96q-28 -174 -231 -192zM453 673h-236l-45 -284h236q198 0 220 140q12 78 -38.5 111t-136.5 33z" />
    <glyph glyph-name="S" unicode="S" horiz-adv-x="738" 
d="M488 735q242 0 274 -196h-57q-25 144 -225 144q-51 0 -104.5 -14t-100.5 -50t-55 -88q-5 -31 12 -64q39 -56 227 -86q36 -6 59.5 -10.5t59 -14t58 -23.5t44 -33.5t29.5 -48.5t3 -65v-4q-8 -52 -43.5 -91.5t-85.5 -60t-99.5 -30t-96.5 -9.5q-287 0 -298 221h62
q1 -89 73.5 -129t170.5 -40q38 0 78 7t81.5 22.5t70.5 45t35 68.5q9 53 -38 86q-43 33 -182 57q-32 5 -53 8t-55 11.5t-56.5 17.5t-48 24.5t-39.5 34.5t-21 46t-2 60q11 69 67.5 117.5t123 67.5t132.5 19z" />
    <glyph glyph-name="T" unicode="T" horiz-adv-x="690" 
d="M424 673h-262l8 53h580l-8 -53h-262l-107 -673h-56z" />
    <glyph glyph-name="U" unicode="U" horiz-adv-x="666" 
d="M594 238l77 488h55l-77 -488q-39 -247 -317 -247q-133 0 -196.5 58t-42.5 189l77 488h55l-77 -488q-31 -195 192 -195t254 195z" />
    <glyph glyph-name="V" unicode="V" horiz-adv-x="831" 
d="M416 0l-246 726h62l204 -602l393 602h62z" />
    <glyph glyph-name="W" unicode="W" horiz-adv-x="1080" 
d="M636 726h40l116 -566l292 566h56l-373 -726l-128 622l-324 -622l-145 726h57l113 -566z" />
    <glyph glyph-name="X" unicode="X" horiz-adv-x="765" 
d="M710 0h-70l-202 329l-312 -329h-71l358 376l-220 350h69l190 -307l297 307h66l-336 -352z" />
    <glyph glyph-name="Y" unicode="Y" horiz-adv-x="726" 
d="M237 726l180 -388l301 388h68l-352 -446l-44 -280h-54l44 280l-210 446h67z" />
    <glyph glyph-name="Z" unicode="Z" horiz-adv-x="667" 
d="M178 726h529l-6 -40l-562 -633h481l-8 -53h-557l6 40l561 633h-452z" />
    <glyph glyph-name="bracketleft" unicode="[" horiz-adv-x="323" 
d="M56 -175l155 974h227l-9 -53h-174l-137 -867h174l-9 -54h-227z" />
    <glyph glyph-name="backslash" unicode="\" horiz-adv-x="422" 
d="M225 799l146 -872h-58l-146 872h58z" />
    <glyph glyph-name="bracketright" unicode="]" horiz-adv-x="323" 
d="M303 746h-173l9 53h227l-155 -974h-227l9 54h173z" />
    <glyph glyph-name="asciicircum" unicode="^" horiz-adv-x="628" 
d="M100 371l320 428h43l184 -428h-65l-151 353l-265 -353h-66z" />
    <glyph glyph-name="underscore" unicode="_" horiz-adv-x="558" 
d="M540 -114h-558l8 52h558z" />
    <glyph glyph-name="grave" unicode="`" horiz-adv-x="286" 
d="M327 607h-61l-84 192h65z" />
    <glyph glyph-name="a" unicode="a" horiz-adv-x="671" 
d="M578 43q11 0 47 14l-9 -58q-17 -6 -22 -6q-1 -1 -5 -1q-6 -1 -17 -1q-80 0 -83 73q-47 -36 -117 -54.5t-128 -18.5q-35 0 -66 7t-57 22.5t-38.5 44t-6.5 66.5q22 136 242 166l209 32l7 46q11 66 -37.5 100t-119.5 34q-69 0 -116 -27.5t-86 -91.5l-49 21q46 80 109.5 115
t149.5 35q98 0 159 -45.5t46 -140.5l-43 -277q-9 -55 31 -55zM257 43q34 0 71.5 7t75.5 21.5t65.5 41t33.5 61.5l16 101l-188 -28q-98 -15 -150 -45q-43 -30 -49 -71q-7 -47 32 -67.5t93 -20.5z" />
    <glyph glyph-name="b" unicode="b" 
d="M411 558q121 0 183 -82t43 -202q-19 -121 -106.5 -201.5t-208.5 -80.5q-134 0 -197 104l-15 -96h-55l115 726h55l-43 -272q99 104 229 104zM330 45q99 0 168.5 65t84.5 164q16 98 -33 164t-147 66q-87 0 -155 -59.5t-91 -146.5l-7 -48q-5 -89 43.5 -147t136.5 -58z" />
    <glyph glyph-name="c" unicode="c" horiz-adv-x="630" 
d="M322 -8q-120 0 -181.5 80.5t-42.5 201.5q19 120 106.5 202t206.5 82q79 0 138 -44.5t87 -120.5h-62q-21 51 -65.5 81t-105.5 30q-95 0 -165 -66.5t-86 -163.5q-15 -98 33.5 -163.5t144.5 -65.5q124 0 206 107l64 3q-55 -76 -127 -119.5t-151 -43.5z" />
    <glyph glyph-name="d" unicode="d" 
d="M413 558q137 0 198 -103l43 271h55l-115 -726h-55l15 95q-93 -103 -230 -103q-121 0 -183 80.5t-43 201.5t107 202.5t208 81.5zM332 45q88 0 155.5 58.5t90.5 145.5l8 48q4 89 -44.5 148t-136.5 59q-96 0 -166.5 -66.5t-86.5 -163.5q-15 -98 34.5 -163.5t145.5 -65.5z
" />
    <glyph glyph-name="e" unicode="e" 
d="M549 152h64q-55 -74 -130.5 -117t-157.5 -43q-126 0 -186.5 78t-40.5 204q19 120 106.5 202t206.5 82q121 0 182.5 -86.5t39.5 -226.5h-483q-6 -89 43.5 -144.5t139.5 -55.5q130 0 216 107zM403 504q-88 0 -155.5 -58t-89.5 -148h428q7 90 -42.5 148t-140.5 58z" />
    <glyph glyph-name="f" unicode="f" horiz-adv-x="510" 
d="M370 617q-41 -31 -52 -56h174l-8 -52h-178l-86 -509h-55l86 509h-115l8 52h116q17 52 82 97q80 56 227 56l-8 -52q-122 0 -191 -45z" />
    <glyph glyph-name="g" unicode="g" 
d="M611 455l17 106h55l-85 -537q-24 -118 -110 -194.5t-204 -76.5q-89 0 -148.5 52t-79.5 140h57q18 -65 64 -102t115 -37q91 0 160.5 63t90.5 155l11 69q-94 -102 -230 -102q-121 0 -183 81t-43 201q19 121 106.5 202.5t208.5 81.5q135 0 198 -102zM577 240l11 67
q0 85 -49 140.5t-134 55.5q-96 0 -166.5 -66t-86.5 -164q-15 -97 34.5 -163t145.5 -66q85 0 152 56t93 140z" />
    <glyph glyph-name="h" unicode="h" 
d="M157 297l-47 -297h-55l115 726h55l-43 -271q95 103 229 103q121 0 183 -82t43 -202l-43 -274h-54l43 274q16 97 -33.5 163.5t-146.5 66.5q-87 0 -154 -59t-92 -148z" />
    <glyph glyph-name="i" unicode="i" horiz-adv-x="193" 
d="M199 643q-17 0 -27.5 12t-8.5 30q3 18 17 29.5t32 11.5q17 0 29 -12q8 -13 5 -29q-2 -19 -15.5 -30.5t-31.5 -11.5zM125 0h-55l89 562h55z" />
    <glyph glyph-name="j" unicode="j" horiz-adv-x="186" 
d="M205 726q17 0 29 -12q8 -11 5 -29q-2 -19 -15.5 -30.5t-31.5 -11.5q-17 0 -27 12t-8 30q3 18 16.5 29.5t31.5 11.5zM51 -76l101 637h54l-101 -637q-12 -76 -59.5 -125t-122.5 -49q-50 0 -92 36l33 54q31 -37 68 -37q49 0 80 34.5t39 86.5z" />
    <glyph glyph-name="k" unicode="k" horiz-adv-x="567" 
d="M601 561l-284 -234l192 -327h-70l-169 288l-131 -106l-29 -182h-55l115 726h55l-74 -469l369 304h81z" />
    <glyph glyph-name="l" unicode="l" horiz-adv-x="291" 
d="M76 130l94 596h55l-94 -596q-15 -87 42 -87q26 0 73 21l-9 -60q-41 -13 -72 -13q-112 0 -89 139z" />
    <glyph glyph-name="m" unicode="m" horiz-adv-x="973" 
d="M779 559q102 0 151.5 -82t30.5 -203l-43 -275h-53l43 275q16 97 -22 163t-116 66q-77 0 -136.5 -66t-75.5 -163l-43 -275h-53l43 275q16 97 -22.5 163t-115.5 66q-71 0 -127.5 -58.5t-79.5 -146.5l-47 -299h-55l86 560h54l-14 -95q84 95 192 95q67 0 113 -39.5t65 -105.5
q39 66 98.5 105.5t126.5 39.5z" />
    <glyph glyph-name="n" unicode="n" horiz-adv-x="652" 
d="M161 297l-47 -297h-55l85 561h55l-14 -105q86 102 231 102q120 0 181.5 -81.5t42.5 -202.5l-43 -274h-52l43 274q16 97 -34 163.5t-146 66.5q-87 0 -154.5 -59.5t-92.5 -147.5z" />
    <glyph glyph-name="o" unicode="o" 
d="M98 274q19 120 106.5 202t206.5 82q121 0 183 -82t43 -202q-19 -121 -106.5 -201.5t-208.5 -80.5q-120 0 -181.5 80.5t-42.5 201.5zM583 274q16 98 -33 164t-147 66q-95 0 -165 -66.5t-86 -163.5q-15 -98 33.5 -163.5t144.5 -65.5q99 0 168.5 65t84.5 164z" />
    <glyph glyph-name="p" unicode="p" 
d="M322 -7q-136 0 -197 103l-41 -260h-55l115 723h55l-17 -103q95 103 230 103q121 0 183 -81.5t43 -202.5q-19 -120 -107 -201t-209 -81zM403 505q-87 0 -154 -58.5t-91 -146.5l-8 -48q-3 -88 45.5 -147t134.5 -59q97 0 168 66t86 163q15 98 -34 164t-147 66z" />
    <glyph glyph-name="q" unicode="q" 
d="M324 -7q-121 0 -182.5 81t-42.5 201q19 121 106.5 202.5t208.5 81.5q136 0 197 -103l17 103h55l-115 -723h-55l41 260q-93 -103 -230 -103zM405 505q-96 0 -166.5 -66t-85.5 -164q-15 -97 34 -163t145 -66q88 0 155.5 59t91.5 147l8 48q3 88 -45.5 146.5t-136.5 58.5z
" />
    <glyph glyph-name="r" unicode="r" horiz-adv-x="530" 
d="M161 297l-47 -297h-55l85 561h55l-14 -109q92 106 231 106q71 0 141 -40l-27 -54q-63 40 -122 40q-87 0 -154.5 -59.5t-92.5 -147.5z" />
    <glyph glyph-name="s" unicode="s" horiz-adv-x="589" 
d="M591 399h-55q-16 110 -158 110q-60 0 -120.5 -27.5t-68.5 -79.5q-7 -40 39 -72q61 -22 132 -33q40 -7 64 -12.5t55 -17.5t47.5 -27t26 -40t4.5 -57q-7 -42 -34 -73t-65.5 -47t-76 -23.5t-74.5 -7.5q-111 0 -169 44.5t-57 132.5h56q0 -45 29.5 -74.5t67 -39.5t81.5 -10
q65 0 123.5 24t66.5 76q8 46 -42 69q-40 19 -130 32q-112 22 -150 45q-60 36 -48 111q6 41 33 73.5t64.5 50.5t76.5 27t77 9q99 0 148 -40.5t57 -122.5z" />
    <glyph glyph-name="t" unicode="t" horiz-adv-x="478" 
d="M407 94l23 -47q-60 -56 -132 -56q-141 0 -116 158l57 360h-103l8 52h103l26 165h55l-26 -165h197l-8 -52h-197l-57 -360q-17 -106 69 -106q47 0 101 51z" />
    <glyph glyph-name="u" unicode="u" horiz-adv-x="652" 
d="M578 248l50 313h55l-86 -563h-53l13 100q-93 -108 -234 -108q-121 0 -182.5 80.5t-42.5 201.5l46 289h54l-46 -289q-15 -97 34.5 -163t145.5 -66q88 0 155.5 59t90.5 146z" />
    <glyph glyph-name="v" unicode="v" horiz-adv-x="660" 
d="M329 0l-185 560h61l143 -437l283 438h63z" />
    <glyph glyph-name="w" unicode="w" horiz-adv-x="901" 
d="M525 561h28l110 -413l214 413h58l-291 -561l-121 456l-266 -456l-113 561h57l83 -413z" />
    <glyph glyph-name="x" unicode="x" horiz-adv-x="644" 
d="M575 561h71l-247 -267l190 -294h-75l-160 245l-228 -245h-71l270 292l-175 269h75l145 -222z" />
    <glyph glyph-name="y" unicode="y" horiz-adv-x="613" 
d="M203 561l117 -486l267 486h60l-371 -676q-44 -75 -81 -105q-44 -30 -99 -30q-31 0 -61 13l11 64q33 -23 60 -23q34 0 60 19q27 20 60 80l53 97l-135 561h59z" />
    <glyph glyph-name="z" unicode="z" horiz-adv-x="571" 
d="M152 52h372l-8 -52h-452l6 41l434 468h-368l8 52h446l-7 -41z" />
    <glyph glyph-name="braceleft" unicode="{" horiz-adv-x="309" 
d="M290 673l-40 -252q-11 -69 -70 -104q48 -34 37 -105l-40 -253q-7 -42 17.5 -62.5t72.5 -20.5l-8 -53q-73 0 -111 34t-26 102l40 253q4 35 -17 58q-28 21 -90 21l8 52q119 0 132 78l40 252q11 68 59 101.5t121 33.5l-8 -52q-105 0 -117 -83z" />
    <glyph glyph-name="bar" unicode="|" horiz-adv-x="221" 
d="M109 -175h-53l155 974h53z" />
    <glyph glyph-name="braceright" unicode="}" horiz-adv-x="309" 
d="M289 673l-40 -252q-7 -42 23.5 -60t81.5 -18l-8 -52q-119 0 -130 -79l-40 -253q-12 -69 -60.5 -102.5t-121.5 -33.5l8 53q105 0 119 83l40 253q11 70 69 105q-48 36 -36 104l40 252q6 38 -14 61q-20 22 -78 22l8 52q74 0 112 -33.5t27 -101.5z" />
    <glyph glyph-name="asciitilde" unicode="~" horiz-adv-x="549" 
d="M517 451h56q-39 -138 -142 -138q-38 0 -64 12l-5 3q-28 13 -47 27q-33 24 -45 28q-19 8 -38 8q-32 0 -49.5 -21.5t-29.5 -61.5h-57q42 136 144 136q43 0 64 -11h-1q42 -24 51 -31l5 -4q42 -31 80 -31q31 0 48.5 22t29.5 62z" />
    <glyph glyph-name="exclamdown" unicode="&#xa1;" horiz-adv-x="227" 
d="M190 480q-17 0 -27.5 12t-7.5 30q3 19 16 30.5t32 11.5q17 0 31 -11q7 -13 5 -31q-3 -19 -16.5 -30.5t-32.5 -11.5zM148 382h55l-87 -548h-55z" />
    <glyph glyph-name="cent" unicode="&#xa2;" horiz-adv-x="607" 
d="M528 192l52 -16q-31 -83 -97 -131.5t-148 -53.5l-15 -95h-53l15 96q-74 7 -118.5 49t-57 102.5t-0.5 135.5q18 117 87 198t180 91l15 95h53l-15 -94q168 -10 184 -173l-55 -24q-12 136 -137 144l-75 -472q65 6 114.5 44t70.5 104zM290 45l74 469q-87 -14 -138 -77.5
t-66 -157.5q-15 -91 16.5 -156.5t113.5 -77.5z" />
    <glyph glyph-name="sterling" unicode="&#xa3;" horiz-adv-x="638" 
d="M571 159h53q-26 -168 -178 -168q-46 0 -75 12.5t-63 42.5q-28 -23 -64 -37q-39 -18 -92 -18q-46 0 -79.5 21.5t-26.5 65.5q8 47 50 69t91 22q69 0 122 -46q19 28 23 56q6 39 -3 68t-31 68h-149l8 54h108q-43 84 -31 158q15 96 85.5 152t167.5 56q86 0 131 -47t41 -135
l-58 -22q5 71 -26.5 111.5t-95.5 40.5q-75 0 -126.5 -41t-63.5 -115q-4 -33 4 -71q2 -4 8 -15.5t9 -18.5q21 -40 25 -53h229l-8 -54h-190q8 -16 22 -52q5 -42 -1 -81q-9 -51 -38 -94q52 -45 105 -45q52 0 79 28.5t38 87.5zM160 43q63 0 111 38q-18 15 -34 23q-26 12 -58 12
q-25 0 -49.5 -9t-27.5 -29q-1 -11 12 -23q12 -12 46 -12z" />
    <glyph glyph-name="currency" unicode="&#xa4;" horiz-adv-x="690" 
d="M605 366q-12 -76 -56 -129l93 -111l-46 -40l-92 110q-55 -41 -134 -41q-76 0 -122 40l-126 -109l-34 41l127 110q-28 51 -16 129q12 77 54 126l-90 107l46 41l87 -107q57 43 140 43q81 0 124 -43l123 107l34 -40l-126 -109q26 -50 14 -125zM378 207q69 0 115 44.5
t57 114.5t-21.5 113t-100.5 43q-70 0 -116.5 -43t-57.5 -113q-12 -71 21 -115t103 -44z" />
    <glyph glyph-name="yen" unicode="&#xa5;" horiz-adv-x="666" 
d="M387 341l280 385h65l-299 -406h194l-9 -52h-216l-12 -76h216l-8 -54h-216l-22 -138h-54l22 138h-215l8 54h215l12 76h-215l9 52h193l-172 406h66z" />
    <glyph glyph-name="brokenbar" unicode="&#xa6;" horiz-adv-x="236" 
d="M205 379h-54l67 420h54zM117 -175h-54l67 420h54z" />
    <glyph glyph-name="section" unicode="&#xa7;" horiz-adv-x="600" 
d="M610 297q-8 -48 -42 -82t-83 -52q19 -15 27 -29q15 -38 8 -84q-13 -81 -80.5 -122.5t-152.5 -41.5q-164 0 -188 115l52 32q19 -94 144 -94q61 0 111 27t59 83q4 25 -6 45t-25.5 31.5t-43 21t-45.5 12.5t-47 8q-33 5 -56.5 10t-54 17t-48.5 27.5t-28.5 42.5t-5.5 61
q16 93 127 134q-48 40 -36 113q13 81 80 122t153 41q161 0 190 -114l-56 -32q-15 94 -142 94q-61 0 -110.5 -27t-58.5 -83q-4 -26 6 -46t24.5 -31t43.5 -20.5t45.5 -12.5t46.5 -8q35 -5 57.5 -9.5t54 -16t48.5 -27t27.5 -42.5t4.5 -63zM419 196q125 24 138 101q6 40 -24 62
q-35 24 -131 43q-53 6 -109 22q-48 -8 -87 -33t-46 -66q-3 -27 7 -45q13 -22 59 -37t91 -22q51 -8 102 -25z" />
    <glyph glyph-name="dieresis" unicode="&#xa8;" horiz-adv-x="385" 
d="M209 706q14 0 28 -9q10 -14 6 -33q-3 -18 -16 -29.5t-31 -11.5t-28 11.5t-8 29.5q3 19 16 30.5t33 11.5zM400 706q17 0 29 -10q9 -14 6 -32t-16 -29.5t-32 -11.5q-18 0 -29 11.5t-8 29.5t18 33q18 9 32 9z" />
    <glyph glyph-name="copyright" unicode="&#xa9;" horiz-adv-x="872" 
d="M436 735q169 0 271.5 -101t102.5 -271q0 -167 -102 -269.5t-272 -102.5q-167 0 -270.5 101t-103.5 271q0 168 101.5 270t272.5 102zM436 683q-141 0 -230.5 -88.5t-89.5 -231.5q0 -141 88.5 -230.5t231.5 -89.5q141 0 230 88.5t89 231.5q0 141 -88 230.5t-231 89.5z
M447 148q-89 0 -146.5 60t-57.5 153t57.5 152.5t146.5 59.5q58 0 108.5 -35t83.5 -98h-59q-49 81 -133 81q-66 0 -107.5 -45.5t-41.5 -114.5q0 -70 41.5 -114.5t107.5 -44.5q84 0 132 77l60 3q-33 -63 -83.5 -98.5t-108.5 -35.5z" />
    <glyph glyph-name="ordfeminine" unicode="&#xaa;" horiz-adv-x="497" 
d="M427 42q5 0 38 11l-8 -52q-16 -6 -25 -6q-4 -1 -11 -1q-60 0 -65 52q-71 -52 -174 -52q-59 0 -97 25.5t-29 81.5q16 102 181 125l148 24l4 28q8 46 -26.5 69t-85.5 23q-52 0 -85 -22.5t-66 -79.5l-33 34q35 63 80.5 89.5t110.5 26.5q75 0 121 -34t35 -106l-32 -201
q-6 -35 19 -35zM194 42q32 0 67 8t67.5 29.5t37.5 52.5l11 67l-131 -19q-68 -10 -107 -32q-28 -23 -32 -47q-5 -27 17 -41q21 -18 70 -18z" />
    <glyph glyph-name="guillemotleft" unicode="&#xab;" horiz-adv-x="463" 
d="M226 72l-128 224l199 223h70l-198 -223l127 -224h-70zM350 72l-130 224l201 223h69l-199 -223l128 -224h-69z" />
    <glyph glyph-name="logicalnot" unicode="&#xac;" horiz-adv-x="676" 
d="M565 184l22 138h-451l8 53h507l-30 -191h-56z" />
    <glyph glyph-name="uni00AD" unicode="&#xad;" horiz-adv-x="481" 
d="M449 273h-331l9 55h331z" />
    <glyph glyph-name="registered" unicode="&#xae;" horiz-adv-x="872" 
d="M436 735q169 0 271.5 -101t102.5 -271q0 -167 -102 -269.5t-272 -102.5q-167 0 -270.5 101t-103.5 271q0 168 101.5 270t272.5 102zM436 43q141 0 230 88.5t89 231.5q0 141 -88 230.5t-231 89.5q-141 0 -230.5 -88.5t-89.5 -231.5q0 -141 88.5 -230.5t231.5 -89.5z
M507 338l126 -190h-64l-123 187h-105v-187h-54v425h173q152 0 152 -120q0 -61 -43 -92q-24 -17 -62 -23zM460 522h-119v-137h119q100 0 100 68q0 69 -100 69z" />
    <glyph glyph-name="macron" unicode="&#xaf;" horiz-adv-x="447" 
d="M492 630h-337l8 53h337z" />
    <glyph glyph-name="degree" unicode="&#xb0;" horiz-adv-x="360" 
d="M282 655q-64 0 -98.5 41t-24.5 105q10 65 57 105t112 40q66 0 99 -40t23 -105q-11 -64 -57 -105t-111 -41zM290 706q43 0 71.5 26t35.5 69t-13.5 68.5t-63.5 25.5q-42 0 -70.5 -25.5t-35.5 -68.5t13.5 -69t62.5 -26z" />
    <glyph glyph-name="plusminus" unicode="&#xb1;" horiz-adv-x="676" 
d="M380 427l41 259h53l-41 -259h227l-9 -52h-227l-41 -264h-53l41 264h-227l9 52h227zM93 53h507l-8 -53h-507z" />
    <glyph glyph-name="uni00B2" unicode="&#xb2;" horiz-adv-x="338" 
d="M200 571h209l-7 -47h-296l6 37l12 9l-1 1h2q120 89 154 117q97 82 106 136q6 42 -15 64.5t-63 22.5q-41 0 -74 -25q-28 -27 -42 -88h-48q16 75 59.5 117.5t112.5 42.5q64 0 96 -35t22 -99q-5 -32 -22 -62.5t-46 -58.5t-51 -46t-58 -44z" />
    <glyph glyph-name="uni00B3" unicode="&#xb3;" horiz-adv-x="303" 
d="M364 746q18 -15 25.5 -42.5t3.5 -51.5q-8 -54 -52.5 -87.5t-99.5 -33.5q-116 0 -129 121l51 5q3 -42 22 -63q30 -17 63 -17q35 0 63.5 20.5t33.5 55.5q5 29 -11 49q-19 19 -54 19h-76l8 47h76q33 0 57 17.5t29 49.5q6 34 -15.5 54.5t-57.5 20.5q-78 0 -110 -79l-50 5
q50 120 167 120q57 0 90 -32t24 -88q-9 -59 -58 -90z" />
    <glyph glyph-name="acute" unicode="&#xb4;" horiz-adv-x="286" 
d="M358 799l-145 -192h-62l143 192h64z" />
    <glyph glyph-name="uni00B5" unicode="&#xb5;" horiz-adv-x="611" 
d="M510 223l52 327h54l-87 -550h-54l12 77q-41 -41 -96.5 -63.5t-111.5 -22.5q-89 0 -136 56l-41 -261h-55l121 764h55l-57 -358q-11 -69 22 -109t102 -40q77 0 142.5 52t77.5 128z" />
    <glyph glyph-name="paragraph" unicode="&#xb6;" horiz-adv-x="583" 
d="M406 726h203l-131 -830h-55l123 777h-107l-123 -777h-56l58 369q-104 4 -164 64.5t-43 165.5q17 108 100.5 169.5t194.5 61.5zM327 319l55 353q-83 -7 -142.5 -51.5t-72.5 -125.5q-12 -79 33.5 -124.5t126.5 -51.5z" />
    <glyph glyph-name="periodcentered" unicode="&#xb7;" horiz-adv-x="247" 
d="M193 436q18 0 28 -12t7 -30q-2 -18 -15.5 -30t-32.5 -12q-18 0 -29 12t-8 30q3 17 18 32q15 10 32 10z" />
    <glyph glyph-name="cedilla" unicode="&#xb8;" horiz-adv-x="343" 
d="M119 11l13 31h38q28 -15 43 -25.5t33 -28t24 -40t2 -51.5q-8 -49 -43.5 -78t-84.5 -29q-28 0 -49 6l-1 -2q-42 21 -62 59l40 45q19 -30 35.5 -43t44.5 -13q25 0 44 14q19 17 23 40q3 19 -5 36.5t-27.5 33t-32 24t-35.5 21.5z" />
    <glyph glyph-name="uni00B9" unicode="&#xb9;" horiz-adv-x="362" 
d="M309 946h42l-66 -415h-48l52 325q-44 -32 -95 -49l-15 44q91 30 130 95z" />
    <glyph glyph-name="ordmasculine" unicode="&#xba;" horiz-adv-x="465" 
d="M69 198q14 86 77.5 145t149.5 59t131 -59t31 -145q-14 -87 -77 -145t-150 -58q-86 0 -131 57.5t-31 145.5zM408 198q11 65 -22 109.5t-98 44.5q-64 0 -111.5 -44.5t-58.5 -109.5q-10 -66 23 -110.5t98 -44.5q66 0 112.5 44.5t56.5 110.5z" />
    <glyph glyph-name="guillemotright" unicode="&#xbb;" horiz-adv-x="460" 
d="M132 72h-70l200 224l-129 223h70l130 -223zM255 72h-70l200 224l-129 223h70l130 -223z" />
    <glyph glyph-name="onequarter" unicode="&#xbc;" horiz-adv-x="1302" 
d="M812 799l-424 -872h-57l424 872h57zM154 506l-11 51q144 50 225 169h47l-115 -726h-55l98 616q-76 -72 -189 -110zM1166 726h51l-73 -459h145l-8 -53h-145l-34 -214h-55l34 214h-347l6 39zM1147 630l-14 -15l-314 -348h270z" />
    <glyph glyph-name="onehalf" unicode="&#xbd;" horiz-adv-x="1286" 
d="M812 799l-424 -872h-57l424 872h57zM844 53h395l-8 -53h-459l-4 -3l1 3h-32l7 43q200 149 289 220q177 142 195 252q13 80 -27.5 124t-122.5 44q-86 0 -143 -54t-76 -146h-56q26 117 99 184.5t184 67.5q106 0 159 -57t37 -163q-23 -137 -205 -283q-100 -79 -233 -179z
M154 506l-11 51q144 50 225 169h47l-115 -726h-55l98 616q-76 -72 -189 -110z" />
    <glyph glyph-name="threequarters" unicode="&#xbe;" horiz-adv-x="1536" 
d="M1046 799l-423 -872h-57l423 872h57zM620 536q-9 -55 -40 -100t-80 -68q39 -21 56.5 -71t9.5 -100q-14 -93 -89.5 -149.5t-170.5 -56.5q-98 0 -156 47.5t-66 145.5l58 3q6 -70 45 -108q49 -36 127 -36q72 0 129 42t68 113q11 68 -26.5 105t-108.5 37h-124l8 52h124
q72 0 124 40q47 42 57 103q11 70 -32.5 112t-116.5 42q-156 0 -218 -144l-56 3q77 194 283 194q95 0 152.5 -56t42.5 -150zM1400 726h52l-73 -459h144l-8 -53h-144l-34 -214h-56l34 214h-347l6 39zM1381 630l-14 -15l-313 -348h269z" />
    <glyph glyph-name="questiondown" unicode="&#xbf;" horiz-adv-x="532" 
d="M352 475q-19 0 -28.5 11.5t-6.5 31.5q4 20 16 32q15 9 33 9t29 -11q8 -14 6 -30q-3 -19 -16.5 -31t-32.5 -12zM231 -182q-95 0 -147.5 51t-38.5 144q16 100 77.5 156t167.5 88l22 141h55l-28 -180q-53 -16 -86.5 -29.5t-68.5 -36.5t-55 -57.5t-28 -81.5
q-11 -67 29.5 -104t109.5 -37q88 0 139 41.5t80 135.5l46 -24q-32 -108 -99.5 -157.5t-174.5 -49.5z" />
    <glyph glyph-name="Agrave" unicode="&#xc0;" horiz-adv-x="831" 
d="M624 763h-61l-85 191h65zM55 0l480 752l241 -752h-62l-73 228h-379l-144 -228h-63zM295 280h328l-108 345z" />
    <glyph glyph-name="Aacute" unicode="&#xc1;" horiz-adv-x="831" 
d="M654 954l-144 -191h-62l142 191h64zM55 0l480 752l241 -752h-62l-73 228h-379l-144 -228h-63zM295 280h328l-108 345z" />
    <glyph glyph-name="Acircumflex" unicode="&#xc2;" horiz-adv-x="831" 
d="M374 763l172 186h38l114 -186h-67l-75 120l-114 -120h-68zM55 0l480 752l241 -752h-62l-73 228h-379l-144 -228h-63zM295 280h328l-108 345z" />
    <glyph glyph-name="Atilde" unicode="&#xc3;" horiz-adv-x="831" 
d="M692 905h54q-20 -61 -49 -93t-81 -32q-55 0 -91 42q-23 29 -52 29q-18 0 -31.5 -11t-19.5 -24t-15 -37h-56q23 62 51.5 94t80.5 32q32 0 48.5 -9t40.5 -34q24 -29 52 -29q25 0 39 17.5t29 54.5zM55 0l480 752l241 -752h-62l-73 228h-379l-144 -228h-63zM295 280h328
l-108 345z" />
    <glyph glyph-name="Adieresis" unicode="&#xc4;" horiz-adv-x="831" 
d="M456 863q17 0 29 -12q9 -16 6 -30q-3 -19 -16.5 -30.5t-32.5 -11.5q-18 0 -27.5 12t-6.5 30t16.5 30t31.5 12zM648 863q17 0 29 -12q9 -16 6 -30q-3 -19 -16.5 -30.5t-32.5 -11.5t-29 11t-7 31q3 17 18 32q17 10 32 10zM55 0l480 752l241 -752h-62l-73 228h-379
l-144 -228h-63zM295 280h328l-108 345z" />
    <glyph glyph-name="Aring" unicode="&#xc5;" horiz-adv-x="831" 
d="M568 960q45 0 70 -28.5t18 -73.5t-41 -74t-79 -29t-70 29t-18 74q7 44 41 73t79 29zM560 907q-21 0 -37.5 -14.5t-19.5 -34.5q-3 -21 8.5 -36t32.5 -15t37 15t20 36q3 21 -9 35t-32 14zM55 0l480 752l241 -752h-62l-73 228h-379l-144 -228h-63zM295 280h328l-108 345z
" />
    <glyph glyph-name="AE" unicode="&#xc6;" horiz-adv-x="971" 
d="M957 53l-8 -53h-552l36 228h-171l-144 -228h-63l464 726h545l-8 -53h-495l-45 -284h375l-9 -53h-375l-45 -283h495zM295 280h146l48 302z" />
    <glyph glyph-name="Ccedilla" unicode="&#xc7;" horiz-adv-x="825" 
d="M751 239h57q-24 -48 -33 -60q-4 -6 -6 -10q-108 -147 -281 -174h-5q46 -41 37 -103q-8 -49 -43.5 -78t-84.5 -29q-28 0 -49 6v-2q-43 21 -63 59l40 45q19 -30 35.5 -43t44.5 -13q25 0 44 14q19 17 23 40q8 51 -74 99q-149 9 -227.5 112.5t-53.5 259.5q26 161 144 266.5
t280 105.5q105 0 181 -46.5t114 -135.5l2 -33l-53 3q-31 78 -97 119t-155 41q-135 0 -237.5 -91t-124.5 -229q-19 -123 39 -211.5t172 -104.5q1 0 1 -1q24 -3 49 -3q89 0 166.5 39.5t130.5 115.5l8 10z" />
    <glyph glyph-name="Egrave" unicode="&#xc8;" horiz-adv-x="660" 
d="M539 763h-61l-85 191h66zM549 389l-9 -53h-376l-45 -283h494l-8 -53h-550l115 726h550l-8 -53h-494l-45 -284h376z" />
    <glyph glyph-name="Eacute" unicode="&#xc9;" horiz-adv-x="660" 
d="M569 954l-143 -191h-63l142 191h64zM549 389l-9 -53h-376l-45 -283h494l-8 -53h-550l115 726h550l-8 -53h-494l-45 -284h376z" />
    <glyph glyph-name="Ecircumflex" unicode="&#xca;" horiz-adv-x="660" 
d="M290 763l171 186h39l113 -186h-67l-75 120l-113 -120h-68zM549 389l-9 -53h-376l-45 -283h494l-8 -53h-550l115 726h550l-8 -53h-494l-45 -284h376z" />
    <glyph glyph-name="Edieresis" unicode="&#xcb;" horiz-adv-x="660" 
d="M372 863q16 0 28 -12q9 -14 6 -30q-3 -19 -16.5 -30.5t-31.5 -11.5q-19 0 -28.5 12t-6.5 30t16.5 30t32.5 12zM563 863q18 0 30 -12q8 -17 5 -30q-3 -19 -16.5 -30.5t-32.5 -11.5t-29 11t-7 31q3 17 18 32q17 10 32 10zM549 389l-9 -53h-376l-45 -283h494l-8 -53h-550
l115 726h550l-8 -53h-494l-45 -284h376z" />
    <glyph glyph-name="Igrave" unicode="&#xcc;" horiz-adv-x="191" 
d="M305 763h-61l-85 191h65zM124 0h-55l115 726h55z" />
    <glyph glyph-name="Iacute" unicode="&#xcd;" horiz-adv-x="191" 
d="M335 954l-143 -191h-63l142 191h64zM124 0h-55l115 726h55z" />
    <glyph glyph-name="Icircumflex" unicode="&#xce;" horiz-adv-x="195" 
d="M57 763l173 186h38l113 -186h-67l-75 120l-114 -120h-68zM126 0h-55l115 726h55z" />
    <glyph glyph-name="Idieresis" unicode="&#xcf;" horiz-adv-x="152" 
d="M117 863q18 0 28 -12t7 -30t-17 -30t-32 -12q-19 0 -28.5 11.5t-6.5 30.5q4 18 17 30t32 12zM309 863q19 0 29 -12t6 -30q-3 -19 -16.5 -30.5t-32.5 -11.5q-18 0 -28 11t-7 31q3 18 17 32q17 10 32 10zM104 0h-55l115 726h55z" />
    <glyph glyph-name="Eth" unicode="&#xd0;" horiz-adv-x="708" 
d="M296 0h-247l68 432h-128l9 55h128l38 239h247q174 0 250.5 -93.5t49.5 -268.5q-58 -364 -415 -364zM403 673h-193l-30 -186h149l-9 -55h-149l-60 -379h193q303 0 352 311q23 146 -40 229q-67 80 -213 80z" />
    <glyph glyph-name="Ntilde" unicode="&#xd1;" horiz-adv-x="664" 
d="M608 905h55q-22 -62 -50 -93.5t-81 -31.5q-55 0 -91 42q-23 29 -52 29q-26 0 -39.5 -18t-25.5 -54h-57q23 62 51.5 94t80.5 32q32 0 48.5 -9t40.5 -34q24 -29 52 -29q26 0 39.5 17.5t28.5 54.5zM221 726l350 -628l98 628h55l-115 -726h-52l-349 628l-98 -628h-55l115 726
h51z" />
    <glyph glyph-name="Ograve" unicode="&#xd2;" horiz-adv-x="843" 
d="M630 763h-61l-85 191h65zM418 -10q-160 0 -246 104.5t-60 267.5q26 161 144 266.5t280 105.5t248.5 -104t60.5 -268q-25 -161 -144 -266.5t-283 -105.5zM427 42q138 0 240 90.5t124 229.5q22 138 -50.5 229t-212.5 91q-135 0 -237.5 -91t-124.5 -229
q-21 -137 51.5 -228.5t209.5 -91.5z" />
    <glyph glyph-name="Oacute" unicode="&#xd3;" horiz-adv-x="843" 
d="M660 954l-144 -191h-62l142 191h64zM418 -10q-160 0 -246 104.5t-60 267.5q26 161 144 266.5t280 105.5t248.5 -104t60.5 -268q-25 -161 -144 -266.5t-283 -105.5zM427 42q138 0 240 90.5t124 229.5q22 138 -50.5 229t-212.5 91q-135 0 -237.5 -91t-124.5 -229
q-21 -137 51.5 -228.5t209.5 -91.5z" />
    <glyph glyph-name="Ocircumflex" unicode="&#xd4;" horiz-adv-x="843" 
d="M380 763l173 186h38l113 -186h-67l-76 120l-113 -120h-68zM418 -10q-160 0 -246 104.5t-60 267.5q26 161 144 266.5t280 105.5t248.5 -104t60.5 -268q-25 -161 -144 -266.5t-283 -105.5zM427 42q138 0 240 90.5t124 229.5q22 138 -50.5 229t-212.5 91q-135 0 -237.5 -91
t-124.5 -229q-21 -137 51.5 -228.5t209.5 -91.5z" />
    <glyph glyph-name="Otilde" unicode="&#xd5;" horiz-adv-x="843" 
d="M698 905h54q-20 -61 -49 -93t-82 -32t-89 42q-24 29 -52 29q-26 0 -40 -18t-27 -54h-56q22 61 51 93.5t81 32.5q32 0 50 -9.5t39 -33.5q22 -29 51 -29q26 0 40.5 18t28.5 54zM418 -10q-160 0 -246 104.5t-60 267.5q26 161 144 266.5t280 105.5t248.5 -104t60.5 -268
q-25 -161 -144 -266.5t-283 -105.5zM427 42q138 0 240 90.5t124 229.5q22 138 -50.5 229t-212.5 91q-135 0 -237.5 -91t-124.5 -229q-21 -137 51.5 -228.5t209.5 -91.5z" />
    <glyph glyph-name="Odieresis" unicode="&#xd6;" horiz-adv-x="843" 
d="M462 863q17 0 29 -12q9 -16 6 -30q-3 -19 -16.5 -30.5t-32.5 -11.5q-17 0 -27.5 12t-7.5 30t17 30t32 12zM655 863q16 0 28 -12q9 -14 6 -30q-3 -19 -16.5 -30.5t-31.5 -11.5q-42 0 -36 42q4 20 17 32q15 10 33 10zM418 -10q-160 0 -246 104.5t-60 267.5
q26 161 144 266.5t280 105.5t248.5 -104t60.5 -268q-25 -161 -144 -266.5t-283 -105.5zM427 42q138 0 240 90.5t124 229.5q22 138 -50.5 229t-212.5 91q-135 0 -237.5 -91t-124.5 -229q-21 -137 51.5 -228.5t209.5 -91.5z" />
    <glyph glyph-name="multiply" unicode="&#xd7;" horiz-adv-x="700" 
d="M266 557l145 -170l199 171l36 -41l-199 -172l142 -172l-46 -43l-145 172l-199 -172l-35 43l199 172l-145 172z" />
    <glyph glyph-name="Oslash" unicode="&#xd8;" horiz-adv-x="843" 
d="M332 -2l-36 -71h-58l41 88q-66 26 -108.5 80t-56.5 122.5t-2 144.5q26 161 144 266.5t280 105.5q58 0 90 -8l36 73h58l-44 -89q99 -40 143.5 -135.5t25.5 -212.5q-25 -161 -144 -266.5t-283 -105.5q-50 0 -86 8zM305 66l296 609q-39 7 -73 7q-135 0 -237.5 -91
t-124.5 -229q-15 -96 22 -177t117 -119zM427 42q138 0 240 90.5t124 229.5q15 91 -15 165q-19 49 -47.5 78.5t-77.5 53.5l-295 -609q35 -8 71 -8z" />
    <glyph glyph-name="Ugrave" unicode="&#xd9;" horiz-adv-x="666" 
d="M542 763h-61l-85 191h66zM594 238l77 488h55l-77 -488q-39 -247 -317 -247q-133 0 -196.5 58t-42.5 189l77 488h55l-77 -488q-31 -195 192 -195t254 195z" />
    <glyph glyph-name="Uacute" unicode="&#xda;" horiz-adv-x="666" 
d="M572 954l-143 -191h-63l142 191h64zM594 238l77 488h55l-77 -488q-39 -247 -317 -247q-133 0 -196.5 58t-42.5 189l77 488h55l-77 -488q-31 -195 192 -195t254 195z" />
    <glyph glyph-name="Ucircumflex" unicode="&#xdb;" horiz-adv-x="666" 
d="M292 763l172 186h38l114 -186h-67l-75 120l-113 -120h-69zM594 238l77 488h55l-77 -488q-39 -247 -317 -247q-133 0 -196.5 58t-42.5 189l77 488h55l-77 -488q-31 -195 192 -195t254 195z" />
    <glyph glyph-name="Udieresis" unicode="&#xdc;" horiz-adv-x="666" 
d="M375 863q16 0 28 -12q9 -14 6 -30q-3 -19 -16.5 -30.5t-31.5 -11.5q-19 0 -28.5 12t-6.5 30t16.5 30t32.5 12zM566 863q18 0 29 -12q9 -16 6 -30q-3 -19 -16.5 -30.5t-32.5 -11.5t-29 11t-7 31q3 17 18 32q17 10 32 10zM594 238l77 488h55l-77 -488q-39 -247 -317 -247
q-133 0 -196.5 58t-42.5 189l77 488h55l-77 -488q-31 -195 192 -195t254 195z" />
    <glyph glyph-name="Yacute" unicode="&#xdd;" horiz-adv-x="726" 
d="M603 954l-145 -191h-61l142 191h64zM237 726l180 -388l301 388h68l-352 -446l-44 -280h-54l44 280l-210 446h67z" />
    <glyph glyph-name="germandbls" unicode="&#xdf;" horiz-adv-x="521" 
d="M464 377q41 -22 58 -68.5t8 -98.5q-15 -92 -88.5 -148t-168.5 -56q-72 0 -121 25l9 60l29 -16q37 -17 91 -17q71 0 127 42t67 111q11 67 -25.5 103t-105.5 36h-124l9 52h124q68 0 116 36.5t59 103.5q8 50 -10 79q-33 73 -136 73q-148 0 -210 -133l-88 -555h-53l90 570
q33 86 106 128.5t163 42.5q94 0 151 -55t42 -149q-19 -118 -119 -166z" />
    <glyph glyph-name="agrave" unicode="&#xe0;" horiz-adv-x="671" 
d="M517 597h-60l-84 188h64zM578 43q11 0 47 14l-9 -58q-17 -6 -22 -6q-1 -1 -5 -1q-6 -1 -17 -1q-80 0 -83 73q-47 -36 -117 -54.5t-128 -18.5q-35 0 -66 7t-57 22.5t-38.5 44t-6.5 66.5q22 136 242 166l209 32l7 46q11 66 -37.5 100t-119.5 34q-69 0 -116 -27.5t-86 -91.5
l-49 21q46 80 109.5 115t149.5 35q98 0 159 -45.5t46 -140.5l-43 -277q-9 -55 31 -55zM257 43q34 0 71.5 7t75.5 21.5t65.5 41t33.5 61.5l16 101l-188 -28q-98 -15 -150 -45q-43 -30 -49 -71q-7 -47 32 -67.5t93 -20.5z" />
    <glyph glyph-name="aacute" unicode="&#xe1;" horiz-adv-x="671" 
d="M546 785l-141 -188h-61l139 188h63zM578 43q11 0 47 14l-9 -58q-17 -6 -22 -6q-1 -1 -5 -1q-6 -1 -17 -1q-80 0 -83 73q-47 -36 -117 -54.5t-128 -18.5q-35 0 -66 7t-57 22.5t-38.5 44t-6.5 66.5q22 136 242 166l209 32l7 46q11 66 -37.5 100t-119.5 34q-69 0 -116 -27.5
t-86 -91.5l-49 21q46 80 109.5 115t149.5 35q98 0 159 -45.5t46 -140.5l-43 -277q-9 -55 31 -55zM257 43q34 0 71.5 7t75.5 21.5t65.5 41t33.5 61.5l16 101l-188 -28q-98 -15 -150 -45q-43 -30 -49 -71q-7 -47 32 -67.5t93 -20.5z" />
    <glyph glyph-name="acircumflex" unicode="&#xe2;" horiz-adv-x="671" 
d="M271 597l171 184h36l112 -184h-66l-75 119l-111 -119h-67zM578 43q11 0 47 14l-9 -58q-17 -6 -22 -6q-1 -1 -5 -1q-6 -1 -17 -1q-80 0 -83 73q-47 -36 -117 -54.5t-128 -18.5q-35 0 -66 7t-57 22.5t-38.5 44t-6.5 66.5q22 136 242 166l209 32l7 46q11 66 -37.5 100
t-119.5 34q-69 0 -116 -27.5t-86 -91.5l-49 21q46 80 109.5 115t149.5 35q98 0 159 -45.5t46 -140.5l-43 -277q-9 -55 31 -55zM257 43q34 0 71.5 7t75.5 21.5t65.5 41t33.5 61.5l16 101l-188 -28q-98 -15 -150 -45q-43 -30 -49 -71q-7 -47 32 -67.5t93 -20.5z" />
    <glyph glyph-name="atilde" unicode="&#xe3;" horiz-adv-x="671" 
d="M584 737h53q-19 -60 -48.5 -91.5t-81.5 -31.5t-86 41q-24 29 -53 29q-26 0 -39 -17.5t-25 -53.5h-55q18 59 48 91t82 32q31 0 47.5 -9t38.5 -32q24 -29 50 -29t40.5 18t28.5 53zM578 43q11 0 47 14l-9 -58q-17 -6 -22 -6q-1 -1 -5 -1q-6 -1 -17 -1q-80 0 -83 73
q-47 -36 -117 -54.5t-128 -18.5q-35 0 -66 7t-57 22.5t-38.5 44t-6.5 66.5q22 136 242 166l209 32l7 46q11 66 -37.5 100t-119.5 34q-69 0 -116 -27.5t-86 -91.5l-49 21q46 80 109.5 115t149.5 35q98 0 159 -45.5t46 -140.5l-43 -277q-9 -55 31 -55zM257 43q34 0 71.5 7
t75.5 21.5t65.5 41t33.5 61.5l16 101l-188 -28q-98 -15 -150 -45q-43 -30 -49 -71q-7 -47 32 -67.5t93 -20.5z" />
    <glyph glyph-name="adieresis" unicode="&#xe4;" horiz-adv-x="671" 
d="M352 695q40 0 34 -41q-3 -19 -16 -30t-31 -11q-19 0 -28.5 11.5t-6.5 29.5q2 18 15.5 29.5t32.5 11.5zM540 695q20 0 29 -11q8 -14 6 -30q-7 -41 -48 -41q-19 0 -29 10.5t-6 30.5q1 15 17 32q13 9 31 9zM578 43q11 0 47 14l-9 -58q-17 -6 -22 -6q-1 -1 -5 -1
q-6 -1 -17 -1q-80 0 -83 73q-47 -36 -117 -54.5t-128 -18.5q-35 0 -66 7t-57 22.5t-38.5 44t-6.5 66.5q22 136 242 166l209 32l7 46q11 66 -37.5 100t-119.5 34q-69 0 -116 -27.5t-86 -91.5l-49 21q46 80 109.5 115t149.5 35q98 0 159 -45.5t46 -140.5l-43 -277
q-9 -55 31 -55zM257 43q34 0 71.5 7t75.5 21.5t65.5 41t33.5 61.5l16 101l-188 -28q-98 -15 -150 -45q-43 -30 -49 -71q-7 -47 32 -67.5t93 -20.5z" />
    <glyph glyph-name="aring" unicode="&#xe5;" horiz-adv-x="671" 
d="M461 791q45 0 69 -28t17 -73t-40 -72.5t-78 -27.5q-44 0 -68.5 28t-17.5 72t40.5 72.5t77.5 28.5zM453 738q-20 0 -36 -14t-20 -34q-3 -20 8.5 -34t32.5 -14t37 14t19 34q4 21 -8 34.5t-33 13.5zM578 43q11 0 47 14l-9 -58q-17 -6 -22 -6q-1 -1 -5 -1q-6 -1 -17 -1
q-80 0 -83 73q-47 -36 -117 -54.5t-128 -18.5q-35 0 -66 7t-57 22.5t-38.5 44t-6.5 66.5q22 136 242 166l209 32l7 46q11 66 -37.5 100t-119.5 34q-69 0 -116 -27.5t-86 -91.5l-49 21q46 80 109.5 115t149.5 35q98 0 159 -45.5t46 -140.5l-43 -277q-9 -55 31 -55zM257 43
q34 0 71.5 7t75.5 21.5t65.5 41t33.5 61.5l16 101l-188 -28q-98 -15 -150 -45q-43 -30 -49 -71q-7 -47 32 -67.5t93 -20.5z" />
    <glyph glyph-name="ae" unicode="&#xe6;" horiz-adv-x="1013" 
d="M949 151l64 3q-54 -76 -129.5 -119.5t-157.5 -43.5q-71 0 -132.5 33t-95.5 87q-37 -60 -123 -90t-164 -30q-36 0 -66.5 7t-56.5 22.5t-38 44t-6 66.5q6 42 30 73t62 49t72 27.5t78 16.5l207 32l7 46q11 66 -37.5 100t-119.5 34q-72 0 -121 -31t-90 -103l-40 36
q47 81 110 115.5t149 34.5q81 0 138.5 -31t68.5 -96q45 58 107.5 90.5t133.5 32.5q121 0 182 -86.5t39 -226.5h-482q-6 -88 49 -144t147 -56q129 0 215 107zM791 503q-88 0 -155.5 -58t-89.5 -148h427q7 90 -42 148t-140 58zM469 174l16 101l-188 -28q-96 -13 -149 -45
q-43 -29 -49 -71q-7 -47 31.5 -67.5t92.5 -20.5q47 0 96 12t93.5 43t56.5 76z" />
    <glyph glyph-name="ccedilla" unicode="&#xe7;" horiz-adv-x="630" 
d="M536 152l64 3q-97 -134 -227 -158q40 -40 31 -98q-7 -45 -43 -78q-37 -27 -83 -27q-41 0 -65.5 13t-45.5 49l40 46q19 -31 35 -44t44 -13q26 0 44 15q16 13 21 38q7 47 -71 97q-100 14 -149.5 92t-32.5 187q19 120 106.5 202t206.5 82q79 0 138 -44.5t87 -120.5h-62
q-21 51 -65.5 81t-105.5 30q-95 0 -165 -66.5t-86 -163.5q-15 -98 33.5 -163.5t144.5 -65.5q124 0 206 107z" />
    <glyph glyph-name="egrave" unicode="&#xe8;" horiz-adv-x="658" 
d="M507 597h-61l-83 188h64zM549 152h64q-55 -74 -130.5 -117t-157.5 -43q-126 0 -186.5 78t-40.5 204q19 120 106.5 202t206.5 82q121 0 182.5 -86.5t39.5 -226.5h-483q-6 -89 43.5 -144.5t139.5 -55.5q130 0 216 107zM403 504q-88 0 -155.5 -58t-89.5 -148h428
q7 90 -42.5 148t-140.5 58z" />
    <glyph glyph-name="eacute" unicode="&#xe9;" horiz-adv-x="658" 
d="M536 785l-141 -188h-61l139 188h63zM549 152h64q-55 -74 -130.5 -117t-157.5 -43q-126 0 -186.5 78t-40.5 204q19 120 106.5 202t206.5 82q121 0 182.5 -86.5t39.5 -226.5h-483q-6 -89 43.5 -144.5t139.5 -55.5q130 0 216 107zM403 504q-88 0 -155.5 -58t-89.5 -148h428
q7 90 -42.5 148t-140.5 58z" />
    <glyph glyph-name="ecircumflex" unicode="&#xea;" horiz-adv-x="658" 
d="M431 781h38l111 -184h-66l-76 119l-110 -119h-67zM549 152h64q-55 -74 -130.5 -117t-157.5 -43q-126 0 -186.5 78t-40.5 204q19 120 106.5 202t206.5 82q121 0 182.5 -86.5t39.5 -226.5h-483q-6 -89 43.5 -144.5t139.5 -55.5q130 0 216 107zM403 504q-88 0 -155.5 -58
t-89.5 -148h428q7 90 -42.5 148t-140.5 58z" />
    <glyph glyph-name="edieresis" unicode="&#xeb;" horiz-adv-x="658" 
d="M341 695q19 0 28 -11t7 -30q-3 -19 -16.5 -30t-31.5 -11t-28 11.5t-7 29.5q2 18 16 29.5t32 11.5zM530 695q19 0 28 -11t7 -30q-3 -19 -16.5 -30t-31.5 -11q-19 0 -29.5 11t-6.5 30q1 15 17 31q12 10 32 10zM549 152h64q-55 -74 -130.5 -117t-157.5 -43q-126 0 -186.5 78
t-40.5 204q19 120 106.5 202t206.5 82q121 0 182.5 -86.5t39.5 -226.5h-483q-6 -89 43.5 -144.5t139.5 -55.5q130 0 216 107zM403 504q-88 0 -155.5 -58t-89.5 -148h428q7 90 -42.5 148t-140.5 58z" />
    <glyph glyph-name="igrave" unicode="&#xec;" horiz-adv-x="218" 
d="M291 597h-60l-84 188h63zM171 561h55l-89 -561h-55z" />
    <glyph glyph-name="iacute" unicode="&#xed;" horiz-adv-x="218" 
d="M179 597h-61l139 188h63zM171 561h55l-89 -561h-55z" />
    <glyph glyph-name="icircumflex" unicode="&#xee;" horiz-adv-x="219" 
d="M45 597l170 184h38l111 -184h-67l-74 119l-112 -119h-66zM137 0h-55l89 561h55z" />
    <glyph glyph-name="idieresis" unicode="&#xef;" horiz-adv-x="178" 
d="M104 695q19 0 29 -9q9 -15 8 -32q-8 -41 -50 -41q-18 0 -27.5 11t-6.5 30q1 15 15 30q12 11 32 11zM294 695q20 0 29 -11q8 -14 6 -30q-7 -41 -48 -41q-19 0 -29 10.5t-6 30.5q1 15 17 32q13 9 31 9zM117 0h-55l89 561h55z" />
    <glyph glyph-name="eth" unicode="&#xf0;" horiz-adv-x="592" 
d="M596 560l135 46l9 -49l-137 -47q8 -70 -7 -154q-58 -366 -310 -366q-104 0 -158.5 61t-38.5 164q17 104 88.5 165.5t175.5 61.5q65 0 114.5 -30.5t70.5 -83.5l2 16q13 75 5 144l-135 -46l-10 49l136 47q-18 66 -55 100t-107 34q-106 0 -164 -109h-57q74 160 230 160
q84 0 134 -42q24 -19 48.5 -55t30.5 -66zM459 128q28 39 36 88q11 71 -34 122t-116 51q-78 0 -133 -47t-68 -126q-13 -80 28.5 -127t123.5 -47q46 0 90 23t73 63z" />
    <glyph glyph-name="ntilde" unicode="&#xf1;" horiz-adv-x="652" 
d="M575 737h54q-21 -60 -50 -91.5t-80 -31.5q-54 0 -88 41q-23 29 -53 29q-25 0 -38.5 -18t-24.5 -53h-56q20 60 49.5 91.5t80.5 31.5q32 0 48.5 -9t38.5 -32q22 -29 51 -29q25 0 39 17.5t29 53.5zM161 297l-47 -297h-55l85 561h55l-14 -105q86 102 231 102
q120 0 181.5 -81.5t42.5 -202.5l-43 -274h-52l43 274q16 97 -34 163.5t-146 66.5q-87 0 -154.5 -59.5t-92.5 -147.5z" />
    <glyph glyph-name="ograve" unicode="&#xf2;" 
d="M505 592h-60l-83 188h63zM98 274q19 120 106.5 202t206.5 82q121 0 183 -82t43 -202q-19 -121 -106.5 -201.5t-208.5 -80.5q-120 0 -181.5 80.5t-42.5 201.5zM583 274q16 98 -33 164t-147 66q-95 0 -165 -66.5t-86 -163.5q-15 -98 33.5 -163.5t144.5 -65.5q99 0 168.5 65
t84.5 164z" />
    <glyph glyph-name="oacute" unicode="&#xf3;" 
d="M388 586h-61l140 188h63zM98 274q19 120 106.5 202t206.5 82q121 0 183 -82t43 -202q-19 -121 -106.5 -201.5t-208.5 -80.5q-120 0 -181.5 80.5t-42.5 201.5zM583 274q16 98 -33 164t-147 66q-95 0 -165 -66.5t-86 -163.5q-15 -98 33.5 -163.5t144.5 -65.5q99 0 168.5 65
t84.5 164z" />
    <glyph glyph-name="ocircumflex" unicode="&#xf4;" 
d="M261 597l170 184h38l111 -184h-66l-76 119l-110 -119h-67zM98 274q19 120 106.5 202t206.5 82q121 0 183 -82t43 -202q-19 -121 -106.5 -201.5t-208.5 -80.5q-120 0 -181.5 80.5t-42.5 201.5zM583 274q16 98 -33 164t-147 66q-95 0 -165 -66.5t-86 -163.5
q-15 -98 33.5 -163.5t144.5 -65.5q99 0 168.5 65t84.5 164z" />
    <glyph glyph-name="otilde" unicode="&#xf5;" 
d="M575 737h54q-21 -60 -50 -91.5t-80 -31.5q-54 0 -88 41q-23 29 -53 29q-25 0 -38.5 -18t-24.5 -53h-56q20 60 49.5 91.5t80.5 31.5q32 0 48.5 -9t38.5 -32q22 -29 51 -29q25 0 39 17.5t29 53.5zM98 274q19 120 106.5 202t206.5 82q121 0 183 -82t43 -202
q-19 -121 -106.5 -201.5t-208.5 -80.5q-120 0 -181.5 80.5t-42.5 201.5zM583 274q16 98 -33 164t-147 66q-95 0 -165 -66.5t-86 -163.5q-15 -98 33.5 -163.5t144.5 -65.5q99 0 168.5 65t84.5 164z" />
    <glyph glyph-name="odieresis" unicode="&#xf6;" 
d="M338 695q40 0 34 -41q-3 -19 -16 -30t-31 -11q-19 0 -28.5 11.5t-6.5 29.5q2 18 15.5 29.5t32.5 11.5zM526 695q20 0 29 -11q8 -14 6 -30q-7 -41 -48 -41q-19 0 -29 10.5t-6 30.5q1 15 17 32q13 9 31 9zM98 274q19 120 106.5 202t206.5 82q121 0 183 -82t43 -202
q-19 -121 -106.5 -201.5t-208.5 -80.5q-120 0 -181.5 80.5t-42.5 201.5zM583 274q16 98 -33 164t-147 66q-95 0 -165 -66.5t-86 -163.5q-15 -98 33.5 -163.5t144.5 -65.5q99 0 168.5 65t84.5 164z" />
    <glyph glyph-name="divide" unicode="&#xf7;" horiz-adv-x="676" 
d="M430 584q17 0 29 -12q10 -14 7 -30q-3 -19 -17 -30.5t-32 -11.5q-19 0 -28.5 12t-6.5 30t16 30t32 12zM643 322h-507l8 53h507zM370 199q15 0 28 -11q10 -15 7 -31q-3 -18 -17 -30t-32 -12t-28 12t-7 30t16.5 30t32.5 12z" />
    <glyph glyph-name="oslash" unicode="&#xf8;" 
d="M457 556l70 146h58l-77 -162q73 -30 108.5 -102.5t20.5 -163.5q-19 -121 -106.5 -201.5t-208.5 -80.5q-35 0 -76 9l-74 -155h-59l85 177q-59 36 -86 103t-14 148q19 120 106.5 202t206.5 82q31 0 46 -2zM152 274q-11 -66 8 -118.5t65 -80.5l205 426q-10 3 -27 3
q-95 0 -165 -66.5t-86 -163.5zM330 45q99 0 168.5 65t84.5 164q12 74 -15 132t-86 83l-211 -436q38 -8 59 -8z" />
    <glyph glyph-name="ugrave" unicode="&#xf9;" horiz-adv-x="652" 
d="M509 597h-61l-83 188h63zM578 248l50 313h55l-86 -563h-53l13 100q-93 -108 -234 -108q-121 0 -182.5 80.5t-42.5 201.5l46 289h54l-46 -289q-15 -97 34.5 -163t145.5 -66q88 0 155.5 59t90.5 146z" />
    <glyph glyph-name="uacute" unicode="&#xfa;" horiz-adv-x="652" 
d="M538 785l-141 -188h-61l138 188h64zM578 248l50 313h55l-86 -563h-53l13 100q-93 -108 -234 -108q-121 0 -182.5 80.5t-42.5 201.5l46 289h54l-46 -289q-15 -97 34.5 -163t145.5 -66q88 0 155.5 59t90.5 146z" />
    <glyph glyph-name="ucircumflex" unicode="&#xfb;" horiz-adv-x="652" 
d="M263 597l170 184h38l110 -184h-65l-76 119l-110 -119h-67zM578 248l50 313h55l-86 -563h-53l13 100q-93 -108 -234 -108q-121 0 -182.5 80.5t-42.5 201.5l46 289h54l-46 -289q-15 -97 34.5 -163t145.5 -66q88 0 155.5 59t90.5 146z" />
    <glyph glyph-name="udieresis" unicode="&#xfc;" horiz-adv-x="652" 
d="M343 695q19 0 28 -11q9 -13 7 -30q-3 -19 -16.5 -30t-31.5 -11t-28 11.5t-7 29.5q2 18 16 29.5t32 11.5zM532 695q19 0 28 -11q9 -13 7 -30q-3 -19 -16.5 -30t-31.5 -11q-19 0 -29.5 10.5t-6.5 30.5q1 15 17 31q12 10 32 10zM578 248l50 313h55l-86 -563h-53l13 100
q-93 -108 -234 -108q-121 0 -182.5 80.5t-42.5 201.5l46 289h54l-46 -289q-15 -97 34.5 -163t145.5 -66q88 0 155.5 59t90.5 146z" />
    <glyph glyph-name="yacute" unicode="&#xfd;" horiz-adv-x="617" 
d="M519 785l-141 -188h-62l139 188h64zM203 561l117 -486l267 486h60l-371 -676q-44 -75 -81 -105q-44 -30 -99 -30q-31 0 -61 13l11 64q33 -23 60 -23q34 0 60 19q27 20 60 80l53 97l-135 561h59z" />
    <glyph glyph-name="ydieresis" unicode="&#xff;" horiz-adv-x="617" 
d="M324 695q19 0 28 -11q9 -13 7 -30q-3 -19 -16.5 -30t-31.5 -11t-28 11.5t-7 29.5q2 18 16 29.5t32 11.5zM513 695q19 0 28 -11q9 -13 7 -30q-3 -19 -16.5 -30t-31.5 -11q-19 0 -29.5 11t-6.5 30q1 15 17 31q13 10 32 10zM203 561l117 -486l267 486h60l-371 -676
q-44 -75 -81 -105q-44 -30 -99 -30q-31 0 -61 13l11 64q33 -23 60 -23q34 0 60 19q27 20 60 80l53 97l-135 561h59z" />
    <glyph glyph-name="Amacron" unicode="&#x100;" horiz-adv-x="831" 
d="M708 786h-338l9 53h338zM55 0l480 752l241 -752h-62l-73 228h-379l-144 -228h-63zM295 280h328l-108 345z" />
    <glyph glyph-name="amacron" unicode="&#x101;" horiz-adv-x="671" 
d="M600 620h-333l8 52h333zM578 43q11 0 47 14l-9 -58q-17 -6 -22 -6q-1 -1 -5 -1q-6 -1 -17 -1q-80 0 -83 73q-47 -36 -117 -54.5t-128 -18.5q-35 0 -66 7t-57 22.5t-38.5 44t-6.5 66.5q22 136 242 166l209 32l7 46q11 66 -37.5 100t-119.5 34q-69 0 -116 -27.5t-86 -91.5
l-49 21q46 80 109.5 115t149.5 35q98 0 159 -45.5t46 -140.5l-43 -277q-9 -55 31 -55zM257 43q34 0 71.5 7t75.5 21.5t65.5 41t33.5 61.5l16 101l-188 -28q-98 -15 -150 -45q-43 -30 -49 -71q-7 -47 32 -67.5t93 -20.5z" />
    <glyph glyph-name="Abreve" unicode="&#x102;" horiz-adv-x="831" 
d="M654 925h53q-12 -77 -56 -120.5t-115 -43.5q-72 0 -101.5 43.5t-17.5 120.5h52q-8 -52 10.5 -81.5t64.5 -29.5t73.5 29.5t36.5 81.5zM55 0l480 752l241 -752h-62l-73 228h-379l-144 -228h-63zM295 280h328l-108 345z" />
    <glyph glyph-name="abreve" unicode="&#x103;" horiz-adv-x="671" 
d="M546 756h52q-12 -75 -55.5 -118t-113.5 -43t-99.5 43t-17.5 118h52q-9 -50 9.5 -79.5t63.5 -29.5t72.5 29t36.5 80zM578 43q11 0 47 14l-9 -58q-17 -6 -22 -6q-1 -1 -5 -1q-6 -1 -17 -1q-80 0 -83 73q-47 -36 -117 -54.5t-128 -18.5q-35 0 -66 7t-57 22.5t-38.5 44
t-6.5 66.5q22 136 242 166l209 32l7 46q11 66 -37.5 100t-119.5 34q-69 0 -116 -27.5t-86 -91.5l-49 21q46 80 109.5 115t149.5 35q98 0 159 -45.5t46 -140.5l-43 -277q-9 -55 31 -55zM257 43q34 0 71.5 7t75.5 21.5t65.5 41t33.5 61.5l16 101l-188 -28q-98 -15 -150 -45
q-43 -30 -49 -71q-7 -47 32 -67.5t93 -20.5z" />
    <glyph glyph-name="Aogonek" unicode="&#x104;" horiz-adv-x="826" 
d="M644 -157q43 0 86 33l17 -52q-36 -21 -57 -27.5t-54 -6.5q-49 0 -76 26t-19 75q14 94 159 149l-59 188h-379l-144 -228h-63l480 752l241 -752h-51q-73 -35 -94 -52q-32 -29 -36 -57q-4 -24 10 -36t39 -12zM623 280l-108 345l-220 -345h328z" />
    <glyph glyph-name="aogonek" unicode="&#x105;" horiz-adv-x="676" 
d="M577 -131l16 -50q-34 -20 -55.5 -26.5t-53.5 -6.5q-48 0 -74.5 25.5t-18.5 73.5q12 77 115 130q0 1 -3.5 5t-4.5 6q-8 15 -10 38q-47 -36 -116.5 -54.5t-127.5 -18.5q-35 0 -66 7t-57 22.5t-38.5 44t-6.5 66.5q22 136 242 166l209 32l7 46q11 66 -37.5 100t-119.5 34
q-69 0 -116 -27.5t-86 -91.5l-49 21q46 80 109.5 115t149.5 35q98 0 159 -45.5t46 -140.5l-43 -277q-9 -55 31 -55q11 0 47 14l-9 -58q-17 -6 -22 -6q-1 -1 -5 -1q-6 -1 -17 -1h-3q-66 -32 -90 -50q-30 -28 -34 -56q-4 -23 9.5 -35.5t37.5 -12.5q39 0 85 32zM257 43
q34 0 71.5 7t75.5 21.5t65.5 41t33.5 61.5l16 101l-188 -28q-98 -15 -150 -45q-43 -30 -49 -71q-7 -47 32 -67.5t93 -20.5z" />
    <glyph glyph-name="Cacute" unicode="&#x106;" horiz-adv-x="825" 
d="M654 954l-144 -191h-62l142 191h64zM831 552l2 -33l-53 3q-31 78 -97 119t-155 41q-135 0 -237.5 -91t-124.5 -229q-21 -137 51.5 -228.5t209.5 -91.5q89 0 166.5 39.5t130.5 115.5l8 10l19 32h57q-24 -48 -33 -60q-4 -6 -6 -10q-63 -87 -155 -133t-196 -46
q-160 0 -246 104.5t-60 267.5q26 161 144 266.5t280 105.5q105 0 181 -46.5t114 -135.5z" />
    <glyph glyph-name="cacute" unicode="&#x107;" horiz-adv-x="630" 
d="M519 785l-141 -188h-61l139 188h63zM322 -8q-120 0 -181.5 80.5t-42.5 201.5q19 120 106.5 202t206.5 82q79 0 138 -44.5t87 -120.5h-62q-21 51 -65.5 81t-105.5 30q-95 0 -165 -66.5t-86 -163.5q-15 -98 33.5 -163.5t144.5 -65.5q124 0 206 107l64 3
q-55 -76 -127 -119.5t-151 -43.5z" />
    <glyph glyph-name="Ccircumflex" unicode="&#x108;" horiz-adv-x="825" 
d="M374 763l172 186h38l114 -186h-67l-75 120l-114 -120h-68zM751 239h57q-24 -48 -33 -60q-4 -6 -6 -10q-63 -87 -155 -133t-196 -46q-160 0 -246 104.5t-60 267.5q26 161 144 266.5t280 105.5q105 0 181 -46.5t114 -135.5l2 -33l-53 3q-31 78 -97 119t-155 41
q-135 0 -237.5 -91t-124.5 -229q-21 -137 51.5 -228.5t209.5 -91.5q89 0 166.5 39.5t130.5 115.5l8 10z" />
    <glyph glyph-name="ccircumflex" unicode="&#x109;" horiz-adv-x="630" 
d="M244 597l171 184h37l111 -184h-66l-75 119l-111 -119h-67zM322 -8q-120 0 -181.5 80.5t-42.5 201.5q19 120 106.5 202t206.5 82q79 0 138 -44.5t87 -120.5h-62q-21 51 -65.5 81t-105.5 30q-95 0 -165 -66.5t-86 -163.5q-15 -98 33.5 -163.5t144.5 -65.5q124 0 206 107
l64 3q-55 -76 -127 -119.5t-151 -43.5z" />
    <glyph glyph-name="Cdotaccent" unicode="&#x10a;" horiz-adv-x="825" 
d="M540 824q-5 0 -5 -3q0 -4 3 -4q4 0 4 4q0 3 -2 3zM831 552l2 -33l-53 3q-31 78 -97 119t-155 41q-135 0 -237.5 -91t-124.5 -229q-21 -137 51.5 -228.5t209.5 -91.5q89 0 166.5 39.5t130.5 115.5l8 10l19 32h57q-24 -48 -33 -60q-4 -6 -6 -10q-63 -87 -155 -133t-196 -46
q-160 0 -246 104.5t-60 267.5q26 161 144 266.5t280 105.5q105 0 181 -46.5t114 -135.5z" />
    <glyph glyph-name="cdotaccent" unicode="&#x10b;" horiz-adv-x="630" 
d="M418 695q19 0 28 -11q10 -13 8 -30q-3 -18 -17 -29.5t-32 -11.5q-17 0 -27 11.5t-7 29.5q2 18 15.5 29.5t31.5 11.5zM322 -8q-120 0 -181.5 80.5t-42.5 201.5q19 120 106.5 202t206.5 82q79 0 138 -44.5t87 -120.5h-62q-21 51 -65.5 81t-105.5 30q-95 0 -165 -66.5
t-86 -163.5q-15 -98 33.5 -163.5t144.5 -65.5q124 0 206 107l64 3q-55 -76 -127 -119.5t-151 -43.5z" />
    <glyph glyph-name="Ccaron" unicode="&#x10c;" horiz-adv-x="825" 
d="M471 948l75 -120l113 120h67l-171 -186h-39l-113 186h68zM831 552l2 -33l-53 3q-31 78 -97 119t-155 41q-135 0 -237.5 -91t-124.5 -229q-21 -137 51.5 -228.5t209.5 -91.5q89 0 166.5 39.5t130.5 115.5l8 10l19 32h57q-24 -48 -33 -60q-4 -6 -6 -10q-63 -87 -155 -133
t-196 -46q-160 0 -246 104.5t-60 267.5q26 161 144 266.5t280 105.5q105 0 181 -46.5t114 -135.5z" />
    <glyph glyph-name="ccaron" unicode="&#x10d;" horiz-adv-x="630" 
d="M340 781l74 -119l112 119h66l-169 -184h-37l-113 184h67zM322 -8q-120 0 -181.5 80.5t-42.5 201.5q19 120 106.5 202t206.5 82q79 0 138 -44.5t87 -120.5h-62q-21 51 -65.5 81t-105.5 30q-95 0 -165 -66.5t-86 -163.5q-15 -98 33.5 -163.5t144.5 -65.5q124 0 206 107
l64 3q-55 -76 -127 -119.5t-151 -43.5z" />
    <glyph glyph-name="Dcaron" unicode="&#x10e;" horiz-adv-x="714" 
d="M413 949l75 -120l114 120h67l-171 -186h-38l-115 186h68zM302 0h-247l115 726h247q174 0 250.5 -93.5t49.5 -268.5q-58 -364 -415 -364zM409 673h-193l-99 -620h193q303 0 352 311q23 146 -40 229q-67 80 -213 80z" />
    <glyph glyph-name="dcaron" unicode="&#x10f;" horiz-adv-x="826" 
d="M879 677v-3l1 -1h-1q-16 -79 -101 -122l-45 38q75 27 91 70h-3q-17 0 -26 12.5t-7 29.5q3 18 17 30t32 12q54 0 42 -66zM611 455l43 271h55l-115 -726h-55l15 95q-93 -103 -230 -103q-121 0 -183 80.5t-43 201.5t107 202.5t208 81.5q137 0 198 -103zM578 249l8 48
q4 89 -44.5 148t-136.5 59q-96 0 -166.5 -66.5t-86.5 -163.5q-15 -98 34.5 -163.5t145.5 -65.5q88 0 155.5 58.5t90.5 145.5z" />
    <glyph glyph-name="Dcroat" unicode="&#x110;" horiz-adv-x="805" 
d="M393 0h-247l53 337h-140l9 53h140l53 336h247q175 0 251 -93.5t49 -268.5q-58 -364 -415 -364zM500 673h-192l-45 -283h144l-9 -53h-144l-45 -284h192q304 0 353 311q22 144 -40 229q-69 80 -214 80z" />
    <glyph glyph-name="dcroat" unicode="&#x111;" horiz-adv-x="739" 
d="M98 274q19 117 104 192.5t211 91.5q70 9 120.5 -18.5t77.5 -84.5l17 106h-136l7 47h136l19 118h55l-19 -118h134l-7 -47h-134l-89 -561h-55l15 95q-93 -103 -230 -103q-121 0 -183 80.5t-43 201.5zM578 249l8 48q4 89 -44.5 148t-136.5 59q-96 0 -166.5 -66.5
t-86.5 -163.5q-15 -98 34.5 -163.5t145.5 -65.5q88 0 155.5 58.5t90.5 145.5z" />
    <glyph glyph-name="Emacron" unicode="&#x112;" horiz-adv-x="660" 
d="M623 786h-337l9 53h337zM549 389l-9 -53h-376l-45 -283h494l-8 -53h-550l115 726h550l-8 -53h-494l-45 -284h376z" />
    <glyph glyph-name="emacron" unicode="&#x113;" horiz-adv-x="658" 
d="M597 672l-8 -52h-332l8 52h332zM549 152h64q-55 -74 -130.5 -117t-157.5 -43q-126 0 -186.5 78t-40.5 204q19 120 106.5 202t206.5 82q121 0 182.5 -86.5t39.5 -226.5h-483q-6 -89 43.5 -144.5t139.5 -55.5q130 0 216 107zM403 504q-88 0 -155.5 -58t-89.5 -148h428
q7 90 -42.5 148t-140.5 58z" />
    <glyph glyph-name="Ebreve" unicode="&#x114;" horiz-adv-x="660" 
d="M569 925h53q-12 -77 -56 -120.5t-115 -43.5t-101 43.5t-18 120.5h53q-9 -52 9.5 -81.5t64.5 -29.5t73.5 29.5t36.5 81.5zM549 389l-9 -53h-376l-45 -283h494l-8 -53h-550l115 726h550l-8 -53h-494l-45 -284h376z" />
    <glyph glyph-name="ebreve" unicode="&#x115;" horiz-adv-x="658" 
d="M536 756h51q-12 -76 -55 -118.5t-114 -42.5q-70 0 -98.5 43t-16.5 118h51q-9 -50 9.5 -79.5t62.5 -29.5q46 0 73.5 29t36.5 80zM549 152h64q-55 -74 -130.5 -117t-157.5 -43q-126 0 -186.5 78t-40.5 204q19 120 106.5 202t206.5 82q121 0 182.5 -86.5t39.5 -226.5h-483
q-6 -89 43.5 -144.5t139.5 -55.5q130 0 216 107zM403 504q-88 0 -155.5 -58t-89.5 -148h428q7 90 -42.5 148t-140.5 58z" />
    <glyph glyph-name="Edotaccent" unicode="&#x116;" horiz-adv-x="660" 
d="M467 863q17 0 29 -12q9 -16 6 -30q-3 -19 -17 -30.5t-32 -11.5q-17 0 -27.5 12t-7.5 30t17 30t32 12zM549 389l-9 -53h-376l-45 -283h494l-8 -53h-550l115 726h550l-8 -53h-494l-45 -284h376z" />
    <glyph glyph-name="edotaccent" unicode="&#x117;" horiz-adv-x="658" 
d="M434 695q21 0 30 -11q8 -14 6 -30q-7 -41 -49 -41q-17 0 -26.5 11.5t-6.5 29.5q2 18 15 29.5t31 11.5zM549 152h64q-55 -74 -130.5 -117t-157.5 -43q-126 0 -186.5 78t-40.5 204q19 120 106.5 202t206.5 82q121 0 182.5 -86.5t39.5 -226.5h-483q-6 -89 43.5 -144.5
t139.5 -55.5q130 0 216 107zM403 504q-88 0 -155.5 -58t-89.5 -148h428q7 90 -42.5 148t-140.5 58z" />
    <glyph glyph-name="Eogonek" unicode="&#x118;" horiz-adv-x="666" 
d="M218 673l-45 -284h376l-9 -53h-376l-45 -283h494l-8 -53h-44q-60 -26 -93 -52q-31 -28 -35 -57q-4 -24 9.5 -36t38.5 -12q41 0 87 33l15 -52q-37 -21 -57 -27.5t-53 -6.5q-49 0 -76 26.5t-19 74.5q9 63 78 109h-401l115 726h550l-8 -53h-494z" />
    <glyph glyph-name="eogonek" unicode="&#x119;" horiz-adv-x="658" 
d="M333 45q130 0 216 107h64q-102 -136 -245 -157l1 -2q-24 -12 -36.5 -19t-31.5 -20t-29.5 -28t-13.5 -33q-4 -23 10 -35t38 -12q38 0 85 32l16 -51q-37 -20 -57 -26.5t-53 -6.5q-48 0 -74 25.5t-19 73.5q10 60 69 103q-100 16 -146 91t-29 187q19 120 106.5 202t206.5 82
q121 0 182.5 -86.5t39.5 -226.5h-483q-6 -89 43.5 -144.5t139.5 -55.5zM403 504q-88 0 -155.5 -58t-89.5 -148h428q7 90 -42.5 148t-140.5 58z" />
    <glyph glyph-name="Ecaron" unicode="&#x11a;" horiz-adv-x="660" 
d="M387 949l75 -120l113 120h67l-171 -186h-39l-113 186h68zM549 389l-9 -53h-376l-45 -283h494l-8 -53h-550l115 726h550l-8 -53h-494l-45 -284h376z" />
    <glyph glyph-name="ecaron" unicode="&#x11b;" horiz-adv-x="658" 
d="M357 781l73 -119l113 119h66l-169 -184h-38l-112 184h67zM549 152h64q-55 -74 -130.5 -117t-157.5 -43q-126 0 -186.5 78t-40.5 204q19 120 106.5 202t206.5 82q121 0 182.5 -86.5t39.5 -226.5h-483q-6 -89 43.5 -144.5t139.5 -55.5q130 0 216 107zM403 504
q-88 0 -155.5 -58t-89.5 -148h428q7 90 -42.5 148t-140.5 58z" />
    <glyph glyph-name="Gcircumflex" unicode="&#x11c;" horiz-adv-x="817" 
d="M367 763l172 186h38l114 -186h-67l-75 120l-114 -120h-68zM418 -10q-161 0 -246.5 104t-59.5 268q26 161 144 266.5t280 105.5q220 0 295 -182l2 -33l-53 3q-69 160 -252 160q-135 0 -237.5 -91t-124.5 -229q-21 -137 51.5 -228.5t209.5 -91.5q101 0 177 44.5t139 134.5
l18 115h-256l9 53h310l-62 -389h-54l19 122q-121 -132 -309 -132z" />
    <glyph glyph-name="gcircumflex" unicode="&#x11d;" 
d="M261 597l170 184h38l111 -184h-66l-76 119l-110 -119h-67zM611 455l17 106h55l-85 -537q-24 -118 -110 -194.5t-204 -76.5q-89 0 -148.5 52t-79.5 140h57q18 -65 64 -102t115 -37q91 0 160.5 63t90.5 155l11 69q-94 -102 -230 -102q-121 0 -183 81t-43 201
q19 121 106.5 202.5t208.5 81.5q135 0 198 -102zM577 240l11 67q0 85 -49 140.5t-134 55.5q-96 0 -166.5 -66t-86.5 -164q-15 -97 34.5 -163t145.5 -66q85 0 152 56t93 140z" />
    <glyph glyph-name="Gbreve" unicode="&#x11e;" horiz-adv-x="817" 
d="M647 925h53q-12 -77 -56 -120.5t-115 -43.5q-72 0 -101.5 43.5t-17.5 120.5h52q-8 -52 10.5 -81.5t64.5 -29.5t73.5 29.5t36.5 81.5zM418 -10q-161 0 -246.5 104t-59.5 268q26 161 144 266.5t280 105.5q220 0 295 -182l2 -33l-53 3q-69 160 -252 160q-135 0 -237.5 -91
t-124.5 -229q-21 -137 51.5 -228.5t209.5 -91.5q101 0 177 44.5t139 134.5l18 115h-256l9 53h310l-62 -389h-54l19 122q-121 -132 -309 -132z" />
    <glyph glyph-name="gbreve" unicode="&#x11f;" 
d="M536 756h51q-12 -76 -55 -118.5t-114 -42.5q-70 0 -98.5 43t-16.5 118h51q-9 -50 9.5 -79.5t62.5 -29.5q46 0 73.5 29t36.5 80zM611 455l17 106h55l-85 -537q-24 -118 -110 -194.5t-204 -76.5q-89 0 -148.5 52t-79.5 140h57q18 -65 64 -102t115 -37q91 0 160.5 63
t90.5 155l11 69q-94 -102 -230 -102q-121 0 -183 81t-43 201q19 121 106.5 202.5t208.5 81.5q135 0 198 -102zM577 240l11 67q0 85 -49 140.5t-134 55.5q-96 0 -166.5 -66t-86.5 -164q-15 -97 34.5 -163t145.5 -66q85 0 152 56t93 140z" />
    <glyph glyph-name="Gdotaccent" unicode="&#x120;" horiz-adv-x="817" 
d="M545 863q16 0 28 -12q10 -15 7 -30q-3 -19 -17 -30.5t-32 -11.5q-19 0 -28.5 12t-6.5 30t16.5 30t32.5 12zM418 -10q-161 0 -246.5 104t-59.5 268q26 161 144 266.5t280 105.5q220 0 295 -182l2 -33l-53 3q-69 160 -252 160q-135 0 -237.5 -91t-124.5 -229
q-21 -137 51.5 -228.5t209.5 -91.5q101 0 177 44.5t139 134.5l18 115h-256l9 53h310l-62 -389h-54l19 122q-121 -132 -309 -132z" />
    <glyph glyph-name="gdotaccent" unicode="&#x121;" 
d="M434 695q21 0 30 -11q8 -14 6 -30q-7 -41 -49 -41q-17 0 -26.5 11.5t-6.5 29.5q2 18 15 29.5t31 11.5zM611 455l17 106h55l-85 -537q-24 -118 -110 -194.5t-204 -76.5q-89 0 -148.5 52t-79.5 140h57q18 -65 64 -102t115 -37q91 0 160.5 63t90.5 155l11 69
q-94 -102 -230 -102q-121 0 -183 81t-43 201q19 121 106.5 202.5t208.5 81.5q135 0 198 -102zM577 240l11 67q0 85 -49 140.5t-134 55.5q-96 0 -166.5 -66t-86.5 -164q-15 -97 34.5 -163t145.5 -66q85 0 152 56t93 140z" />
    <glyph glyph-name="Hcircumflex" unicode="&#x124;" horiz-adv-x="666" 
d="M292 763l172 186h38l114 -186h-67l-75 120l-113 -120h-69zM225 726l-53 -337h446l53 337h55l-115 -726h-55l53 336h-446l-53 -336h-55l115 726h55z" />
    <glyph glyph-name="hcircumflex" unicode="&#x125;" 
d="M261 597l170 184h38l111 -184h-66l-76 119l-110 -119h-67zM157 297l-47 -297h-55l115 726h55l-43 -271q95 103 229 103q121 0 183 -82t43 -202l-43 -274h-54l43 274q16 97 -33.5 163.5t-146.5 66.5q-87 0 -154 -59t-92 -148z" />
    <glyph glyph-name="Hbar" unicode="&#x126;" horiz-adv-x="666" 
d="M626 786h-337l9 53h337zM225 726l-53 -337h446l53 337h55l-115 -726h-55l53 336h-446l-53 -336h-55l115 726h55z" />
    <glyph glyph-name="hbar" unicode="&#x127;" 
d="M157 297l-47 -297h-55l115 726h55l-43 -271q95 103 229 103q121 0 183 -82t43 -202l-43 -274h-54l43 274q16 97 -33.5 163.5t-146.5 66.5q-87 0 -154 -59t-92 -148zM589 620h-332l8 52h332z" />
    <glyph glyph-name="Itilde" unicode="&#x128;" horiz-adv-x="156" 
d="M354 905h55q-22 -62 -50 -93.5t-81 -31.5t-89 42q-24 29 -54 29q-26 0 -39 -17.5t-26 -54.5h-57q23 62 51.5 94t80.5 32q33 0 50.5 -9.5t38.5 -33.5q24 -29 52 -29q26 0 40 17.5t28 54.5zM106 0h-55l115 726h55z" />
    <glyph glyph-name="itilde" unicode="&#x129;" horiz-adv-x="179" 
d="M337 737h54q-20 -60 -49.5 -91.5t-81.5 -31.5q-30 0 -48.5 8.5t-37.5 30.5q-26 31 -53 31q-26 0 -39 -17.5t-25 -53.5h-55q18 59 48 91t82 32q31 0 52 -11q17 -8 47 -37q22 -22 37 -22q26 0 40.5 17.5t28.5 53.5zM117 0h-55l89 561h55z" />
    <glyph glyph-name="Imacron" unicode="&#x12a;" horiz-adv-x="149" 
d="M368 786h-339l9 53h339zM102 0h-55l115 726h55z" />
    <glyph glyph-name="imacron" unicode="&#x12b;" horiz-adv-x="174" 
d="M352 620h-334l8 52h334zM115 0h-55l89 561h55z" />
    <glyph glyph-name="Iogonek" unicode="&#x12e;" horiz-adv-x="162" 
d="M-28 -61q-31 -27 -36 -56q-4 -24 10 -36t40 -12q39 0 87 32l15 -51q-37 -21 -57 -27.5t-54 -6.5q-49 0 -75.5 26.5t-19.5 74.5q16 96 170 150l110 693h55l-114 -720q-93 -36 -131 -67z" />
    <glyph glyph-name="iogonek" unicode="&#x12f;" horiz-adv-x="189" 
d="M187 631q-17 0 -27 12t-7 30q2 18 15.5 29.5t31.5 11.5q17 0 29 -12q9 -11 7 -29q-3 -19 -17 -30.5t-32 -11.5zM89 -131l16 -50q-35 -20 -55.5 -26.5t-53.5 -6.5q-49 0 -75 25t-18 74q14 90 162 148l84 528h55l-88 -555q-86 -35 -125 -66q-29 -25 -34 -55q-4 -24 9.5 -36
t37.5 -12q39 0 85 32z" />
    <glyph glyph-name="Idotaccent" unicode="&#x130;" horiz-adv-x="164" 
d="M219 863q17 0 30 -12q8 -17 5 -30q-3 -19 -16.5 -30.5t-32.5 -11.5q-17 0 -27.5 12t-7.5 30t17 30t32 12zM110 0h-55l115 726h55z" />
    <glyph glyph-name="dotlessi" unicode="&#x131;" horiz-adv-x="195" 
d="M125 0h-55l89 561h55z" />
    <glyph glyph-name="Nacute" unicode="&#x143;" horiz-adv-x="664" 
d="M571 954l-143 -191h-63l142 191h64zM221 726l350 -628l98 628h55l-115 -726h-52l-349 628l-98 -628h-55l115 726h51z" />
    <glyph glyph-name="nacute" unicode="&#x144;" horiz-adv-x="652" 
d="M538 785l-141 -188h-61l138 188h64zM161 297l-47 -297h-55l85 561h55l-14 -105q86 102 231 102q120 0 181.5 -81.5t42.5 -202.5l-43 -274h-52l43 274q16 97 -34 163.5t-146 66.5q-87 0 -154.5 -59.5t-92.5 -147.5z" />
    <glyph glyph-name="Ncaron" unicode="&#x147;" horiz-adv-x="664" 
d="M389 949l75 -120l113 120h67l-171 -186h-39l-114 186h69zM221 726l350 -628l98 628h55l-115 -726h-52l-349 628l-98 -628h-55l115 726h51z" />
    <glyph glyph-name="ncaron" unicode="&#x148;" horiz-adv-x="652" 
d="M359 781l73 -119l113 119h65l-168 -184h-38l-112 184h67zM161 297l-47 -297h-55l85 561h55l-14 -105q86 102 231 102q120 0 181.5 -81.5t42.5 -202.5l-43 -274h-52l43 274q16 97 -34 163.5t-146 66.5q-87 0 -154.5 -59.5t-92.5 -147.5z" />
    <glyph glyph-name="Omacron" unicode="&#x14c;" horiz-adv-x="843" 
d="M715 786h-339l9 53h339zM418 -10q-160 0 -246 104.5t-60 267.5q26 161 144 266.5t280 105.5t248.5 -104t60.5 -268q-25 -161 -144 -266.5t-283 -105.5zM427 42q138 0 240 90.5t124 229.5q22 138 -50.5 229t-212.5 91q-135 0 -237.5 -91t-124.5 -229q-21 -137 51.5 -228.5
t209.5 -91.5z" />
    <glyph glyph-name="omacron" unicode="&#x14d;" 
d="M591 620h-332l8 52h332zM98 274q19 120 106.5 202t206.5 82q121 0 183 -82t43 -202q-19 -121 -106.5 -201.5t-208.5 -80.5q-120 0 -181.5 80.5t-42.5 201.5zM583 274q16 98 -33 164t-147 66q-95 0 -165 -66.5t-86 -163.5q-15 -98 33.5 -163.5t144.5 -65.5q99 0 168.5 65
t84.5 164z" />
    <glyph glyph-name="Obreve" unicode="&#x14e;" horiz-adv-x="843" 
d="M660 925h52q-12 -77 -55.5 -120.5t-115.5 -43.5q-71 0 -100.5 43.5t-17.5 120.5h52q-9 -52 9.5 -81.5t64.5 -29.5q47 0 74.5 29.5t36.5 81.5zM418 -10q-160 0 -246 104.5t-60 267.5q26 161 144 266.5t280 105.5t248.5 -104t60.5 -268q-25 -161 -144 -266.5t-283 -105.5z
M427 42q138 0 240 90.5t124 229.5q22 138 -50.5 229t-212.5 91q-135 0 -237.5 -91t-124.5 -229q-21 -137 51.5 -228.5t209.5 -91.5z" />
    <glyph glyph-name="obreve" unicode="&#x14f;" 
d="M536 756h51q-12 -76 -55 -118.5t-114 -42.5q-70 0 -98.5 43t-16.5 118h51q-9 -50 9.5 -79.5t62.5 -29.5q46 0 73.5 29t36.5 80zM98 274q19 120 106.5 202t206.5 82q121 0 183 -82t43 -202q-19 -121 -106.5 -201.5t-208.5 -80.5q-120 0 -181.5 80.5t-42.5 201.5zM583 274
q16 98 -33 164t-147 66q-95 0 -165 -66.5t-86 -163.5q-15 -98 33.5 -163.5t144.5 -65.5q99 0 168.5 65t84.5 164z" />
    <glyph glyph-name="Ohungarumlaut" unicode="&#x150;" horiz-adv-x="843" 
d="M448 763h-62l142 191h64zM584 763h-62l143 191h63zM418 -10q-160 0 -246 104.5t-60 267.5q26 161 144 266.5t280 105.5t248.5 -104t60.5 -268q-25 -161 -144 -266.5t-283 -105.5zM427 42q138 0 240 90.5t124 229.5q22 138 -50.5 229t-212.5 91q-135 0 -237.5 -91
t-124.5 -229q-21 -137 51.5 -228.5t209.5 -91.5z" />
    <glyph glyph-name="ohungarumlaut" unicode="&#x151;" 
d="M329 597h-61l139 188h63zM463 597h-62l140 188h63zM98 274q19 120 106.5 202t206.5 82q121 0 183 -82t43 -202q-19 -121 -106.5 -201.5t-208.5 -80.5q-120 0 -181.5 80.5t-42.5 201.5zM583 274q16 98 -33 164t-147 66q-95 0 -165 -66.5t-86 -163.5q-15 -98 33.5 -163.5
t144.5 -65.5q99 0 168.5 65t84.5 164z" />
    <glyph glyph-name="OE" unicode="&#x152;" horiz-adv-x="1467" 
d="M418 -10q-160 0 -246 104.5t-60 267.5q26 161 144 266.5t280 105.5q96 0 173 -43t113 -121l25 156h551l-8 -53h-495l-45 -284h375l-9 -53h-375l-45 -283h495l-8 -53h-551l24 154q-63 -80 -150.5 -122t-187.5 -42zM427 42q124 0 222.5 78.5t133.5 203.5l12 76
q5 124 -68 203t-199 79q-135 0 -237.5 -91t-124.5 -229q-21 -137 51.5 -228.5t209.5 -91.5z" />
    <glyph glyph-name="oe" unicode="&#x153;" horiz-adv-x="1080" 
d="M805 41q130 0 216 106l65 3q-55 -76 -130.5 -119.5t-158.5 -43.5q-88 0 -150.5 40.5t-83.5 116.5q-43 -70 -113 -111t-155 -41q-120 0 -181.5 80.5t-42.5 201.5q19 120 106.5 202t206.5 82q86 0 144 -43t77 -115q43 71 112.5 112t154.5 41q120 0 181 -86t39 -227h-483
q-5 -88 49.5 -143.5t146.5 -55.5zM303 45q98 0 168 65.5t85 163.5q16 98 -33 164t-147 66q-95 0 -165 -66.5t-86 -163.5q-15 -98 33.5 -163.5t144.5 -65.5zM863 499q-89 0 -156.5 -58t-88.5 -147h427q8 89 -41.5 147t-140.5 58z" />
    <glyph glyph-name="Racute" unicode="&#x154;" horiz-adv-x="674" 
d="M568 954l-144 -191h-63l142 191h65zM451 337l168 -337h-68l-168 336h-220l-53 -336h-55l115 726h291q53 0 94 -9.5t74 -30.5t47.5 -61t5.5 -96q-28 -174 -231 -192zM453 673h-236l-45 -284h236q198 0 220 140q12 78 -38.5 111t-136.5 33z" />
    <glyph glyph-name="racute" unicode="&#x155;" horiz-adv-x="530" 
d="M474 785l-141 -188h-62l140 188h63zM161 297l-47 -297h-55l83 548h55l-12 -96q93 106 231 106q71 0 141 -40l-27 -54q-63 40 -122 40q-87 0 -154.5 -59.5t-92.5 -147.5z" />
    <glyph glyph-name="Rcaron" unicode="&#x158;" horiz-adv-x="674" 
d="M385 949l75 -120l113 120h67l-171 -186h-38l-114 186h68zM451 337l168 -337h-68l-168 336h-220l-53 -336h-55l115 726h291q53 0 94 -9.5t74 -30.5t47.5 -61t5.5 -96q-28 -174 -231 -192zM453 673h-236l-45 -284h236q198 0 220 140q12 78 -38.5 111t-136.5 33z" />
    <glyph glyph-name="rcaron" unicode="&#x159;" horiz-adv-x="530" 
d="M295 781l74 -119l111 119h66l-169 -184h-38l-111 184h67zM161 297l-47 -297h-55l83 548h55l-12 -96q93 106 231 106q71 0 141 -40l-27 -54q-63 40 -122 40q-87 0 -154.5 -59.5t-92.5 -147.5z" />
    <glyph glyph-name="Sacute" unicode="&#x15a;" horiz-adv-x="738" 
d="M611 954l-143 -191h-63l142 191h64zM488 735q242 0 274 -196h-57q-25 144 -225 144q-51 0 -104.5 -14t-100.5 -50t-55 -88q-5 -31 12 -64q39 -56 227 -86q36 -6 59.5 -10.5t59 -14t58 -23.5t44 -33.5t29.5 -48.5t3 -65v-4q-8 -52 -43.5 -91.5t-85.5 -60t-99.5 -30
t-96.5 -9.5q-287 0 -298 221h62q1 -89 73.5 -129t170.5 -40q38 0 78 7t81.5 22.5t70.5 45t35 68.5q9 53 -38 86q-43 33 -182 57q-32 5 -53 8t-55 11.5t-56.5 17.5t-48 24.5t-39.5 34.5t-21 46t-2 60q11 69 67.5 117.5t123 67.5t132.5 19z" />
    <glyph glyph-name="sacute" unicode="&#x15b;" horiz-adv-x="588" 
d="M538 785l-141 -188h-61l138 188h64zM591 399h-55q-16 110 -158 110q-60 0 -120.5 -27.5t-68.5 -79.5q-7 -40 39 -72q61 -22 132 -33q40 -7 64 -12.5t55 -17.5t47.5 -27t26 -40t4.5 -57q-7 -42 -34 -73t-65.5 -47t-76 -23.5t-74.5 -7.5q-111 0 -169 44.5t-57 132.5h56
q0 -45 29.5 -74.5t67 -39.5t81.5 -10q65 0 123.5 24t66.5 76q8 46 -42 69q-40 19 -130 32q-112 22 -150 45q-60 36 -48 111q6 41 33 73.5t64.5 50.5t76.5 27t77 9q99 0 148 -40.5t57 -122.5z" />
    <glyph glyph-name="Scircumflex" unicode="&#x15c;" horiz-adv-x="738" 
d="M331 763l172 186h39l113 -186h-67l-75 120l-113 -120h-69zM488 735q242 0 274 -196h-57q-25 144 -225 144q-51 0 -104.5 -14t-100.5 -50t-55 -88q-5 -31 12 -64q39 -56 227 -86q36 -6 59.5 -10.5t59 -14t58 -23.5t44 -33.5t29.5 -48.5t3 -65v-4q-8 -52 -43.5 -91.5
t-85.5 -60t-99.5 -30t-96.5 -9.5q-287 0 -298 221h62q1 -89 73.5 -129t170.5 -40q38 0 78 7t81.5 22.5t70.5 45t35 68.5q9 53 -38 86q-43 33 -182 57q-32 5 -53 8t-55 11.5t-56.5 17.5t-48 24.5t-39.5 34.5t-21 46t-2 60q11 69 67.5 117.5t123 67.5t132.5 19z" />
    <glyph glyph-name="scircumflex" unicode="&#x15d;" horiz-adv-x="588" 
d="M233 597l170 184h38l111 -184h-66l-76 119l-110 -119h-67zM591 399h-55q-16 110 -158 110q-60 0 -120.5 -27.5t-68.5 -79.5q-7 -40 39 -72q61 -22 132 -33q40 -7 64 -12.5t55 -17.5t47.5 -27t26 -40t4.5 -57q-7 -42 -34 -73t-65.5 -47t-76 -23.5t-74.5 -7.5
q-111 0 -169 44.5t-57 132.5h56q0 -45 29.5 -74.5t67 -39.5t81.5 -10q65 0 123.5 24t66.5 76q8 46 -42 69q-40 19 -130 32q-112 22 -150 45q-60 36 -48 111q6 41 33 73.5t64.5 50.5t76.5 27t77 9q99 0 148 -40.5t57 -122.5z" />
    <glyph glyph-name="Scedilla" unicode="&#x15e;" horiz-adv-x="738" 
d="M459 381q36 -6 59.5 -10.5t59 -14t58 -23.5t44 -33.5t29.5 -48.5t3 -65v-4q-7 -45 -34.5 -80.5t-68 -57t-83 -34t-87.5 -16.5q39 -41 31 -97q-8 -49 -44 -78t-84 -29q-32 0 -49 6v-1q-40 17 -64 58l39 45q20 -31 37 -43.5t45 -12.5q25 0 44 14q18 18 22 40q6 46 -66 96
q-113 3 -184 56t-77 164h62q1 -89 73.5 -129t170.5 -40q38 0 78 7t81.5 22.5t70.5 45t35 68.5q9 53 -38 86q-43 33 -182 57q-32 5 -53 8t-55 11.5t-56.5 17.5t-48 24.5t-39.5 34.5t-21 46t-2 60q11 69 67.5 117.5t123 67.5t132.5 19q242 0 274 -196h-57q-25 144 -225 144
q-51 0 -104.5 -14t-100.5 -50t-55 -88q-5 -31 12 -64q39 -56 227 -86z" />
    <glyph glyph-name="scedilla" unicode="&#x15f;" horiz-adv-x="588" 
d="M557 143q-11 -66 -68.5 -102t-131.5 -46l14 1q40 -36 31 -97q-7 -45 -43 -78q-37 -27 -83 -27q-41 0 -65.5 13t-45.5 49l40 46q19 -31 35 -44t44 -13q26 0 44 15q18 14 22 38q5 29 -13.5 51t-51.5 43h6q-103 4 -157 48t-53 129h56q0 -45 29.5 -74.5t67 -39.5t81.5 -10
q65 0 123.5 24t66.5 76q8 46 -42 69q-40 19 -130 32q-112 22 -150 45q-60 36 -48 111q6 41 33 73.5t64.5 50.5t76.5 27t77 9q99 0 148 -40.5t57 -122.5h-55q-16 110 -158 110q-60 0 -120.5 -27.5t-68.5 -79.5q-7 -40 39 -72q61 -22 132 -33q40 -7 64 -12.5t55 -17.5
t47.5 -27t26 -40t4.5 -57z" />
    <glyph glyph-name="Scaron" unicode="&#x160;" horiz-adv-x="738" 
d="M429 949l75 -120l113 120h67l-171 -186h-39l-114 186h69zM488 735q242 0 274 -196h-57q-25 144 -225 144q-51 0 -104.5 -14t-100.5 -50t-55 -88q-5 -31 12 -64q39 -56 227 -86q36 -6 59.5 -10.5t59 -14t58 -23.5t44 -33.5t29.5 -48.5t3 -65v-4q-8 -52 -43.5 -91.5
t-85.5 -60t-99.5 -30t-96.5 -9.5q-287 0 -298 221h62q1 -89 73.5 -129t170.5 -40q38 0 78 7t81.5 22.5t70.5 45t35 68.5q9 53 -38 86q-43 33 -182 57q-32 5 -53 8t-55 11.5t-56.5 17.5t-48 24.5t-39.5 34.5t-21 46t-2 60q11 69 67.5 117.5t123 67.5t132.5 19z" />
    <glyph glyph-name="scaron" unicode="&#x161;" horiz-adv-x="588" 
d="M327 781l74 -119l111 119h67l-170 -184h-37l-112 184h67zM591 399h-55q-16 110 -158 110q-60 0 -120.5 -27.5t-68.5 -79.5q-7 -40 39 -72q61 -22 132 -33q40 -7 64 -12.5t55 -17.5t47.5 -27t26 -40t4.5 -57q-7 -42 -34 -73t-65.5 -47t-76 -23.5t-74.5 -7.5
q-111 0 -169 44.5t-57 132.5h56q0 -45 29.5 -74.5t67 -39.5t81.5 -10q65 0 123.5 24t66.5 76q8 46 -42 69q-40 19 -130 32q-112 22 -150 45q-60 36 -48 111q6 41 33 73.5t64.5 50.5t76.5 27t77 9q99 0 148 -40.5t57 -122.5z" />
    <glyph glyph-name="Tcaron" unicode="&#x164;" horiz-adv-x="690" 
d="M401 949l76 -120l114 120h66l-171 -186h-38l-114 186h67zM424 673h-262l8 53h580l-8 -53h-262l-107 -673h-56z" />
    <glyph glyph-name="tcaron" unicode="&#x165;" horiz-adv-x="647" 
d="M660 743q53 0 41 -66q-12 -82 -100 -126l-47 38q76 25 94 70h-4q-17 0 -26 12.5t-7 29.5q3 18 17.5 30t31.5 12zM407 94l23 -47q-60 -56 -132 -56q-141 0 -116 158l57 360h-103l8 52h103l26 165h55l-26 -165h197l-8 -52h-197l-57 -360q-17 -106 69 -106q47 0 101 51z" />
    <glyph glyph-name="Utilde" unicode="&#x168;" horiz-adv-x="666" 
d="M609 905h55q-22 -62 -50 -93.5t-81 -31.5q-55 0 -91 42q-23 29 -52 29q-26 0 -39.5 -18t-25.5 -54h-57q23 62 51.5 94t80.5 32q32 0 48.5 -9t40.5 -34q24 -29 52 -29q26 0 39.5 17.5t28.5 54.5zM594 238l77 488h55l-77 -488q-39 -247 -317 -247q-133 0 -196.5 58
t-42.5 189l77 488h55l-77 -488q-31 -195 192 -195t254 195z" />
    <glyph glyph-name="utilde" unicode="&#x169;" horiz-adv-x="652" 
d="M575 737h54q-21 -60 -50 -91.5t-80 -31.5q-54 0 -88 41q-23 29 -53 29q-25 0 -38.5 -18t-24.5 -53h-56q20 60 49.5 91.5t80.5 31.5q32 0 48.5 -9t38.5 -32q22 -29 51 -29q25 0 39 17.5t29 53.5zM578 248l50 313h55l-86 -563h-53l13 100q-93 -108 -234 -108
q-121 0 -182.5 80.5t-42.5 201.5l46 289h54l-46 -289q-15 -97 34.5 -163t145.5 -66q88 0 155.5 59t90.5 146z" />
    <glyph glyph-name="Umacron" unicode="&#x16a;" horiz-adv-x="666" 
d="M626 786h-337l9 53h337zM594 238l77 488h55l-77 -488q-39 -247 -317 -247q-133 0 -196.5 58t-42.5 189l77 488h55l-77 -488q-31 -195 192 -195t254 195z" />
    <glyph glyph-name="umacron" unicode="&#x16b;" horiz-adv-x="652" 
d="M591 620h-332l8 52h332zM578 248l50 313h55l-86 -563h-53l13 100q-93 -108 -234 -108q-121 0 -182.5 80.5t-42.5 201.5l46 289h54l-46 -289q-15 -97 34.5 -163t145.5 -66q88 0 155.5 59t90.5 146z" />
    <glyph glyph-name="Ubreve" unicode="&#x16c;" horiz-adv-x="666" 
d="M572 925h53q-12 -77 -56 -120.5t-115 -43.5t-101 43.5t-18 120.5h52q-8 -52 10.5 -81.5t64.5 -29.5t73.5 29.5t36.5 81.5zM594 238l77 488h55l-77 -488q-39 -247 -317 -247q-133 0 -196.5 58t-42.5 189l77 488h55l-77 -488q-31 -195 192 -195t254 195z" />
    <glyph glyph-name="ubreve" unicode="&#x16d;" horiz-adv-x="652" 
d="M538 756h51q-12 -76 -55 -118.5t-114 -42.5q-70 0 -99 43t-17 118h52q-9 -50 9.5 -79.5t62.5 -29.5q46 0 73.5 29t36.5 80zM578 248l50 313h55l-86 -563h-53l13 100q-93 -108 -234 -108q-121 0 -182.5 80.5t-42.5 201.5l46 289h54l-46 -289q-15 -97 34.5 -163t145.5 -66
q88 0 155.5 59t90.5 146z" />
    <glyph glyph-name="Uring" unicode="&#x16e;" horiz-adv-x="666" 
d="M485 960q45 0 70 -28.5t18 -73.5t-41 -74t-79 -29t-70 29t-18 74q7 44 41.5 73t78.5 29zM477 907q-20 0 -37 -14.5t-20 -34.5q-3 -21 8.5 -36t32.5 -15t37 15t20 36q3 21 -9 35t-32 14zM594 238l77 488h55l-77 -488q-39 -247 -317 -247q-133 0 -196.5 58t-42.5 189
l77 488h55l-77 -488q-31 -195 192 -195t254 195z" />
    <glyph glyph-name="uring" unicode="&#x16f;" horiz-adv-x="652" 
d="M451 791q45 0 70 -28.5t18 -72.5t-41 -72t-79 -28q-43 0 -68 28t-18 72t41 72.5t77 28.5zM443 738q-19 0 -35 -14t-20 -34q-3 -20 8.5 -34t31.5 -14q21 0 37.5 14t19.5 34q4 21 -8.5 34.5t-33.5 13.5zM578 248l50 313h55l-86 -563h-53l13 100q-93 -108 -234 -108
q-121 0 -182.5 80.5t-42.5 201.5l46 289h54l-46 -289q-15 -97 34.5 -163t145.5 -66q88 0 155.5 59t90.5 146z" />
    <glyph glyph-name="Uhungarumlaut" unicode="&#x170;" horiz-adv-x="666" 
d="M360 763h-63l142 191h64zM496 763h-63l142 191h64zM594 238l77 488h55l-77 -488q-39 -247 -317 -247q-133 0 -196.5 58t-42.5 189l77 488h55l-77 -488q-31 -195 192 -195t254 195z" />
    <glyph glyph-name="uhungarumlaut" unicode="&#x171;" horiz-adv-x="652" 
d="M329 597h-61l139 188h63zM463 597h-62l140 188h63zM578 248l50 313h55l-86 -563h-53l13 100q-93 -108 -234 -108q-121 0 -182.5 80.5t-42.5 201.5l46 289h54l-46 -289q-15 -97 34.5 -163t145.5 -66q88 0 155.5 59t90.5 146z" />
    <glyph glyph-name="Uogonek" unicode="&#x172;" horiz-adv-x="666" 
d="M594 238l77 488h55l-77 -488q-39 -245 -307 -247q-65 -32 -87 -50q-30 -27 -35 -56q-4 -24 9.5 -36t38.5 -12q40 0 87 32l15 -52q-36 -21 -56 -27t-54 -6q-49 0 -76 26t-19 75q11 66 84 112q-190 32 -156 241l77 488h55l-77 -488q-31 -195 192 -195t254 195z" />
    <glyph glyph-name="uogonek" unicode="&#x173;" horiz-adv-x="658" 
d="M569 -131l16 -50q-36 -21 -56 -27t-53 -6q-49 0 -75 25.5t-18 73.5q15 93 165 149l9 64q-93 -108 -234 -108q-121 0 -182.5 80.5t-42.5 201.5l46 289h54l-46 -289q-15 -97 34.5 -163t145.5 -66q88 0 155.5 59t90.5 146l50 313h55l-83 -541l-3 -22h-18q-84 -38 -107 -57
q-30 -26 -35 -56q-4 -23 9.5 -35.5t37.5 -12.5q39 0 85 32z" />
    <glyph glyph-name="Wcircumflex" unicode="&#x174;" horiz-adv-x="1080" 
d="M824 763h-68l-75 120l-113 -120h-68l173 186h38zM681 700l106 -573l297 599h56l-380 -768l-122 658l-330 -658l-138 768h57l108 -599l295 585l4 14h3l6 13l2 -13h22l6 15l3 -15h35z" />
    <glyph glyph-name="wcircumflex" unicode="&#x175;" horiz-adv-x="903" 
d="M387 597l170 184h37l112 -184h-67l-74 119l-111 -119h-67zM525 561h28l110 -413l214 413h58l-291 -561l-121 456l-266 -456l-113 561h57l83 -413z" />
    <glyph glyph-name="Ycircumflex" unicode="&#x176;" horiz-adv-x="726" 
d="M323 763l172 186h38l113 -186h-66l-76 120l-114 -120h-67zM237 726l180 -388l301 388h68l-352 -446l-44 -280h-54l44 280l-210 446h67z" />
    <glyph glyph-name="ycircumflex" unicode="&#x177;" horiz-adv-x="617" 
d="M244 597l170 184h38l110 -184h-65l-76 119l-110 -119h-67zM203 561l117 -486l267 486h60l-371 -676q-44 -75 -81 -105q-44 -30 -99 -30q-31 0 -61 13l11 64q33 -23 60 -23q34 0 60 19q27 20 60 80l53 97l-135 561h59z" />
    <glyph glyph-name="Ydieresis" unicode="&#x178;" horiz-adv-x="726" 
d="M404 863q17 0 29 -12q10 -12 6 -30q-3 -19 -16.5 -30.5t-32.5 -11.5q-17 0 -27.5 12t-7.5 30t17 30t32 12zM597 863q16 0 28 -12q9 -16 6 -30q-3 -19 -16.5 -30.5t-31.5 -11.5q-42 0 -36 42q3 17 16 31q16 11 34 11zM237 726l180 -388l301 388h68l-352 -446l-44 -280h-54
l44 280l-210 446h67z" />
    <glyph glyph-name="Zacute" unicode="&#x179;" horiz-adv-x="667" 
d="M572 954l-143 -191h-63l142 191h64zM178 726h529l-6 -40l-562 -633h481l-8 -53h-557l6 40l561 633h-452z" />
    <glyph glyph-name="zacute" unicode="&#x17a;" horiz-adv-x="571" 
d="M497 785l-141 -188h-61l139 188h63zM152 52h372l-8 -52h-452l6 41l434 468h-368l8 52h446l-7 -41z" />
    <glyph glyph-name="Zdotaccent" unicode="&#x17b;" horiz-adv-x="667" 
d="M470 863q16 0 28 -12q10 -15 7 -30q-3 -19 -17 -30.5t-32 -11.5t-28 12t-7 30t16.5 30t32.5 12zM178 726h529l-6 -40l-562 -633h481l-8 -53h-557l6 40l561 633h-452z" />
    <glyph glyph-name="zdotaccent" unicode="&#x17c;" horiz-adv-x="571" 
d="M396 695q19 0 28 -11q9 -13 7 -30q-3 -19 -16.5 -30t-31.5 -11t-28 11.5t-7 29.5q2 18 16 29.5t32 11.5zM152 52h372l-8 -52h-452l6 41l434 468h-368l8 52h446l-7 -41z" />
    <glyph glyph-name="Zcaron" unicode="&#x17d;" horiz-adv-x="667" 
d="M390 949l75 -120l113 120h67l-172 -186h-38l-114 186h69zM178 726h529l-6 -40l-562 -633h481l-8 -53h-557l6 40l561 633h-452z" />
    <glyph glyph-name="zcaron" unicode="&#x17e;" horiz-adv-x="571" 
d="M318 781l74 -119l111 119h67l-170 -184h-37l-112 184h67zM152 52h372l-8 -52h-452l6 41l434 468h-368l8 52h446l-7 -41z" />
    <glyph glyph-name="florin" unicode="&#x192;" horiz-adv-x="450" 
d="M500 738q-84 0 -122 -115l-54 -175h169l-8 -52h-177l-116 -366q-50 -161 -180 -161q-27 0 -43.5 6t-41.5 23l31 47q33 -23 63 -23q76 0 118 115l112 359h-158l8 52h166l58 182q49 161 176 161q21 0 40 -3q23 -9 41 -19l-16 -53q-46 22 -66 22z" />
    <glyph glyph-name="circumflex" unicode="&#x2c6;" horiz-adv-x="341" 
d="M106 607l174 187h38l112 -187h-67l-75 121l-114 -121h-68z" />
    <glyph glyph-name="caron" unicode="&#x2c7;" horiz-adv-x="342" 
d="M202 794l75 -122l114 122h67l-172 -187h-38l-114 187h68z" />
    <glyph glyph-name="uni02C9" unicode="&#x2c9;" horiz-adv-x="363" 
d="M453 630h-338l8 53h338z" />
    <glyph glyph-name="breve" unicode="&#x2d8;" horiz-adv-x="315" 
d="M373 769h53q-12 -77 -56 -120.5t-115 -43.5t-101 43.5t-18 120.5h52q-8 -52 10.5 -81t64.5 -29q92 0 110 110z" />
    <glyph glyph-name="dotaccent" unicode="&#x2d9;" horiz-adv-x="111" 
d="M168 706q14 0 28 -9q10 -15 7 -33t-16.5 -29.5t-31.5 -11.5t-28 11.5t-8 29.5q3 19 16.5 30.5t32.5 11.5z" />
    <glyph glyph-name="ring" unicode="&#x2da;" horiz-adv-x="247" 
d="M248 804q45 0 70 -28.5t18 -74.5q-7 -45 -41 -73.5t-79 -28.5q-44 0 -69.5 29t-18.5 73q7 45 41.5 74t78.5 29zM240 750q-21 0 -37.5 -14t-19.5 -35t8.5 -35t32.5 -14t37.5 14t19.5 35q4 21 -8 35t-33 14z" />
    <glyph glyph-name="ogonek" unicode="&#x2db;" horiz-adv-x="240" 
d="M172 47h39l3 -32q-34 -14 -50.5 -21.5t-48 -24.5t-47.5 -36.5t-20 -41.5q-4 -24 10 -36t39 -12q41 0 87 33l15 -52q-37 -21 -57 -27.5t-53 -6.5q-49 0 -76 26.5t-19 74.5q15 97 178 156z" />
    <glyph glyph-name="tilde" unicode="&#x2dc;" horiz-adv-x="397" 
d="M454 749h54q-22 -61 -51 -93t-81 -32q-51 0 -90 42q-25 30 -52 30q-18 0 -31.5 -11t-19.5 -24.5t-14 -37.5h-56q22 62 50.5 93.5t80.5 31.5q32 0 49.5 -9t38.5 -33q28 -30 52 -30q26 0 40 17.5t30 55.5z" />
    <glyph glyph-name="hungarumlaut" unicode="&#x2dd;" horiz-adv-x="346" 
d="M172 607h-62l143 192h64zM308 607h-62l143 192h64z" />
    <glyph glyph-name="uni0326" unicode="&#x326;" horiz-adv-x="0" 
d="M-164 -238h-53l96 206h61z" />
    <glyph glyph-name="pi" unicode="&#x3c0;" horiz-adv-x="364" 
d="M99 562h333l-8 -52h-92l-81 -510h-55l81 510h-52l-81 -510h-55l81 510h-79z" />
    <glyph glyph-name="Wgrave" unicode="&#x1e80;" horiz-adv-x="1080" 
d="M604 954h65l81 -191h-62zM681 700l106 -573l297 599h56l-380 -768l-122 658l-330 -658l-138 768h57l108 -599l295 585l4 14h3l6 13l2 -13h22l6 15l3 -15h35z" />
    <glyph glyph-name="wgrave" unicode="&#x1e81;" horiz-adv-x="903" 
d="M633 597h-60l-84 188h64zM525 561h28l110 -413l214 413h58l-291 -561l-121 456l-266 -456l-113 561h57l83 -413z" />
    <glyph glyph-name="Wacute" unicode="&#x1e82;" horiz-adv-x="1080" 
d="M574 763l141 191h65l-144 -191h-62zM681 700l106 -573l297 599h56l-380 -768l-122 658l-330 -658l-138 768h57l108 -599l295 585l4 14h3l6 13l2 -13h22l6 15l3 -15h35z" />
    <glyph glyph-name="wacute" unicode="&#x1e83;" horiz-adv-x="903" 
d="M662 785l-141 -188h-61l139 188h63zM525 561h28l110 -413l214 413h58l-291 -561l-121 456l-266 -456l-113 561h57l83 -413z" />
    <glyph glyph-name="Wdieresis" unicode="&#x1e84;" horiz-adv-x="1080" 
d="M568 779q-18 0 -28 12t-7 30t16.5 30t32.5 12q16 0 28 -12q10 -15 7 -30q-3 -19 -17 -30.5t-32 -11.5zM759 779q-18 0 -28 11t-7 31q3 18 17 32q17 10 32 10q18 0 30 -12q8 -17 5 -30q-3 -19 -16.5 -30.5t-32.5 -11.5zM681 700l106 -573l297 599h56l-380 -768l-122 658
l-330 -658l-138 768h57l108 -599l295 585l4 14h3l6 13l2 -13h22l6 15l3 -15h35z" />
    <glyph glyph-name="wdieresis" unicode="&#x1e85;" horiz-adv-x="903" 
d="M467 695q20 0 29 -11q8 -14 6 -30q-3 -19 -16.5 -30t-31.5 -11t-27.5 11.5t-6.5 29.5q2 18 15 29.5t32 11.5zM655 695q22 0 29 -11q9 -13 7 -30q-7 -41 -49 -41q-19 0 -28.5 10.5t-5.5 30.5q2 18 17 32q13 9 30 9zM525 561h28l110 -413l214 413h58l-291 -561l-121 456
l-266 -456l-113 561h57l83 -413z" />
    <glyph glyph-name="endash" unicode="&#x2013;" horiz-adv-x="680" 
d="M648 273h-530l9 55h530z" />
    <glyph glyph-name="emdash" unicode="&#x2014;" horiz-adv-x="1023" 
d="M991 273h-873l9 55h873z" />
    <glyph glyph-name="quoteleft" unicode="&#x2018;" horiz-adv-x="247" 
d="M214 651h3q16 0 30 -13q6 -20 4 -29q-2 -18 -16.5 -30.5t-32.5 -12.5q-26 0 -36.5 19.5t-6.5 46.5q13 82 103 129l47 -39q-24 -8 -39.5 -15.5t-32.5 -22t-23 -33.5z" />
    <glyph glyph-name="quoteright" unicode="&#x2019;" horiz-adv-x="246" 
d="M260 755q54 0 42 -66q-13 -82 -102 -129l-47 38q78 28 95 72h-4q-18 0 -27.5 12.5t-6.5 30.5t17.5 30t32.5 12z" />
    <glyph glyph-name="quotesinglbase" unicode="&#x201a;" horiz-adv-x="248" 
d="M186 51q4 -17 1 -38q-14 -84 -102 -127l-45 37q75 27 93 71h-5q-17 0 -27 13t-7 30q3 18 18.5 30.5t32.5 12.5q32 0 41 -29z" />
    <glyph glyph-name="quotedblleft" unicode="&#x201c;" horiz-adv-x="349" 
d="M214 651h3q16 0 30 -13q6 -20 4 -29q-2 -18 -16.5 -30.5t-32.5 -12.5q-26 0 -36.5 19.5t-6.5 46.5q13 82 103 129l47 -39q-24 -8 -39.5 -15.5t-32.5 -22t-23 -33.5zM316 651h3q17 0 30 -13q6 -20 4 -29q-2 -18 -16 -30.5t-33 -12.5q-26 0 -36.5 19.5t-6.5 46.5
q13 82 103 129l47 -39q-24 -8 -39.5 -15.5t-32.5 -22t-23 -33.5z" />
    <glyph glyph-name="quotedblright" unicode="&#x201d;" horiz-adv-x="348" 
d="M260 755q54 0 42 -66q-13 -82 -102 -129l-47 38q78 28 95 72h-4q-18 0 -27.5 12.5t-6.5 30.5t17.5 30t32.5 12zM362 755q54 0 42 -66q-13 -82 -101 -129l-48 38q78 28 95 72h-4q-17 0 -27 12.5t-7 30.5t17.5 30t32.5 12z" />
    <glyph glyph-name="quotedblbase" unicode="&#x201e;" horiz-adv-x="349" 
d="M186 51q4 -17 1 -38q-14 -84 -102 -127l-45 37q75 27 93 71h-5q-17 0 -27 13t-7 30q3 18 18.5 30.5t32.5 12.5q32 0 41 -29zM288 51q4 -17 1 -38q-14 -84 -102 -127l-45 37q75 28 93 71h-4q-18 0 -28 13t-7 30q3 18 18.5 30.5t32.5 12.5q32 0 41 -29z" />
    <glyph glyph-name="dagger" unicode="&#x2020;" horiz-adv-x="574" 
d="M375 726h54l-35 -218h206l-8 -52h-206l-88 -560h-54l88 560h-206l8 52h206z" />
    <glyph glyph-name="daggerdbl" unicode="&#x2021;" horiz-adv-x="574" 
d="M429 726l-35 -218h206l-8 -52h-206l-46 -290h206l-8 -52h-206l-34 -218h-54l34 218h-206l8 52h206l46 290h-206l8 52h206l35 218h54z" />
    <glyph glyph-name="bullet" unicode="&#x2022;" horiz-adv-x="503" 
d="M323 454q36 0 55.5 -23t13.5 -58q-5 -35 -32.5 -58.5t-62.5 -23.5q-34 0 -53 23.5t-14 58.5q6 35 32.5 58t60.5 23z" />
    <glyph glyph-name="ellipsis" unicode="&#x2026;" horiz-adv-x="600" 
d="M130 80q16 0 29 -11q10 -13 7 -32q-3 -18 -17 -30.5t-33 -12.5t-28.5 12t-6.5 31t17 31t32 12zM313 80q15 0 28 -10q11 -14 8 -33q-3 -18 -17.5 -30.5t-32.5 -12.5q-19 0 -28.5 12t-6.5 31t17 31t32 12zM497 80q15 0 28 -10q10 -13 7 -33q-3 -18 -17 -30.5t-32 -12.5
q-20 0 -29 12t-6 31q3 20 16.5 31.5t32.5 11.5z" />
    <glyph glyph-name="perthousand" unicode="&#x2030;" horiz-adv-x="1197" 
d="M322 726q80 0 112.5 -56.5t19.5 -138.5q-13 -83 -62.5 -136.5t-130.5 -53.5q-80 0 -113.5 54t-20.5 136t64.5 138.5t130.5 56.5zM742 726h66l-607 -726h-66zM314 673q-55 0 -88.5 -41.5t-42.5 -100.5t11 -98.5t75 -39.5t87.5 39.5t41.5 98.5t-10.5 100.5t-73.5 41.5z
M684 385q80 0 113 -55t20 -137t-63.5 -137.5t-130.5 -55.5t-114 55.5t-20 137.5q13 82 64 137t131 55zM1052 385q81 0 113.5 -55t19.5 -137t-63.5 -137.5t-130.5 -55.5t-114 55.5t-20 137.5q13 82 63.5 137t131.5 55zM676 333q-55 0 -89 -40.5t-43 -99.5q-10 -59 10.5 -99.5
t76.5 -40.5q54 0 87.5 40.5t43.5 99.5q9 58 -11.5 99t-74.5 41zM1044 333q-55 0 -89 -41t-43 -99q-10 -59 11 -99.5t76 -40.5q54 0 87 40.5t43 99.5q9 59 -11 99.5t-74 40.5z" />
    <glyph glyph-name="guilsinglleft" unicode="&#x2039;" horiz-adv-x="340" 
d="M226 72l-128 224l199 223h70l-198 -223l127 -224h-70z" />
    <glyph glyph-name="guilsinglright" unicode="&#x203a;" horiz-adv-x="340" 
d="M136 72h-70l200 224l-129 223h70l130 -223z" />
    <glyph glyph-name="fraction" unicode="&#x2044;" horiz-adv-x="553" 
d="M550 756l70 16l-505 -808l-67 -9z" />
    <glyph glyph-name="uni207A" unicode="&#x207a;" horiz-adv-x="386" 
d="M282 729h53l-20 -129h128l-8 -53h-128l-21 -128h-53l21 128h-128l8 53h128z" />
    <glyph glyph-name="uni207B" unicode="&#x207b;" horiz-adv-x="387" 
d="M139 600h299l-8 -53h-299z" />
    <glyph glyph-name="uni207C" unicode="&#x207c;" horiz-adv-x="452" 
d="M173 658h314l-8 -53h-314zM155 543h314l-8 -53h-314z" />
    <glyph glyph-name="uni208A" unicode="&#x208a;" horiz-adv-x="386" 
d="M196 185h53l-20 -127h128l-8 -54h-128l-20 -127h-53l20 127h-128l8 54h128z" />
    <glyph glyph-name="uni208B" unicode="&#x208b;" horiz-adv-x="387" 
d="M53 58h299l-8 -54h-299z" />
    <glyph glyph-name="uni208C" unicode="&#x208c;" horiz-adv-x="452" 
d="M87 115h314l-8 -53h-314zM69 0h314l-8 -52h-314z" />
    <glyph glyph-name="Euro" unicode="&#x20ac;" horiz-adv-x="722" 
d="M652 232l46 -27q-41 -98 -113.5 -156t-167.5 -58q-118 0 -178.5 73.5t-62.5 194.5h-96l8 53h92q1 22 6 51q11 51 11 52h-92l8 53h96q40 123 122.5 195t201.5 72q184 0 214 -172l-51 -39q-29 159 -171 159q-94 0 -158.5 -58.5t-99.5 -156.5h320l-47 -53h-288q0 -1 -11 -52
l-6 -51h285l-47 -53h-239q2 -97 49.5 -156.5t141.5 -59.5q77 0 134.5 52t92.5 137z" />
    <glyph glyph-name="trademark" unicode="&#x2122;" horiz-adv-x="833" 
d="M403 730l128 -301l129 301h48v-393h-52v246l-103 -246h-42l-104 246l1 -246h-54v341h-114v-341h-54v341h-133v52h350z" />
    <glyph glyph-name="uni2126" unicode="&#x2126;" horiz-adv-x="802" 
d="M588 53h154l-8 -53h-281l7 47q238 84 277 327q21 133 -37.5 221t-190.5 88q-131 0 -217.5 -86.5t-108.5 -222.5q-37 -243 172 -327l-7 -47h-281l8 53h155q-135 117 -103 321q25 158 128 259.5t262 101.5q157 0 228.5 -99.5t46.5 -261.5q-33 -212 -204 -321z" />
    <glyph glyph-name="arrowleft" unicode="&#x2190;" horiz-adv-x="823" 
d="M199 391h621l-9 -55h-576l-45 1q115 -101 236 -293l-56 -31q-59 104 -127.5 184t-162.5 156l3 22q120 79 214.5 158.5t183.5 181.5l46 -31q-178 -192 -328 -293z" />
    <glyph glyph-name="arrowup" unicode="&#x2191;" horiz-adv-x="841" 
d="M524 734h21q62 -109 128 -189t160 -155l-40 -50q-164 141 -248 282l-99 -622h-55l98 621q-132 -145 -336 -281l-23 50q216 141 394 344z" />
    <glyph glyph-name="arrowright" unicode="&#x2192;" horiz-adv-x="825" 
d="M512 684l56 31q109 -188 292 -340l-3 -22q-118 -76 -212.5 -156t-187.5 -184l-46 31q183 194 327 293l-44 -1h-576l9 55h621q-122 107 -236 293z" />
    <glyph glyph-name="arrowdown" unicode="&#x2193;" horiz-adv-x="843" 
d="M803 387l25 -51q-214 -138 -396 -344h-20q-60 106 -128 188t-161 156l41 51q167 -146 248 -282l98 621h55l-98 -621q120 134 336 282z" />
    <glyph glyph-name="arrowboth" unicode="&#x2194;" horiz-adv-x="1018" 
d="M711 702l56 32q59 -104 127 -184t162 -157l-3 -20q-227 -149 -397 -342l-46 32q166 184 325 292h-742q127 -110 235 -292l-56 -32q-62 106 -129 186t-160 156l3 20q118 76 209.5 155t187.5 186l46 -32q-176 -192 -327 -291h742q-117 97 -233 291z" />
    <glyph glyph-name="arrowupdn" unicode="&#x2195;" horiz-adv-x="841" 
d="M562 734l-117 -742q126 136 337 281l24 -52q-114 -73 -208 -155.5t-188 -187.5h-21q-59 105 -125.5 184t-160.5 159l39 52q167 -143 248 -281l117 742q-120 -132 -336 -280l-23 51q210 136 394 343h21q61 -107 129 -188.5t159 -154.5l-40 -51q-163 141 -249 280z" />
    <glyph glyph-name="partialdiff" unicode="&#x2202;" horiz-adv-x="620" 
d="M392 735q82 0 134 -31.5t70.5 -83t22 -118.5t-11.5 -139q-11 -71 -33 -132t-59 -117.5t-96.5 -89.5t-134.5 -33q-106 0 -163 67t-40 174q17 105 91.5 171t181.5 66q140 0 200 -93q11 57 8 112.5t-17 98.5t-55 69.5t-106 26.5q-90 0 -156 -81l-36 40q88 93 200 93zM291 43
q95 0 155.5 67t87.5 170q-27 136 -189 136q-78 0 -137 -51.5t-72 -130.5q-13 -81 30.5 -136t124.5 -55z" />
    <glyph glyph-name="uni2206" unicode="&#x2206;" horiz-adv-x="672" 
d="M31 0l6 38l389 688h52l169 -688l-6 -38h-610zM439 642l-332 -589h475z" />
    <glyph glyph-name="product" unicode="&#x220f;" horiz-adv-x="696" 
d="M119 -133h-54l136 859h525l-136 -859h-55l128 806h-416z" />
    <glyph glyph-name="summation" unicode="&#x2211;" horiz-adv-x="637" 
d="M437 308l-295 377l7 41h556l-8 -53h-468l276 -358l-3 -16l-397 -378h472l-8 -54h-556l7 42z" />
    <glyph glyph-name="minus" unicode="&#x2212;" horiz-adv-x="676" 
d="M643 322h-507l8 53h507z" />
    <glyph glyph-name="uni2215" unicode="&#x2215;" horiz-adv-x="553" 
d="M550 756l70 16l-505 -808l-67 -9z" />
    <glyph glyph-name="uni2219" unicode="&#x2219;" horiz-adv-x="247" 
d="M190 425q18 0 29 -9q11 -15 8 -33t-17 -30t-33 -12t-28.5 11.5t-6.5 30.5t16.5 30.5t31.5 11.5z" />
    <glyph glyph-name="radical" unicode="&#x221a;" horiz-adv-x="671" 
d="M236 404l74 -309l433 795h61l-487 -890h-45l-82 351h-113l8 53h151z" />
    <glyph glyph-name="infinity" unicode="&#x221e;" horiz-adv-x="947" 
d="M799 555q84 0 116.5 -66t18.5 -155q-14 -87 -67 -153t-138 -66q-51 0 -74 10.5t-54 47.5q-31 39 -82 118l-48 -48l-42 -42t-25 -26q-40 -36 -69.5 -48t-77.5 -12q-51 0 -85 28t-47 76q-17 44 -6 115q14 88 68 154.5t140 66.5q48 0 74 -12t53 -48q34 -44 80 -115
q31 31 115 111q68 64 150 64zM401 244q10 11 22.5 23t32.5 32l35 35l-13 18q-65 97 -68 101q-27 31 -43 40q-16 8 -47 8q-58 0 -96.5 -52t-48.5 -115q-10 -62 13 -114t80 -52q34 0 53 9.5t51 37.5q2 2 7.5 8t11 11t10.5 10zM737 168q56 0 94 52t48 114q16 96 -38 148
q-28 19 -54 19q-52 0 -113 -55q-27 -25 -112 -110q9 -13 21.5 -31t21.5 -31t16 -22l26 -37q21 -28 38.5 -37.5t51.5 -9.5z" />
    <glyph glyph-name="integral" unicode="&#x222b;" horiz-adv-x="454" 
d="M482 828q48 0 89 -30l-31 -52q-31 28 -66 28q-93 0 -111 -102l-102 -649q-25 -156 -174 -156q-50 0 -93 34l32 46q40 -26 65 -26q99 0 116 102l102 649q12 74 56 115t117 41z" />
    <glyph glyph-name="approxequal" unicode="&#x2248;" horiz-adv-x="676" 
d="M308 502q45 0 111 -34l5 -3q62 -32 97 -32q42 0 138 87l-12 -77q-74 -62 -136 -62q-46 0 -101 31l-9 4q-64 34 -102 34q-28 0 -48 -11q-29 -15 -95 -77l13 80q40 31 70 45.5t69 14.5zM277 309q20 0 27 -0.5t19 -3.5t22 -11q1 -1 5.5 -2.5t5.5 -2.5q4 -2 16.5 -7.5
t20.5 -9.5q64 -33 97 -33q42 0 139 88l-13 -78q-72 -62 -135 -62q-57 0 -106 32l-5 3q-51 34 -101 34q-28 0 -49 -12q-25 -12 -94 -75l12 77q71 63 139 63z" />
    <glyph glyph-name="notequal" unicode="&#x2260;" horiz-adv-x="676" 
d="M591 608l-81 -130h147l-9 -53h-173l-101 -159h249l-8 -54h-273l-87 -135h-62l86 135h-149l8 54h176l100 159h-251l9 53h278l82 130h59z" />
    <glyph glyph-name="lessequal" unicode="&#x2264;" horiz-adv-x="676" 
d="M606 102l-458 282l7 43l546 271l-11 -64l-464 -228l391 -238zM95 53h503l-8 -53h-503z" />
    <glyph glyph-name="greaterequal" unicode="&#x2265;" horiz-adv-x="676" 
d="M114 168l465 238l-392 228l11 64l460 -271l-7 -43l-548 -282zM95 53h503l-8 -53h-503z" />
    <glyph glyph-name="a.alt" 
d="M413 558q135 0 198 -102l14 85h55l-86 -541h-55l15 95q-93 -103 -230 -103q-121 0 -183 80.5t-43 201.5t107 202.5t208 81.5zM332 45q88 0 155.5 58.5t90.5 145.5l8 48q4 89 -44.5 148t-136.5 59q-96 0 -166.5 -66.5t-86.5 -163.5q-15 -98 34.5 -163.5t145.5 -65.5z" />
    <glyph glyph-name="e.alt" 
d="M330 45q124 0 206 107l64 3q-55 -76 -127 -119.5t-151 -43.5q-120 0 -181.5 80.5t-42.5 201.5q19 120 106.5 202t206.5 82q121 0 182.5 -86.5t39.5 -226.5h-483q-3 -87 45.5 -143.5t134.5 -56.5zM403 504q-88 0 -155.5 -58t-89.5 -148h428q7 90 -42.5 148t-140.5 58z" />
    <glyph glyph-name="space.tf" horiz-adv-x="332" 
 />
    <glyph glyph-name="_FSHallmark" horiz-adv-x="914" 
d="M57 609v95h802v-95h-802zM686 160q-38 0 -66 9q-33 8 -56 26q-25 21 -40 46q-16 27 -16 64l93 -2q0 -4 6 -16q1 -12 13 -24q13 -13 24 -16q17 -10 46 -10q30 0 52 11q17 10 17 26q0 29 -76 44q-75 22 -117 44q-48 24 -48 79q0 45 32 73q28 23 70 39q1 0 26 3.5t40 3.5
q40 0 90 -19q46 -17 65 -63q10 -24 10 -47h-96q0 12 -7 22q-5 8 -18 17q-3 1 -10.5 4.5t-12.5 4.5q-3 0 -11 2.5t-12 2.5q-22 0 -45 -14q-19 -11 -19 -29q0 -30 18 -39q33 -13 41 -14l36 -10l29 -7q4 0 13.5 -3t15.5 -3q18 -5 22 -7l20 -9q19 -12 31 -26q11 -25 12 -44
q1 -21 -10 -47q-23 -41 -72 -58q-42 -14 -90 -14zM356 378v-89h-194v-129h-105v399h337v-90h-232v-91h194zM433 162q-16 0 -31 15q-17 14 -17 32q0 19 15 33q13 13 33 13t39 -14q16 -14 16 -32q0 -19 -16 -35q-18 -12 -39 -12zM55 16v95h803v-95h-803z" />
    <glyph glyph-name="_Fontastica" horiz-adv-x="689" 
d="M482 377v-91h-341v-170h-98l-3 4v589h442v-87h-341v-245h341zM548 543v166h101v-593h-442v92h341v241h-341v94h341zM153 81q6 -3 12 -13q5 -7 5 -16t-5 -17q-5 -7 -12 -12q-7 -4 -17 -4q-8 0 -18 4q-7 2 -13 12q-5 8 -5 17q0 6 5 16q5 9 13 13q10 4 18 4q10 0 17 -4z
M410 55q2 -1 7 -6q4 -4 4 -10q0 -7 -4 -11q-6 -6 -9 -7q-8 -2 -13 -2q-1 0 -16 3q-6 1 -14 7l7 13q4 -4 11 -7t12 -3q4 0 6 2t2 4l-1 2q-1 1 -1 2l-3 2q-3 0 -7 2q-2 1 -6 1.5t-6 1.5q-5 4 -7 6q-3 5 -3 11q0 7 3 10q5 5 10 7q6 2 13 2q4 0 14 -2q4 -1 12 -5l-7 -14
q-5 5 -11 6q-4 1 -10 1h-5l-1 -4q0 -1 1 -3l3 -3q2 0 4 -1t3 -1zM560 41l10 -10q-4 -6 -12 -9t-14 -3q-10 0 -17 4q-4 2 -12 12q-5 6 -5 17q0 6 5 16q5 11 12 13q10 4 17 4q8 0 15 -3q6 -3 11 -8l-10 -12q-2 4 -7 6q-1 0 -4 1.5t-4 1.5l-9 -3q-4 -1 -6 -6q-2 -3 -2 -10
q0 -3 2 -9t6 -7q6 -3 9 -3q1 0 4 1.5t4 1.5q5 2 7 5zM95 43h-29v-23h-17v64h48v-13h-31v-15h29v-13zM178 20v64h15l29 -39v39h16v-64h-15l-29 38v-38h-16zM264 70h-19v14h54v-14h-18v-50h-17v50zM314 32l-4 -12h-17l27 64h17l27 -64h-18l-4 12h-28zM459 20h-16v50h-19v14h54
v-14h-19v-50zM485 20v64h17v-64h-17zM587 20h-17l28 64h17l27 -64h-18l-5 12h-27zM150 42q3 3 3 10l-3 9q-2 5 -5 7q-5 3 -9 3q-6 0 -10 -3q-4 -2 -6 -7q-2 -6 -2 -9q0 -7 2 -10q4 -6 6 -7q9 -3 10 -3q6 0 9 3q1 1 2.5 3.5t2.5 3.5zM319 44h18l-9 23zM597 44h17l-9 23z" />
    <glyph glyph-name="_www.fontastica.com" horiz-adv-x="2013" 
d="M218 278v-32h-122v-60h-34l-2 1v209h158v-31h-122v-87h122zM241 337v59h36v-210h-158v32h122v86h-122v33h122zM1322 302q16 -9 20 -16q8 -11 8 -29q0 -17 -9 -29q-8 -11 -26 -19q-15 -6 -35 -6q-21 0 -43 8q-23 8 -38 20l18 36q10 -9 32 -19q18 -8 31 -8q10 0 16 4
q7 4 7 11t-5 10q-3 2 -11 6q-4 2 -18 6q-28 9 -31 10q-15 6 -20 15q-7 10 -7 28q0 17 8 28q7 10 25 19q14 7 36 7q12 0 38 -6q15 -4 32 -14l-17 -36q-15 8 -30 13q-13 5 -27 5q-8 0 -13 -3t-5 -9q0 -5 4 -9q6 -6 11 -7q1 0 7 -2.5t11 -3.5q20 -5 31 -10zM622 371
q22 -12 33 -32q12 -21 12 -46t-12 -46t-33 -33q-22 -12 -49 -12t-48 12q-22 13 -34 33q-12 21 -12 46t12 46q11 19 34 32q21 12 48 12t49 -12zM1732 263l27 -28q-15 -15 -34 -24t-39 -9q-25 0 -46 12q-19 11 -33 33q-12 19 -12 46q0 25 12 46q11 20 33 32t48 12q23 0 39 -8
q21 -10 31 -22l-26 -32q-8 11 -20 17t-23 6q-13 0 -24 -6q-15 -9 -18 -18q-6 -16 -6 -26q0 -16 6 -26q6 -9 18 -18q10 -7 24 -7q12 0 22 5q12 6 21 15zM462 268h-78v-62h-45v174h130v-36h-85v-39h78v-37zM690 206v174h40l80 -105l-1 105h43v-174h-40l-79 104v-104h-43z
M923 343h-52v37h150v-37h-53v-137h-45v137zM1061 236l-12 -30h-47l75 174h47l73 -174h-48l-12 30h-76zM1456 206h-46v137h-52v37h150v-37h-52v-137zM1527 206v174h45v-174h-45zM1805 206h-47l75 174h47l73 -174h-49l-11 30h-76zM614 267q7 11 7 26q0 7 -7 26q-5 13 -16 19
q-10 6 -24 6t-24 -6q-12 -8 -18 -19q-6 -12 -6 -26t6 -26q5 -10 18 -19q10 -7 24 -7q12 0 24 7q6 4 16 19zM1075 271h48l-23 63zM1831 271h48l-24 63z" />
    </font>
</defs>
</svg>
