<?xml version="1.0" standalone="no"?>
<!DOCTYPE svg PUBLIC "-//W3C//DTD SVG 1.1//EN" "http://www.w3.org/Graphics/SVG/1.1/DTD/svg11.dtd" >
<svg xmlns="http://www.w3.org/2000/svg" xmlns:xlink="http://www.w3.org/1999/xlink" version="1.1">
<metadata>
Created by FontForge 20170731 at Mon Mar  9 20:28:03 2020
 By Aleksey,,,
Copyright (c) 2020 by Fontastica. All rights reserved.
</metadata>
<defs>
<font id="Groteska-BoldItalic" horiz-adv-x="634" >
  <font-face 
    font-family="Groteska"
    font-weight="700"
    font-style="italic"
    font-stretch="normal"
    units-per-em="1000"
    panose-1="0 0 8 0 0 0 0 0 0 0"
    ascent="800"
    descent="-200"
    x-height="551"
    cap-height="726"
    bbox="-308 -225 1953 1053"
    underline-thickness="50"
    underline-position="-200"
    slope="-9"
    unicode-range="U+0020-2265"
  />
<missing-glyph horiz-adv-x="550" 
d="M183 724h412l-115 -723h-412zM337 405l200 284h-307zM454 96l85 533l-187 -266zM125 98l183 265l-100 262zM127 37h307l-109 283z" />
    <glyph glyph-name=".notdef" horiz-adv-x="550" 
d="M183 724h412l-115 -723h-412zM337 405l200 284h-307zM454 96l85 533l-187 -266zM125 98l183 265l-100 262zM127 37h307l-109 283z" />
    <glyph glyph-name=".null" horiz-adv-x="0" 
 />
    <glyph glyph-name="nonmarkingreturn" horiz-adv-x="333" 
 />
    <glyph glyph-name="space" unicode=" " horiz-adv-x="350" 
 />
    <glyph glyph-name="exclam" unicode="!" horiz-adv-x="305" 
d="M204 726h127l-89 -559h-127zM151 -6q-35 0 -52 22.5t-11 57.5q5 33 29 54t59 21q38 0 54 -20.5t11 -54.5q-6 -36 -29 -58t-61 -22z" />
    <glyph glyph-name="quotedbl" unicode="&#x22;" horiz-adv-x="420" 
d="M191 744h127l-41 -260h-127zM339 744h126l-41 -260h-126z" />
    <glyph glyph-name="numbersign" unicode="#" horiz-adv-x="714" 
d="M393 198h-68l-61 -198h-129l60 198h-117l20 126h137l27 88h-122l20 125h142l59 189h131l-61 -189h69l58 189h131l-61 -189h124l-20 -125h-142l-27 -88h126l-20 -126h-145l-61 -198h-131zM433 324l28 88h-68l-28 -88h68z" />
    <glyph glyph-name="dollar" unicode="$" horiz-adv-x="681" 
d="M508 586l-28 -175q45 -9 75 -20.5t57 -33t36.5 -58t1.5 -88.5q-13 -84 -74.5 -140.5t-160.5 -68.5l-15 -94h-125l16 98q-172 29 -189 238l129 67q8 -140 81 -174l26 168q-30 6 -51 12.5t-46 18t-38 25.5t-26.5 35.5t-13.5 49t3 64.5q13 81 76 140.5t163 72.5l15 95h125
l-16 -98q71 -19 115.5 -73t54.5 -138l-123 -81q-15 125 -68 158zM360 440l24 151q-38 -11 -62 -33t-28 -48q-9 -53 66 -70zM459 277l-23 -142q80 23 87 76q7 43 -64 66z" />
    <glyph glyph-name="percent" unicode="%" horiz-adv-x="827" 
d="M667 422q90 0 127.5 -58.5t22.5 -152.5q-14 -93 -70.5 -152t-146.5 -59q-89 0 -128 59t-25 152q6 32 11 47l-216 -258h-153l266 318q-36 -14 -79 -14q-90 0 -128.5 58t-23.5 152q15 93 72 152.5t147 59.5t128 -59.5t23 -152.5q-3 -21 -9 -42l213 254h152l-269 -320
q42 16 86 16zM296 430q28 0 47 23t24 61q6 37 -5.5 62t-38.5 25t-46 -25t-25 -62q-5 -38 6 -61t38 -23zM620 125q26 0 45 25t24 61q6 37 -5 61t-37 24q-28 0 -48.5 -24t-26.5 -61q-5 -36 7.5 -61t40.5 -25z" />
    <glyph glyph-name="ampersand" unicode="&#x26;" horiz-adv-x="632" 
d="M596 125l61 -18l-20 -126l-48 10q-65 12 -115 62q-77 -61 -193 -61q-103 0 -159.5 52.5t-42.5 141.5q12 75 57 125t118 92q-17 29 -25 56q-19 41 -11 92q13 81 72 131.5t144 50.5q81 0 124 -46.5t31 -121.5q-9 -61 -44.5 -109t-110.5 -91q12 -25 21 -37q2 -2 6 -8
q1 -1 3.5 -5t2.5 -5q1 -1 4.5 -7t5.5 -9q0 -6 4 -10l3 -2q1 -2 4 -6.5t4 -6.5q21 53 39 123h133q-55 -172 -96 -237q4 -5 14.5 -15.5t13.5 -14.5zM414 604q-27 0 -45 -14.5t-22 -38.5q-4 -31 25 -83q46 29 65 50.5t23 46.5q6 39 -46 39zM298 118q64 0 108 31q-18 25 -40 63
q-7 14 -8 15l-14 20l-2 7l-3 5q-2 1 -4 5t-4 6l-6 11q-11 14 -14 20q-93 -53 -104 -115q-4 -32 21 -50t70 -18z" />
    <glyph glyph-name="quotesingle" unicode="'" horiz-adv-x="273" 
d="M191 744h127l-41 -260h-127z" />
    <glyph glyph-name="parenleft" unicode="(" horiz-adv-x="381" 
d="M358 -85l-93 -96l-29 27q-90 90 -121 204.5t-6 271.5t101.5 279t215.5 225l60 -103l-51 -34q-156 -100 -199 -367q-40 -248 122 -407z" />
    <glyph glyph-name="parenright" unicode=")" horiz-adv-x="384" 
d="M68 -181l-72 94q215 162 255 409q40 250 -126 405l106 99l32 -42q158 -183 114 -462q-25 -157 -100 -279t-209 -224z" />
    <glyph glyph-name="asterisk" unicode="*" horiz-adv-x="631" 
d="M576 363l-116 -77l-76 138l-124 -141l-90 80l122 136l-154 51l56 124l158 -54l25 171h128l-29 -171l173 54l18 -124l-168 -50z" />
    <glyph glyph-name="plus" unicode="+" horiz-adv-x="697" 
d="M666 288h-208l-34 -215h-126l34 215h-209l19 125h209l33 206h126l-33 -206h208z" />
    <glyph glyph-name="comma" unicode="," horiz-adv-x="341" 
d="M224 149q41 0 59 -27t11 -72q-6 -41 -44.5 -85.5t-98.5 -76.5l-102 92q70 29 92 45q-12 23 -8 49q5 32 31 53.5t60 21.5z" />
    <glyph glyph-name="hyphen" unicode="-" horiz-adv-x="523" 
d="M134 371h373l-20 -127h-373z" />
    <glyph glyph-name="period" unicode="." horiz-adv-x="292" 
d="M145 -6q-34 0 -52.5 23t-12.5 57q5 33 30.5 54t59.5 21t52.5 -21t13.5 -54q-6 -35 -31.5 -57.5t-59.5 -22.5z" />
    <glyph glyph-name="slash" unicode="/" horiz-adv-x="494" 
d="M445 791h134l-415 -856h-135z" />
    <glyph glyph-name="zero" unicode="0" horiz-adv-x="660" 
d="M330 -8q-135 0 -191 95.5t-27 275.5q29 181 114.5 276t220.5 95q132 0 188 -96t27 -275q-28 -180 -114 -275.5t-218 -95.5zM350 118q70 0 117 63.5t66 181.5t-8.5 181.5t-97.5 63.5q-71 0 -119.5 -63.5t-67.5 -181.5t10 -181.5t100 -63.5z" />
    <glyph glyph-name="one" unicode="1" horiz-adv-x="422" 
d="M376 726h106l-115 -726h-127l80 504q-64 -36 -147 -61l-30 115q73 26 135.5 71.5t97.5 96.5z" />
    <glyph glyph-name="two" unicode="2" horiz-adv-x="640" 
d="M325 125h280l-20 -125h-519l15 93l14 14q83 80 159 126l3 2q84 50 163.5 125t89.5 138q8 52 -19 81t-81 29q-58 0 -98 -47.5t-58 -129.5h-131q31 139 113 221t194 82q115 0 170 -62.5t38 -173.5q-8 -50 -39 -103t-80 -102.5t-93 -87t-101 -80.5z" />
    <glyph glyph-name="three" unicode="3" horiz-adv-x="627" 
d="M566 364q22 -27 34 -70t6 -80q-16 -99 -97.5 -160.5t-180.5 -61.5q-100 0 -163 62t-72 188l131 2q15 -126 124 -126q48 0 85 26t44 70q7 42 -17.5 65.5t-67.5 23.5h-151l20 126h151q43 0 74.5 23t38.5 63q7 46 -21.5 72.5t-77.5 26.5q-107 0 -164 -126l-129 2
q48 127 130 189t183 62q99 0 161.5 -61.5t46.5 -163.5q-14 -90 -88 -152z" />
    <glyph glyph-name="four" unicode="4" horiz-adv-x="676" 
d="M651 191h-128l-30 -191h-129l30 191h-309l14 87l402 448h107l-65 -410h128zM290 316h124l26 165z" />
    <glyph glyph-name="five" unicode="5" horiz-adv-x="642" 
d="M333 -8q-228 0 -238 260h133q-1 -65 32.5 -99.5t92.5 -34.5q56 0 95 33.5t48 88.5q8 51 -20 84.5t-80 33.5q-94 0 -162 -77h-104l103 445h445l-20 -125h-326l-31 -134q54 17 115 17q108 0 167 -69t42 -175q-17 -109 -100 -178.5t-192 -69.5z" />
    <glyph glyph-name="six" unicode="6" horiz-adv-x="639" 
d="M610 235q-17 -109 -96.5 -176t-191.5 -67q-268 0 -210 371q28 178 122 274.5t224 96.5q162 0 207 -223h-138q-18 97 -89 97q-127 0 -180 -170q70 41 145 41q113 0 168.5 -67t38.5 -177zM243 237q-8 -51 19.5 -85t78.5 -34q57 0 95 32t47 87q8 52 -19.5 84.5t-80.5 32.5
q-52 0 -92.5 -35.5t-47.5 -81.5z" />
    <glyph glyph-name="seven" unicode="7" horiz-adv-x="653" 
d="M349 0h-134l11 47q80 330 273 554h-349l20 125h543l-15 -93q-260 -238 -349 -633z" />
    <glyph glyph-name="eight" unicode="8" horiz-adv-x="641" 
d="M320 -8q-116 0 -181.5 62.5t-49.5 158.5q17 106 118 169q-57 58 -42 146q15 95 88.5 150.5t183.5 55.5q109 0 166.5 -56t42.5 -150q-15 -88 -88 -146q79 -64 62 -169q-16 -97 -99.5 -159t-200.5 -62zM391 443q52 0 86 23t41 62q5 37 -22 58.5t-79 21.5t-85.5 -21.5
t-38.5 -58.5q-7 -39 20 -62t78 -23zM340 118q61 0 104 27t50 68q7 44 -28 73t-95 29q-61 0 -104 -29t-50 -73q-7 -41 27.5 -68t95.5 -27z" />
    <glyph glyph-name="nine" unicode="9" horiz-adv-x="635" 
d="M637 362q-28 -178 -122.5 -274.5t-223.5 -96.5q-161 0 -202 224h132q22 -98 90 -98q127 0 181 171q-72 -42 -145 -42q-114 0 -169.5 66.5t-37.5 177.5q17 110 95.5 177t193.5 67q132 0 184.5 -94t23.5 -278zM367 371q52 0 92.5 35.5t47.5 81.5q8 51 -19.5 85t-78.5 34
q-57 0 -95 -32.5t-47 -86.5q-8 -52 19.5 -84.5t80.5 -32.5z" />
    <glyph glyph-name="colon" unicode=":" horiz-adv-x="302" 
d="M218 422q-37 0 -53.5 22t-11.5 57q6 35 29 55t60 20q34 0 52.5 -20.5t12.5 -54.5q-5 -35 -30 -57t-59 -22zM150 -6q-37 0 -53.5 22.5t-10.5 57.5q5 34 28.5 54.5t60.5 20.5q34 0 52 -21t13 -54q-6 -35 -31 -57.5t-59 -22.5z" />
    <glyph glyph-name="semicolon" unicode=";" horiz-adv-x="367" 
d="M280 423q-34 0 -52 22t-13 56q6 34 30.5 54.5t58.5 20.5q35 0 52.5 -20.5t11.5 -54.5q-5 -35 -29 -56.5t-59 -21.5zM234 149q40 0 59.5 -27t12.5 -72q-6 -40 -44.5 -85t-96.5 -77l-105 89q71 30 93 48q-13 20 -8 49q5 32 30 53.5t59 21.5z" />
    <glyph glyph-name="less" unicode="&#x3c;" horiz-adv-x="698" 
d="M701 509l-359 -174l303 -174l-22 -145l-476 279l12 80l564 278z" />
    <glyph glyph-name="equal" unicode="=" horiz-adv-x="702" 
d="M176 504h511l-20 -126h-511zM146 315h511l-20 -125h-511z" />
    <glyph glyph-name="greater" unicode="&#x3e;" horiz-adv-x="702" 
d="M181 653l480 -278l-12 -80l-568 -279l22 145l360 174l-304 174z" />
    <glyph glyph-name="question" unicode="?" horiz-adv-x="569" 
d="M384 277l-18 -114h-126l32 206q108 32 153.5 65.5t53.5 85.5q7 41 -18.5 64.5t-73.5 23.5q-110 0 -165 -168l-112 44q73 250 297 250q105 0 160 -57.5t39 -156.5q-27 -174 -222 -243zM277 -6q-34 0 -52.5 23t-12.5 57q5 33 30.5 54t59.5 21t52.5 -21t13.5 -54
q-6 -35 -31.5 -57.5t-59.5 -22.5z" />
    <glyph glyph-name="at" unicode="@" horiz-adv-x="1006" 
d="M624 734q206 0 301 -120.5t62 -330.5q-19 -121 -67 -197q-58 -83 -128 -97l25 -41q-79 -61 -166.5 -93t-159.5 -32q-207 0 -314.5 119.5t-74.5 331.5q33 206 173 333t349 127zM511 -51q90 0 195 65q-15 21 -20 37q-89 -66 -196 -66q-125 0 -190 85t-44 211
q20 127 111 211t216 84q92 0 155 -47h74q-68 79 -208 79q-149 0 -249.5 -90.5t-124.5 -243.5q-23 -151 52.5 -238t228.5 -87zM817 143q29 50 44 140q17 108 -12 183l-47 -295q-7 -40 -5 -53zM695 281q11 72 -25.5 121t-106.5 49t-120.5 -49t-61.5 -121q-12 -71 23.5 -119.5
t105.5 -48.5q71 0 122 48.5t63 119.5z" />
    <glyph glyph-name="A" unicode="A" horiz-adv-x="880" 
d="M615 184h-289l-125 -184h-146l500 726l270 -726h-142zM405 299h165l-58 157z" />
    <glyph glyph-name="B" unicode="B" horiz-adv-x="689" 
d="M374 0h-319l115 726h319q119 0 172 -54.5t36 -159.5q-15 -93 -77 -144q63 -57 47 -157q-32 -211 -293 -211zM468 602l-191 -1l-28 -175h192q118 0 131 85q6 37 -23.5 61.5t-80.5 29.5zM421 298h-192l-27 -173h192q135 0 148 86q7 43 -24.5 65t-96.5 22z" />
    <glyph glyph-name="C" unicode="C" horiz-adv-x="840" 
d="M420 -9q-159 0 -246 104.5t-62 266.5q26 162 146.5 267t278.5 105q131 0 215 -73t97 -193h-135q-17 64 -69 101.5t-128 37.5q-106 0 -183.5 -70t-94.5 -175q-17 -107 39.5 -176t161.5 -69q87 0 157.5 49t102.5 130h130q-43 -137 -155.5 -221t-254.5 -84z" />
    <glyph glyph-name="D" unicode="D" horiz-adv-x="728" 
d="M316 0h-261l115 726h261q175 0 251 -93.5t49 -268.5q-58 -364 -415 -364zM411 601h-134l-75 -476h134q229 0 268 239q17 113 -32.5 175t-160.5 62z" />
    <glyph glyph-name="E" unicode="E" horiz-adv-x="680" 
d="M204 125h441l-20 -125h-570l115 726h570l-20 -125h-441l-28 -175h334l-20 -128h-334z" />
    <glyph glyph-name="F" unicode="F" horiz-adv-x="680" 
d="M565 298h-334l-47 -298h-129l115 726h570l-20 -125h-441l-28 -175h334z" />
    <glyph glyph-name="G" unicode="G" horiz-adv-x="832" 
d="M844 426l-67 -426h-126l10 66q-108 -75 -241 -75q-159 0 -246 104.5t-62 266.5q26 162 146.5 267t278.5 105q131 0 215 -73t97 -193h-135q-17 64 -69 101.5t-128 37.5q-106 0 -183.5 -70t-94.5 -175q-17 -107 39.5 -176t161.5 -69q88 0 155.5 47t102.5 134h-228l20 128
h354z" />
    <glyph glyph-name="H" unicode="H" horiz-adv-x="686" 
d="M550 298h-320l-47 -298h-128l115 726h128l-48 -300h320l48 300h128l-115 -726h-128z" />
    <glyph glyph-name="I" unicode="I" horiz-adv-x="238" 
d="M170 726h128l-115 -726h-128z" />
    <glyph glyph-name="J" unicode="J" horiz-adv-x="686" 
d="M342 -8q-289 0 -247 258l27 175h128l-27 -175q-12 -70 25 -101t114 -31q159 0 181 132l75 476h128l-75 -476q-22 -137 -106.5 -197.5t-222.5 -60.5z" />
    <glyph glyph-name="K" unicode="K" horiz-adv-x="767" 
d="M341 343l-119 -96l-39 -247h-128l115 726h128l-48 -304l382 304h195l-373 -295l228 -431h-158z" />
    <glyph glyph-name="L" unicode="L" horiz-adv-x="680" 
d="M204 126h441l-20 -126h-570l115 726h129z" />
    <glyph glyph-name="M" unicode="M" horiz-adv-x="767" 
d="M336 0l-96 367l-57 -367h-128l115 726h114l134 -509l297 509h112l-115 -726h-126l59 368l-214 -368h-95z" />
    <glyph glyph-name="N" unicode="N" horiz-adv-x="684" 
d="M522 0l-265 476l-74 -476h-128l115 726h107l265 -476l74 476h128l-115 -726h-107z" />
    <glyph glyph-name="O" unicode="O" horiz-adv-x="843" 
d="M420 -9q-159 0 -246 104.5t-62 266.5q26 162 146.5 267t278.5 105q160 0 247 -105t61 -267q-25 -162 -145 -266.5t-280 -104.5zM440 117q105 0 183 69t95 176t-39.5 176t-161.5 69q-106 0 -183.5 -70t-94.5 -175q-17 -107 39.5 -176t161.5 -69z" />
    <glyph glyph-name="P" unicode="P" horiz-adv-x="673" 
d="M399 298h-169l-47 -298h-128l115 726h297q128 0 188.5 -53t43.5 -161q-33 -214 -300 -214zM447 601h-169l-28 -175h169q141 0 154 86q7 44 -25.5 66.5t-100.5 22.5z" />
    <glyph glyph-name="Q" unicode="Q" horiz-adv-x="844" 
d="M771 173l-1 -2q-16 -25 -48 -55l76 -59l-94 -98l-93 72q-70 -40 -192 -40q-160 0 -246 104t-61 267q26 161 144.5 266.5t279.5 105.5q162 0 248.5 -103.5t60.5 -268.5q-16 -103 -74 -189zM439 117q24 0 52 5l-115 87l96 102l157 -122q73 68 89 173q17 106 -38.5 175.5
t-163.5 69.5q-104 0 -182 -69t-95 -176q-17 -105 38.5 -175t161.5 -70z" />
    <glyph glyph-name="R" unicode="R" horiz-adv-x="725" 
d="M183 0h-128l115 726h298q56 0 99 -10t78 -33.5t49.5 -66.5t4.5 -104q-14 -90 -60 -137.5t-123 -64.5l154 -310h-153l-153 298h-134zM278 601l-28 -175h169q141 0 154 86q7 44 -25.5 66.5t-100.5 22.5h-169z" />
    <glyph glyph-name="S" unicode="S" horiz-adv-x="770" 
d="M401 -8q-137 0 -217 69.5t-87 205.5h137q1 -70 51.5 -109.5t135.5 -39.5q64 0 123 20.5t67 67.5q4 32 -35 52t-136 35q-167 26 -226.5 75.5t-44.5 145.5q15 91 108 155.5t226 64.5q243 0 288 -254h-136q-24 128 -172 128q-74 0 -127 -27t-60 -67q-5 -36 35.5 -57.5
t152.5 -38.5q154 -26 210.5 -73.5t42.5 -138.5l-1 -2q-15 -94 -109.5 -153t-225.5 -59z" />
    <glyph glyph-name="T" unicode="T" horiz-adv-x="707" 
d="M747 601h-234l-95 -601h-128l95 601h-235l20 125h597z" />
    <glyph glyph-name="U" unicode="U" horiz-adv-x="686" 
d="M342 -8q-142 0 -205.5 62t-41.5 196l75 476h128l-75 -476q-11 -69 24.5 -100.5t114.5 -31.5q160 0 181 132l75 476h128l-75 -476q-22 -135 -104.5 -196.5t-224.5 -61.5z" />
    <glyph glyph-name="V" unicode="V" horiz-adv-x="880" 
d="M483 270l314 456h143l-500 -726l-270 726h145z" />
    <glyph glyph-name="W" unicode="W" horiz-adv-x="1089" 
d="M1149 726l-403 -726l-121 502l-282 -502l-173 726h136l91 -387l218 387h90l95 -387l214 387h135z" />
    <glyph glyph-name="X" unicode="X" horiz-adv-x="855" 
d="M639 0l-166 268l-255 -268h-163l356 375l-220 351h161l154 -250l244 250h158l-338 -352l230 -374h-161z" />
    <glyph glyph-name="Y" unicode="Y" horiz-adv-x="801" 
d="M861 726l-353 -448l-44 -278h-126l44 278l-212 448h154l143 -310l242 310h152z" />
    <glyph glyph-name="Z" unicode="Z" horiz-adv-x="687" 
d="M259 125h393l-20 -125h-577l14 88l454 513h-365l20 125h548l-14 -88z" />
    <glyph glyph-name="bracketleft" unicode="[" horiz-adv-x="376" 
d="M205 -29h154l-20 -126h-280l150 946h280l-20 -125h-154z" />
    <glyph glyph-name="backslash" unicode="\" horiz-adv-x="494" 
d="M165 791h134l146 -856h-134z" />
    <glyph glyph-name="bracketright" unicode="]" horiz-adv-x="377" 
d="M137 791h281l-150 -946h-281l20 126h153l110 695h-153z" />
    <glyph glyph-name="asciicircum" unicode="^" horiz-adv-x="706" 
d="M569 330l-119 277l-206 -277h-151l345 461h83l197 -461h-149z" />
    <glyph glyph-name="underscore" unicode="_" horiz-adv-x="575" 
d="M4 23h575l-20 -127h-575z" />
    <glyph glyph-name="grave" unicode="`" horiz-adv-x="406" 
d="M195 887h151l106 -249h-146z" />
    <glyph glyph-name="a" unicode="a" horiz-adv-x="677" 
d="M643 135l-18 -116q-63 -25 -102 -25h-2q-48 6 -68 44q-89 -46 -190 -46q-96 0 -142.5 41t-34.5 117q12 78 70 121.5t177 62.5l147 22l1 7q6 35 -24 55.5t-80 20.5q-83 0 -154 -114l-108 52q56 94 124 139t157 45q107 0 165.5 -52t43.5 -146l-38 -240q-1 -15 5 -15
q32 0 71 27zM454 190l7 41l-115 -17q-129 -23 -135 -64q-3 -17 17.5 -27t57.5 -10q54 0 108 19.5t60 57.5z" />
    <glyph glyph-name="b" unicode="b" horiz-adv-x="650" 
d="M412 558q121 0 183 -82t43 -202q-19 -121 -106.5 -201t-208.5 -80q-80 0 -138 40l-5 -33h-125l115 726h125l-33 -208q73 40 150 40zM342 116q67 0 115.5 45.5t58.5 112.5q11 68 -22.5 114.5t-100.5 46.5q-57 0 -102 -37.5t-63 -95.5l-9 -55q-1 -57 32 -94t91 -37z" />
    <glyph glyph-name="c" unicode="c" horiz-adv-x="644" 
d="M323 -7q-120 0 -182 80.5t-43 200.5t107 202t207 82q103 0 164.5 -61t65.5 -157h-127q-9 43 -41 69t-81 26q-64 0 -112.5 -47t-59.5 -114q-10 -67 23 -112.5t98 -45.5q50 0 91 26.5t64 70.5l126 -1q-35 -98 -115.5 -158.5t-184.5 -60.5z" />
    <glyph glyph-name="d" unicode="d" horiz-adv-x="650" 
d="M415 558q79 0 137 -40l33 208h125l-115 -726h-125l5 33q-69 -40 -149 -40q-122 0 -184.5 80t-43.5 201t107.5 202.5t209.5 81.5zM345 116q57 0 101.5 37t62.5 94l9 55q1 58 -32.5 95.5t-89.5 37.5q-67 0 -116 -46.5t-60 -114.5q-10 -67 23.5 -112.5t101.5 -45.5z" />
    <glyph glyph-name="e" unicode="e" horiz-adv-x="665" 
d="M638 274q-4 -29 -14 -60l-402 -2q9 -44 40 -70t80 -26q91 0 143 77h131q-38 -90 -116 -145t-177 -55q-120 0 -182 80.5t-43 200.5t107 202t207 82q121 0 183 -82t43 -202zM393 435q-48 0 -89 -28t-63 -73h275q-8 46 -40 73.5t-83 27.5z" />
    <glyph glyph-name="f" unicode="f" horiz-adv-x="531" 
d="M501 440h-153l-71 -440h-123l71 440h-100l19 121h104q41 90 111.5 127.5t171.5 37.5h60l-20 -127l-59 -2q-61 -5 -106 -36h114z" />
    <glyph glyph-name="g" unicode="g" horiz-adv-x="659" 
d="M563 516l7 45h123l-80 -502q-18 -117 -106 -194t-208 -77q-89 0 -151 54t-88 157h131q30 -90 128 -90q62 0 110.5 35.5t56.5 85.5v4q-71 -41 -154 -41q-120 0 -182 80.5t-43 200.5t107 202t207 82q84 0 142 -42zM351 116q62 0 108.5 39t61.5 99l7 40q3 61 -30.5 101
t-95.5 40q-64 0 -112.5 -47t-59.5 -114q-10 -67 23 -112.5t98 -45.5z" />
    <glyph glyph-name="h" unicode="h" horiz-adv-x="650" 
d="M225 291l-46 -291h-124l115 726h124l-33 -208q71 40 151 40q121 0 183 -82t43 -202l-43 -274h-122l43 274q11 68 -22.5 114.5t-100.5 46.5q-54 0 -100 -42t-68 -102z" />
    <glyph glyph-name="i" unicode="i" horiz-adv-x="259" 
d="M222 578q-33 0 -51 20.5t-13 53.5t29.5 53.5t57.5 20.5q37 0 52 -19.5t10 -54.5q-12 -74 -85 -74zM157 561h124l-89 -561h-124z" />
    <glyph glyph-name="j" unicode="j" horiz-adv-x="231" 
d="M195 578q-37 0 -52.5 20t-10.5 54q12 74 86 74q36 0 51 -19.5t10 -54.5q-12 -74 -84 -74zM-41 -215q-28 0 -78 20l24 145q49 -44 73 -44q21 0 37 18.5t21 48.5l93 588h125l-93 -588q-13 -85 -69 -136.5t-133 -51.5z" />
    <glyph glyph-name="k" unicode="k" horiz-adv-x="643" 
d="M271 228l-63 -50l-28 -178h-125l115 726h125l-59 -374l256 209h185l-301 -244l186 -317h-157z" />
    <glyph glyph-name="l" unicode="l" horiz-adv-x="343" 
d="M188 -8q-69 0 -95.5 38t-13.5 119l91 577h125l-91 -577q-6 -37 18 -37t91 47l-22 -142q-64 -25 -103 -25z" />
    <glyph glyph-name="m" unicode="m" horiz-adv-x="931" 
d="M229 292l-46 -293h-125l86 562h123l-4 -35q54 33 120 33q108 0 159 -92q82 92 188 92q105 0 156.5 -82t32.5 -203l-43 -275h-123l43 275q11 68 -12.5 114t-73.5 46q-49 0 -88.5 -46.5t-50.5 -113.5l-43 -275h-121l43 275q11 68 -13 114t-74 46q-41 0 -78.5 -42
t-55.5 -100z" />
    <glyph glyph-name="n" unicode="n" horiz-adv-x="653" 
d="M229 291l-46 -291h-124l85 561h123l-6 -47q77 44 155 44q121 0 182.5 -81.5t42.5 -202.5l-43 -274h-121l43 274q11 68 -22.5 114.5t-100.5 46.5q-54 0 -100 -42t-68 -102z" />
    <glyph glyph-name="o" unicode="o" horiz-adv-x="650" 
d="M323 -7q-120 0 -182 80.5t-43 200.5t107 202t207 82q121 0 183 -82t43 -202q-19 -121 -106.5 -201t-208.5 -80zM342 116q67 0 115.5 45.5t58.5 112.5q11 68 -22.5 114.5t-100.5 46.5q-64 0 -112.5 -47t-59.5 -114q-10 -67 23 -112.5t98 -45.5z" />
    <glyph glyph-name="p" unicode="p" horiz-adv-x="650" 
d="M185 33l-27 -173h-125l111 701h125l-7 -42q69 40 151 40q121 0 183 -81.5t43 -202.5q-19 -120 -107 -200.5t-209 -80.5q-83 0 -138 39zM343 117q67 0 115 45.5t59 112.5q11 69 -23 115t-101 46q-54 0 -99.5 -42t-67.5 -101l-5 -33q2 -59 35 -101t87 -42z" />
    <glyph glyph-name="q" unicode="q" horiz-adv-x="650" 
d="M561 561h123l-111 -701h-123l27 173q-64 -39 -152 -39q-121 0 -183 80.5t-43 200.5q19 121 107 202.5t209 81.5q85 0 139 -40zM345 117q55 0 100.5 41.5t67.5 101.5l5 33q-2 59 -35 101t-88 42q-65 0 -113 -46.5t-59 -114.5q-11 -66 23 -112t99 -46z" />
    <glyph glyph-name="r" unicode="r" horiz-adv-x="560" 
d="M232 308l-49 -308h-124l85 561h123l-6 -47q77 44 155 44q94 0 169 -54l-67 -107q-49 38 -121 38q-60 0 -108.5 -36.5t-56.5 -90.5z" />
    <glyph glyph-name="s" unicode="s" horiz-adv-x="616" 
d="M316 -7q-112 0 -171 53t-50 153h119q5 -51 40 -71.5t80 -20.5q38 0 76.5 16t42.5 42q3 11 -21 23q-16 10 -101 25q-47 8 -79 17.5t-64.5 28t-46 50.5t-6.5 77q9 58 54 99.5t98 58.5t107 18h1q111 0 166 -50.5t45 -165.5h-120q3 61 -29.5 83.5t-78.5 22.5q-35 0 -75.5 -20
t-44.5 -46q-3 -18 23 -28t98 -24q110 -24 148 -49q61 -40 48 -121q-7 -47 -36 -82.5t-68.5 -53.5t-78.5 -26.5t-76 -8.5z" />
    <glyph glyph-name="t" unicode="t" horiz-adv-x="515" 
d="M304 -8q-82 0 -114.5 43t-18.5 132l44 273h-90l19 121h90l26 165h122l-26 -165h171l-19 -121h-171l-44 -273q-7 -43 34 -52q42 -9 81 22q14 11 23 25l41 -87q-25 -31 -72 -57t-96 -26z" />
    <glyph glyph-name="u" unicode="u" horiz-adv-x="653" 
d="M325 -9q-121 0 -183.5 80t-43.5 201l46 289h123l-46 -289q-11 -66 23.5 -112.5t99.5 -46.5q55 0 100.5 42t68.5 101l48 305h123l-86 -563h-120l4 38q-73 -45 -157 -45z" />
    <glyph glyph-name="v" unicode="v" horiz-adv-x="709" 
d="M394 262l207 299h142l-390 -561l-209 560h141z" />
    <glyph glyph-name="w" unicode="w" horiz-adv-x="906" 
d="M661 301l146 260h133l-318 -561l-113 350l-226 -347l-139 558h134l62 -260l165 260h74z" />
    <glyph glyph-name="x" unicode="x" horiz-adv-x="733" 
d="M512 0l-125 184l-173 -184h-159l267 286l-179 265h164l112 -164l152 164h161l-248 -263l194 -288h-166z" />
    <glyph glyph-name="y" unicode="y" horiz-adv-x="665" 
d="M156 -189q-30 0 -88 21l21 130q32 -29 83 -29h4q27 0 63 58l37 64l-132 506h139l88 -342l190 342h138l-348 -615q-42 -75 -87 -105t-108 -30z" />
    <glyph glyph-name="z" unicode="z" horiz-adv-x="585" 
d="M270 124h280l-20 -124h-467l14 89l324 349h-277l20 123h462l-14 -87z" />
    <glyph glyph-name="braceleft" unicode="{" horiz-adv-x="358" 
d="M331 -32l-20 -125h-43q-83 0 -123 43t-29 117l36 226q5 30 -102 30l20 124q107 0 112 31l35 226q12 73 77 116t169 43l-20 -125q-94 0 -100 -34l-35 -226q-10 -55 -45 -92q24 -39 15 -93l-36 -226q-2 -16 21.5 -25.5t67.5 -9.5z" />
    <glyph glyph-name="bar" unicode="|" horiz-adv-x="294" 
d="M209 791h126l-150 -946h-126z" />
    <glyph glyph-name="braceright" unicode="}" horiz-adv-x="357" 
d="M-3 -157l20 125q93 0 98 35l36 226q10 56 44 93q-23 38 -14 92l35 226q3 16 -21 25t-66 9l20 125q103 0 154 -43t39 -116l-35 -226q-1 -9 11 -16t35.5 -11t55.5 -4l-20 -124q-107 0 -112 -30l-36 -226q-11 -74 -76 -117t-168 -43z" />
    <glyph glyph-name="asciitilde" unicode="~" horiz-adv-x="596" 
d="M225 276h-134l19 49q52 148 170 149q58 0 122 -43q42 -26 56 -26q12 0 40 74h127l-21 -67q-45 -131 -165 -131q-68 0 -125 43q-35 26 -54 26q-10 0 -35 -74z" />
    <glyph glyph-name="exclamdown" unicode="&#xa1;" horiz-adv-x="297" 
d="M242 586q38 0 53.5 -22t10.5 -58q-5 -34 -28 -54.5t-61 -20.5q-35 0 -52 21t-12 54q5 35 29.5 57.5t59.5 22.5zM278 413l-88 -559h-127l88 559h127z" />
    <glyph glyph-name="cent" unicode="&#xa2;" horiz-adv-x="640" 
d="M383 -4l-14 -88h-124l14 88q-93 21 -132 96.5t-19 195.5q19 120 82 195.5t162 97.5l14 88h124l-14 -87q67 -18 110.5 -73t51.5 -139l-126 -52q-12 106 -57 131l-50 -318q62 31 94 128l122 -32l-21 -53q-24 -68 -82.5 -115.5t-134.5 -62.5zM281 132l49 312
q-77 -37 -95 -156q-19 -119 46 -156z" />
    <glyph glyph-name="sterling" unicode="&#xa3;" horiz-adv-x="655" 
d="M526 220h125l-9 -55q-28 -173 -201 -173q-79 0 -125 37q-66 -37 -137 -37q-65 0 -100.5 32.5t-27.5 84.5q9 54 56.5 87t114.5 33q49 0 85 -16q1 32 -18 69h-149l19 125h65q-13 49 -5 104q16 100 91.5 161.5t180.5 61.5q91 0 140 -60.5t44 -167.5l-132 -48q4 67 -16 108.5
t-56 41.5q-51 0 -84.5 -25.5t-40.5 -71.5q-9 -57 25 -104h227l-19 -125h-144q6 -32 -2 -79q-6 -43 -22 -72q17 -13 50 -13q48 0 65 102zM188 75q23 0 39.5 10t19.5 26q2 16 -10.5 25.5t-35.5 9.5t-39.5 -10t-19.5 -26q-2 -16 10.5 -25.5t35.5 -9.5z" />
    <glyph glyph-name="currency" unicode="&#xa4;" horiz-adv-x="739" 
d="M288 164l-120 -105l-75 93l121 105q-16 48 -6 109q9 60 39 105l-88 103l106 93l84 -101q56 27 115 27q60 0 108 -27l117 101l73 -92l-118 -105q14 -46 5 -104q-10 -57 -39 -109l85 -106l-103 -92l-87 105q-49 -26 -113 -26q-55 0 -104 26zM411 262q44 0 73.5 27.5
t36.5 76.5q7 46 -13.5 73.5t-63.5 27.5q-42 0 -72 -27.5t-37 -73.5q-7 -48 13.5 -76t62.5 -28z" />
    <glyph glyph-name="yen" unicode="&#xa5;" horiz-adv-x="741" 
d="M639 85h-192l-13 -85h-126l13 85h-192l21 127h192l4 26h-192l20 126h144l-155 362h151l124 -304l220 304h149l-267 -362h144l-20 -126h-192l-4 -26h192z" />
    <glyph glyph-name="brokenbar" unicode="&#xa6;" horiz-adv-x="308" 
d="M216 791h126l-71 -453h-126zM138 297h126l-72 -452h-126z" />
    <glyph glyph-name="section" unicode="&#xa7;" horiz-adv-x="624" 
d="M635 305q-13 -82 -89 -131q16 -35 7 -91q-13 -81 -79.5 -133.5t-171.5 -52.5q-169 0 -207 158l127 75q17 -106 100 -106q45 0 73 16t33 43q4 23 -26 38.5t-97 29.5q-111 18 -160.5 62t-38.5 116q13 84 91 131q-18 40 -10 89q13 81 80.5 133t173.5 52q172 0 208 -157
l-126 -73q-16 104 -102 104q-45 0 -73 -15.5t-33 -42.5q-4 -24 25 -39.5t95 -27.5q116 -18 164 -60.5t36 -117.5zM433 255q72 17 76 50q6 32 -114 53q-40 6 -87 18q-68 -16 -74 -47q-3 -19 23 -31.5t92 -22.5q23 -4 84 -20z" />
    <glyph glyph-name="dieresis" unicode="&#xa8;" horiz-adv-x="434" 
d="M230 628q-34 0 -51.5 21.5t-11.5 56.5q5 32 29.5 53t58.5 21t52.5 -21t13.5 -53q-6 -35 -31 -56.5t-60 -21.5zM403 628q-35 0 -53 21.5t-12 56.5q5 32 30.5 53t59.5 21t51 -21t12 -53q-6 -35 -30 -56.5t-58 -21.5z" />
    <glyph glyph-name="copyright" unicode="&#xa9;" horiz-adv-x="869" 
d="M807 363q0 -166 -102.5 -268.5t-269.5 -102.5h-1q-167 0 -269.5 102.5t-102.5 268.5q0 167 102.5 269t269.5 102h1q167 0 269.5 -102t102.5 -269zM435 118q109 0 177 68t68 177t-68 177t-177 68q-110 0 -178 -67.5t-68 -177.5t68 -177.5t178 -67.5zM434 175
q-80 0 -132.5 53t-52.5 134q0 82 52.5 135t132.5 53q71 0 121.5 -42.5t60.5 -111.5h-90q-24 65 -92 65q-42 0 -69 -28t-27 -71q0 -44 26.5 -71t69.5 -27q38 0 64.5 22.5t31.5 60.5h89q-6 -76 -57.5 -124t-127.5 -48z" />
    <glyph glyph-name="ordfeminine" unicode="&#xaa;" horiz-adv-x="450" 
d="M505 786l-21 -138l48 15l-22 -136q-47 0 -54 1q-7 -1 -11 -1q-44 0 -64 27q-58 -27 -121 -27q-69 0 -103.5 32.5t-25.5 88.5q10 66 64 99l-46 49q40 70 89.5 104t114.5 34q79 0 121 -40.5t31 -107.5zM335 820q-37 0 -69 -44q12 3 42 9l79 13q-8 22 -52 22zM372 673l1 7
l-58 -8q-69 -9 -70 -24q0 -2 2 -3.5t7 -2t12 -1t16 -0.5q30 0 58.5 8t31.5 24z" />
    <glyph glyph-name="guillemotleft" unicode="&#xab;" horiz-adv-x="626" 
d="M471 540l-211 -236l135 -240h-159l-137 240l213 236h159zM657 540l-211 -236l135 -240h-159l-139 240l215 236h159z" />
    <glyph glyph-name="logicalnot" unicode="&#xac;" horiz-adv-x="699" 
d="M150 413h530l-39 -250h-127l20 125h-403z" />
    <glyph glyph-name="uni00AD" unicode="&#xad;" horiz-adv-x="511" 
d="M127 371h375l-20 -127h-375z" />
    <glyph glyph-name="registered" unicode="&#xae;" horiz-adv-x="869" 
d="M807 363q0 -166 -102.5 -268.5t-269.5 -102.5h-1q-167 0 -269.5 102.5t-102.5 268.5q0 167 102.5 269t269.5 102h1q167 0 269.5 -102t102.5 -269zM435 118q109 0 177 68t68 177t-68 177t-177 68q-110 0 -178 -67.5t-68 -177.5t68 -177.5t178 -67.5zM376 192h-88v350h146
q64 0 98 -28.5t34 -81.5q0 -72 -57 -97l93 -143h-105l-88 131h-33v-131zM376 454v-44h57q45 0 45 22t-45 22h-57z" />
    <glyph glyph-name="macron" unicode="&#xaf;" horiz-adv-x="491" 
d="M177 773h381l-19 -125h-381z" />
    <glyph glyph-name="degree" unicode="&#xb0;" horiz-adv-x="407" 
d="M295 585q-75 0 -115 47t-29 121q12 76 67 123t130 47q74 0 113.5 -47.5t27.5 -122.5q-11 -74 -65.5 -121t-128.5 -47zM314 707q41 0 48 46q4 21 -5 33t-29 12q-41 0 -49 -45q-3 -21 6 -33.5t29 -12.5z" />
    <glyph glyph-name="plusminus" unicode="&#xb1;" horiz-adv-x="699" 
d="M688 460l-20 -126h-202l-33 -209h202l-20 -125h-530l20 125h204l33 209h-204l20 126h204l36 230h124l-36 -230h202z" />
    <glyph glyph-name="uni00B2" unicode="&#xb2;" horiz-adv-x="433" 
d="M358 591l-3 -3h120l-19 -120h-342l13 84l9 8v3q24 24 58 49.5t39 29.5q1 1 3 2.5t4.5 3t3.5 2.5q43 25 81 59t43 65q6 40 -36 40q-43 0 -63 -102h-125q23 101 78 160.5t129 59.5q77 0 113.5 -42t25.5 -116q-13 -84 -123 -175z" />
    <glyph glyph-name="uni00B3" unicode="&#xb3;" horiz-adv-x="363" 
d="M417 702q29 -42 22 -92q-10 -63 -63 -105t-121 -42q-71 0 -111 45.5t-42 128.5l100 1q7 -77 69 -77q27 0 45.5 13.5t22.5 35.5q3 20 -8.5 32t-35.5 12h-103l15 98h103q23 0 39 12t19 31q4 23 -10.5 37t-41.5 14q-62 0 -93 -78l-100 1q30 84 84.5 129.5t124.5 45.5
q69 0 107.5 -42.5t28.5 -106.5q-9 -54 -51 -93z" />
    <glyph glyph-name="acute" unicode="&#xb4;" horiz-adv-x="406" 
d="M343 895h150l-189 -249h-147z" />
    <glyph glyph-name="uni00B5" unicode="&#xb5;" horiz-adv-x="626" 
d="M206 7l-30 -191h-124l116 735h124l-55 -347q-7 -42 13.5 -66.5t60.5 -24.5q53 0 95.5 35.5t50.5 83.5l50 319h124l-87 -551h-124l4 24q-64 -32 -134 -32q-51 0 -84 15z" />
    <glyph glyph-name="paragraph" unicode="&#xb6;" horiz-adv-x="612" 
d="M490 601h-17l-110 -693h-126l53 330q-100 16 -148 80.5t-33 161.5q17 110 103 178t207 68h219l-130 -818h-128zM311 371l35 220q-45 -12 -73 -41t-35 -70q-7 -40 12.5 -68.5t60.5 -40.5z" />
    <glyph glyph-name="periodcentered" unicode="&#xb7;" horiz-adv-x="315" 
d="M208 314q-35 0 -52.5 21.5t-12.5 55.5q5 33 29.5 54.5t59.5 21.5q38 0 53.5 -20.5t10.5 -55.5t-27.5 -56t-60.5 -21z" />
    <glyph glyph-name="cedilla" unicode="&#xb8;" horiz-adv-x="406" 
d="M113 12l39 86l88 -7q62 -33 85 -70.5t15 -89.5q-10 -60 -54 -98t-105 -38q-46 0 -80 21.5t-63 73.5l95 107q45 -77 67 -77q12 0 14 10q2 12 -20 30t-81 52z" />
    <glyph glyph-name="uni00B9" unicode="&#xb9;" horiz-adv-x="354" 
d="M310 924h100l-71 -451h-122l41 262q-3 -1 -67 -25l-26 110q100 35 145 104z" />
    <glyph glyph-name="ordmasculine" unicode="&#xba;" horiz-adv-x="411" 
d="M283 530q-82 0 -126 55t-30 141q14 84 75 139t143 55t126.5 -55t31.5 -139q-13 -86 -75 -141t-145 -55zM301 643q33 0 57.5 23t30.5 60q5 35 -12.5 58.5t-49.5 23.5t-57 -23.5t-30 -58.5q-6 -36 11 -59.5t50 -23.5z" />
    <glyph glyph-name="guillemotright" unicode="&#xbb;" horiz-adv-x="623" 
d="M137 540h160l138 -236l-214 -240h-160l212 240zM323 540h159l138 -236l-214 -240h-159l212 240z" />
    <glyph glyph-name="onequarter" unicode="&#xbc;" horiz-adv-x="1216" 
d="M359 32l370 759h135l-416 -856h-136l31 65h-116l80 505q-60 -35 -147 -63l-26 116q72 26 133 71t95 97h107zM1157 726l-65 -410h128l-20 -125h-128l-30 -191h-129l30 191h-309l14 87l402 448h107zM839 316h124l26 165z" />
    <glyph glyph-name="onehalf" unicode="&#xbd;" horiz-adv-x="1276" 
d="M768 791h135l-416 -856h-136zM967 125h283l-20 -125h-519l15 92l15 16q16 16 37 33.5t34.5 27.5t37.5 27t32 23l6 5l4 2q15 13 21 15l3 1h-3q5 2 18 10l10 7q198 139 215 239q8 52 -19 81t-82 29q-58 0 -99 -47.5t-59 -129.5h-129q31 139 113 221t194 82q114 0 169 -62.5
t38 -173.5q-8 -52 -39 -105t-81.5 -103t-93 -85.5t-101.5 -79.5zM362 726h107l-115 -726h-127l80 505q-60 -35 -147 -63l-26 116q72 26 133 71t95 97z" />
    <glyph glyph-name="threequarters" unicode="&#xbe;" horiz-adv-x="1398" 
d="M1046 791l-416 -856h-133l416 856h133zM645 516q-14 -87 -85 -147q51 -63 37 -155q-16 -99 -97 -160.5t-180 -61.5q-100 0 -163.5 62t-72.5 188l131 2q14 -126 125 -126q48 0 85 26t44 70q7 42 -18 65.5t-69 23.5h-151l20 126h151q43 0 75.5 23.5t39.5 62.5
q7 46 -21.5 72.5t-77.5 26.5q-110 0 -165 -126l-129 2q49 127 130.5 189t183.5 62q98 0 160.5 -61.5t46.5 -163.5zM828 278l403 448h104l-65 -410h130l-20 -125h-130l-30 -191h-126l30 191h-310zM1144 316l26 167l-151 -167h125z" />
    <glyph glyph-name="questiondown" unicode="&#xbf;" horiz-adv-x="563" 
d="M379 579q34 0 52 -22.5t13 -57.5q-5 -33 -30.5 -54t-59.5 -21t-52.5 21t-13.5 54q5 34 31 57t60 23zM272 296l18 114h126l-33 -206q-108 -32 -153.5 -65.5t-53.5 -85.5q-6 -41 19 -64.5t73 -23.5q111 0 166 168l112 -44q-73 -250 -297 -250q-105 0 -160.5 57.5
t-39.5 156.5q28 175 223 243z" />
    <glyph glyph-name="Agrave" unicode="&#xc0;" horiz-adv-x="845" 
d="M438 1041h152l105 -249h-145zM599 184h-289l-125 -184h-146l500 726l270 -726h-142zM389 299h165l-58 157z" />
    <glyph glyph-name="Aacute" unicode="&#xc1;" horiz-adv-x="845" 
d="M587 1048h150l-188 -248h-149zM599 184h-289l-125 -184h-146l500 726l270 -726h-142zM389 299h165l-58 157z" />
    <glyph glyph-name="Acircumflex" unicode="&#xc2;" horiz-adv-x="845" 
d="M611 780l-53 83l-78 -83h-158l226 244h73l150 -244h-160zM599 184h-289l-125 -184h-146l500 726l270 -726h-142zM389 299h165l-58 157z" />
    <glyph glyph-name="Atilde" unicode="&#xc3;" horiz-adv-x="845" 
d="M460 802h-127l18 52q24 74 61 106.5t98 32.5q66 0 104 -51q14 -12 20 -12q9 0 29 64h134l-27 -68q-27 -65 -62.5 -94t-93.5 -29q-63 0 -103 48q-14 16 -23 16q-5 0 -28 -65zM599 184h-289l-125 -184h-146l500 726l270 -726h-142zM389 299h165l-58 157z" />
    <glyph glyph-name="Adieresis" unicode="&#xc4;" horiz-adv-x="845" 
d="M460 781q-34 0 -51.5 22t-12.5 57q5 32 29.5 53t58.5 21t52.5 -21t13.5 -53q-5 -35 -30 -57t-60 -22zM632 781q-34 0 -52 22t-13 57q5 32 30 53t59 21t51.5 -21t12.5 -53q-5 -35 -29.5 -57t-58.5 -22zM599 184h-289l-125 -184h-146l500 726l270 -726h-142zM389 299h165
l-58 157z" />
    <glyph glyph-name="Aring" unicode="&#xc5;" horiz-adv-x="845" 
d="M547 792q-58 0 -88.5 36.5t-21.5 93.5t52 94t100 37t88.5 -37t22.5 -94t-52 -93.5t-101 -36.5zM561 878q19 0 34 12.5t18 31.5q3 20 -8 32.5t-30 12.5t-33.5 -12.5t-17.5 -32.5q-3 -19 7.5 -31.5t29.5 -12.5zM185 0h-146l500 726l270 -726h-142l-68 184h-289zM496 456
l-107 -157h165z" />
    <glyph glyph-name="AE" unicode="&#xc6;" horiz-adv-x="1000" 
d="M439 203h-111l-128 -203h-145l488 726h550l-20 -125h-442l-28 -175h336l-20 -128h-336l-27 -173h442l-20 -125h-571zM406 328h53l15 98z" />
    <glyph glyph-name="Ccedilla" unicode="&#xc7;" horiz-adv-x="841" 
d="M688 296h130q-32 -102 -105.5 -177t-172.5 -107l2 -2q17 -35 9 -79q-10 -60 -54.5 -98t-105.5 -38q-75 0 -147 87l98 107q41 -69 68 -69q13 0 15 10q4 27 -57 63q-141 14 -216.5 116t-51.5 253q26 162 146.5 267t278.5 105q131 0 215 -73t97 -193h-135q-17 64 -69 101.5
t-128 37.5q-106 0 -183.5 -70t-94.5 -175q-17 -107 39.5 -176t161.5 -69q87 0 157.5 49t102.5 130z" />
    <glyph glyph-name="Egrave" unicode="&#xc8;" horiz-adv-x="659" 
d="M346 1041h150l106 -249h-146zM193 125h441l-20 -125h-569l115 726h569l-20 -125h-441l-28 -175h335l-20 -128h-335z" />
    <glyph glyph-name="Eacute" unicode="&#xc9;" horiz-adv-x="659" 
d="M494 1048h150l-187 -248h-148zM193 125h441l-20 -125h-569l115 726h569l-20 -125h-441l-28 -175h335l-20 -128h-335z" />
    <glyph glyph-name="Ecircumflex" unicode="&#xca;" horiz-adv-x="659" 
d="M519 780l-53 83l-80 -83h-157l226 244h74l149 -244h-159zM193 125h441l-20 -125h-569l115 726h569l-20 -125h-441l-28 -175h335l-20 -128h-335z" />
    <glyph glyph-name="Edieresis" unicode="&#xcb;" horiz-adv-x="659" 
d="M367 781q-34 0 -51 22t-12 57q5 33 29.5 53.5t57.5 20.5q34 0 52.5 -21t13.5 -53q-5 -35 -30 -57t-60 -22zM540 781q-35 0 -53 22t-13 57q5 32 30.5 53t59.5 21t51.5 -21t12.5 -53q-5 -35 -29.5 -57t-58.5 -22zM193 125h441l-20 -125h-569l115 726h569l-20 -125h-441
l-28 -175h335l-20 -128h-335z" />
    <glyph glyph-name="Igrave" unicode="&#xcc;" horiz-adv-x="264" 
d="M149 1041h151l105 -249h-145zM184 726h128l-115 -726h-128z" />
    <glyph glyph-name="Iacute" unicode="&#xcd;" horiz-adv-x="265" 
d="M297 1048h150l-188 -248h-148zM184 726h128l-115 -726h-128z" />
    <glyph glyph-name="Icircumflex" unicode="&#xce;" horiz-adv-x="235" 
d="M306 780l-53 83l-78 -83h-158l226 244h73l150 -244h-160zM169 726h127l-115 -726h-127z" />
    <glyph glyph-name="Idieresis" unicode="&#xcf;" horiz-adv-x="222" 
d="M149 781q-34 0 -51.5 22t-12.5 57q5 33 29.5 53.5t58.5 20.5t52.5 -21t13.5 -53q-5 -35 -30 -57t-60 -22zM321 781q-35 0 -53 22t-13 57q5 32 30.5 53t59.5 21t51.5 -21t12.5 -53q-5 -35 -29.5 -57t-58.5 -22zM163 726h127l-115 -726h-127z" />
    <glyph glyph-name="Eth" unicode="&#xd0;" horiz-adv-x="707" 
d="M295 0h-261l61 385h-113l20 128h113l34 213h261q175 0 251 -93.5t49 -268.5q-58 -364 -415 -364zM376 513l-20 -128h-133l-41 -260h133q230 0 269 239q17 113 -33 175t-161 62h-133l-14 -88h133z" />
    <glyph glyph-name="Ntilde" unicode="&#xd1;" horiz-adv-x="663" 
d="M369 802h-125l15 51q25 74 62.5 107t97.5 33q67 0 105 -51q10 -12 20 -12q6 0 29 64h133l-27 -68q-27 -65 -62 -94t-93 -29q-65 0 -104 47q-14 17 -22 17q-6 0 -29 -65zM512 0l-266 476l-74 -476h-127l115 726h105l267 -476l74 476h127l-115 -726h-106z" />
    <glyph glyph-name="Ograve" unicode="&#xd2;" horiz-adv-x="822" 
d="M427 1041h152l105 -249h-146zM408 -9q-158 0 -244.5 104.5t-61.5 266.5q26 162 145.5 267t277.5 105q161 0 248 -105t61 -267q-25 -162 -145 -266.5t-281 -104.5zM428 117q106 0 184.5 69t95.5 176t-40 176t-163 69t-183 -70t-94 -175q-17 -107 39.5 -176t160.5 -69z" />
    <glyph glyph-name="Oacute" unicode="&#xd3;" horiz-adv-x="822" 
d="M575 1048h151l-188 -248h-148zM408 -9q-158 0 -244.5 104.5t-61.5 266.5q26 162 145.5 267t277.5 105q161 0 248 -105t61 -267q-25 -162 -145 -266.5t-281 -104.5zM428 117q106 0 184.5 69t95.5 176t-40 176t-163 69t-183 -70t-94 -175q-17 -107 39.5 -176t160.5 -69z
" />
    <glyph glyph-name="Ocircumflex" unicode="&#xd4;" horiz-adv-x="822" 
d="M600 780l-53 83l-79 -83h-157l226 244h73l149 -244h-159zM408 -9q-158 0 -244.5 104.5t-61.5 266.5q26 162 145.5 267t277.5 105q161 0 248 -105t61 -267q-25 -162 -145 -266.5t-281 -104.5zM428 117q106 0 184.5 69t95.5 176t-40 176t-163 69t-183 -70t-94 -175
q-17 -107 39.5 -176t160.5 -69z" />
    <glyph glyph-name="Otilde" unicode="&#xd5;" horiz-adv-x="822" 
d="M449 802h-127l18 52v-1q23 74 60.5 107t98.5 33q68 0 104 -51q13 -12 20 -12t29 64h134l-28 -68q-27 -65 -62 -94t-93 -29q-64 0 -103 47q-15 17 -23 17q-5 0 -28 -65zM408 -9q-158 0 -244.5 104.5t-61.5 266.5q26 162 145.5 267t277.5 105q161 0 248 -105t61 -267
q-25 -162 -145 -266.5t-281 -104.5zM428 117q106 0 184.5 69t95.5 176t-40 176t-163 69t-183 -70t-94 -175q-17 -107 39.5 -176t160.5 -69z" />
    <glyph glyph-name="Odieresis" unicode="&#xd6;" horiz-adv-x="822" 
d="M449 781q-34 0 -51.5 22t-12.5 57q5 32 29.5 53t58.5 21t52 -21t13 -53q-5 -35 -30 -57t-59 -22zM621 781q-34 0 -52 22t-13 57q5 32 30 53t59 21t51.5 -21t12.5 -53q-5 -35 -29.5 -57t-58.5 -22zM408 -9q-158 0 -244.5 104.5t-61.5 266.5q26 162 145.5 267t277.5 105
q161 0 248 -105t61 -267q-25 -162 -145 -266.5t-281 -104.5zM428 117q106 0 184.5 69t95.5 176t-40 176t-163 69t-183 -70t-94 -175q-17 -107 39.5 -176t160.5 -69z" />
    <glyph glyph-name="multiply" unicode="&#xd7;" horiz-adv-x="764" 
d="M656 193l-105 -94l-130 155l-176 -156l-75 95l175 153l-130 154l107 89l128 -151l178 151l79 -89l-177 -154z" />
    <glyph glyph-name="Oslash" unicode="&#xd8;" horiz-adv-x="843" 
d="M758 791l-50 -97q86 -43 120.5 -132.5t16.5 -199.5q-25 -161 -144.5 -266t-281.5 -105q-16 0 -52 2l-29 -58h-133l45 96q-82 47 -118.5 136.5t-19.5 194.5q26 159 145.5 265t278.5 107q37 0 54 -2l30 59h138zM310 155l220 452h-14q-104 0 -182 -69t-95 -176
q-10 -62 8.5 -118t62.5 -89zM646 569l-220 -452q114 0 194 66t98 179q21 137 -72 207z" />
    <glyph glyph-name="Ugrave" unicode="&#xd9;" horiz-adv-x="665" 
d="M349 1041h150l106 -249h-146zM331 -8q-142 0 -205 62t-41 196l75 476h127l-75 -476q-11 -69 25 -100.5t114 -31.5q161 0 182 132l75 476h127l-75 -476q-22 -135 -104.5 -196.5t-224.5 -61.5z" />
    <glyph glyph-name="Uacute" unicode="&#xda;" horiz-adv-x="665" 
d="M496 1048h151l-189 -248h-146zM331 -8q-142 0 -205 62t-41 196l75 476h127l-75 -476q-11 -69 25 -100.5t114 -31.5q161 0 182 132l75 476h127l-75 -476q-22 -135 -104.5 -196.5t-224.5 -61.5z" />
    <glyph glyph-name="Ucircumflex" unicode="&#xdb;" horiz-adv-x="665" 
d="M522 780l-54 83l-79 -83h-158l227 244h74l149 -244h-159zM331 -8q-142 0 -205 62t-41 196l75 476h127l-75 -476q-11 -69 25 -100.5t114 -31.5q161 0 182 132l75 476h127l-75 -476q-22 -135 -104.5 -196.5t-224.5 -61.5z" />
    <glyph glyph-name="Udieresis" unicode="&#xdc;" horiz-adv-x="665" 
d="M370 781q-34 0 -51.5 22t-12.5 57q5 32 29.5 53t58.5 21t52.5 -21t13.5 -53q-5 -35 -30 -57t-60 -22zM543 781q-35 0 -53 22t-13 57q5 32 30.5 53t59.5 21t51 -21t12 -53q-5 -35 -29 -57t-58 -22zM331 -8q-142 0 -205 62t-41 196l75 476h127l-75 -476q-11 -69 25 -100.5
t114 -31.5q161 0 182 132l75 476h127l-75 -476q-22 -135 -104.5 -196.5t-224.5 -61.5z" />
    <glyph glyph-name="Yacute" unicode="&#xdd;" horiz-adv-x="763" 
d="M546 1048h149l-187 -248h-147zM842 726l-353 -448l-44 -278h-127l44 278l-211 448h154l143 -310l241 310h153z" />
    <glyph glyph-name="germandbls" unicode="&#xdf;" horiz-adv-x="506" 
d="M551 357q21 -25 32.5 -67.5t5.5 -78.5q-15 -97 -95 -158t-177 -61q-60 0 -123 31l22 152q64 -60 120 -60q47 0 84 26t43 70q7 40 -17 63t-67 23h-130l20 124h130q42 0 73 22.5t38 61.5q7 44 -21 70.5t-76 26.5q-105 0 -154 -111l-78 -490h-126l80 504q85 221 298 221
q97 0 158 -60t45 -160q-14 -90 -85 -149z" />
    <glyph glyph-name="agrave" unicode="&#xe0;" horiz-adv-x="656" 
d="M323 870h147l104 -244h-143zM631 135l-18 -116q-63 -25 -102 -25h-2q-48 6 -68 44q-89 -46 -190 -46q-96 0 -142.5 41t-34.5 117q12 78 70 122t177 62l147 22l1 7q6 35 -24 55.5t-80 20.5q-83 0 -154 -114l-108 52q56 94 124 139t157 45q107 0 165.5 -52t43.5 -146
l-38 -240q-1 -15 5 -15q32 0 71 27zM442 190l7 41l-115 -17q-129 -20 -135 -64q-3 -17 17.5 -27t57.5 -10q54 0 108 19.5t60 57.5z" />
    <glyph glyph-name="aacute" unicode="&#xe1;" horiz-adv-x="656" 
d="M468 876h146l-184 -243h-145zM631 135l-18 -116q-63 -25 -102 -25h-2q-48 6 -68 44q-89 -46 -190 -46q-96 0 -142.5 41t-34.5 117q12 78 70 122t177 62l147 22l1 7q6 35 -24 55.5t-80 20.5q-83 0 -154 -114l-108 52q56 94 124 139t157 45q107 0 165.5 -52t43.5 -146
l-38 -240q-1 -15 5 -15q32 0 71 27zM442 190l7 41l-115 -17q-129 -20 -135 -64q-3 -17 17.5 -27t57.5 -10q54 0 108 19.5t60 57.5z" />
    <glyph glyph-name="acircumflex" unicode="&#xe2;" horiz-adv-x="656" 
d="M491 613l-51 82l-79 -82h-154l223 240h72l145 -240h-156zM631 135l-18 -116q-63 -25 -102 -25h-2q-48 6 -68 44q-89 -46 -190 -46q-96 0 -142.5 41t-34.5 117q12 78 70 122t177 62l147 22l1 7q6 35 -24 55.5t-80 20.5q-83 0 -154 -114l-108 52q56 94 124 139t157 45
q107 0 165.5 -52t43.5 -146l-38 -240q-1 -15 5 -15q32 0 71 27zM442 190l7 41l-115 -17q-129 -20 -135 -64q-3 -17 17.5 -27t57.5 -10q54 0 108 19.5t60 57.5z" />
    <glyph glyph-name="atilde" unicode="&#xe3;" horiz-adv-x="656" 
d="M344 635h-124l15 50q24 72 61 104t96 32q66 0 102 -48q17 -13 20 -13q6 0 28 62h132l-28 -67q-25 -62 -59.5 -90.5t-91.5 -28.5q-50 0 -101 46q-16 16 -22 16q-4 0 -28 -63zM631 135l-18 -116q-63 -25 -102 -25h-2q-48 6 -68 44q-89 -46 -190 -46q-96 0 -142.5 41
t-34.5 117q12 78 70 122t177 62l147 22l1 7q6 35 -24 55.5t-80 20.5q-83 0 -154 -114l-108 52q56 94 124 139t157 45q107 0 165.5 -52t43.5 -146l-38 -240q-1 -15 5 -15q32 0 71 27zM442 190l7 41l-115 -17q-129 -20 -135 -64q-3 -17 17.5 -27t57.5 -10q54 0 108 19.5
t60 57.5z" />
    <glyph glyph-name="adieresis" unicode="&#xe4;" horiz-adv-x="656" 
d="M342 614q-33 0 -49.5 21t-10.5 57q5 32 28.5 52.5t55.5 20.5q35 0 53 -20.5t13 -52.5q-6 -36 -30.5 -57t-59.5 -21zM512 614q-35 0 -52.5 21t-11.5 57q5 32 29 52.5t59 20.5q32 0 50 -20.5t13 -52.5q-6 -36 -30 -57t-57 -21zM631 135l-18 -116q-63 -25 -102 -25h-2
q-48 6 -68 44q-89 -46 -190 -46q-96 0 -142.5 41t-34.5 117q12 78 70 122t177 62l147 22l1 7q6 35 -24 55.5t-80 20.5q-83 0 -154 -114l-108 52q56 94 124 139t157 45q107 0 165.5 -52t43.5 -146l-38 -240q-1 -15 5 -15q32 0 71 27zM442 190l7 41l-115 -17
q-129 -20 -135 -64q-3 -17 17.5 -27t57.5 -10q54 0 108 19.5t60 57.5z" />
    <glyph glyph-name="aring" unicode="&#xe5;" horiz-adv-x="656" 
d="M429 623q-58 0 -89 36.5t-22 93.5t52 94t100 37t88.5 -37t22.5 -94t-51.5 -93.5t-100.5 -36.5zM442 709q19 0 34 12.5t18 31.5q3 20 -8 32.5t-30 12.5t-33.5 -12.5t-17.5 -32.5q-3 -19 7.5 -31.5t29.5 -12.5zM631 135l-18 -116q-63 -25 -102 -25h-2q-48 6 -68 44
q-89 -46 -190 -46q-96 0 -142.5 41t-34.5 117q12 78 70 122t177 62l147 22l1 7q6 35 -24 55.5t-80 20.5q-83 0 -154 -114l-108 52q56 94 124 139t157 45q107 0 165.5 -52t43.5 -146l-38 -240q-1 -15 5 -15q32 0 71 27zM442 190l7 41l-115 -17q-129 -20 -135 -64
q-3 -17 17.5 -27t57.5 -10q54 0 108 19.5t60 57.5z" />
    <glyph glyph-name="ae" unicode="&#xe6;" horiz-adv-x="987" 
d="M976 273q-4 -29 -14 -60l-403 -2q10 -44 41 -70t80 -26q91 0 142 77h131q-37 -90 -115 -145t-177 -55q-118 0 -181 79q-5 -3 -8 3q-31 -24 -61 -38v-1q-87 -43 -184 -43q-96 0 -142.5 41t-34.5 117q12 78 70 122t177 62l144 22l1 7q6 35 -23.5 55.5t-77.5 20.5
q-83 0 -154 -114l-108 52q56 94 124 139t158 45q79 -4 118.5 -20.5t66.5 -60.5q3 3 5 3q88 74 199 74q121 0 183 -82t43 -202zM579 333h275q-8 46 -40 73.5t-83 27.5q-48 0 -89 -28t-63 -73zM416 194l6 37q-162 -24 -204 -41q-39 -17 -43 -40q-3 -17 17.5 -27t57.5 -10
q17 0 38 3l1 1q42 7 78 27.5t49 49.5z" />
    <glyph glyph-name="ccedilla" unicode="&#xe7;" horiz-adv-x="635" 
d="M487 213l126 -1q-24 -69 -74 -122t-117 -78q13 -32 7 -75q-10 -60 -54.5 -98t-105.5 -38q-45 0 -79 21.5t-63 73.5l94 107q46 -77 68 -77q12 0 14 10q2 11 -18 28t-72 48q-72 30 -105.5 100.5t-19.5 161.5q19 120 107 202t207 82q103 0 164.5 -61t65.5 -157h-127
q-9 43 -41 69t-81 26q-64 0 -112.5 -47t-59.5 -114q-10 -67 23 -112.5t98 -45.5q50 0 91 26.5t64 70.5z" />
    <glyph glyph-name="egrave" unicode="&#xe8;" horiz-adv-x="647" 
d="M314 870h149l104 -244h-144zM638 274q-4 -29 -14 -60l-402 -2q9 -44 40 -70t80 -26q91 0 143 77h131q-38 -90 -116 -145t-177 -55q-120 0 -182 80.5t-43 200.5t107 202t207 82q121 0 183 -82t43 -202zM393 435q-48 0 -89 -28t-63 -73h275q-8 46 -40 73.5t-83 27.5z" />
    <glyph glyph-name="eacute" unicode="&#xe9;" horiz-adv-x="647" 
d="M459 876h148l-185 -243h-146zM638 274q-4 -29 -14 -60l-402 -2q9 -44 40 -70t80 -26q91 0 143 77h131q-38 -90 -116 -145t-177 -55q-120 0 -182 80.5t-43 200.5t107 202t207 82q121 0 183 -82t43 -202zM393 435q-48 0 -89 -28t-63 -73h275q-8 46 -40 73.5t-83 27.5z" />
    <glyph glyph-name="ecircumflex" unicode="&#xea;" horiz-adv-x="647" 
d="M482 613l-51 82l-77 -82h-155l222 240h73l145 -240h-157zM638 274q-4 -29 -14 -60l-402 -2q9 -44 40 -70t80 -26q91 0 143 77h131q-38 -90 -116 -145t-177 -55q-120 0 -182 80.5t-43 200.5t107 202t207 82q121 0 183 -82t43 -202zM393 435q-48 0 -89 -28t-63 -73h275
q-8 46 -40 73.5t-83 27.5z" />
    <glyph glyph-name="edieresis" unicode="&#xeb;" horiz-adv-x="647" 
d="M335 614q-35 0 -51.5 21t-10.5 57q5 32 28.5 52.5t57.5 20.5t52 -20.5t13 -52.5q-6 -36 -30 -57t-59 -21zM503 614q-33 0 -51 21t-12 57q4 31 29 52t58 21q34 0 51.5 -20.5t12.5 -52.5q-6 -36 -29.5 -57t-58.5 -21zM638 274q-4 -29 -14 -60l-402 -2q9 -44 40 -70t80 -26
q91 0 143 77h131q-38 -90 -116 -145t-177 -55q-120 0 -182 80.5t-43 200.5t107 202t207 82q121 0 183 -82t43 -202zM393 435q-48 0 -89 -28t-63 -73h275q-8 46 -40 73.5t-83 27.5z" />
    <glyph glyph-name="igrave" unicode="&#xec;" horiz-adv-x="287" 
d="M136 870h148l104 -244h-144zM172 561h123l-89 -561h-123z" />
    <glyph glyph-name="iacute" unicode="&#xed;" horiz-adv-x="287" 
d="M280 876h148l-185 -243h-145zM171 561h123l-89 -561h-123z" />
    <glyph glyph-name="icircumflex" unicode="&#xee;" horiz-adv-x="257" 
d="M289 613l-52 82l-77 -82h-155l222 240h73l146 -240h-157zM156 561h123l-89 -561h-123z" />
    <glyph glyph-name="idieresis" unicode="&#xef;" horiz-adv-x="244" 
d="M135 614q-35 0 -51.5 21t-10.5 57q5 32 28.5 52.5t57.5 20.5q33 0 51 -20.5t13 -52.5q-6 -36 -30.5 -57t-57.5 -21zM303 614q-33 0 -51 21.5t-12 56.5q4 31 29 52t58 21q34 0 51.5 -20.5t12.5 -52.5q-6 -36 -29.5 -57t-58.5 -21zM149 561h123l-89 -561h-123z" />
    <glyph glyph-name="eth" unicode="&#xf0;" horiz-adv-x="614" 
d="M683 719l38 -111l-102 -47q27 -91 8 -206q-57 -364 -320 -364q-112 0 -168.5 65t-39.5 174q17 102 84.5 166t168.5 71l-29 84l89 41q-12 3 -29 3q-67 0 -118 -96h-131q110 219 269 219q95 0 158 -57zM498 502l-81 -37q46 -8 90 -36q-2 42 -9 73zM327 114q49 0 87 33.5
t46 84.5q7 45 -21.5 79.5t-79.5 34.5q-52 0 -88.5 -32t-44.5 -82q-9 -53 18.5 -85.5t82.5 -32.5z" />
    <glyph glyph-name="ntilde" unicode="&#xf1;" 
d="M332 635h-125l16 50q24 73 61 104.5t96 31.5q64 0 102 -48q15 -13 19 -13q6 0 28 62h132l-27 -67q-25 -62 -60 -90.5t-92 -28.5t-100 46q-18 16 -23 16t-27 -63zM220 291l-46 -291h-125l85 561h124l-6 -47q77 44 155 44q121 0 182.5 -81.5t42.5 -202.5l-43 -274h-120
l43 274q11 68 -23 114.5t-101 46.5q-55 0 -101 -42t-67 -102z" />
    <glyph glyph-name="ograve" unicode="&#xf2;" horiz-adv-x="631" 
d="M308 870h149l104 -244h-144zM313 -7q-120 0 -182 80.5t-43 200.5t107 202t207 82q121 0 183.5 -82t43.5 -202q-19 -121 -106.5 -201t-209.5 -80zM332 116q68 0 116.5 45.5t58.5 112.5q11 68 -22.5 114.5t-101.5 46.5q-64 0 -112 -47t-59 -114q-10 -67 22.5 -112.5
t97.5 -45.5z" />
    <glyph glyph-name="oacute" unicode="&#xf3;" horiz-adv-x="631" 
d="M453 876h148l-185 -243h-146zM313 -7q-120 0 -182 80.5t-43 200.5t107 202t207 82q121 0 183.5 -82t43.5 -202q-19 -121 -106.5 -201t-209.5 -80zM332 116q68 0 116.5 45.5t58.5 112.5q11 68 -22.5 114.5t-101.5 46.5q-64 0 -112 -47t-59 -114q-10 -67 22.5 -112.5
t97.5 -45.5z" />
    <glyph glyph-name="ocircumflex" unicode="&#xf4;" horiz-adv-x="631" 
d="M477 613l-52 82l-77 -82h-155l222 240h73l146 -240h-157zM313 -7q-120 0 -182 80.5t-43 200.5t107 202t207 82q121 0 183.5 -82t43.5 -202q-19 -121 -106.5 -201t-209.5 -80zM332 116q68 0 116.5 45.5t58.5 112.5q11 68 -22.5 114.5t-101.5 46.5q-64 0 -112 -47t-59 -114
q-10 -67 22.5 -112.5t97.5 -45.5z" />
    <glyph glyph-name="otilde" unicode="&#xf5;" horiz-adv-x="631" 
d="M331 635h-126l16 50q24 73 61 104.5t97 31.5q66 0 102 -48q13 -13 19 -13t28 62h131l-26 -67q-25 -62 -60 -90.5t-92 -28.5q-64 0 -102 46q-14 16 -21 16q-5 0 -27 -63zM313 -7q-120 0 -182 80.5t-43 200.5t107 202t207 82q121 0 183.5 -82t43.5 -202
q-19 -121 -106.5 -201t-209.5 -80zM332 116q68 0 116.5 45.5t58.5 112.5q11 68 -22.5 114.5t-101.5 46.5q-64 0 -112 -47t-59 -114q-10 -67 22.5 -112.5t97.5 -45.5z" />
    <glyph glyph-name="odieresis" unicode="&#xf6;" horiz-adv-x="631" 
d="M329 614q-35 0 -51.5 21t-10.5 57q5 32 28.5 52.5t57.5 20.5q33 0 51.5 -20.5t13.5 -52.5q-6 -36 -30.5 -57t-58.5 -21zM497 614q-33 0 -50.5 21t-11.5 57q5 32 29 52.5t57 20.5q34 0 51.5 -20.5t12.5 -52.5q-6 -36 -29.5 -57t-58.5 -21zM313 -7q-120 0 -182 80.5
t-43 200.5t107 202t207 82q121 0 183.5 -82t43.5 -202q-19 -121 -106.5 -201t-209.5 -80zM332 116q68 0 116.5 45.5t58.5 112.5q11 68 -22.5 114.5t-101.5 46.5q-64 0 -112 -47t-59 -114q-10 -67 22.5 -112.5t97.5 -45.5z" />
    <glyph glyph-name="divide" unicode="&#xf7;" horiz-adv-x="699" 
d="M421 445q-34 0 -52 21.5t-13 54.5q5 34 30.5 56.5t59.5 22.5q33 0 50.5 -22t12.5 -57q-5 -33 -30 -54.5t-58 -21.5zM150 413h530l-19 -125h-530zM367 102q-34 0 -52.5 22t-13.5 55q6 35 31.5 56t59.5 21q33 0 50.5 -21t11.5 -56q-5 -33 -29.5 -55t-57.5 -22z" />
    <glyph glyph-name="oslash" unicode="&#xf8;" horiz-adv-x="650" 
d="M616 683l-75 -159q57 -38 83.5 -105t13.5 -145q-19 -121 -106.5 -201t-208.5 -80q-13 0 -39 2l-63 -127h-130l84 174q-46 40 -67 101t-10 131q20 126 109.5 205t214.5 79h3l58 125h133zM239 171l126 262q-55 -10 -94 -54.5t-49 -104.5q-9 -60 17 -103zM340 116h2
q67 0 115.5 45.5t58.5 112.5q14 86 -36 129z" />
    <glyph glyph-name="ugrave" unicode="&#xf9;" 
d="M310 870h148l104 -244h-144zM315 -9q-121 0 -183.5 80t-43.5 201l46 289h124l-46 -289q-11 -66 23 -112.5t99 -46.5q55 0 101.5 42t68.5 101l48 305h123l-86 -563h-120l4 37q-74 -44 -158 -44z" />
    <glyph glyph-name="uacute" unicode="&#xfa;" 
d="M455 876h147l-185 -243h-145zM315 -9q-121 0 -183.5 80t-43.5 201l46 289h124l-46 -289q-11 -66 23 -112.5t99 -46.5q55 0 101.5 42t68.5 101l48 305h123l-86 -563h-120l4 37q-74 -44 -158 -44z" />
    <glyph glyph-name="ucircumflex" unicode="&#xfb;" 
d="M478 613l-52 82l-77 -82h-154l221 240h73l146 -240h-157zM315 -9q-121 0 -183.5 80t-43.5 201l46 289h124l-46 -289q-11 -66 23 -112.5t99 -46.5q55 0 101.5 42t68.5 101l48 305h123l-86 -563h-120l4 37q-74 -44 -158 -44z" />
    <glyph glyph-name="udieresis" unicode="&#xfc;" 
d="M330 614q-33 0 -50.5 21t-11.5 57q5 32 29 52.5t57 20.5q34 0 52.5 -20.5t13.5 -52.5q-6 -36 -30.5 -57t-59.5 -21zM499 614q-35 0 -52 21t-11 57q5 32 29 52.5t58 20.5q33 0 50.5 -20.5t12.5 -52.5q-6 -36 -30 -57t-57 -21zM315 -9q-121 0 -183.5 80t-43.5 201l46 289
h124l-46 -289q-11 -66 23 -112.5t99 -46.5q55 0 101.5 42t68.5 101l48 305h123l-86 -563h-120l4 37q-74 -44 -158 -44z" />
    <glyph glyph-name="yacute" unicode="&#xfd;" 
d="M454 876h147l-184 -243h-146zM140 -189q-29 0 -88 21l21 130q32 -29 83 -29h4q28 0 63 58l37 64l-132 506h139l88 -342l190 342h138l-348 -615q-42 -75 -87 -105t-108 -30z" />
    <glyph glyph-name="ydieresis" unicode="&#xff;" 
d="M329 614q-34 0 -50.5 21t-10.5 57q5 32 28.5 52.5t56.5 20.5q35 0 53 -20.5t13 -52.5q-6 -36 -30.5 -57t-59.5 -21zM498 614q-34 0 -51.5 21t-11.5 57q5 32 29 52.5t58 20.5q33 0 51 -20.5t13 -52.5q-6 -36 -30 -57t-58 -21zM140 -189q-29 0 -88 21l21 130q32 -29 83 -29
h4q28 0 63 58l37 64l-132 506h139l88 -342l190 342h138l-348 -615q-42 -75 -87 -105t-108 -30z" />
    <glyph glyph-name="Amacron" unicode="&#x100;" horiz-adv-x="845" 
d="M378 928h382l-20 -126h-382zM599 184h-289l-125 -184h-146l500 726l270 -726h-142zM389 299h165l-58 157z" />
    <glyph glyph-name="amacron" unicode="&#x101;" horiz-adv-x="656" 
d="M263 758h374l-19 -123h-374zM631 135l-18 -116q-63 -25 -102 -25h-2q-48 6 -68 44q-89 -46 -190 -46q-96 0 -142.5 41t-34.5 117q12 78 70 122t177 62l147 22l1 7q6 35 -24 55.5t-80 20.5q-83 0 -154 -114l-108 52q56 94 124 139t157 45q107 0 165.5 -52t43.5 -146
l-38 -240q-1 -15 5 -15q32 0 71 27zM442 190l7 41l-115 -17q-129 -20 -135 -64q-3 -17 17.5 -27t57.5 -10q54 0 108 19.5t60 57.5z" />
    <glyph glyph-name="Abreve" unicode="&#x102;" horiz-adv-x="845" 
d="M549 798q-81 0 -115.5 60t-17.5 165h125q-16 -98 29 -98q41 0 57 98h125l-9 -56q-12 -79 -63 -124t-131 -45zM599 184h-289l-125 -184h-146l500 726l270 -726h-142zM389 299h165l-58 157z" />
    <glyph glyph-name="abreve" unicode="&#x103;" horiz-adv-x="656" 
d="M431 631q-80 0 -113 59t-17 161h121q-7 -46 0.5 -71t28.5 -25q40 0 56 96h122l-9 -54q-12 -78 -61 -122t-128 -44zM631 135l-18 -116q-63 -25 -102 -25h-2q-48 6 -68 44q-89 -46 -190 -46q-96 0 -142.5 41t-34.5 117q12 78 70 122t177 62l147 22l1 7q6 35 -24 55.5
t-80 20.5q-83 0 -154 -114l-108 52q56 94 124 139t157 45q107 0 165.5 -52t43.5 -146l-38 -240q-1 -15 5 -15q32 0 71 27zM442 190l7 41l-115 -17q-129 -20 -135 -64q-3 -17 17.5 -27t57.5 -10q54 0 108 19.5t60 57.5z" />
    <glyph glyph-name="Aogonek" unicode="&#x104;" horiz-adv-x="841" 
d="M637 -99q23 0 90 52l45 -116q-89 -62 -155 -62q-61 0 -94 35.5t-23 95.5q8 50 41 87t103 70l-45 121h-289l-125 -184h-146l500 726l270 -726h-23q-93 -42 -125.5 -61t-34.5 -33q0 -5 11 -5zM496 456l-107 -157h165z" />
    <glyph glyph-name="aogonek" unicode="&#x105;" horiz-adv-x="690" 
d="M576 -13l46 -115q-91 -61 -154 -61q-60 0 -92.5 35t-23.5 94q8 41 32 74v1q-69 -23 -133 -23q-96 0 -142.5 41t-34.5 117q12 78 70 122t177 62l147 22l1 7q6 35 -24 55.5t-80 20.5q-83 0 -154 -114l-108 52q56 94 124 139t157 45q107 0 165.5 -52t43.5 -146l-38 -240
q-1 -15 5 -15q32 0 71 27l-18 -116h-1l2 -1q-37 -14 -39 -14q-94 -40 -98 -64q0 -5 11 -5q24 0 88 52zM199 150q-3 -17 17.5 -27t57.5 -10q54 0 108 19.5t60 57.5l7 41l-115 -17q-129 -20 -135 -64z" />
    <glyph glyph-name="Cacute" unicode="&#x106;" horiz-adv-x="815" 
d="M569 1048h151l-188 -248h-147zM408 -9q-159 0 -246 104.5t-62 266.5q26 162 146.5 267t278.5 105q131 0 215 -73t97 -193h-135q-17 64 -69 101.5t-128 37.5q-106 0 -183.5 -70t-94.5 -175q-17 -107 39.5 -176t161.5 -69q87 0 157.5 49t102.5 130h130
q-43 -137 -155.5 -221t-254.5 -84z" />
    <glyph glyph-name="cacute" unicode="&#x107;" horiz-adv-x="625" 
d="M447 876h147l-184 -243h-146zM313 -7q-120 0 -182 80.5t-43 200.5t107 202t207 82q103 0 164.5 -61t65.5 -157h-127q-9 43 -41 69t-81 26q-64 0 -112.5 -47t-59.5 -114q-10 -67 23 -112.5t98 -45.5q50 0 91 26.5t64 70.5l126 -1q-35 -98 -115.5 -158.5t-184.5 -60.5z" />
    <glyph glyph-name="Ccircumflex" unicode="&#x108;" horiz-adv-x="815" 
d="M594 780l-53 83l-79 -83h-157l226 244h74l149 -244h-160zM408 -9q-159 0 -246 104.5t-62 266.5q26 162 146.5 267t278.5 105q131 0 215 -73t97 -193h-135q-17 64 -69 101.5t-128 37.5q-106 0 -183.5 -70t-94.5 -175q-17 -107 39.5 -176t161.5 -69q87 0 157.5 49
t102.5 130h130q-43 -137 -155.5 -221t-254.5 -84z" />
    <glyph glyph-name="ccircumflex" unicode="&#x109;" horiz-adv-x="625" 
d="M470 613l-51 82l-78 -82h-154l222 240h72l146 -240h-157zM313 -7q-120 0 -182 80.5t-43 200.5t107 202t207 82q103 0 164.5 -61t65.5 -157h-127q-9 43 -41 69t-81 26q-64 0 -112.5 -47t-59.5 -114q-10 -67 23 -112.5t98 -45.5q50 0 91 26.5t64 70.5l126 -1
q-35 -98 -115.5 -158.5t-184.5 -60.5z" />
    <glyph glyph-name="Cdotaccent" unicode="&#x10a;" horiz-adv-x="815" 
d="M529 783q-34 0 -51.5 22t-11.5 57q5 32 29 53t58 21q33 0 51.5 -21t14.5 -53q-6 -35 -31.5 -57t-58.5 -22zM408 -9q-159 0 -246 104.5t-62 266.5q26 162 146.5 267t278.5 105q131 0 215 -73t97 -193h-135q-17 64 -69 101.5t-128 37.5q-106 0 -183.5 -70t-94.5 -175
q-17 -107 39.5 -176t161.5 -69q87 0 157.5 49t102.5 130h130q-43 -137 -155.5 -221t-254.5 -84z" />
    <glyph glyph-name="cdotaccent" unicode="&#x10b;" horiz-adv-x="625" 
d="M408 616q-35 0 -52 21t-11 57q5 32 28.5 52.5t57.5 20.5q32 0 50 -21t13 -52q-6 -36 -29.5 -57t-56.5 -21zM313 -7q-120 0 -182 80.5t-43 200.5t107 202t207 82q103 0 164.5 -61t65.5 -157h-127q-9 43 -41 69t-81 26q-64 0 -112.5 -47t-59.5 -114q-10 -67 23 -112.5
t98 -45.5q50 0 91 26.5t64 70.5l126 -1q-35 -98 -115.5 -158.5t-184.5 -60.5z" />
    <glyph glyph-name="Ccaron" unicode="&#x10c;" horiz-adv-x="815" 
d="M636 1040h159l-226 -244h-74l-149 244h158l52 -84zM408 -9q-159 0 -246 104.5t-62 266.5q26 162 146.5 267t278.5 105q131 0 215 -73t97 -193h-135q-17 64 -69 101.5t-128 37.5q-106 0 -183.5 -70t-94.5 -175q-17 -107 39.5 -176t161.5 -69q87 0 157.5 49t102.5 130h130
q-43 -137 -155.5 -221t-254.5 -84z" />
    <glyph glyph-name="ccaron" unicode="&#x10d;" horiz-adv-x="625" 
d="M512 869h156l-222 -240h-72l-146 240h155l52 -82zM313 -7q-120 0 -182 80.5t-43 200.5t107 202t207 82q103 0 164.5 -61t65.5 -157h-127q-9 43 -41 69t-81 26q-64 0 -112.5 -47t-59.5 -114q-10 -67 23 -112.5t98 -45.5q50 0 91 26.5t64 70.5l126 -1
q-35 -98 -115.5 -158.5t-184.5 -60.5z" />
    <glyph glyph-name="Dcaron" unicode="&#x10e;" horiz-adv-x="706" 
d="M584 1040h159l-226 -244h-75l-149 244h159l52 -84zM306 0h-261l115 726h261q174 0 249.5 -93.5t48.5 -268.5q-58 -364 -413 -364zM401 601h-135l-75 -476h135q228 0 267 239q17 113 -32.5 175t-159.5 62z" />
    <glyph glyph-name="dcaron" unicode="&#x10f;" horiz-adv-x="793" 
d="M789 717q84 0 69 -94q-7 -40 -44.5 -84.5t-91.5 -74.5l-48 73l-85 -537h-125l5 32q-67 -39 -151 -39q-121 0 -183.5 80t-43.5 201q19 120 107 202t209 82q81 0 139 -39l33 207h125l-24 -152q9 4 34 18q-16 22 -11 51q5 30 29.5 52t56.5 22zM505 257l5 34
q-2 59 -34.5 101.5t-87.5 42.5q-65 0 -114.5 -47t-60.5 -114q-10 -67 24 -112.5t100 -45.5q54 0 100.5 41.5t67.5 99.5z" />
    <glyph glyph-name="Dcroat" unicode="&#x110;" horiz-adv-x="803" 
d="M391 0h-261l48 300h-124l20 127h124l47 299h261q176 0 251.5 -93t48.5 -269q-58 -364 -415 -364zM454 427l-20 -127h-127l-28 -175h132q229 0 268 239q17 113 -32.5 175t-160.5 62h-132l-27 -174h127z" />
    <glyph glyph-name="dcroat" unicode="&#x111;" horiz-adv-x="717" 
d="M709 717l-8 -45h111l-19 -122h-111l-87 -550h-125l5 33q-69 -40 -149 -40q-122 0 -184.5 80t-43.5 201t107.5 202.5t209.5 81.5h13l18 114h130l8 45h125zM552 518l5 32h-77q42 -11 72 -32zM509 247l9 55q1 58 -32.5 95.5t-89.5 37.5q-67 0 -116 -46.5t-60 -114.5
q-10 -67 23.5 -112.5t101.5 -45.5q57 0 101.5 37t62.5 94z" />
    <glyph glyph-name="Emacron" unicode="&#x112;" horiz-adv-x="659" 
d="M286 928h381l-20 -126h-381zM193 125h441l-20 -125h-569l115 726h569l-20 -125h-441l-28 -175h335l-20 -128h-335z" />
    <glyph glyph-name="emacron" unicode="&#x113;" horiz-adv-x="647" 
d="M255 758h373l-19 -123h-373zM638 274q-4 -29 -14 -60l-402 -2q9 -44 40 -70t80 -26q91 0 143 77h131q-38 -90 -116 -145t-177 -55q-120 0 -182 80.5t-43 200.5t107 202t207 82q121 0 183 -82t43 -202zM393 435q-48 0 -89 -28t-63 -73h275q-8 46 -40 73.5t-83 27.5z" />
    <glyph glyph-name="Ebreve" unicode="&#x114;" horiz-adv-x="659" 
d="M456 798q-82 0 -115.5 59.5t-16.5 165.5h123q-7 -47 1 -72.5t29 -25.5q42 0 58 98h124l-9 -56q-12 -79 -63 -124t-131 -45zM193 125h441l-20 -125h-569l115 726h569l-20 -125h-441l-28 -175h335l-20 -128h-335z" />
    <glyph glyph-name="ebreve" unicode="&#x115;" horiz-adv-x="647" 
d="M423 631q-80 0 -113 59t-17 161h121q-7 -46 0.5 -71t28.5 -25q39 0 55 96h124l-9 -54q-12 -78 -61.5 -122t-128.5 -44zM638 274q-4 -29 -14 -60l-402 -2q9 -44 40 -70t80 -26q91 0 143 77h131q-38 -90 -116 -145t-177 -55q-120 0 -182 80.5t-43 200.5t107 202t207 82
q121 0 183 -82t43 -202zM393 435q-48 0 -89 -28t-63 -73h275q-8 46 -40 73.5t-83 27.5z" />
    <glyph glyph-name="Edotaccent" unicode="&#x116;" horiz-adv-x="659" 
d="M453 783q-34 0 -51.5 22t-11.5 57q5 32 29 53t58 21t52 -21t13 -53q-6 -35 -30.5 -57t-58.5 -22zM193 125h441l-20 -125h-569l115 726h569l-20 -125h-441l-28 -175h335l-20 -128h-335z" />
    <glyph glyph-name="edotaccent" unicode="&#x117;" horiz-adv-x="647" 
d="M420 616q-35 0 -52 21t-11 57q5 32 28.5 52.5t57.5 20.5q32 0 50.5 -21t13.5 -52q-6 -36 -30 -57t-57 -21zM638 274q-4 -29 -14 -60l-402 -2q9 -44 40 -70t80 -26q91 0 143 77h131q-38 -90 -116 -145t-177 -55q-120 0 -182 80.5t-43 200.5t107 202t207 82q121 0 183 -82
t43 -202zM393 435q-48 0 -89 -28t-63 -73h275q-8 46 -40 73.5t-83 27.5z" />
    <glyph glyph-name="Eogonek" unicode="&#x118;" horiz-adv-x="695" 
d="M466 -187q-60 0 -93 35.5t-23 93.5q4 29 21 58h-316l115 726h570l-20 -125h-441l-28 -175h334l-20 -128h-334l-27 -173h441l-20 -125h-69q-76 -36 -79 -58q-1 -2 2 -3t7 -1q22 0 93 52l41 -116q-85 -61 -154 -61z" />
    <glyph glyph-name="eogonek" unicode="&#x119;" horiz-adv-x="681" 
d="M638 274q-4 -29 -14 -60l-402 -2q9 -44 40 -70t80 -26q91 0 143 77h131q-30 -72 -87.5 -122.5t-132.5 -68.5q-4 -4 -13 -5q-69 -29 -71 -50l7 -2q21 0 92 47l38 -112q-87 -56 -149 -56q-58 0 -89 32t-22 91q5 33 26 66q-14 5 -16 10q-60 35 -87 101.5t-14 149.5
q19 120 107 202t207 82q121 0 183 -82t43 -202zM241 334h275q-8 46 -40 73.5t-83 27.5q-48 0 -89 -28t-63 -73z" />
    <glyph glyph-name="Ecaron" unicode="&#x11a;" horiz-adv-x="659" 
d="M561 1040h158l-226 -244h-74l-149 244h158l53 -84zM193 125h441l-20 -125h-569l115 726h569l-20 -125h-441l-28 -175h335l-20 -128h-335z" />
    <glyph glyph-name="ecaron" unicode="&#x11b;" horiz-adv-x="647" 
d="M524 869h156l-221 -240h-73l-146 240h155l52 -82zM638 274q-4 -29 -14 -60l-402 -2q9 -44 40 -70t80 -26q91 0 143 77h131q-38 -90 -116 -145t-177 -55q-120 0 -182 80.5t-43 200.5t107 202t207 82q121 0 183 -82t43 -202zM393 435q-48 0 -89 -28t-63 -73h275
q-8 46 -40 73.5t-83 27.5z" />
    <glyph glyph-name="Gcircumflex" unicode="&#x11c;" horiz-adv-x="812" 
d="M592 780l-54 83l-79 -83h-158l227 244h74l149 -244h-159zM833 426l-67 -426h-126l10 66q-108 -75 -241 -75q-159 0 -246 104.5t-62 266.5q26 162 146.5 267t278.5 105q131 0 215 -73t97 -193h-135q-17 64 -69 101.5t-128 37.5q-106 0 -183.5 -70t-94.5 -175
q-17 -107 39.5 -176t161.5 -69q88 0 155.5 47t102.5 134h-228l20 128h354z" />
    <glyph glyph-name="gcircumflex" unicode="&#x11d;" horiz-adv-x="637" 
d="M483 613l-52 82l-77 -82h-155l222 240h73l146 -240h-157zM553 516l7 45h123l-80 -502q-18 -117 -106 -194t-208 -77q-89 0 -151 54t-88 157h131q30 -90 128 -90q62 0 110.5 35.5t56.5 85.5v4q-71 -41 -154 -41q-120 0 -182 80.5t-43 200.5t107 202t207 82q84 0 142 -42z
M341 116q62 0 108.5 39t61.5 99l7 40q3 61 -30.5 101t-95.5 40q-64 0 -112.5 -47t-59.5 -114q-10 -67 23 -112.5t98 -45.5z" />
    <glyph glyph-name="Gbreve" unicode="&#x11e;" horiz-adv-x="812" 
d="M528 798q-81 0 -114.5 60t-16.5 165h123q-7 -47 0.5 -72.5t28.5 -25.5q42 0 58 98h125l-9 -56q-12 -79 -63 -124t-132 -45zM833 426l-67 -426h-126l10 66q-108 -75 -241 -75q-159 0 -246 104.5t-62 266.5q26 162 146.5 267t278.5 105q131 0 215 -73t97 -193h-135
q-17 64 -69 101.5t-128 37.5q-106 0 -183.5 -70t-94.5 -175q-17 -107 39.5 -176t161.5 -69q88 0 155.5 47t102.5 134h-228l20 128h354z" />
    <glyph glyph-name="gbreve" unicode="&#x11f;" horiz-adv-x="637" 
d="M422 631q-80 0 -113 59t-17 161h123q-7 -45 0 -70.5t27 -25.5q41 0 57 96h123l-9 -54q-12 -78 -62 -122t-129 -44zM553 516l7 45h123l-80 -502q-18 -117 -106 -194t-208 -77q-89 0 -151 54t-88 157h131q30 -90 128 -90q62 0 110.5 35.5t56.5 85.5v4q-71 -41 -154 -41
q-120 0 -182 80.5t-43 200.5t107 202t207 82q84 0 142 -42zM341 116q62 0 108.5 39t61.5 99l7 40q3 61 -30.5 101t-95.5 40q-64 0 -112.5 -47t-59.5 -114q-10 -67 23 -112.5t98 -45.5z" />
    <glyph glyph-name="Gdotaccent" unicode="&#x120;" horiz-adv-x="812" 
d="M525 783q-34 0 -51 22t-11 57q5 32 28.5 53t57.5 21t52.5 -21t13.5 -53q-6 -35 -31 -57t-59 -22zM833 426l-67 -426h-126l10 66q-108 -75 -241 -75q-159 0 -246 104.5t-62 266.5q26 162 146.5 267t278.5 105q131 0 215 -73t97 -193h-135q-17 64 -69 101.5t-128 37.5
q-106 0 -183.5 -70t-94.5 -175q-17 -107 39.5 -176t161.5 -69q88 0 155.5 47t102.5 134h-228l20 128h354z" />
    <glyph glyph-name="gdotaccent" unicode="&#x121;" horiz-adv-x="637" 
d="M419 616q-33 0 -50.5 21.5t-11.5 56.5q5 32 29 52.5t56 20.5q34 0 52 -20.5t13 -52.5q-6 -36 -30 -57t-58 -21zM553 516l7 45h123l-80 -502q-18 -117 -106 -194t-208 -77q-89 0 -151 54t-88 157h131q30 -90 128 -90q62 0 110.5 35.5t56.5 85.5v4q-71 -41 -154 -41
q-120 0 -182 80.5t-43 200.5t107 202t207 82q84 0 142 -42zM341 116q62 0 108.5 39t61.5 99l7 40q3 61 -30.5 101t-95.5 40q-64 0 -112.5 -47t-59.5 -114q-10 -67 23 -112.5t98 -45.5z" />
    <glyph glyph-name="Hcircumflex" unicode="&#x124;" horiz-adv-x="665" 
d="M522 780l-54 83l-79 -83h-158l227 244h74l149 -244h-159zM540 298h-321l-47 -298h-127l115 726h127l-48 -300h321l48 300h127l-115 -726h-127z" />
    <glyph glyph-name="hcircumflex" unicode="&#x125;" horiz-adv-x="631" 
d="M402 558q121 0 183.5 -82t43.5 -202l-43 -274h-122l43 274q11 68 -23 114.5t-101 46.5q-53 0 -99 -42t-69 -102l-46 -291h-124l114 717h124l-14 -87l179 223h66l116 -240h-135l-40 79l-66 -79h-123l-15 -95q71 40 151 40z" />
    <glyph glyph-name="Hbar" unicode="&#x126;" horiz-adv-x="665" 
d="M289 928h381l-20 -126h-381zM540 298h-321l-47 -298h-127l115 726h127l-48 -300h321l48 300h127l-115 -726h-127z" />
    <glyph glyph-name="hbar" unicode="&#x127;" horiz-adv-x="631" 
d="M402 558q121 0 183.5 -82t43.5 -202l-43 -274h-122l43 274q11 68 -23 114.5t-101 46.5q-54 0 -99.5 -42t-67.5 -102l-46 -291h-125l115 726h106l5 32h352l-19 -123h-333l-19 -116q70 39 150 39z" />
    <glyph glyph-name="Itilde" unicode="&#x128;" horiz-adv-x="227" 
d="M151 802h-127l18 52q24 74 61 106.5t98 32.5q66 0 104 -51q12 -12 20 -12q7 0 29 64h133l-26 -68q-27 -65 -62.5 -94t-93.5 -29q-63 0 -103 48q-14 16 -23 16q-5 0 -28 -65zM164 726h128l-115 -726h-128z" />
    <glyph glyph-name="itilde" unicode="&#x129;" horiz-adv-x="245" 
d="M136 635h-124l13 49q25 73 62 105t97 32q65 0 101 -48q15 -13 20 -13q6 0 27 62h132l-26 -67q-25 -62 -60 -90.5t-92 -28.5q-63 0 -103 46q-12 16 -20 16q-5 0 -27 -63zM148 561h123l-89 -561h-123z" />
    <glyph glyph-name="Imacron" unicode="&#x12a;" horiz-adv-x="219" 
d="M66 928h381l-20 -126h-381zM161 726h127l-115 -726h-127z" />
    <glyph glyph-name="imacron" unicode="&#x12b;" horiz-adv-x="239" 
d="M53 758h373l-19 -123h-373zM147 561h123l-89 -561h-123z" />
    <glyph glyph-name="Iogonek" unicode="&#x12e;" horiz-adv-x="229" 
d="M9 -194q-62 0 -95 33.5t-23 94.5q8 52 43.5 91t110.5 71l100 630h129l-112 -707q-109 -45 -127 -62q-15 -12 -17 -23l11 -2q22 0 89 51l45 -118q-93 -59 -154 -59z" />
    <glyph glyph-name="iogonek" unicode="&#x12f;" horiz-adv-x="247" 
d="M195 578q-33 0 -51 20.5t-13 53.5t29.5 53.5t57.5 20.5q37 0 52 -19.5t10 -54.5q-12 -74 -85 -74zM137 -12l34 -120q-85 -52 -144 -52q-60 0 -92.5 32.5t-23.5 90.5q8 49 41 85t104 68l74 469h124l-85 -542q-100 -44 -119 -60q-12 -9 -14 -20q0 -2 10 -2q19 0 91 51z" />
    <glyph glyph-name="Idotaccent" unicode="&#x130;" horiz-adv-x="233" 
d="M240 783q-34 0 -51.5 22t-11.5 57q5 32 29 53t58 21t52 -21t13 -53q-6 -35 -30.5 -57t-58.5 -22zM167 726h127l-115 -726h-127z" />
    <glyph glyph-name="dotlessi" unicode="&#x131;" horiz-adv-x="263" 
d="M159 561h123l-89 -561h-123z" />
    <glyph glyph-name="Nacute" unicode="&#x143;" horiz-adv-x="663" 
d="M496 1048h150l-188 -248h-147zM512 0l-266 476l-74 -476h-127l115 726h105l267 -476l74 476h127l-115 -726h-106z" />
    <glyph glyph-name="nacute" unicode="&#x144;" 
d="M455 876h147l-185 -243h-145zM220 291l-46 -291h-125l85 561h124l-6 -47q77 44 155 44q121 0 182.5 -81.5t42.5 -202.5l-43 -274h-120l43 274q11 68 -23 114.5t-101 46.5q-55 0 -101 -42t-67 -102z" />
    <glyph glyph-name="Ncaron" unicode="&#x147;" horiz-adv-x="663" 
d="M563 1040h158l-226 -244h-74l-150 244h159l52 -84zM512 0l-266 476l-74 -476h-127l115 726h105l267 -476l74 476h127l-115 -726h-106z" />
    <glyph glyph-name="ncaron" unicode="&#x148;" 
d="M520 869h156l-222 -240h-73l-145 240h155l51 -82zM220 291l-46 -291h-125l85 561h124l-6 -47q77 44 155 44q121 0 182.5 -81.5t42.5 -202.5l-43 -274h-120l43 274q11 68 -23 114.5t-101 46.5q-55 0 -101 -42t-67 -102z" />
    <glyph glyph-name="Omacron" unicode="&#x14c;" horiz-adv-x="822" 
d="M367 928h382l-20 -126h-382zM408 -9q-158 0 -244.5 104.5t-61.5 266.5q26 162 145.5 267t277.5 105q161 0 248 -105t61 -267q-25 -162 -145 -266.5t-281 -104.5zM428 117q106 0 184.5 69t95.5 176t-40 176t-163 69t-183 -70t-94 -175q-17 -107 39.5 -176t160.5 -69z" />
    <glyph glyph-name="omacron" unicode="&#x14d;" horiz-adv-x="631" 
d="M250 758h373l-19 -123h-373zM313 -7q-120 0 -182 80.5t-43 200.5t107 202t207 82q121 0 183.5 -82t43.5 -202q-19 -121 -106.5 -201t-209.5 -80zM332 116q68 0 116.5 45.5t58.5 112.5q11 68 -22.5 114.5t-101.5 46.5q-64 0 -112 -47t-59 -114q-10 -67 22.5 -112.5
t97.5 -45.5z" />
    <glyph glyph-name="Obreve" unicode="&#x14e;" horiz-adv-x="822" 
d="M537 798q-81 0 -115 60t-17 165h124q-16 -98 29 -98q42 0 58 98h125l-9 -56q-12 -79 -63.5 -124t-131.5 -45zM408 -9q-158 0 -244.5 104.5t-61.5 266.5q26 162 145.5 267t277.5 105q161 0 248 -105t61 -267q-25 -162 -145 -266.5t-281 -104.5zM428 117q106 0 184.5 69
t95.5 176t-40 176t-163 69t-183 -70t-94 -175q-17 -107 39.5 -176t160.5 -69z" />
    <glyph glyph-name="obreve" unicode="&#x14f;" horiz-adv-x="631" 
d="M416 631q-80 0 -113 59t-17 161h123q-7 -45 0 -70.5t27 -25.5q41 0 57 96h123l-9 -54q-12 -78 -62 -122t-129 -44zM313 -7q-120 0 -182 80.5t-43 200.5t107 202t207 82q121 0 183.5 -82t43.5 -202q-19 -121 -106.5 -201t-209.5 -80zM332 116q68 0 116.5 45.5t58.5 112.5
q11 68 -22.5 114.5t-101.5 46.5q-64 0 -112 -47t-59 -114q-10 -67 22.5 -112.5t97.5 -45.5z" />
    <glyph glyph-name="Ohungarumlaut" unicode="&#x150;" horiz-adv-x="822" 
d="M496 1045h150l-191 -249h-144zM685 1045h150l-191 -249h-144zM408 -9q-158 0 -244.5 104.5t-61.5 266.5q26 162 145.5 267t277.5 105q161 0 248 -105t61 -267q-25 -162 -145 -266.5t-281 -104.5zM428 117q106 0 184.5 69t95.5 176t-40 176t-163 69t-183 -70t-94 -175
q-17 -107 39.5 -176t160.5 -69z" />
    <glyph glyph-name="ohungarumlaut" unicode="&#x151;" horiz-adv-x="631" 
d="M372 877h150l-191 -249h-144zM561 877h150l-191 -249h-144zM313 -7q-120 0 -182 80.5t-43 200.5t107 202t207 82q121 0 183.5 -82t43.5 -202q-19 -121 -106.5 -201t-209.5 -80zM332 116q68 0 116.5 45.5t58.5 112.5q11 68 -22.5 114.5t-101.5 46.5q-64 0 -112 -47
t-59 -114q-10 -67 22.5 -112.5t97.5 -45.5z" />
    <glyph glyph-name="OE" unicode="&#x152;" horiz-adv-x="1414" 
d="M419 -9q-160 0 -246 104t-61 267q26 160 145 266t279 106q137 0 227 -76l11 68h571l-20 -125h-442l-28 -175h334l-20 -128h-334l-27 -173h442l-20 -125h-571l12 73q-112 -82 -252 -82zM439 117q88 0 164.5 61.5t107.5 152.5l10 62q-3 90 -59.5 152t-145.5 62
q-104 0 -182 -69t-95 -176q-16 -104 39.5 -174.5t160.5 -70.5z" />
    <glyph glyph-name="oe" unicode="&#x153;" horiz-adv-x="1043" 
d="M739 112q65 8 122 81l129 -1q-90 -188 -261 -203h-3q-9 -1 -27 -1v2q-119 11 -177 98q-84 -95 -225 -95q-120 0 -182.5 80t-43.5 201q19 120 107 202t208 82q140 0 197 -98q91 94 223 94l-1 -2q109 -10 162.5 -104t30.5 -240h-383q9 -43 41.5 -68t82.5 -28zM316 116
q67 0 115 45.5t58 112.5q11 68 -22.5 114.5t-99.5 46.5q-65 0 -113 -46.5t-59 -114.5q-10 -67 22.5 -112.5t98.5 -45.5zM767 430q-88 -11 -133 -100h249q-7 44 -37.5 71.5t-78.5 28.5z" />
    <glyph glyph-name="Racute" unicode="&#x154;" horiz-adv-x="695" 
d="M506 1048h150l-188 -248h-147zM173 0h-128l115 726h298q56 0 99 -10t78 -33.5t49.5 -66.5t4.5 -104q-14 -90 -60 -137.5t-123 -64.5l154 -310h-153l-153 298h-134zM268 601l-28 -175h169q141 0 154 86q7 44 -25.5 66.5t-100.5 22.5h-169z" />
    <glyph glyph-name="racute" unicode="&#x155;" horiz-adv-x="537" 
d="M405 876h147l-185 -243h-146zM223 308l-49 -308h-125l85 561h124l-6 -47q77 44 155 44q68 0 168 -54l-64 -122q-87 53 -123 53q-60 0 -108.5 -36.5t-56.5 -90.5z" />
    <glyph glyph-name="Rcaron" unicode="&#x158;" horiz-adv-x="695" 
d="M572 1040h159l-226 -244h-74l-149 244h159l51 -84zM173 0h-128l115 726h298q56 0 99 -10t78 -33.5t49.5 -66.5t4.5 -104q-14 -90 -60 -137.5t-123 -64.5l154 -310h-153l-153 298h-134zM268 601l-28 -175h169q141 0 154 86q7 44 -25.5 66.5t-100.5 22.5h-169z" />
    <glyph glyph-name="rcaron" unicode="&#x159;" horiz-adv-x="537" 
d="M470 869h155l-221 -240h-73l-146 240h156l51 -82zM223 308l-49 -308h-125l85 561h124l-6 -47q77 44 155 44q68 0 168 -54l-64 -122q-87 53 -123 53q-60 0 -108.5 -36.5t-56.5 -90.5z" />
    <glyph glyph-name="Sacute" unicode="&#x15a;" horiz-adv-x="743" 
d="M534 1048h151l-188 -248h-148zM388 -8q-137 0 -217 69.5t-87 205.5h137q1 -70 51.5 -109.5t135.5 -39.5q64 0 123 20.5t67 67.5q4 32 -35 52t-136 35q-167 26 -226 75.5t-44 145.5q15 91 108 155.5t226 64.5q244 0 287 -254h-136q-24 128 -171 128q-75 0 -128 -27
t-60 -67q-5 -36 35.5 -57.5t152.5 -38.5q154 -26 210.5 -73.5t42.5 -138.5l-1 -2q-15 -94 -109.5 -153t-225.5 -59z" />
    <glyph glyph-name="sacute" unicode="&#x15b;" horiz-adv-x="567" 
d="M417 876h147l-184 -243h-146zM292 -7q-112 0 -171 53t-50 153h119q5 -51 40 -71.5t80 -20.5q38 0 76.5 16t42.5 42q3 11 -21 23q-16 10 -101 25q-37 6 -63 12.5t-56 20t-47 31t-26.5 45.5t-3.5 64q9 58 54 99.5t98.5 59t106.5 17.5h1q111 0 166 -50.5t45 -165.5h-120
q3 61 -29.5 83.5t-78.5 22.5q-35 0 -75.5 -20t-44.5 -46q-3 -17 21.5 -26.5t99.5 -25.5q110 -24 148 -49q61 -40 48 -121q-7 -47 -36 -82.5t-68.5 -53.5t-78.5 -26.5t-76 -8.5z" />
    <glyph glyph-name="Scircumflex" unicode="&#x15c;" horiz-adv-x="743" 
d="M559 780l-53 83l-79 -83h-157l225 244h74l149 -244h-159zM388 -8q-137 0 -217 69.5t-87 205.5h137q1 -70 51.5 -109.5t135.5 -39.5q64 0 123 20.5t67 67.5q4 32 -35 52t-136 35q-167 26 -226 75.5t-44 145.5q15 91 108 155.5t226 64.5q244 0 287 -254h-136
q-24 128 -171 128q-75 0 -128 -27t-60 -67q-5 -36 35.5 -57.5t152.5 -38.5q154 -26 210.5 -73.5t42.5 -138.5l-1 -2q-15 -94 -109.5 -153t-225.5 -59z" />
    <glyph glyph-name="scircumflex" unicode="&#x15d;" horiz-adv-x="589" 
d="M453 613l-51 82l-78 -82h-155l223 240h72l145 -240h-156zM302 -7q-112 0 -171 53t-50 153h119q5 -51 40 -71.5t80 -20.5q38 0 76.5 16t42.5 42q3 11 -21 23q-16 10 -101 25q-37 6 -63 12.5t-56 20t-47 31t-26.5 45.5t-3.5 64q9 58 54 99.5t98.5 59t106.5 17.5h1
q111 0 166 -50.5t45 -165.5h-120q3 61 -29.5 83.5t-78.5 22.5q-35 0 -75.5 -20t-44.5 -46q-3 -17 21.5 -26.5t99.5 -25.5q110 -24 148 -49q61 -40 48 -121q-7 -47 -36 -82.5t-68.5 -53.5t-78.5 -26.5t-76 -8.5z" />
    <glyph glyph-name="Scedilla" unicode="&#x15e;" horiz-adv-x="770" 
d="M484 418q154 -26 210.5 -73.5t42.5 -138.5l-1 -2q-11 -71 -69.5 -123.5t-147.5 -74.5q17 -35 9 -80q-9 -60 -53.5 -98t-105.5 -38q-46 0 -80 21.5t-63 73.5l95 107q46 -77 68 -77q11 0 13 10q2 12 -17.5 28.5t-71.5 46.5q-98 21 -154.5 88t-61.5 179h137
q1 -70 51.5 -109.5t135.5 -39.5q64 0 123 20.5t67 67.5q4 32 -35 52t-136 35q-167 26 -226 75.5t-44 145.5q15 91 108 155.5t226 64.5q244 0 287 -254h-136q-24 128 -171 128q-75 0 -128 -27t-60 -67q-5 -36 35.5 -57.5t152.5 -38.5z" />
    <glyph glyph-name="scedilla" unicode="&#x15f;" horiz-adv-x="616" 
d="M355 334q110 -24 148 -49q61 -40 48 -121q-16 -103 -130 -147l15 1q12 -30 6 -66q-9 -61 -51.5 -94.5t-101.5 -33.5q-47 0 -77 18.5t-61 71.5l74 85q-81 15 -121.5 65.5t-32.5 134.5h119q5 -51 40 -71.5t80 -20.5q38 0 76.5 16t42.5 42q3 11 -21 23q-16 10 -101 25
q-37 6 -63 12.5t-56 20t-47 31t-26.5 45.5t-3.5 64q9 58 54 99.5t98.5 59t106.5 17.5h1q111 0 166 -50.5t45 -165.5h-120q3 61 -29.5 83.5t-78.5 22.5q-35 0 -75.5 -20t-44.5 -46q-3 -17 21.5 -26.5t99.5 -25.5zM318 -53q1 1 1 4q2 10 -35 42h-1q-3 0 -11 0.5t-12 0.5
q30 -49 48 -49q6 0 10 2z" />
    <glyph glyph-name="Scaron" unicode="&#x160;" horiz-adv-x="743" 
d="M601 1040h158l-226 -244h-74l-148 244h158l52 -84zM388 -8q-137 0 -217 69.5t-87 205.5h137q1 -70 51.5 -109.5t135.5 -39.5q64 0 123 20.5t67 67.5q4 32 -35 52t-136 35q-167 26 -226 75.5t-44 145.5q15 91 108 155.5t226 64.5q244 0 287 -254h-136q-24 128 -171 128
q-75 0 -128 -27t-60 -67q-5 -36 35.5 -57.5t152.5 -38.5q154 -26 210.5 -73.5t42.5 -138.5l-1 -2q-15 -94 -109.5 -153t-225.5 -59z" />
    <glyph glyph-name="scaron" unicode="&#x161;" horiz-adv-x="567" 
d="M484 869h155l-221 -240h-72l-147 240h156l52 -82zM292 -7q-112 0 -171 53t-50 153h119q5 -51 40 -71.5t80 -20.5q38 0 76.5 16t42.5 42q3 11 -21 23q-16 10 -101 25q-37 6 -63 12.5t-56 20t-47 31t-26.5 45.5t-3.5 64q9 58 54 99.5t98.5 59t106.5 17.5h1q111 0 166 -50.5
t45 -165.5h-120q3 61 -29.5 83.5t-78.5 22.5q-35 0 -75.5 -20t-44.5 -46q-3 -17 21.5 -26.5t99.5 -25.5q110 -24 148 -49q61 -40 48 -121q-7 -47 -36 -82.5t-68.5 -53.5t-78.5 -26.5t-76 -8.5z" />
    <glyph glyph-name="Tcaron" unicode="&#x164;" horiz-adv-x="686" 
d="M574 1040h158l-226 -244h-73l-149 244h158l52 -84zM736 601h-234l-95 -601h-127l95 601h-235l20 125h596z" />
    <glyph glyph-name="tcaron" unicode="&#x165;" horiz-adv-x="638" 
d="M298 -8q-82 0 -114.5 43t-18.5 132l44 273h-90l19 121h90l26 165h122l-26 -165h171l-19 -121h-171l-44 -273q-7 -43 34 -52q42 -9 81 22q14 11 23 25l41 -87q-25 -31 -72 -57t-96 -26zM635 466l-111 92q65 22 93 42q-10 20 -6 43q5 29 29.5 51.5t55.5 22.5q42 0 59.5 -25
t10.5 -69q-7 -39 -43 -83t-88 -74z" />
    <glyph glyph-name="Utilde" unicode="&#x168;" horiz-adv-x="665" 
d="M370 802h-125l15 51q25 74 62.5 107t97.5 33q67 0 105 -51q11 -12 20 -12q6 0 29 64h133l-27 -68q-27 -65 -62 -94t-93 -29q-65 0 -104 47q-14 17 -23 17q-5 0 -28 -65zM331 -8q-142 0 -205 62t-41 196l75 476h127l-75 -476q-11 -69 25 -100.5t114 -31.5q161 0 182 132
l75 476h127l-75 -476q-22 -135 -104.5 -196.5t-224.5 -61.5z" />
    <glyph glyph-name="utilde" unicode="&#x169;" 
d="M332 635h-125l16 50q24 73 61 104.5t96 31.5q64 0 102 -48q15 -13 19 -13q6 0 28 62h132l-27 -67q-25 -62 -60 -90.5t-92 -28.5t-100 46q-18 16 -23 16t-27 -63zM315 -9q-121 0 -183.5 80t-43.5 201l46 289h124l-46 -289q-11 -66 23 -112.5t99 -46.5q55 0 101.5 42
t68.5 101l48 305h123l-86 -563h-120l4 37q-74 -44 -158 -44z" />
    <glyph glyph-name="Umacron" unicode="&#x16a;" horiz-adv-x="665" 
d="M289 928h381l-20 -126h-381zM331 -8q-142 0 -205 62t-41 196l75 476h127l-75 -476q-11 -69 25 -100.5t114 -31.5q161 0 182 132l75 476h127l-75 -476q-22 -135 -104.5 -196.5t-224.5 -61.5z" />
    <glyph glyph-name="umacron" unicode="&#x16b;" 
d="M251 758h374l-19 -123h-374zM315 -9q-121 0 -183.5 80t-43.5 201l46 289h124l-46 -289q-11 -66 23 -112.5t99 -46.5q55 0 101.5 42t68.5 101l48 305h123l-86 -563h-120l4 37q-74 -44 -158 -44z" />
    <glyph glyph-name="Ubreve" unicode="&#x16c;" horiz-adv-x="665" 
d="M458 798q-81 0 -114.5 60t-16.5 165h123q-7 -47 0.5 -72.5t28.5 -25.5q42 0 58 98h125l-9 -56q-12 -79 -63 -124t-132 -45zM331 -8q-142 0 -205 62t-41 196l75 476h127l-75 -476q-11 -69 25 -100.5t114 -31.5q161 0 182 132l75 476h127l-75 -476q-22 -135 -104.5 -196.5
t-224.5 -61.5z" />
    <glyph glyph-name="ubreve" unicode="&#x16d;" 
d="M418 631q-80 0 -113 59t-17 161h122q-5 -31 -3 -52t10 -32.5t21 -11.5q41 0 57 96h122l-9 -54q-12 -78 -61.5 -122t-128.5 -44zM315 -9q-121 0 -183.5 80t-43.5 201l46 289h124l-46 -289q-11 -66 23 -112.5t99 -46.5q55 0 101.5 42t68.5 101l48 305h123l-86 -563h-120
l4 37q-74 -44 -158 -44z" />
    <glyph glyph-name="Uring" unicode="&#x16e;" horiz-adv-x="665" 
d="M456 792q-58 0 -88.5 36.5t-21.5 93.5t52 94t100 37t88.5 -37t22.5 -94t-52 -93.5t-101 -36.5zM470 878q19 0 34 12.5t18 31.5q3 20 -8 32.5t-30 12.5t-33.5 -12.5t-17.5 -32.5q-3 -19 7.5 -31.5t29.5 -12.5zM331 -8q-142 0 -205 62t-41 196l75 476h127l-75 -476
q-11 -69 25 -100.5t114 -31.5q161 0 182 132l75 476h127l-75 -476q-22 -135 -104.5 -196.5t-224.5 -61.5z" />
    <glyph glyph-name="uring" unicode="&#x16f;" 
d="M416 623q-58 0 -89 36.5t-22 93.5t52 94t100 37t88.5 -37t22.5 -94t-51.5 -93.5t-100.5 -36.5zM429 709q19 0 34 12.5t18 31.5q3 20 -8 32.5t-30 12.5t-33.5 -12.5t-17.5 -32.5q-3 -19 7.5 -31.5t29.5 -12.5zM315 -9q-121 0 -183.5 80t-43.5 201l46 289h124l-46 -289
q-11 -66 23 -112.5t99 -46.5q55 0 101.5 42t68.5 101l48 305h123l-86 -563h-120l4 37q-74 -44 -158 -44z" />
    <glyph glyph-name="Uhungarumlaut" unicode="&#x170;" horiz-adv-x="665" 
d="M416 1044h150l-190 -249h-144zM605 1044h150l-190 -249h-144zM331 -8q-142 0 -205 62t-41 196l75 476h127l-75 -476q-11 -69 25 -100.5t114 -31.5q161 0 182 132l75 476h127l-75 -476q-22 -135 -104.5 -196.5t-224.5 -61.5z" />
    <glyph glyph-name="uhungarumlaut" unicode="&#x171;" 
d="M372 877h150l-191 -249h-144zM561 877h150l-191 -249h-144zM315 -9q-121 0 -183.5 80t-43.5 201l46 289h124l-46 -289q-11 -66 23 -112.5t99 -46.5q55 0 101.5 42t68.5 101l48 305h123l-86 -563h-120l4 37q-74 -44 -158 -44z" />
    <glyph glyph-name="Uogonek" unicode="&#x172;" horiz-adv-x="686" 
d="M278 -192q-61 0 -94.5 34t-24.5 94q7 46 36 80q-127 63 -100 234l75 476h128l-75 -476q-11 -69 24.5 -100.5t114.5 -31.5q160 0 181 132l75 476h128l-75 -476q-40 -250 -311 -258q-69 -31 -72 -56q0 -3 9 -3q25 0 92 51l43 -118q-92 -58 -154 -58z" />
    <glyph glyph-name="uogonek" unicode="&#x173;" horiz-adv-x="673" 
d="M561 -13l48 -115q-92 -56 -151 -56q-60 0 -91.5 32t-22.5 91q4 28 18 55q-18 -3 -37 -3q-121 0 -183.5 80t-43.5 201l46 289h124l-46 -289q-11 -66 23 -112.5t99 -46.5q55 0 101 42t68 101l48 305h123l-86 -562l-44 -1q-53 -23 -71 -39q-16 -12 -17 -20q0 -2 11 -2
q21 0 84 50z" />
    <glyph glyph-name="Wcircumflex" unicode="&#x174;" horiz-adv-x="1060" 
d="M719 780l-53 83l-79 -83h-157l226 244h74l149 -244h-160zM1132 726l-403 -726l-121 502l-282 -502l-173 726h136l91 -387l218 387h90l95 -387l214 387h135z" />
    <glyph glyph-name="wcircumflex" unicode="&#x175;" horiz-adv-x="875" 
d="M598 613l-51 82l-78 -82h-155l223 240h73l144 -240h-156zM644 301l146 260h133l-318 -561l-113 350l-226 -347l-139 558h134l62 -260l165 260h74z" />
    <glyph glyph-name="Ycircumflex" unicode="&#x176;" horiz-adv-x="763" 
d="M570 780l-52 83l-79 -83h-159l226 244h75l149 -244h-160zM842 726l-353 -448l-44 -278h-127l44 278l-211 448h154l143 -310l241 310h153z" />
    <glyph glyph-name="ycircumflex" unicode="&#x177;" 
d="M477 613l-51 82l-78 -82h-154l222 240h72l146 -240h-157zM140 -189q-29 0 -88 21l21 130q32 -29 83 -29h4q28 0 63 58l37 64l-132 506h139l88 -342l190 342h138l-348 -615q-42 -75 -87 -105t-108 -30z" />
    <glyph glyph-name="Ydieresis" unicode="&#x178;" horiz-adv-x="763" 
d="M419 781q-34 0 -51.5 22t-12.5 57q5 32 29.5 53t58.5 21t52.5 -21t13.5 -53q-5 -35 -30 -57t-60 -22zM592 781q-35 0 -53.5 22t-13.5 57q5 32 31 53t60 21q33 0 51 -21t13 -53q-5 -35 -30 -57t-58 -22zM842 726l-353 -448l-44 -278h-127l44 278l-211 448h154l143 -310
l241 310h153z" />
    <glyph glyph-name="Zacute" unicode="&#x179;" horiz-adv-x="666" 
d="M496 1048h151l-188 -248h-147zM249 125h392l-20 -125h-576l14 88l453 513h-365l20 125h549l-14 -88z" />
    <glyph glyph-name="zacute" unicode="&#x17a;" horiz-adv-x="566" 
d="M420 876h148l-185 -243h-146zM261 124h280l-20 -124h-467l14 89l324 349h-278l20 123h463l-14 -87z" />
    <glyph glyph-name="Zdotaccent" unicode="&#x17b;" horiz-adv-x="666" 
d="M456 783q-34 0 -51 22t-11 57q5 32 28.5 53t57.5 21t52.5 -21t13.5 -53q-6 -35 -31 -57t-59 -22zM249 125h392l-20 -125h-576l14 88l453 513h-365l20 125h549l-14 -88z" />
    <glyph glyph-name="zdotaccent" unicode="&#x17c;" horiz-adv-x="566" 
d="M381 616q-34 0 -51.5 21t-11.5 57q5 32 29 52.5t57 20.5t51 -20.5t13 -52.5q-6 -36 -30 -57t-57 -21zM261 124h280l-20 -124h-467l14 89l324 349h-278l20 123h463l-14 -87z" />
    <glyph glyph-name="Zcaron" unicode="&#x17d;" horiz-adv-x="666" 
d="M564 1040h158l-226 -244h-74l-149 244h158l52 -84zM249 125h392l-20 -125h-576l14 88l453 513h-365l20 125h549l-14 -88z" />
    <glyph glyph-name="zcaron" unicode="&#x17e;" horiz-adv-x="566" 
d="M485 869h157l-222 -240h-73l-146 240h156l51 -82zM261 124h280l-20 -124h-467l14 89l324 349h-278l20 123h463l-14 -87z" />
    <glyph glyph-name="florin" unicode="&#x192;" horiz-adv-x="468" 
d="M52 -112q-49 0 -119 48l67 110q60 -36 72 -36q32 0 58 68l83 264h-131l19 122h149l40 124q28 89 75 130t120 41q42 0 108 -35l-33 -129q-80 42 -89 42q-38 0 -61 -67l-33 -106h139l-19 -122h-158l-89 -283q-53 -171 -198 -171z" />
    <glyph glyph-name="circumflex" unicode="&#x2c6;" horiz-adv-x="467" 
d="M398 627l-52 83l-79 -83h-158l227 243h75l148 -243h-161z" />
    <glyph glyph-name="caron" unicode="&#x2c7;" horiz-adv-x="468" 
d="M438 886h160l-225 -244h-75l-150 244h159l53 -83z" />
    <glyph glyph-name="uni02C9" unicode="&#x2c9;" horiz-adv-x="404" 
d="M138 775h379l-20 -125h-379z" />
    <glyph glyph-name="breve" unicode="&#x2d8;" horiz-adv-x="361" 
d="M284 644q-81 0 -115 60t-17 165h124q-16 -99 28 -99q43 0 59 99h125l-9 -55q-13 -80 -64 -125t-131 -45z" />
    <glyph glyph-name="dotaccent" unicode="&#x2d9;" horiz-adv-x="180" 
d="M190 630q-34 0 -51.5 21.5t-12.5 56.5q5 32 29.5 53t58.5 21t52 -21t13 -53q-5 -35 -30 -56.5t-59 -21.5z" />
    <glyph glyph-name="ring" unicode="&#x2da;" horiz-adv-x="303" 
d="M250 639q-58 0 -88.5 36.5t-21.5 93.5t52 94t100 37t88.5 -37t22.5 -94t-52 -93.5t-101 -36.5zM264 725q19 0 34 12.5t18 31.5q3 20 -8 32.5t-30 12.5t-33.5 -12.5t-17.5 -32.5q-3 -19 7.5 -31.5t29.5 -12.5z" />
    <glyph glyph-name="ogonek" unicode="&#x2db;" horiz-adv-x="307" 
d="M113 -225q-61 0 -94 35.5t-23 95.5q9 57 55 99.5t141 79.5h80l-2 -82l-30 -24q-63 -26 -89 -42.5t-28 -30.5q0 -5 10 -5q23 0 90 52l45 -116q-89 -62 -155 -62z" />
    <glyph glyph-name="tilde" unicode="&#x2dc;" horiz-adv-x="456" 
d="M244 648h-127l18 51q22 73 60 106.5t99 33.5q64 0 104 -50q16 -14 20 -14q8 0 29 64h134l-28 -67q-25 -65 -60.5 -94t-94.5 -29q-64 0 -104 48q-14 16 -22 16q-6 0 -28 -65z" />
    <glyph glyph-name="hungarumlaut" unicode="&#x2dd;" horiz-adv-x="518" 
d="M300 890h150l-190 -249h-144zM489 890h150l-190 -249h-144z" />
    <glyph glyph-name="uni0326" unicode="&#x326;" horiz-adv-x="0" 
d="M-185 50h138l-130 -261h-131z" />
    <glyph glyph-name="pi" unicode="&#x3c0;" horiz-adv-x="457" 
d="M309 440h-37l-70 -440h-124l70 440h-68l19 122h426l-19 -122h-73l-70 -440h-124z" />
    <glyph glyph-name="Wgrave" unicode="&#x1e80;" horiz-adv-x="1060" 
d="M547 1041h151l105 -249h-146zM1132 726l-403 -726l-121 502l-282 -502l-173 726h136l91 -387l218 387h90l95 -387l214 387h135z" />
    <glyph glyph-name="wgrave" unicode="&#x1e81;" horiz-adv-x="875" 
d="M430 870h148l104 -244h-143zM644 301l146 260h133l-318 -561l-113 350l-226 -347l-139 558h134l62 -260l165 260h74z" />
    <glyph glyph-name="Wacute" unicode="&#x1e82;" horiz-adv-x="1060" 
d="M694 1048h151l-188 -248h-147zM1132 726l-403 -726l-121 502l-282 -502l-173 726h136l91 -387l218 387h90l95 -387l214 387h135z" />
    <glyph glyph-name="wacute" unicode="&#x1e83;" horiz-adv-x="875" 
d="M575 876h147l-184 -243h-146zM644 301l146 260h133l-318 -561l-113 350l-226 -347l-139 558h134l62 -260l165 260h74z" />
    <glyph glyph-name="Wdieresis" unicode="&#x1e84;" horiz-adv-x="1060" 
d="M568 781q-34 0 -51.5 22t-12.5 57q5 32 29.5 53t58.5 21t52.5 -21t13.5 -53q-5 -35 -30 -57t-60 -22zM740 781q-34 0 -52 22t-13 57q5 32 30 53t59 21t51.5 -20.5t12.5 -53.5q-5 -35 -29.5 -57t-58.5 -22zM1132 726l-403 -726l-121 502l-282 -502l-173 726h136l91 -387
l218 387h90l95 -387l214 387h135z" />
    <glyph glyph-name="wdieresis" unicode="&#x1e85;" horiz-adv-x="875" 
d="M450 614q-34 0 -50.5 21t-10.5 57q5 32 28.5 52.5t56.5 20.5t51.5 -20.5t13.5 -52.5q-6 -36 -30.5 -57t-58.5 -21zM619 614q-34 0 -52 21t-12 57q5 32 29.5 52.5t58.5 20.5q33 0 51 -20.5t13 -52.5q-6 -36 -30 -57t-58 -21zM644 301l146 260h133l-318 -561l-113 350
l-226 -347l-139 558h134l62 -260l165 260h74z" />
    <glyph glyph-name="endash" unicode="&#x2013;" horiz-adv-x="701" 
d="M134 371h551l-20 -127h-551z" />
    <glyph glyph-name="emdash" unicode="&#x2014;" horiz-adv-x="1008" 
d="M134 371h858l-20 -127h-858z" />
    <glyph glyph-name="quoteleft" unicode="&#x2018;" horiz-adv-x="349" 
d="M296 764l108 -87q-53 -23 -95 -48q12 -19 7 -46q-5 -34 -30 -56t-59 -22q-44 0 -62 26.5t-10 72.5q7 43 45.5 87.5t95.5 72.5z" />
    <glyph glyph-name="quoteright" unicode="&#x2019;" horiz-adv-x="360" 
d="M338 751q40 0 60 -27.5t12 -71.5q-6 -40 -44 -85t-96 -77l-105 89q69 29 92 48q-12 22 -8 49q5 32 30 53.5t59 21.5z" />
    <glyph glyph-name="quotesinglbase" unicode="&#x201a;" horiz-adv-x="324" 
d="M269 109l3 -2q9 -26 4 -57q-6 -40 -44 -85t-97 -77l-100 90q68 30 89 47q-13 22 -9 49q5 32 31 53.5t60 21.5q42 0 63 -40z" />
    <glyph glyph-name="quotedblleft" unicode="&#x201c;" horiz-adv-x="527" 
d="M296 764l108 -87q-53 -23 -95 -48q12 -19 7 -46q-5 -34 -30 -56t-59 -22q-44 0 -62 26.5t-10 72.5q7 43 45.5 87.5t95.5 72.5zM537 764l108 -87q-53 -23 -95 -48q12 -19 7 -46q-5 -34 -30 -56t-59 -22q-44 0 -62 26.5t-10 72.5q7 43 45.5 87.5t95.5 72.5z" />
    <glyph glyph-name="quotedblright" unicode="&#x201d;" horiz-adv-x="530" 
d="M260 500l-108 87q47 20 96 48q-13 20 -8 46q5 34 30 56t59 22q44 0 62 -26.5t11 -72.5q-7 -43 -46 -87.5t-96 -72.5zM501 500l-108 87q47 20 96 48q-13 20 -8 46q5 34 30 56t59 22q44 0 62 -26.5t11 -72.5q-7 -43 -46 -87.5t-96 -72.5z" />
    <glyph glyph-name="quotedblbase" unicode="&#x201e;" horiz-adv-x="500" 
d="M164 -103l-109 87q54 22 96 48q-11 18 -8 46q5 34 30.5 56t59.5 22q44 0 61.5 -26.5t10.5 -72.5q-7 -43 -45.5 -87.5t-95.5 -72.5zM405 -103l-109 87q54 22 96 48q-11 18 -8 46q5 34 30.5 56t59.5 22q44 0 61.5 -26.5t10.5 -72.5q-7 -43 -45.5 -87.5t-95.5 -72.5z" />
    <glyph glyph-name="dagger" unicode="&#x2020;" horiz-adv-x="601" 
d="M612 408h-182l-80 -500h-127l80 500h-184l19 123h184l31 195h127l-31 -195h182z" />
    <glyph glyph-name="daggerdbl" unicode="&#x2021;" horiz-adv-x="601" 
d="M563 101h-182l-31 -193h-127l31 193h-184l20 125h184l29 182h-184l19 123h184l31 195h127l-31 -195h182l-19 -123h-182l-29 -182h182z" />
    <glyph glyph-name="bullet" unicode="&#x2022;" horiz-adv-x="563" 
d="M322 259q-49 0 -74.5 31.5t-17.5 82.5q8 48 43 79t84 31q48 0 75 -31.5t20 -78.5q-8 -51 -45 -82.5t-85 -31.5z" />
    <glyph glyph-name="ellipsis" unicode="&#x2026;" horiz-adv-x="616" 
d="M145 -6q-37 0 -54 22.5t-11 57.5q5 34 29 54.5t61 20.5q34 0 52 -21t13 -54q-6 -35 -31 -57.5t-59 -22.5zM307 -6q-34 0 -51.5 22.5t-11.5 57.5q5 33 29.5 54t58.5 21q35 0 52.5 -21t12.5 -54q-6 -35 -30.5 -57.5t-59.5 -22.5zM471 -6q-34 0 -52 22.5t-12 57.5
q5 33 30 54t59 21t52 -21t13 -54q-6 -35 -31 -57.5t-59 -22.5z" />
    <glyph glyph-name="perthousand" unicode="&#x2030;" horiz-adv-x="1155" 
d="M995 422q89 0 127 -58.5t23 -152.5q-14 -93 -71 -152t-146 -59q-117 0 -149 102q-62 -102 -179 -102q-89 0 -128 59t-25 152q6 32 11 47l-216 -258h-153l266 318q-36 -14 -79 -14q-90 0 -128.5 58t-23.5 152q15 93 72 152.5t147 59.5t128 -59.5t23 -152.5q-3 -21 -9 -42
l213 254h152l-269 -320q42 16 86 16q119 0 147 -101q63 101 181 101zM296 430q28 0 47 23t24 61q6 37 -5.5 62t-38.5 25t-46 -25t-25 -62q-5 -38 6 -61t38 -23zM620 125q26 0 45 25t24 61q6 37 -5 61t-37 24q-28 0 -48.5 -24t-26.5 -61q-5 -36 7.5 -61t40.5 -25zM948 125
q26 0 45.5 24.5t24.5 61.5q6 37 -5.5 61t-37.5 24q-28 0 -47.5 -24t-25.5 -61q-5 -37 7 -61.5t39 -24.5z" />
    <glyph glyph-name="guilsinglleft" unicode="&#x2039;" horiz-adv-x="440" 
d="M471 540l-211 -236l135 -240h-159l-137 240l213 236h159z" />
    <glyph glyph-name="guilsinglright" unicode="&#x203a;" horiz-adv-x="443" 
d="M305 540l136 -236l-212 -240h-164l216 240l-140 236h164z" />
    <glyph glyph-name="fraction" unicode="&#x2044;" horiz-adv-x="640" 
d="M545 747l163 31l-507 -811l-153 -11z" />
    <glyph glyph-name="uni207A" unicode="&#x207a;" horiz-adv-x="417" 
d="M463 488h-113l-18 -113h-127l18 113h-114l20 125h114l18 116h127l-18 -116h113z" />
    <glyph glyph-name="uni207B" unicode="&#x207b;" horiz-adv-x="418" 
d="M134 613h344l-20 -125h-344z" />
    <glyph glyph-name="uni207C" unicode="&#x207c;" horiz-adv-x="481" 
d="M169 684h360l-19 -124h-360zM147 542h360l-20 -124h-360z" />
    <glyph glyph-name="uni208A" unicode="&#x208a;" horiz-adv-x="430" 
d="M392 3h-113l-17 -113h-127l17 113h-113l20 126h113l19 115h127l-19 -115h113z" />
    <glyph glyph-name="uni208B" unicode="&#x208b;" horiz-adv-x="431" 
d="M64 129h343l-20 -126h-343z" />
    <glyph glyph-name="uni208C" unicode="&#x208c;" horiz-adv-x="497" 
d="M100 201h360l-20 -124h-360zM77 59h360l-19 -124h-360z" />
    <glyph glyph-name="Euro" unicode="&#x20ac;" horiz-adv-x="733" 
d="M612 303l104 -57l-10 -40v1q-26 -101 -110 -158t-180 -57q-107 0 -172 62.5t-75 175.5h-94l21 127h81l2 13h-81l20 127h94q44 118 126 177.5t195 59.5q93 0 151.5 -51.5t74.5 -152.5l-118 -91l-8 31l-87 -100h-240l-2 -13h294l-113 -127h-182q11 -53 46 -82.5t87 -29.5
q46 0 93 48.5t83 136.5zM513 608q-107 0 -167 -111h281q-36 111 -114 111z" />
    <glyph glyph-name="trademark" unicode="&#x2122;" horiz-adv-x="841" 
d="M323 604h-24v-304h-128v304h-118v126h378l88 -209l91 209h106v-430h-124v66l-28 -66h-89l-27 64v-64h-125v304z" />
    <glyph glyph-name="uni2126" unicode="&#x2126;" horiz-adv-x="808" 
d="M414 110l-17 -110h-330l20 125h79q-63 99 -39 249q26 162 134.5 261t258.5 99q151 0 228 -99t51 -261q-24 -151 -116 -249h77l-20 -125h-328l17 110q100 34 163 101.5t78 162.5q17 107 -29 170.5t-141 63.5q-94 0 -160.5 -64t-83.5 -170q-15 -95 26.5 -163t131.5 -101z
" />
    <glyph glyph-name="arrowleft" unicode="&#x2190;" horiz-adv-x="820" 
d="M337 429h486l-21 -130h-486q79 -87 167 -230l-126 -72l-17 35q-96 161 -263 302l9 60q218 144 388 336l102 -72q-130 -139 -239 -229z" />
    <glyph glyph-name="arrowup" unicode="&#x2191;" horiz-adv-x="870" 
d="M575 486l-77 -486h-127l77 488q-107 -98 -265 -203l-52 113q119 78 209.5 155.5t179.5 180.5h64l12 -27q56 -138 267 -309l-86 -113q-135 114 -202 201z" />
    <glyph glyph-name="arrowright" unicode="&#x2192;" horiz-adv-x="824" 
d="M453 658l127 72l25 -45q37 -79 95.5 -142t161.5 -149l-9 -60q-226 -148 -390 -336l-103 71q143 150 239 230h-487l21 130h487q-82 94 -167 229z" />
    <glyph glyph-name="arrowdown" unicode="&#x2193;" horiz-adv-x="878" 
d="M468 -8h-55l-14 12q-105 186 -277 324l90 116q130 -115 201 -205l77 487h126l-77 -488q113 103 267 206l53 -133l-57 -17q-162 -103 -334 -302z" />
    <glyph glyph-name="arrowboth" unicode="&#x2194;" horiz-adv-x="989" 
d="M629 14l-96 73q138 148 236 230h-451q78 -87 166 -235l-124 -62q-129 206 -280 331l9 60q212 139 386 335l103 -70q-149 -157 -239 -232h450q-75 86 -162 229l124 78l24 -52q63 -130 255 -288l-9 -60q-200 -127 -392 -337z" />
    <glyph glyph-name="arrowupdn" unicode="&#x2195;" horiz-adv-x="871" 
d="M449 -109h-59l-12 17q-102 175 -273 322l89 109q122 -105 201 -202l71 453q-111 -99 -260 -197l-60 102q242 165 392 340h60q55 -101 120.5 -179t161.5 -159l-86 -108q-127 107 -201 199l-71 -450q101 91 264 201l51 -112q-236 -158 -388 -336z" />
    <glyph glyph-name="partialdiff" unicode="&#x2202;" horiz-adv-x="642" 
d="M298 -8q-113 0 -173 71t-42 183t98 181.5t192 69.5q83 0 137 -30q-4 141 -126 141q-59 0 -133 -90l-86 89q122 127 239 127q147 0 201.5 -90t23.5 -281q-29 -180 -113.5 -275.5t-217.5 -95.5zM317 118q57 0 100.5 44.5t66.5 121.5q-8 42 -43 65t-89 23q-53 0 -93 -35.5
t-48 -89.5q-9 -57 21 -93t85 -36z" />
    <glyph glyph-name="uni2206" unicode="&#x2206;" horiz-adv-x="685" 
d="M509 726l158 -645l-13 -81h-623l13 81l366 645h99zM210 125h305l-92 381z" />
    <glyph glyph-name="product" unicode="&#x220f;" horiz-adv-x="719" 
d="M601 601h-292l-114 -718h-128l134 843h548l-134 -843h-128z" />
    <glyph glyph-name="summation" unicode="&#x2211;" horiz-adv-x="656" 
d="M238 7h372l-20 -124h-575l15 91l357 339l-253 320l15 93h575l-20 -125h-366l203 -264l-7 -47z" />
    <glyph glyph-name="minus" unicode="&#x2212;" horiz-adv-x="699" 
d="M150 413h530l-19 -125h-530z" />
    <glyph glyph-name="uni2215" unicode="&#x2215;" horiz-adv-x="614" 
d="M534 747l161 31l-507 -811l-152 -11z" />
    <glyph glyph-name="uni2219" unicode="&#x2219;" horiz-adv-x="302" 
d="M199 304q-37 0 -53.5 21t-11.5 56t29 56t61 21q34 0 51.5 -21.5t12.5 -55.5t-30 -55.5t-59 -21.5z" />
    <glyph glyph-name="radical" unicode="&#x221a;" horiz-adv-x="695" 
d="M688 872h137l-474 -872h-94l-73 313h-113l19 125h200l52 -206z" />
    <glyph glyph-name="infinity" unicode="&#x221e;" horiz-adv-x="938" 
d="M772 572q83 0 127 -63.5t26 -171.5q-17 -108 -81 -171.5t-147 -63.5q-52 0 -79 13t-60 51q-21 27 -50 71q-36 -37 -53.5 -53.5t-49 -40t-62.5 -32.5t-68 -9q-84 0 -128.5 63.5t-27.5 171.5q18 108 82.5 171.5t148.5 63.5q55 0 81 -12.5t58 -51.5l16 -19q29 -34 37 -47
q11 10 25.5 24.5t24.5 24t17 14.5q40 36 75.5 51.5t87.5 15.5zM360 259q23 20 80 78q-53 78 -56 81q-25 28 -51 28q-28 0 -52.5 -30t-32.5 -79q-7 -48 7.5 -79t42.5 -31q18 0 29.5 6t32.5 26zM716 227q27 0 50.5 31.5t30.5 78.5q8 48 -6 78.5t-41 30.5q-30 0 -72 -37l-8 -8
q-13 -11 -63 -62q4 -6 13.5 -18t13.5 -18q7 -12 31 -45q21 -31 51 -31z" />
    <glyph glyph-name="integral" unicode="&#x222b;" horiz-adv-x="506" 
d="M129 -117q-58 0 -129 56l74 111q59 -43 71 -43q49 0 57 52l92 580q29 177 198 177q52 0 126 -49l-74 -124q-52 47 -72 47q-43 0 -52 -51l-92 -580q-28 -176 -199 -176z" />
    <glyph glyph-name="approxequal" unicode="&#x2248;" horiz-adv-x="703" 
d="M127 274l29 178q90 81 172 81q43 0 122 -37q56 -28 76 -28q29 0 180 142l-28 -172q-62 -53 -101.5 -75.5t-71.5 -22.5q-55 0 -123 37q-50 27 -74 27q-54 0 -181 -130zM97 79l27 175q104 98 176 98q51 0 121 -38q55 -26 77 -26q26 0 73.5 33.5t102.5 91.5l-27 -173
q-99 -82 -171 -82q-43 0 -119 37q-57 28 -78 28q-31 0 -182 -144z" />
    <glyph glyph-name="notequal" unicode="&#x2260;" horiz-adv-x="702" 
d="M637 190h-257l-76 -121h-145l78 121h-111l20 125h171l40 63h-201l20 126h259l73 117h142l-73 -117h110l-20 -126h-169l-40 -63h199z" />
    <glyph glyph-name="lessequal" unicode="&#x2264;" horiz-adv-x="699" 
d="M144 360l13 83l571 282l-23 -142l-367 -182l308 -190l-33 -211h-526l20 125h418z" />
    <glyph glyph-name="greaterequal" unicode="&#x2265;" horiz-adv-x="699" 
d="M179 583l23 142l481 -282l-13 -83l-455 -235h418l-20 -125h-526l33 211l369 190z" />
    <glyph glyph-name="a.alt" horiz-adv-x="650" 
d="M325 -7q-121 0 -183.5 80t-43.5 201q19 120 107 202t209 82q86 0 140 -39l4 23h123l-86 -542h-123l5 32q-66 -39 -152 -39zM344 116q55 0 101 41.5t68 99.5l5 34q-2 60 -35 102t-88 42q-65 0 -113.5 -47t-59.5 -114q-10 -67 23.5 -112.5t98.5 -45.5z" />
    <glyph glyph-name="e.alt" horiz-adv-x="650" 
d="M330 -8h-1q-129 0 -190 78t-41 204q19 120 107 202t207 82q122 0 182 -95t35 -250l-405 -1q6 -46 38 -71.5t86 -25.5q82 0 145 80h132q-53 -93 -130.5 -148t-164.5 -55zM241 334h276q-9 46 -41.5 73.5t-82.5 27.5q-49 0 -89.5 -27.5t-62.5 -73.5z" />
    <glyph glyph-name="space.tf" horiz-adv-x="332" 
 />
    <glyph glyph-name="_FSHallmark" horiz-adv-x="914" 
d="M57 704h802v-95h-802v95zM686 160q-38 0 -66 9q-33 8 -56 26q-25 21 -40 46q-16 27 -16 64l93 -2q0 -4 6 -16q1 -12 13 -24q13 -13 24 -16q17 -10 46 -10q30 0 52 11q17 10 17 26q0 29 -76 44q-75 22 -117 44q-48 24 -48 79q0 45 32 73q28 23 70 39q1 0 26 3.5t40 3.5
q40 0 90 -19q46 -17 65 -63q10 -24 10 -47h-96q0 12 -7 22q-5 8 -18 17q-3 1 -10.5 4.5t-12.5 4.5q-3 0 -11 2.5t-12 2.5q-22 0 -45 -14q-19 -11 -19 -29q0 -30 18 -39q33 -13 41 -14l36 -10l29 -7q4 0 13.5 -3t15.5 -3q18 -5 22 -7l20 -9q19 -12 31 -26q11 -25 12 -44
q1 -21 -10 -47q-23 -41 -72 -58q-42 -14 -90 -14zM356 289h-194v-129h-105v399h337v-90h-232v-91h194v-89zM433 162q-16 0 -31 15q-17 14 -17 32q0 19 15 33q13 13 33 13t39 -14q16 -14 16 -32q0 -19 -16 -35q-18 -12 -39 -12zM55 111h803v-95h-803v95z" />
    <glyph glyph-name="_Fontastica" horiz-adv-x="689" 
d="M482 286h-341v-170h-98l-3 4v589h442v-87h-341v-245h341v-91zM548 709h101v-593h-442v92h341v241h-341v94h341v166zM136 19q-8 0 -18 4q-7 2 -13 12q-5 8 -5 17q0 6 5 16q5 9 13 13q10 4 18 4q10 0 17 -4q6 -3 12 -13q5 -7 5 -16t-5 -17q-5 -7 -12 -12q-7 -4 -17 -4z
M395 19q-1 0 -16 3q-6 1 -14 7l7 13q4 -4 11 -7t12 -3q4 0 6 2t2 4l-1 2q-1 1 -1 2l-3 2q-3 0 -7 2q-2 1 -6 1.5t-6 1.5q-5 4 -7 6q-3 5 -3 11q0 7 3 10q5 5 10 7q6 2 13 2q4 0 14 -2q4 -1 12 -5l-7 -14q-5 5 -11 6q-4 1 -10 1h-5l-1 -4q0 -1 1 -3l3 -3q2 0 4 -1t3 -1l12 -4
q2 -1 7 -6q4 -4 4 -10q0 -7 -4 -11q-6 -6 -9 -7q-8 -2 -13 -2zM544 19q-10 0 -17 4q-4 2 -12 12q-5 6 -5 17q0 6 5 16q5 11 12 13q10 4 17 4q8 0 15 -3q6 -3 11 -8l-10 -12q-2 4 -7 6q-1 0 -4 1.5t-4 1.5l-9 -3q-4 -1 -6 -6q-2 -3 -2 -10q0 -3 2 -9t6 -7q6 -3 9 -3
q1 0 4 1.5t4 1.5q5 2 7 5l10 -10q-4 -6 -12 -9t-14 -3zM95 43h-29v-23h-17v64h48v-13h-31v-15h29v-13zM223 20l-29 38v-38h-16v64h15l29 -39v39h16v-64h-15zM299 70h-18v-50h-17v50h-19v14h54v-14zM342 32h-28l-4 -12h-17l27 64h17l27 -64h-18zM478 70h-19v-50h-16v50h-19
v14h54v-14zM485 84h17v-64h-17v64zM619 32h-27l-5 -12h-17l28 64h17l27 -64h-18zM136 32q6 0 9 3q1 1 2.5 3.5t2.5 3.5q3 3 3 10l-3 9q-2 5 -5 7q-5 3 -9 3q-6 0 -10 -3q-4 -2 -6 -7q-2 -6 -2 -9q0 -7 2 -10q4 -6 6 -7q9 -3 10 -3zM319 44h18l-9 23zM597 44h17l-9 23z" />
    <glyph glyph-name="_www.fontastica.com" horiz-adv-x="2013" 
d="M218 246h-122v-60h-34l-2 1v209h158v-31h-122v-87h122v-32zM241 396h36v-210h-158v32h122v86h-122v33h122v59zM1280 203q-21 0 -43 8q-23 8 -38 20l18 36q10 -9 32 -19q18 -8 31 -8q10 0 16 4q7 4 7 11t-5 10q-3 2 -11 6q-4 2 -18 6q-28 9 -31 10q-15 6 -20 15
q-7 10 -7 28q0 17 8 28q7 10 25 19q14 7 36 7q12 0 38 -6q15 -4 32 -14l-17 -36q-15 8 -30 13q-13 5 -27 5q-8 0 -13 -3t-5 -9q0 -5 4 -9q6 -6 11 -7q1 0 7 -2.5t11 -3.5q20 -5 31 -10q16 -9 20 -16q8 -11 8 -29q0 -17 -9 -29q-8 -11 -26 -19q-15 -6 -35 -6zM573 202
q-27 0 -48 12q-22 13 -34 33q-12 21 -12 46t12 46q11 19 34 32q21 12 48 12t49 -12t33 -32q12 -21 12 -46t-12 -46t-33 -33q-22 -12 -49 -12zM1686 202q-25 0 -46 12q-19 11 -33 33q-12 19 -12 46q0 25 12 46q11 20 33 32t48 12q23 0 39 -8q21 -10 31 -22l-26 -32
q-8 11 -20 17t-23 6q-13 0 -24 -6q-15 -9 -18 -18q-6 -16 -6 -26q0 -16 6 -26q6 -9 18 -18q10 -7 24 -7q12 0 22 5q12 6 21 15l27 -28q-15 -15 -34 -24t-39 -9zM462 268h-78v-62h-45v174h130v-36h-85v-39h78v-37zM812 206l-79 104v-104h-43v174h40l80 -105l-1 105h43v-174
h-40zM1021 343h-53v-137h-45v137h-52v37h150v-37zM1137 236h-76l-12 -30h-47l75 174h47l73 -174h-48zM1508 343h-52v-137h-46v137h-52v37h150v-37zM1527 380h45v-174h-45v174zM1893 236h-76l-12 -30h-47l75 174h47l73 -174h-49zM574 241q12 0 24 7q6 4 16 19q7 11 7 26
q0 7 -7 26q-5 13 -16 19q-10 6 -24 6t-24 -6q-12 -8 -18 -19q-6 -12 -6 -26t6 -26q5 -10 18 -19q10 -7 24 -7zM1075 271h48l-23 63zM1831 271h48l-24 63z" />
    </font>
</defs>
</svg>
