<?xml version="1.0" standalone="no"?>
<!DOCTYPE svg PUBLIC "-//W3C//DTD SVG 1.1//EN" "http://www.w3.org/Graphics/SVG/1.1/DTD/svg11.dtd" >
<svg xmlns="http://www.w3.org/2000/svg" xmlns:xlink="http://www.w3.org/1999/xlink" version="1.1">
<metadata>
Created by FontForge 20170731 at Mon Mar  9 20:32:53 2020
 By Aleksey,,,
Copyright (c) 2020 by Fontastica. All rights reserved.
</metadata>
<defs>
<font id="Groteska-Light" horiz-adv-x="649" >
  <font-face 
    font-family="Groteska Light"
    font-weight="300"
    font-stretch="normal"
    units-per-em="1000"
    panose-1="0 0 4 0 0 0 0 0 0 0"
    ascent="800"
    descent="-200"
    x-height="558"
    cap-height="726"
    bbox="-155 -260 1953 967"
    underline-thickness="50"
    underline-position="-200"
    unicode-range="U+0020-2265"
  />
<missing-glyph horiz-adv-x="550" 
d="M68 724h412v-723h-412v723zM273 405l155 284h-307zM439 96v533l-144 -266zM109 98l142 265l-142 262v-527zM121 37h307l-154 283z" />
    <glyph glyph-name=".notdef" horiz-adv-x="550" 
d="M68 724h412v-723h-412v723zM273 405l155 284h-307zM439 96v533l-144 -266zM109 98l142 265l-142 262v-527zM121 37h307l-154 283z" />
    <glyph glyph-name=".null" horiz-adv-x="0" 
 />
    <glyph glyph-name="nonmarkingreturn" horiz-adv-x="333" 
 />
    <glyph glyph-name="space" unicode=" " horiz-adv-x="350" 
 />
    <glyph glyph-name="exclam" unicode="!" horiz-adv-x="218" 
d="M91 182v544h37v-544h-37zM109 62q15 0 25 -9q8 -11 8 -25q0 -12 -7 -24q-11 -10 -26 -10t-24 9.5t-9 24.5t9.5 24.5t23.5 9.5z" />
    <glyph glyph-name="quotedbl" unicode="&#x22;" horiz-adv-x="281" 
d="M73 557v190h37v-190h-37zM171 557v190h37v-190h-37z" />
    <glyph glyph-name="numbersign" unicode="#" horiz-adv-x="698" 
d="M501 509h150v-35h-155l-33 -211h156v-35h-161l-34 -228h-38l34 228h-189l-34 -228h-38l34 228h-146v35h151l33 211h-152v35h157l33 217h38l-34 -217h190l33 217h38zM268 474l-32 -211h190l32 211h-190z" />
    <glyph glyph-name="dollar" unicode="$" horiz-adv-x="645" 
d="M349 0v-107h-35v107q-96 5 -162 55t-89 143l34 19q34 -168 217 -182v308q-32 6 -48 10t-45.5 12.5t-45.5 16.5t-37 22.5t-32 31.5t-19 41.5t-8 53.5q0 90 70 141.5t165 53.5v107h35v-107q179 -14 225 -172l-31 -25q-39 152 -194 162v-318q83 -17 117 -29q45 -17 83 -55
q33 -39 33 -102q0 -88 -69 -136.5t-164 -50.5zM314 381v311q-55 -3 -101 -22q-97 -47 -97 -139q0 -51 27 -79q26 -29 68 -43q36 -13 103 -28zM349 336v-301q78 3 137.5 41t59.5 111q0 51 -26 78q-20 20 -53 35t-55 21t-63 15z" />
    <glyph glyph-name="percent" unicode="%" horiz-adv-x="830" 
d="M202 726q77 0 117 -54.5t40 -135.5t-39.5 -133.5t-117.5 -52.5t-118.5 53t-40.5 133t41 135t118 55zM682 726l-492 -726h-44l492 726h44zM202 692q-62 0 -92 -45t-30 -111q0 -65 30 -108.5t92 -43.5q61 0 90.5 43.5t29.5 108.5t-29.5 110.5t-90.5 45.5zM629 376
q78 0 118 -54t40 -134t-40.5 -134t-117.5 -54t-118 54t-41 134t40.5 134t118.5 54zM629 342q-61 0 -92 -45t-31 -109q0 -65 30.5 -109.5t92.5 -44.5q61 0 91 44.5t30 109.5q0 64 -30 109t-91 45z" />
    <glyph glyph-name="ampersand" unicode="&#x26;" horiz-adv-x="613" 
d="M571 43q19 -13 50 -18v-36q-44 5 -69 24q-33 24 -78 73q-78 -96 -213 -96q-86 0 -148.5 43t-62.5 126q0 43 14.5 78t45 64t56 47t69.5 45q-58 81 -70 105q-21 39 -21 82q0 70 44.5 111.5t115.5 41.5q67 0 110 -35.5t43 -101.5q0 -38 -13.5 -70.5t-41 -59t-52.5 -44.5
t-63 -40l42 -56l28 -36q34 -42 70 -89t44 -57q20 32 31.5 66.5t15.5 58t10 72.5h36q-11 -137 -68 -226q43 -50 75 -72zM212 487q33 -49 53 -75q33 19 55.5 34t48 38t38.5 51t13 61q0 49 -33 75.5t-83 26.5q-52 0 -89 -32q-34 -34 -34 -86q0 -42 31 -93zM258 24q124 0 193 90
q-29 36 -119 153q-31 38 -76 97q-47 -27 -92 -60q-78 -55 -78 -145q0 -65 52 -100t120 -35z" />
    <glyph glyph-name="quotesingle" unicode="'" horiz-adv-x="183" 
d="M73 557v190h37v-190h-37z" />
    <glyph glyph-name="parenleft" unicode="(" horiz-adv-x="295" 
d="M266 816l19 -27q-105 -87 -148 -205t-43 -269q0 -317 191 -474l-19 -27q-115 97 -161.5 218t-46.5 283q0 165 46 283.5t162 217.5z" />
    <glyph glyph-name="parenright" unicode=")" horiz-adv-x="296" 
d="M10 790l22 26q114 -99 160 -218.5t46 -282.5q0 -161 -46.5 -282t-159.5 -219l-22 26q193 161 193 475q0 151 -44 269t-149 206z" />
    <glyph glyph-name="asterisk" unicode="*" horiz-adv-x="574" 
d="M512 652l11 -36l-209 -65l130 -177l-29 -22l-128 178l-128 -178l-29 22l130 177l-209 65l11 36l209 -70l-2 219h36l-2 -219z" />
    <glyph glyph-name="plus" unicode="+" horiz-adv-x="670" 
d="M353 603v-238h240v-34h-240v-246h-37v246h-239v34h239v238h37z" />
    <glyph glyph-name="comma" unicode="," horiz-adv-x="213" 
d="M113 62q23 0 34 -17.5t11 -41.5q0 -81 -74 -119l-32 24q32 12 53 35t21 54v1q-7 -4 -16 -4q-13 0 -22.5 10t-9.5 24t10.5 24t24.5 10z" />
    <glyph glyph-name="hyphen" unicode="-" horiz-adv-x="470" 
d="M75 280v37h320v-37h-320z" />
    <glyph glyph-name="period" unicode="." horiz-adv-x="204" 
d="M101 62q14 0 25 -8q10 -11 10 -26q0 -14 -10 -24t-25 -10t-24 9.5t-9 24.5t9.5 24.5t23.5 9.5z" />
    <glyph glyph-name="slash" unicode="/" horiz-adv-x="403" 
d="M39 -75l286 876h38l-286 -876h-38z" />
    <glyph glyph-name="zero" unicode="0" horiz-adv-x="632" 
d="M316 -10q-60 0 -107 22.5t-75.5 58.5t-46.5 86.5t-25 100t-7 105.5t7 105.5t25 100t46.5 86.5t75.5 58.5t107 22.5q74 0 127.5 -33t81.5 -90t40 -118.5t12 -131.5t-12 -131.5t-40 -118.5t-81.5 -90t-127.5 -33zM316 24q53 0 93.5 21.5t64.5 55t39.5 80t21 90.5t5.5 92
t-5.5 92t-20.5 90.5t-39.5 80t-65 55t-93.5 21.5t-93.5 -21.5t-65 -54.5t-39.5 -79.5t-20.5 -90.5t-5.5 -93q0 -62 10 -116.5t33 -107.5t69.5 -84t111.5 -31z" />
    <glyph glyph-name="one" unicode="1" horiz-adv-x="339" 
d="M252 726h32v-726h-36v651q-70 -88 -180 -128l-13 34q134 47 197 169z" />
    <glyph glyph-name="two" unicode="2" horiz-adv-x="607" 
d="M136 42l-10 -8h426v-34h-488v29q183 154 258 223q163 149 163 267q0 88 -51.5 135.5t-140.5 47.5q-93 0 -144.5 -55.5t-56.5 -150.5h-37q7 111 67.5 175.5t170.5 64.5q105 0 166.5 -56.5t61.5 -160.5q0 -79 -44.5 -147t-118.5 -136q-76 -73 -222 -194z" />
    <glyph glyph-name="three" unicode="3" horiz-adv-x="581" 
d="M427 362h1q22 -10 53 -44q45 -51 45 -126q0 -91 -65.5 -146.5t-159.5 -55.5q-96 0 -160 44.5t-86 134.5l38 2q16 -66 66 -108q56 -39 142 -39q78 0 133 46t55 123q0 75 -47.5 115.5t-124.5 40.5h-118v34h118q79 0 128 44q44 46 44 113q0 78 -54 123t-134 45
q-168 0 -208 -147l-38 2q44 180 246 180q94 0 159.5 -55t65.5 -147q0 -60 -29.5 -107.5t-83.5 -65.5q6 -2 14 -6z" />
    <glyph glyph-name="four" unicode="4" horiz-adv-x="652" 
d="M411 726h38v-472h148v-34h-148v-220h-37v220h-357v27zM412 670l-30 -42l-279 -374h309v416z" />
    <glyph glyph-name="five" unicode="5" horiz-adv-x="599" 
d="M314 448q101 0 165.5 -63t64.5 -165t-65.5 -166t-169.5 -64q-217 0 -254 189h38q26 -155 216 -155q86 0 142 54.5t56 141.5q0 85 -53.5 139.5t-139.5 54.5q-134 0 -203 -92h-31l34 404h403v-34h-371l-27 -313q66 69 195 69z" />
    <glyph glyph-name="six" unicode="6" horiz-adv-x="596" 
d="M312 443q105 0 167 -61.5t62 -166.5q0 -103 -64 -164t-168 -61q-75 0 -127.5 33t-78.5 90.5t-37 118t-11 131.5q0 55 8 106t28.5 100.5t51 85.5t78.5 58.5t109 22.5q78 0 126 -36t72 -111h-39q-38 113 -159 113q-124 0 -180 -100q-59 -104 -59 -253q0 -29 3 -60
q20 69 80 111.5t138 42.5zM308 24q89 0 142.5 52t53.5 141q0 87 -52.5 139t-139.5 52q-78 0 -136.5 -56t-58.5 -135q0 -82 54 -137.5t137 -55.5z" />
    <glyph glyph-name="seven" unicode="7" horiz-adv-x="624" 
d="M518 692h-463v34h514v-28q-254 -272 -286 -698h-39q17 208 81 378.5t193 313.5z" />
    <glyph glyph-name="eight" unicode="8" horiz-adv-x="613" 
d="M404 383q69 -21 111.5 -71t42.5 -121q0 -95 -75.5 -148t-175.5 -53q-79 0 -130 26q-55 24 -88.5 70t-33.5 105q0 70 43 120.5t111 71.5q-57 19 -90.5 63t-33.5 108q0 90 63.5 136t158.5 46q93 0 156.5 -46t63.5 -136q0 -64 -33 -108t-90 -63zM121 554q0 -74 54 -114
t132 -40q77 0 130.5 40t53.5 114q0 65 -48 108q-52 40 -136 40q-78 0 -132 -37t-54 -111zM495 105q27 40 27 86q0 47 -27 88q-60 84 -188 84q-86 0 -150.5 -44.5t-64.5 -127.5q0 -80 65 -123.5t150 -43.5q128 0 188 81z" />
    <glyph glyph-name="nine" unicode="9" horiz-adv-x="596" 
d="M287 735q254 0 254 -373q0 -70 -14 -132.5t-44.5 -118.5t-86 -89t-130.5 -33q-152 0 -199 147h38q42 -113 161 -113q55 0 98 22t69 56.5t42.5 82.5t23 94.5t6.5 97.5q0 28 -3 60q-21 -69 -81.5 -111.5t-138.5 -42.5q-103 0 -165 62t-62 166q0 105 63.5 165t168.5 60z
M282 317q78 0 137.5 56.5t59.5 134.5q0 109 -92 168q-43 25 -99 25q-89 0 -142.5 -52t-53.5 -141q0 -86 52 -138.5t138 -52.5z" />
    <glyph glyph-name="colon" unicode=":" horiz-adv-x="229" 
d="M114 555q14 0 24 -8q10 -11 10 -25q0 -15 -9.5 -25t-24.5 -10t-24 9.5t-9 25.5q0 14 9.5 23.5t23.5 9.5zM114 62q14 0 24 -8q10 -11 10 -26q0 -14 -9.5 -24t-24.5 -10t-24 9.5t-9 24.5t9.5 24.5t23.5 9.5z" />
    <glyph glyph-name="semicolon" unicode=";" horiz-adv-x="239" 
d="M128 488q-14 0 -23.5 10t-9.5 24t9.5 23.5t23.5 9.5q15 0 24 -9q9 -10 9 -24q0 -15 -9.5 -24.5t-23.5 -9.5zM125 62q23 0 34 -17.5t11 -41.5q0 -81 -74 -119l-32 24q32 12 53 35t21 54v1q-5 -4 -16 -4q-13 0 -22.5 10t-9.5 24t10.5 24t24.5 10z" />
    <glyph glyph-name="less" unicode="&#x3c;" horiz-adv-x="670" 
d="M100 314v32l492 259v-42l-446 -232l446 -233v-42z" />
    <glyph glyph-name="equal" unicode="=" horiz-adv-x="670" 
d="M96 437v34h479v-34h-479zM96 218v35h479v-35h-479z" />
    <glyph glyph-name="greater" unicode="&#x3e;" horiz-adv-x="670" 
d="M524 331l-446 232v42l492 -259v-32l-492 -258v42z" />
    <glyph glyph-name="question" unicode="?" horiz-adv-x="529" 
d="M271 736q94 0 153.5 -49t59.5 -141q0 -101 -54 -156t-158 -87v-142h-36v167q52 16 83.5 30t64.5 38.5t48.5 61.5t15.5 88q0 74 -50.5 115t-126.5 41q-94 0 -142 -41.5t-63 -134.5l-33 13q16 103 74.5 150t163.5 47zM254 62q15 0 24 -9q9 -10 9 -25q0 -13 -8 -24
q-10 -10 -25 -10q-14 0 -24 10t-10 24q0 15 10 26q11 8 24 8z" />
    <glyph glyph-name="at" unicode="@" horiz-adv-x="1032" 
d="M521 736q211 0 329 -123.5t118 -339.5q0 -126 -37 -205q-17 -36 -45.5 -59.5t-56.5 -23.5q-31 0 -51 25t-26.5 53.5t-8.5 61.5q-34 -66 -96 -104t-143 -38q-121 0 -195.5 82t-74.5 204t74.5 204t195.5 82q79 0 141 -38t96 -101v83h35v-357q0 -32 4.5 -56t10 -37
t13.5 -20.5t13.5 -10t11.5 -2.5h3q18 1 37 20.5t33 50.5q29 69 29 186q0 196 -106 312.5t-304 116.5q-196 0 -310.5 -121t-114.5 -321q0 -197 119 -313.5t320 -116.5q155 0 253 91l23 -30q-51 -45 -126.5 -70t-149.5 -25q-215 0 -345.5 123t-130.5 341q0 213 123 344.5
t339 131.5zM504 19q106 0 171 71.5t65 178.5t-65 179t-171 72q-105 0 -170 -72t-65 -179t64.5 -178.5t170.5 -71.5z" />
    <glyph glyph-name="A" unicode="A" horiz-adv-x="819" 
d="M410 739l354 -739h-41l-112 234h-403l-111 -234h-42zM594 268l-184 388l-185 -388h369z" />
    <glyph glyph-name="B" unicode="B" horiz-adv-x="667" 
d="M481 364q131 -36 131 -177q0 -187 -246 -187h-311v726h311q103 0 164.5 -46.5t61.5 -146.5q0 -127 -111 -169zM366 693l-275 -1v-312h275q191 0 191 152q0 82 -52.5 120.5t-138.5 40.5zM91 345v-311h275q211 0 211 153q0 158 -211 158h-275z" />
    <glyph glyph-name="C" unicode="C" horiz-adv-x="822" 
d="M421 -11q-160 0 -263 105t-103 268q0 162 101.5 267.5t264.5 105.5q113 0 200 -53t131 -146l-40 -1q-41 77 -117 121.5t-174 44.5q-144 0 -237 -96t-93 -243q0 -145 92 -242t238 -97q108 0 189.5 55t118.5 149l38 -1q-38 -108 -129.5 -172.5t-216.5 -64.5z" />
    <glyph glyph-name="D" unicode="D" horiz-adv-x="711" 
d="M299 0h-244v726h244q175 0 266 -93.5t91 -268.5q0 -364 -357 -364zM299 692h-208v-658h208q321 0 321 330q0 154 -81 243q-83 85 -240 85z" />
    <glyph glyph-name="E" unicode="E" horiz-adv-x="656" 
d="M479 345h-386v-311h508v-34h-546v726h546v-34h-508v-312h386v-35z" />
    <glyph glyph-name="F" unicode="F" horiz-adv-x="656" 
d="M479 345h-386v-345h-38v726h546v-34h-508v-312h386v-35z" />
    <glyph glyph-name="G" unicode="G" horiz-adv-x="817" 
d="M463 380h299v-380h-35v145q-48 -73 -127.5 -114.5t-178.5 -41.5q-160 0 -263 105t-103 268q0 162 101.5 267.5t264.5 105.5q113 0 200 -53t131 -146l-40 -1q-41 77 -117 121.5t-174 44.5q-144 0 -237 -96t-93 -243q0 -145 92 -242t238 -97q106 0 187.5 54t118.5 145v123
h-264v35z" />
    <glyph glyph-name="H" unicode="H" horiz-adv-x="662" 
d="M92 380h478v346h37v-726h-37v345h-478v-345h-37v726h37v-346z" />
    <glyph glyph-name="I" unicode="I" horiz-adv-x="147" 
d="M55 0v726h37v-726h-37z" />
    <glyph glyph-name="J" unicode="J" horiz-adv-x="662" 
d="M331 -10q-276 0 -276 244v145h37v-145q0 -210 239 -210q116 0 177.5 49t61.5 161v492h37v-492q0 -244 -276 -244z" />
    <glyph glyph-name="K" unicode="K" horiz-adv-x="669" 
d="M307 451l307 -451h-46l-290 424l-186 -169v-255h-37v726h37v-418l464 418h55z" />
    <glyph glyph-name="L" unicode="L" horiz-adv-x="656" 
d="M55 0v726h38v-691h508v-35h-546z" />
    <glyph glyph-name="M" unicode="M" horiz-adv-x="758" 
d="M379 56l285 670h39v-726h-37l1 642l-271 -642h-35l-270 642l1 -642h-37v726h39z" />
    <glyph glyph-name="N" unicode="N" horiz-adv-x="660" 
d="M569 59l-1 667h37v-726h-39l-475 667l1 -667h-37v726h38z" />
    <glyph glyph-name="O" unicode="O" horiz-adv-x="844" 
d="M421 -11q-160 0 -263 105t-103 268q0 162 101.5 267.5t264.5 105.5q161 0 264.5 -104.5t103.5 -268.5q0 -162 -102.5 -267.5t-265.5 -105.5zM421 23q146 0 239 95.5t93 243.5q0 147 -92 243t-240 96q-144 0 -237 -96t-93 -243q0 -145 92 -242t238 -97z" />
    <glyph glyph-name="P" unicode="P" 
d="M92 0h-37v726h289q250 0 250 -192q0 -189 -250 -189h-252v-345zM344 692h-252v-312h252q92 0 153 35t61 119q0 158 -214 158z" />
    <glyph glyph-name="Q" unicode="Q" horiz-adv-x="844" 
d="M789 362q0 -89 -33.5 -164.5t-94.5 -126.5l104 -71l-22 -26l-111 76q-91 -61 -211 -61q-160 0 -263 105t-103 268q0 162 101.5 267.5t264.5 105.5q161 0 264.5 -104.5t103.5 -268.5zM421 23q102 0 179 48l-187 128l22 28l196 -135q58 46 90 116t32 154q0 147 -92 243
t-240 96q-144 0 -237 -96t-93 -243q0 -145 92 -242t238 -97z" />
    <glyph glyph-name="R" unicode="R" horiz-adv-x="661" 
d="M380 345l226 -345h-45l-227 345h-242v-345h-37v726h289q250 0 250 -192q0 -174 -214 -189zM344 692h-252v-312h252q214 0 214 154q0 45 -18 77t-50 49t-67.5 24.5t-78.5 7.5z" />
    <glyph glyph-name="S" unicode="S" horiz-adv-x="733" 
d="M368 736q241 0 300 -182h-38q-51 148 -262 148q-40 0 -81.5 -9.5t-81 -28t-65 -52t-25.5 -76.5q0 -37 25 -72q48 -62 254 -92q46 -7 74 -12.5t72.5 -20.5t70 -33.5t46 -50.5t21.5 -74v-4q0 -51 -29 -89t-75.5 -58.5t-94 -30t-94.5 -9.5q-287 0 -330 208h42
q8 -48 37.5 -83.5t71.5 -54.5t86.5 -27.5t92.5 -8.5q40 0 81.5 8t83 24.5t68 49t26.5 75.5q0 61 -57 97q-54 36 -200 60q-40 5 -64.5 9.5t-66.5 14t-68.5 23.5t-54 34t-41 50t-13.5 67q0 51 28 91.5t72 63t92.5 34t96.5 11.5z" />
    <glyph glyph-name="T" unicode="T" horiz-adv-x="687" 
d="M55 692v34h577v-34h-270v-692h-37v692h-270z" />
    <glyph glyph-name="U" unicode="U" horiz-adv-x="662" 
d="M570 234v492h37v-492q0 -244 -276 -244t-276 244v492h37v-492q0 -210 239 -210q116 0 177.5 49t61.5 161z" />
    <glyph glyph-name="V" unicode="V" horiz-adv-x="819" 
d="M55 726h42l313 -643l313 643h41l-354 -726z" />
    <glyph glyph-name="W" unicode="W" horiz-adv-x="1080" 
d="M554 726l219 -620l215 620h37l-252 -726l-233 657l-232 -657l-253 726h38l215 -620l219 620h27z" />
    <glyph glyph-name="X" unicode="X" horiz-adv-x="742" 
d="M640 0l-266 345l-272 -345h-47l298 376l-274 350h45l250 -322l260 322h42l-280 -352l291 -374h-47z" />
    <glyph glyph-name="Y" unicode="Y" horiz-adv-x="705" 
d="M353 317l253 409h44l-280 -445v-281h-35v281l-280 445h44z" />
    <glyph glyph-name="Z" unicode="Z" horiz-adv-x="663" 
d="M587 726v-28l-484 -664h505v-34h-553v28l483 664h-475v34h524z" />
    <glyph glyph-name="bracketleft" unicode="[" horiz-adv-x="309" 
d="M84 801h213v-34h-178v-912h178v-35h-213v981z" />
    <glyph glyph-name="backslash" unicode="\" horiz-adv-x="403" 
d="M364 -75h-38l-286 876h38z" />
    <glyph glyph-name="bracketright" unicode="]" horiz-adv-x="309" 
d="M12 767v34h213v-981h-213v35h178v912h-178z" />
    <glyph glyph-name="asciicircum" unicode="^" horiz-adv-x="607" 
d="M288 801h32l247 -420h-43l-219 373l-220 -373h-44z" />
    <glyph glyph-name="underscore" unicode="_" horiz-adv-x="554" 
d="M0 -118v34h554v-34h-554z" />
    <glyph glyph-name="grave" unicode="`" horiz-adv-x="255" 
d="M161 624l-106 177h43l102 -177h-39z" />
    <glyph glyph-name="a" unicode="a" horiz-adv-x="671" 
d="M580 24q15 0 36 9v-37q-9 -4 -13 -4q-2 -1 -5 -1q-5 -1 -16 -1q-83 0 -91 88q-38 -44 -110.5 -66t-138.5 -22q-48 0 -88 11.5t-69.5 43.5t-29.5 80q0 42 19.5 72.5t54 48t67.5 27t75 15.5l219 34v57q0 73 -59 110.5t-137 37.5t-124.5 -30t-75.5 -102l-30 24
q31 76 87.5 109t142.5 33q98 0 166 -44.5t68 -137.5v-288q0 -67 52 -67zM247 24q37 0 76 7.5t78 23.5t64 46t25 69v117l-202 -31q-105 -16 -152 -49q-43 -34 -43 -82q0 -37 26.5 -61t59 -32t68.5 -8z" />
    <glyph glyph-name="b" unicode="b" 
d="M323 558q121 0 196 -82t75 -202q0 -121 -75 -202t-196 -81q-77 0 -137 35.5t-94 97.5v-124h-37v726h37v-302q34 62 94 98t137 36zM323 26q106 0 170.5 70.5t64.5 177.5q0 105 -65 176.5t-170 71.5q-97 0 -160 -63.5t-71 -159.5v-50q8 -97 70.5 -160t160.5 -63z" />
    <glyph glyph-name="c" unicode="c" horiz-adv-x="621" 
d="M323 -9q-119 0 -193.5 81t-74.5 202q0 120 74.5 202t193.5 82q79 0 142 -40.5t101 -110.5h-41q-31 54 -83.5 84.5t-118.5 30.5q-103 0 -167.5 -71.5t-64.5 -176.5q0 -107 64 -177.5t168 -70.5q133 0 201 111l42 2q-39 -69 -101.5 -108.5t-141.5 -39.5z" />
    <glyph glyph-name="d" unicode="d" 
d="M325 558q79 0 138 -35t94 -98v301h37v-726h-37v123q-35 -62 -94 -97t-138 -35q-121 0 -195.5 81t-74.5 202t75 202.5t195 81.5zM325 26q96 0 159 63t73 158v52q-10 97 -73 160t-159 63q-104 0 -169 -71.5t-65 -176.5q0 -106 64.5 -177t169.5 -71z" />
    <glyph glyph-name="e" unicode="e" 
d="M538 137h42q-40 -68 -106 -107t-148 -39q-126 0 -198.5 78t-72.5 205q0 120 74.5 202t193.5 82q121 0 196 -84t75 -220h-502q5 -103 68.5 -165.5t165.5 -62.5q139 0 212 111zM323 522q-101 0 -164.5 -65.5t-66.5 -167.5h465q-3 102 -67 167.5t-167 65.5z" />
    <glyph glyph-name="f" unicode="f" horiz-adv-x="504" 
d="M264 637q-48 -38 -52 -76h183v-34h-184l-5 -527h-37l5 527h-119v34h119q5 56 66 103q73 56 210 56v-34q-121 0 -186 -49z" />
    <glyph glyph-name="g" unicode="g" 
d="M556 426v135h38l-1 -547q-5 -117 -78.5 -194t-191.5 -77q-89 0 -155 49t-98 131h37q29 -67 85 -106t131 -39q100 0 164 67.5t69 168.5v107q-34 -61 -93.5 -96t-137.5 -35q-121 0 -195.5 81.5t-74.5 201.5q0 121 74.5 202.5t195.5 81.5q78 0 137.5 -35t93.5 -96zM556 238
v71q-12 93 -74.5 152.5t-156.5 59.5q-104 0 -169 -71t-65 -177t65 -177t169 -71q93 0 156 60.5t75 152.5z" />
    <glyph glyph-name="h" unicode="h" 
d="M92 299v-299h-37v726h37v-301q34 63 93 98t138 35q121 0 196 -82t75 -202v-274h-36v274q0 105 -65.5 176.5t-169.5 71.5q-96 0 -158.5 -63t-72.5 -160z" />
    <glyph glyph-name="i" unicode="i" horiz-adv-x="176" 
d="M88 654q-14 0 -23.5 10t-9.5 23q0 14 9.5 23.5t23.5 9.5q15 0 24 -9q9 -11 9 -24q0 -14 -9.5 -23.5t-23.5 -9.5zM70 0v562h37v-562h-37z" />
    <glyph glyph-name="j" unicode="j" horiz-adv-x="173" 
d="M85 720q15 0 24 -9q9 -11 9 -24q0 -14 -9.5 -23.5t-23.5 -9.5q-13 0 -23 10t-10 23q0 14 9.5 23.5t23.5 9.5zM67 -89v650h36v-650q0 -75 -38.5 -123t-111.5 -48q-49 0 -88 31l15 35q31 -31 73 -31q56 0 85 39t29 97z" />
    <glyph glyph-name="k" unicode="k" horiz-adv-x="549" 
d="M248 330l246 -330h-46l-227 303l-129 -121v-182h-37v726h37v-494l347 329h54z" />
    <glyph glyph-name="l" unicode="l" horiz-adv-x="277" 
d="M55 124v602h37v-602q0 -100 68 -100q31 0 62 15v-38q-30 -11 -62 -11q-105 0 -105 134z" />
    <glyph glyph-name="m" unicode="m" horiz-adv-x="985" 
d="M703 559q101 0 164 -82t63 -203v-275h-35v275q0 105 -53.5 176t-138.5 71q-84 0 -137.5 -71t-53.5 -176v-275h-35v275q0 105 -53.5 176t-138.5 71q-79 0 -130.5 -63t-59.5 -159v-300h-37l-3 560h36l3 -124q29 58 78.5 91t112.5 33q72 0 127.5 -46.5t81.5 -121.5
q26 75 81.5 121.5t127.5 46.5z" />
    <glyph glyph-name="n" unicode="n" horiz-adv-x="652" 
d="M96 299v-299h-37l-4 561h37l3 -134q67 131 233 131q120 0 194.5 -81.5t74.5 -202.5v-274h-34v274q0 105 -65.5 176.5t-169.5 71.5q-96 0 -159.5 -63.5t-72.5 -159.5z" />
    <glyph glyph-name="o" unicode="o" 
d="M55 274q0 120 74.5 202t193.5 82q121 0 196 -82t75 -202q0 -121 -75 -202t-196 -81q-119 0 -193.5 81t-74.5 202zM558 274q0 105 -65 176.5t-170 71.5q-103 0 -167.5 -71.5t-64.5 -176.5q0 -107 64 -177.5t168 -70.5q106 0 170.5 70.5t64.5 177.5z" />
    <glyph glyph-name="p" unicode="p" 
d="M323 -8q-79 0 -138 35t-93 98v-295h-37v729h37v-132q34 62 93 97t138 35q121 0 196 -81.5t75 -202.5q0 -120 -75 -201.5t-196 -81.5zM323 523q-96 0 -158.5 -62.5t-72.5 -158.5v-52q10 -96 72.5 -159.5t158.5 -63.5q104 0 169.5 71.5t65.5 176.5q0 106 -65 177t-170 71z
" />
    <glyph glyph-name="q" unicode="q" 
d="M325 -8q-121 0 -195.5 81.5t-74.5 201.5q0 121 74.5 202.5t195.5 81.5q79 0 138 -35t94 -97v132h37v-729h-37v295q-35 -63 -94 -98t-138 -35zM325 523q-105 0 -169.5 -71t-64.5 -177q0 -105 65 -176.5t169 -71.5q96 0 159 63.5t73 159.5v52q-10 96 -73 158.5t-159 62.5z
" />
    <glyph glyph-name="r" unicode="r" horiz-adv-x="522" 
d="M96 299v-299h-37l-4 561h37l3 -138q34 62 94.5 98.5t138.5 36.5q72 0 139 -36l-12 -36q-62 36 -127 36q-96 0 -159.5 -63.5t-72.5 -159.5z" />
    <glyph glyph-name="s" unicode="s" horiz-adv-x="585" 
d="M521 413h-36q-35 114 -191 114q-29 0 -60 -7t-60.5 -20.5t-48.5 -38t-19 -55.5q0 -50 59 -83q65 -23 144 -35q41 -7 66 -12.5t58 -17.5t51.5 -26.5t32 -38.5t13.5 -55q0 -40 -22 -70.5t-57.5 -46t-72 -23t-72.5 -7.5q-110 0 -174.5 41.5t-77.5 122.5h38q7 -47 44 -77.5
t79.5 -41t90.5 -10.5q43 0 83 9t73.5 36.5t33.5 68.5q0 55 -61 81q-41 19 -142 34q-44 8 -67 13t-58 17t-52.5 26t-31.5 38.5t-14 56.5q0 53 38 90t86.5 51.5t99.5 14.5q98 0 152.5 -37t74.5 -112z" />
    <glyph glyph-name="t" unicode="t" horiz-adv-x="468" 
d="M393 70l20 -31q-45 -49 -115 -49q-137 0 -137 154v383h-106v34h106v165h37v-165h205v-34h-205v-383q0 -120 100 -120q54 0 95 46z" />
    <glyph glyph-name="u" unicode="u" horiz-adv-x="652" 
d="M557 246v315h37l3 -563h-35l-4 127q-34 -63 -94.5 -99.5t-138.5 -36.5q-121 0 -195.5 81t-74.5 202v289h36v-289q0 -106 65 -177t169 -71q96 0 159 63.5t73 158.5z" />
    <glyph glyph-name="v" unicode="v" 
d="M55 560h41l228 -477l227 478h43l-270 -561z" />
    <glyph glyph-name="w" unicode="w" horiz-adv-x="901" 
d="M458 561l190 -460l160 460h38l-196 -561l-199 486l-200 -486l-196 561h38l160 -460l190 460h15z" />
    <glyph glyph-name="x" unicode="x" horiz-adv-x="621" 
d="M534 561l-205 -267l237 -294h-51l-211 261l-201 -261h-48l224 292l-217 269h51l192 -237l181 237h48z" />
    <glyph glyph-name="y" unicode="y" horiz-adv-x="602" 
d="M303 39l204 522h40l-269 -687q-29 -74 -63 -105q-39 -29 -91 -29q-29 0 -55 11v41q28 -16 56 -16q39 0 67 22q25 22 51 87l41 105l-229 571h40z" />
    <glyph glyph-name="z" unicode="z" horiz-adv-x="568" 
d="M513 34v-34h-449v28l383 499h-392v34h442v-28l-381 -499h397z" />
    <glyph glyph-name="braceleft" unicode="{" horiz-adv-x="297" 
d="M168 682v-259q0 -76 -66 -107q66 -32 66 -108v-260q0 -96 107 -96v-34q-66 0 -105 32t-39 98v260q0 42 -30 67q-32 24 -92 24v33q122 0 122 91v259q0 65 39 97t105 32v-34q-107 0 -107 -95z" />
    <glyph glyph-name="bar" unicode="|" horiz-adv-x="203" 
d="M84 -180v981h35v-981h-35z" />
    <glyph glyph-name="braceright" unicode="}" horiz-adv-x="297" 
d="M167 682v-259q0 -48 34.5 -69.5t86.5 -21.5v-33q-52 0 -86.5 -21t-34.5 -70v-260q0 -65 -39.5 -97.5t-105.5 -32.5v34q54 0 82 26q26 26 26 70v260q0 75 65 108q-31 15 -48 43.5t-17 63.5v259q0 42 -26 70q-27 25 -82 25v34q66 0 105.5 -32t39.5 -97z" />
    <glyph glyph-name="asciitilde" unicode="~" horiz-adv-x="538" 
d="M454 443h37q-17 -121 -113 -121q-39 0 -62 11q-41 21 -58 31q-32 20 -52 29q-21 9 -45 9q-38 0 -54 -22t-22 -64h-38q18 120 114 120q42 0 62 -10q31 -14 57 -32q64 -37 98 -37q37 0 53.5 22.5t22.5 63.5z" />
    <glyph glyph-name="exclamdown" unicode="&#xa1;" horiz-adv-x="209" 
d="M105 493q-13 0 -23 9.5t-10 23.5q0 15 9 24.5t24 9.5q14 0 26 -9q7 -10 7 -25q0 -14 -9 -23.5t-24 -9.5zM124 373v-544h-37v544h37z" />
    <glyph glyph-name="cent" unicode="&#xa2;" horiz-adv-x="599" 
d="M509 174l35 -10q-17 -81 -76.5 -126.5t-143.5 -47.5v-97h-34v97q-114 7 -171 87t-57 200q0 119 57 200t171 88v97h34v-97q174 -3 215 -162l-33 -16q-35 141 -182 144v-507q73 3 123 41.5t62 108.5zM290 25v505q-98 -11 -145 -80t-47 -173t46.5 -174t145.5 -78z" />
    <glyph glyph-name="sterling" unicode="&#xa3;" horiz-adv-x="634" 
d="M560 143h35q0 -153 -147 -153q-46 0 -78 14.5t-73 46.5q-27 -28 -62 -43q-39 -18 -89 -18q-43 0 -77.5 20t-34.5 60q0 43 36.5 63.5t82.5 20.5q68 0 138 -53q20 35 20 73q0 44 -14.5 75.5t-47.5 74.5h-148v35h121q-34 48 -51 87t-17 86q0 93 61 148.5t155 55.5
q84 0 135.5 -44.5t59.5 -126.5l-36 -14q-6 70 -47.5 110.5t-111.5 40.5q-82 0 -130.5 -44.5t-48.5 -125.5q0 -37 16 -77q5 -11 27 -41.5t33 -52.5l1 -2h231v-35h-204q27 -41 39 -68q13 -38 13 -79q0 -56 -28 -99q35 -28 63 -41t66 -13q58 0 84 29.5t28 89.5zM146 24
q75 0 124 49q-21 18 -50 33q-31 13 -66 13q-29 0 -56 -11.5t-27 -37.5q0 -20 20 -32q17 -14 55 -14z" />
    <glyph glyph-name="currency" unicode="&#xa4;" horiz-adv-x="676" 
d="M536 366q0 -81 -40 -134l112 -113l-26 -26l-111 112q-50 -46 -133 -46q-80 0 -132 45l-111 -111l-27 27l111 112q-40 53 -40 134t37 131l-108 109l27 27l107 -109q51 48 136 48q84 0 135 -48l109 109l26 -26l-110 -111q38 -49 38 -130zM338 193q76 0 118.5 48t42.5 125
t-42.5 124t-118.5 47t-119.5 -47t-43.5 -124q0 -78 43 -125.5t120 -47.5z" />
    <glyph glyph-name="yen" unicode="&#xa5;" horiz-adv-x="646" 
d="M323 319l231 407h43l-242 -417h208v-34h-222v-98h222v-35h-222v-142h-36v142h-221v35h221v98h-221v34h206l-242 417h44z" />
    <glyph glyph-name="brokenbar" unicode="&#xa6;" horiz-adv-x="218" 
d="M91 389v412h36v-412h-36zM91 -180v412h36v-412h-36z" />
    <glyph glyph-name="section" unicode="&#xa7;" horiz-adv-x="595" 
d="M558 295q0 -51 -34 -85t-87 -50q31 -17 48 -39q20 -35 20 -80q0 -78 -59.5 -118t-143.5 -40q-161 0 -199 104l31 21q31 -91 168 -91q68 0 117.5 30t49.5 93q0 29 -14.5 51.5t-32.5 35t-49.5 22.5t-51.5 14t-51 8q-44 7 -73.5 14.5t-66.5 24t-56.5 45.5t-19.5 69
q0 94 120 135q-67 42 -67 119q0 78 60 118t144 40q157 0 200 -104l-33 -21q-30 91 -167 91q-68 0 -117.5 -30t-49.5 -93q0 -29 14 -51.5t32.5 -35.5t50 -22.5t51 -13t51.5 -8.5q37 -6 59 -10t55.5 -15.5t52.5 -26.5t33.5 -41t14.5 -60zM388 181l-3 -1q57 11 97.5 38.5
t40.5 76.5q0 46 -39 73q-43 27 -147 45q-64 7 -115 24q-53 -10 -92 -38t-39 -75q0 -31 16 -52q30 -42 170 -65q59 -8 111 -26z" />
    <glyph glyph-name="dieresis" unicode="&#xa8;" horiz-adv-x="373" 
d="M88 706q13 0 24 -8q9 -10 9 -25q0 -14 -9.5 -23.5t-23.5 -9.5t-23.5 9.5t-9.5 23.5q0 15 9 24t24 9zM285 706q14 0 25 -8q8 -11 8 -25t-9 -23.5t-24 -9.5t-24.5 9t-9.5 24t10 25q11 8 24 8z" />
    <glyph glyph-name="copyright" unicode="&#xa9;" horiz-adv-x="874" 
d="M437 736q169 0 272 -101t103 -272q0 -167 -102.5 -270t-272.5 -103q-167 0 -271 101.5t-104 271.5q0 168 102 270.5t273 102.5zM437 702q-149 0 -244 -94t-95 -245q0 -149 94 -244t245 -95q149 0 243.5 94t94.5 245q0 150 -93.5 244.5t-244.5 94.5zM448 152
q-87 0 -143 59t-56 150t56.5 149.5t142.5 58.5q57 0 105 -30.5t76 -86.5h-38q-49 83 -143 83q-72 0 -117.5 -49t-45.5 -125t45.5 -125t117.5 -49q93 0 142 80l39 2q-29 -55 -76.5 -86t-104.5 -31z" />
    <glyph glyph-name="ordfeminine" unicode="&#xaa;" horiz-adv-x="493" 
d="M424 23q11 0 29 7v-32q-9 -4 -16 -4q-5 -1 -11 -1q-61 0 -69 60q-28 -31 -79 -45.5t-100 -14.5q-57 0 -97.5 24.5t-40.5 76.5q0 99 159 120l157 26v38q0 53 -42 79t-99 26q-58 0 -89 -21.5t-54 -76.5l-25 21q22 58 63 82.5t105 24.5q73 0 123.5 -33t50.5 -102v-209
q0 -46 35 -46zM182 23q36 0 73 9t69 34t32 61v81l-144 -22q-74 -12 -109 -35q-30 -25 -30 -57q0 -35 28 -51q26 -20 81 -20z" />
    <glyph glyph-name="guillemotleft" unicode="&#xab;" horiz-adv-x="440" 
d="M51 294l161 219h47l-161 -219l161 -220h-47zM177 294l162 219h46l-161 -219l161 -220h-46z" />
    <glyph glyph-name="logicalnot" unicode="&#xac;" horiz-adv-x="670" 
d="M549 331h-464v34h501v-176h-37v142z" />
    <glyph glyph-name="uni00AD" unicode="&#xad;" horiz-adv-x="470" 
d="M75 280v37h320v-37h-320z" />
    <glyph glyph-name="registered" unicode="&#xae;" horiz-adv-x="874" 
d="M437 736q169 0 272 -101t103 -272q0 -167 -102.5 -270t-272.5 -103q-167 0 -271 101.5t-104 271.5q0 168 102 270.5t273 102.5zM437 24q149 0 243.5 94t94.5 245q0 150 -93.5 244.5t-244.5 94.5q-149 0 -244 -94t-95 -245q0 -149 94 -244t245 -95zM492 345l129 -193h-41
l-127 192h-124v-192h-35v417h168q146 0 146 -113q0 -57 -40 -87q-31 -20 -76 -24zM462 536h-133v-160h133q113 0 113 80t-113 80z" />
    <glyph glyph-name="macron" unicode="&#xaf;" horiz-adv-x="437" 
d="M55 648v34h327v-34h-327z" />
    <glyph glyph-name="degree" unicode="&#xb0;" horiz-adv-x="348" 
d="M172 673q-61 0 -100.5 39.5t-39.5 100.5q0 63 39 101.5t101 38.5q63 0 101 -38.5t38 -101.5q0 -61 -38.5 -100.5t-100.5 -39.5zM172 706q49 0 76.5 29t27.5 78t-27.5 78t-76.5 29q-48 0 -76 -29t-28 -78t28 -78t76 -29z" />
    <glyph glyph-name="plusminus" unicode="&#xb1;" horiz-adv-x="670" 
d="M318 685h35v-266h233v-34h-233v-271h-35v271h-233v34h233v266zM586 34v-34h-501v34h501z" />
    <glyph glyph-name="uni00B2" unicode="&#xb2;" horiz-adv-x="326" 
d="M73 567h234v-28h-285v23q106 88 148 128q90 85 90 147q0 48 -27.5 74t-76.5 26q-45 0 -79 -29q-28 -31 -31 -88h-29q4 67 38.5 106t100.5 39q62 0 97.5 -33.5t35.5 -94.5q0 -80 -92 -164q-13 -11 -54.5 -46.5t-69.5 -59.5z" />
    <glyph glyph-name="uni00B3" unicode="&#xb3;" horiz-adv-x="288" 
d="M221 755q24 -9 39 -38.5t15 -56.5q0 -51 -37.5 -82.5t-89.5 -31.5q-110 0 -139 105l30 3q11 -40 35 -61q32 -20 74 -20q41 0 69 24t28 64q0 35 -22 58q-25 22 -66 22h-68v28h68q39 0 63.5 20.5t24.5 58.5q0 40 -27.5 64t-69.5 24q-87 0 -109 -81l-30 3q27 105 139 105
q54 0 90.5 -30.5t36.5 -83.5q0 -67 -54 -94z" />
    <glyph glyph-name="acute" unicode="&#xb4;" horiz-adv-x="255" 
d="M95 624h-40l103 177h42z" />
    <glyph glyph-name="uni00B5" unicode="&#xb5;" horiz-adv-x="607" 
d="M489 221v329h36v-550h-36v102q-32 -55 -89 -83.5t-123 -28.5q-107 0 -159 78v-290h-37v772h37v-361q0 -76 43 -120.5t119 -44.5q84 0 146.5 56.5t62.5 140.5z" />
    <glyph glyph-name="paragraph" unicode="&#xb6;" horiz-adv-x="576" 
d="M288 726h199v-833h-37v799h-130v-799h-37v379q-105 2 -177.5 62.5t-72.5 164.5q0 106 73 166.5t182 60.5zM283 307v385q-92 -5 -152.5 -53.5t-60.5 -139.5q0 -88 60.5 -138t152.5 -54z" />
    <glyph glyph-name="periodcentered" unicode="&#xb7;" horiz-adv-x="229" 
d="M115 428q15 0 24 -9t9 -24q0 -14 -9 -23.5t-24 -9.5t-24.5 9t-9.5 24t10 25q11 8 24 8z" />
    <glyph glyph-name="cedilla" unicode="&#xb8;" horiz-adv-x="327" 
d="M118 6l4 17h29q29 -15 45.5 -25t37 -27t29.5 -38.5t9 -48.5q0 -46 -29.5 -73t-74.5 -27q-39 0 -62 11v-1q-29 13 -51 45l21 29q22 -28 41 -39.5t51 -11.5q30 0 50 18q19 21 19 48q0 22 -11 41t-32.5 35.5t-36 25t-39.5 21.5z" />
    <glyph glyph-name="uni00B9" unicode="&#xb9;" horiz-adv-x="342" 
d="M155 953h26v-407h-29v349q-37 -43 -95 -62l-13 26q82 28 111 94z" />
    <glyph glyph-name="ordmasculine" unicode="&#xba;" horiz-adv-x="459" 
d="M38 195q0 85 53 143t138 58t138.5 -58t53.5 -143q0 -86 -53 -143.5t-139 -57.5q-85 0 -138 57.5t-53 143.5zM390 195q0 72 -45 121t-116 49t-115.5 -49t-44.5 -121q0 -73 44 -122t116 -49q73 0 117 49t44 122z" />
    <glyph glyph-name="guillemotright" unicode="&#xbb;" horiz-adv-x="437" 
d="M51 74l162 220l-162 219h47l161 -219l-161 -220h-47zM177 74l162 220l-162 219h47l162 -219l-162 -220h-47z" />
    <glyph glyph-name="onequarter" unicode="&#xbc;" horiz-adv-x="1313" 
d="M676 801l-286 -876h-38l286 876h38zM68 523l-13 34q134 47 197 169h32v-726h-36v651q-70 -88 -180 -128zM1071 726h38v-472h149v-34h-149v-220h-37v220h-357v27zM1072 668l-29 -40l-279 -374h308v414z" />
    <glyph glyph-name="onehalf" unicode="&#xbd;" horiz-adv-x="1296" 
d="M676 801l-286 -876h-38l286 876h38zM826 42l-10 -8h425v-34h-488v29q158 132 259 223q162 148 162 267q0 88 -51 135.5t-140 47.5q-94 0 -145.5 -55.5t-56.5 -150.5h-37q7 111 68 175.5t171 64.5q105 0 166 -56.5t61 -160.5q0 -78 -44 -146t-118 -137q-78 -74 -222 -194z
M68 523l-13 34q134 47 197 169h32v-726h-36v651q-70 -88 -180 -128z" />
    <glyph glyph-name="threequarters" unicode="&#xbe;" horiz-adv-x="1554" 
d="M917 801l-285 -876h-38l285 876h38zM526 541q0 -60 -29.5 -107.5t-83.5 -65.5q6 -2 14 -6h1q22 -10 53 -44q45 -51 45 -126q0 -91 -65.5 -146.5t-159.5 -55.5q-96 0 -160 44.5t-86 134.5l38 2q16 -66 66 -108q56 -39 142 -39q78 0 133 46t55 123q0 75 -47.5 115.5
t-124.5 40.5h-118v34h118q79 0 128 44q44 46 44 113q0 78 -54 123t-134 45q-168 0 -208 -147l-38 2q44 180 246 180q94 0 159.5 -55t65.5 -147zM1312 726h38v-472h149v-34h-149v-220h-37v220h-357v27zM1313 668l-29 -40l-279 -374h308v414z" />
    <glyph glyph-name="questiondown" unicode="&#xbf;" horiz-adv-x="524" 
d="M274 488q-15 0 -24.5 9t-9.5 25q0 15 9 25q11 8 25 8t24 -9q9 -10 9 -24q0 -15 -9.5 -24.5t-23.5 -9.5zM256 -187q-93 0 -153 49.5t-60 140.5q0 100 54 156t158 87v143h36v-167q-52 -16 -84 -30.5t-64.5 -39t-47.5 -61.5t-15 -88q0 -74 50 -114.5t126 -40.5
q95 0 143 41.5t61 135.5l33 -16q-15 -102 -73.5 -149t-163.5 -47z" />
    <glyph glyph-name="Agrave" unicode="&#xc0;" horiz-adv-x="819" 
d="M443 784l-106 177h43l102 -177h-39zM410 739l354 -739h-41l-112 234h-403l-111 -234h-42zM594 268l-184 388l-185 -388h369z" />
    <glyph glyph-name="Aacute" unicode="&#xc1;" horiz-adv-x="819" 
d="M377 784h-40l103 177h42zM410 739l354 -739h-41l-112 234h-403l-111 -234h-42zM594 268l-184 388l-185 -388h369z" />
    <glyph glyph-name="Acircumflex" unicode="&#xc2;" horiz-adv-x="819" 
d="M395 956h29l131 -172h-43l-102 131l-102 -131h-44zM410 739l354 -739h-41l-112 234h-403l-111 -234h-42zM594 268l-184 388l-185 -388h369z" />
    <glyph glyph-name="Atilde" unicode="&#xc3;" horiz-adv-x="819" 
d="M555 910h36q-10 -53 -32 -80.5t-71 -27.5q-52 0 -92 40q-31 33 -66 33q-33 0 -45.5 -18.5t-18.5 -55.5h-37q10 54 32 81.5t71 27.5q30 0 47.5 -8.5t43.5 -32.5q33 -33 65 -33t45 18t22 56zM410 739l354 -739h-41l-112 234h-403l-111 -234h-42zM594 268l-184 388
l-185 -388h369z" />
    <glyph glyph-name="Adieresis" unicode="&#xc4;" horiz-adv-x="819" 
d="M311 867q13 0 24 -9q9 -11 9 -24q0 -15 -9.5 -24t-23.5 -9t-23.5 9.5t-9.5 23.5t9 23.5t24 9.5zM508 867q15 0 24 -9q9 -11 9 -24q0 -15 -9 -24t-24 -9t-24.5 9t-9.5 24q0 14 10 25q11 8 24 8zM410 739l354 -739h-41l-112 234h-403l-111 -234h-42zM594 268l-184 388
l-185 -388h369z" />
    <glyph glyph-name="Aring" unicode="&#xc5;" horiz-adv-x="819" 
d="M410 967q42 0 69.5 -26.5t27.5 -68.5t-27.5 -69t-69.5 -27t-69.5 27t-27.5 69q0 41 28 68t69 27zM410 932q-26 0 -43 -17t-17 -43t17 -44t43 -18t43.5 18t17.5 44t-17.5 43t-43.5 17zM410 739l354 -739h-41l-112 234h-403l-111 -234h-42zM594 268l-184 388l-185 -388h369
z" />
    <glyph glyph-name="AE" unicode="&#xc6;" horiz-adv-x="970" 
d="M948 0h-547v234h-193l-111 -234h-42l349 726h544v-34h-509v-312h386v-35h-386v-311h509v-34zM401 268v365l-176 -365h176z" />
    <glyph glyph-name="Ccedilla" unicode="&#xc7;" horiz-adv-x="822" 
d="M729 227l38 -1q-35 -101 -118 -164.5t-197 -71.5q67 -44 67 -109q0 -46 -29.5 -73t-74.5 -27q-39 0 -62 11v-1q-29 13 -51 45l21 29q22 -28 41 -39.5t51 -11.5q30 0 50 18q19 21 19 48q0 58 -95 110q-148 11 -241 114.5t-93 257.5q0 162 101.5 267.5t264.5 105.5
q113 0 200 -53t131 -146l-40 -1q-41 77 -117 121.5t-174 44.5q-144 0 -237 -96t-93 -243q0 -145 92 -242t238 -97q108 0 189.5 55t118.5 149z" />
    <glyph glyph-name="Egrave" unicode="&#xc8;" horiz-adv-x="656" 
d="M362 784l-106 177h43l102 -177h-39zM479 345h-386v-311h508v-34h-546v726h546v-34h-508v-312h386v-35z" />
    <glyph glyph-name="Eacute" unicode="&#xc9;" horiz-adv-x="656" 
d="M296 784h-40l103 177h42zM479 345h-386v-311h508v-34h-546v726h546v-34h-508v-312h386v-35z" />
    <glyph glyph-name="Ecircumflex" unicode="&#xca;" horiz-adv-x="656" 
d="M314 956h30l130 -172h-43l-102 131l-102 -131h-44zM479 345h-386v-311h508v-34h-546v726h546v-34h-508v-312h386v-35z" />
    <glyph glyph-name="Edieresis" unicode="&#xcb;" horiz-adv-x="656" 
d="M230 867q14 0 24 -9q9 -11 9 -24q0 -15 -9.5 -24t-23.5 -9t-23.5 9.5t-9.5 23.5t9 23.5t24 9.5zM427 867q15 0 25 -9q8 -11 8 -24q0 -15 -9 -24t-24 -9t-24.5 9t-9.5 24q0 14 10 25q11 8 24 8zM479 345h-386v-311h508v-34h-546v726h546v-34h-508v-312h386v-35z" />
    <glyph glyph-name="Igrave" unicode="&#xcc;" horiz-adv-x="160" 
d="M114 784l-106 177h43l102 -177h-39zM62 0v726h37v-726h-37z" />
    <glyph glyph-name="Iacute" unicode="&#xcd;" horiz-adv-x="160" 
d="M48 784h-40l103 177h42zM62 0v726h37v-726h-37z" />
    <glyph glyph-name="Icircumflex" unicode="&#xce;" horiz-adv-x="162" 
d="M68 956h29l130 -172h-43l-102 131l-102 -131h-44zM63 0v726h37v-726h-37z" />
    <glyph glyph-name="Idieresis" unicode="&#xcf;" horiz-adv-x="140" 
d="M-29 867q14 0 23.5 -9.5t9.5 -23.5t-9.5 -23.5t-23.5 -9.5t-23.5 9t-9.5 24q0 13 9 24q11 9 24 9zM169 867q15 0 25 -9q8 -9 8 -24t-9 -24t-24 -9t-24.5 9t-9.5 24q0 14 10 25q11 8 24 8zM52 0v726h37v-726h-37z" />
    <glyph glyph-name="Eth" unicode="&#xd0;" horiz-adv-x="708" 
d="M296 0h-244v444h-131v37h131v245h244q175 0 266 -93.5t91 -268.5q0 -364 -357 -364zM296 692h-208v-211h153v-37h-153v-410h208q321 0 321 330q0 154 -81 243q-83 85 -240 85z" />
    <glyph glyph-name="Ntilde" unicode="&#xd1;" horiz-adv-x="660" 
d="M475 910h36q-10 -53 -32 -80.5t-71 -27.5q-51 0 -92 40q-31 33 -66 33q-32 0 -45 -18.5t-19 -55.5h-37q10 54 32 81.5t71 27.5q30 0 47.5 -8.5t43.5 -32.5q33 -33 65 -33t45 18t22 56zM569 59l-1 667h37v-726h-39l-475 667l1 -667h-37v726h38z" />
    <glyph glyph-name="Ograve" unicode="&#xd2;" horiz-adv-x="844" 
d="M455 784l-106 177h43l102 -177h-39zM421 -11q-160 0 -263 105t-103 268q0 162 101.5 267.5t264.5 105.5q161 0 264.5 -104.5t103.5 -268.5q0 -162 -102.5 -267.5t-265.5 -105.5zM421 23q146 0 239 95.5t93 243.5q0 147 -92 243t-240 96q-144 0 -237 -96t-93 -243
q0 -145 92 -242t238 -97z" />
    <glyph glyph-name="Oacute" unicode="&#xd3;" horiz-adv-x="844" 
d="M389 784h-40l103 177h42zM421 -11q-160 0 -263 105t-103 268q0 162 101.5 267.5t264.5 105.5q161 0 264.5 -104.5t103.5 -268.5q0 -162 -102.5 -267.5t-265.5 -105.5zM421 23q146 0 239 95.5t93 243.5q0 147 -92 243t-240 96q-144 0 -237 -96t-93 -243q0 -145 92 -242
t238 -97z" />
    <glyph glyph-name="Ocircumflex" unicode="&#xd4;" horiz-adv-x="844" 
d="M408 956h29l130 -172h-43l-102 131l-102 -131h-44zM421 -11q-160 0 -263 105t-103 268q0 162 101.5 267.5t264.5 105.5q161 0 264.5 -104.5t103.5 -268.5q0 -162 -102.5 -267.5t-265.5 -105.5zM421 23q146 0 239 95.5t93 243.5q0 147 -92 243t-240 96q-144 0 -237 -96
t-93 -243q0 -145 92 -242t238 -97z" />
    <glyph glyph-name="Otilde" unicode="&#xd5;" horiz-adv-x="844" 
d="M567 910h36q-9 -53 -31.5 -80.5t-71.5 -27.5q-51 0 -91 40q-33 33 -66 33t-46 -18.5t-19 -55.5h-37q10 53 32.5 81t71.5 28q29 0 47 -9t43 -32q33 -33 65 -33q23 0 37 11.5t19 24.5t11 38zM421 -11q-160 0 -263 105t-103 268q0 162 101.5 267.5t264.5 105.5
q161 0 264.5 -104.5t103.5 -268.5q0 -162 -102.5 -267.5t-265.5 -105.5zM421 23q146 0 239 95.5t93 243.5q0 147 -92 243t-240 96q-144 0 -237 -96t-93 -243q0 -145 92 -242t238 -97z" />
    <glyph glyph-name="Odieresis" unicode="&#xd6;" horiz-adv-x="844" 
d="M323 867q15 0 24 -9q9 -11 9 -24q0 -15 -9 -24t-24 -9q-14 0 -23.5 9.5t-9.5 23.5t9.5 23.5t23.5 9.5zM521 867q13 0 24 -9q9 -11 9 -24q0 -15 -9.5 -24t-23.5 -9q-15 0 -24.5 9t-9.5 24t9 25q11 8 25 8zM421 -11q-160 0 -263 105t-103 268q0 162 101.5 267.5
t264.5 105.5q161 0 264.5 -104.5t103.5 -268.5q0 -162 -102.5 -267.5t-265.5 -105.5zM421 23q146 0 239 95.5t93 243.5q0 147 -92 243t-240 96q-144 0 -237 -96t-93 -243q0 -145 92 -242t238 -97z" />
    <glyph glyph-name="multiply" unicode="&#xd7;" horiz-adv-x="682" 
d="M341 373l177 176l28 -28l-176 -177l175 -176l-27 -30l-177 177l-176 -177l-29 30l177 176l-177 177l29 27z" />
    <glyph glyph-name="Oslash" unicode="&#xd8;" horiz-adv-x="844" 
d="M323 0l-25 -75h-38l27 86q-18 6 -54 25q-87 49 -132.5 135.5t-45.5 190.5q0 162 101.5 267.5t264.5 105.5q56 0 100 -11l25 77h38l-28 -87q109 -38 171 -135t62 -217q0 -162 -102.5 -267.5t-265.5 -105.5q-55 0 -98 11zM298 44l212 648q-42 9 -89 9q-144 0 -237 -96
t-93 -243q0 -107 55 -194t152 -124zM421 23q146 0 239 95.5t93 243.5q0 97 -43 175q-29 54 -67 86t-98 58l-211 -648q45 -10 87 -10z" />
    <glyph glyph-name="Ugrave" unicode="&#xd9;" horiz-adv-x="662" 
d="M365 784l-106 177h43l102 -177h-39zM570 234v492h37v-492q0 -244 -276 -244t-276 244v492h37v-492q0 -210 239 -210q116 0 177.5 49t61.5 161z" />
    <glyph glyph-name="Uacute" unicode="&#xda;" horiz-adv-x="662" 
d="M299 784h-40l103 177h42zM570 234v492h37v-492q0 -244 -276 -244t-276 244v492h37v-492q0 -210 239 -210q116 0 177.5 49t61.5 161z" />
    <glyph glyph-name="Ucircumflex" unicode="&#xdb;" horiz-adv-x="662" 
d="M317 956h29l131 -172h-43l-102 131l-102 -131h-44zM570 234v492h37v-492q0 -244 -276 -244t-276 244v492h37v-492q0 -210 239 -210q116 0 177.5 49t61.5 161z" />
    <glyph glyph-name="Udieresis" unicode="&#xdc;" horiz-adv-x="662" 
d="M233 867q13 0 24 -9q9 -11 9 -24q0 -15 -9.5 -24t-23.5 -9t-23.5 9.5t-9.5 23.5t9 23.5t24 9.5zM430 867q15 0 24 -9q9 -11 9 -24q0 -15 -9 -24t-24 -9t-24.5 9t-9.5 24q0 14 10 25q11 8 24 8zM570 234v492h37v-492q0 -244 -276 -244t-276 244v492h37v-492
q0 -210 239 -210q116 0 177.5 49t61.5 161z" />
    <glyph glyph-name="Yacute" unicode="&#xdd;" horiz-adv-x="705" 
d="M320 784h-39l103 177h42zM353 317l253 409h44l-280 -445v-281h-35v281l-280 445h44z" />
    <glyph glyph-name="germandbls" unicode="&#xdf;" horiz-adv-x="518" 
d="M382 381q35 -11 68 -49q44 -50 44 -125q0 -91 -65 -146t-158 -55q-75 0 -120 22v39l18 -9q42 -18 102 -18q77 0 131.5 46t54.5 122q0 75 -46.5 115t-122.5 40h-118v34h118q76 0 122.5 40t46.5 115q0 56 -24 88q-24 39 -68 59t-94 20q-166 0 -206 -145v-568h-35v580
q19 84 85 126t156 42q93 0 158 -54.5t65 -146.5q0 -129 -112 -172z" />
    <glyph glyph-name="agrave" unicode="&#xe0;" horiz-adv-x="671" 
d="M264 794h42l101 -175h-38zM580 24q15 0 36 9v-37q-9 -4 -13 -4q-2 -1 -5 -1q-5 -1 -16 -1q-83 0 -91 88q-38 -44 -110.5 -66t-138.5 -22q-48 0 -88 11.5t-69.5 43.5t-29.5 80q0 42 19.5 72.5t54 48t67.5 27t75 15.5l219 34v57q0 73 -59 110.5t-137 37.5t-124.5 -30
t-75.5 -102l-30 24q31 76 87.5 109t142.5 33q98 0 166 -44.5t68 -137.5v-288q0 -67 52 -67zM247 24q37 0 76 7.5t78 23.5t64 46t25 69v117l-202 -31q-105 -16 -152 -49q-43 -34 -43 -82q0 -37 26.5 -61t59 -32t68.5 -8z" />
    <glyph glyph-name="aacute" unicode="&#xe1;" horiz-adv-x="671" 
d="M264 619l102 175h41l-104 -175h-39zM580 24q15 0 36 9v-37q-9 -4 -13 -4q-2 -1 -5 -1q-5 -1 -16 -1q-83 0 -91 88q-38 -44 -110.5 -66t-138.5 -22q-48 0 -88 11.5t-69.5 43.5t-29.5 80q0 42 19.5 72.5t54 48t67.5 27t75 15.5l219 34v57q0 73 -59 110.5t-137 37.5
t-124.5 -30t-75.5 -102l-30 24q31 76 87.5 109t142.5 33q98 0 166 -44.5t68 -137.5v-288q0 -67 52 -67zM247 24q37 0 76 7.5t78 23.5t64 46t25 69v117l-202 -31q-105 -16 -152 -49q-43 -34 -43 -82q0 -37 26.5 -61t59 -32t68.5 -8z" />
    <glyph glyph-name="acircumflex" unicode="&#xe2;" horiz-adv-x="671" 
d="M480 619h-43l-101 130l-101 -130h-44l131 170h28zM580 24q15 0 36 9v-37q-9 -4 -13 -4q-2 -1 -5 -1q-5 -1 -16 -1q-83 0 -91 88q-38 -44 -110.5 -66t-138.5 -22q-48 0 -88 11.5t-69.5 43.5t-29.5 80q0 42 19.5 72.5t54 48t67.5 27t75 15.5l219 34v57q0 73 -59 110.5
t-137 37.5t-124.5 -30t-75.5 -102l-30 24q31 76 87.5 109t142.5 33q98 0 166 -44.5t68 -137.5v-288q0 -67 52 -67zM247 24q37 0 76 7.5t78 23.5t64 46t25 69v117l-202 -31q-105 -16 -152 -49q-43 -34 -43 -82q0 -37 26.5 -61t59 -32t68.5 -8z" />
    <glyph glyph-name="atilde" unicode="&#xe3;" horiz-adv-x="671" 
d="M257 709q-32 0 -45 -18.5t-19 -55.5h-36q8 52 30.5 80t71.5 28q29 0 47 -9t43 -32q34 -32 64 -32q32 0 45 18t22 56h35q-8 -52 -30.5 -80t-71.5 -28q-50 0 -90 40q-33 33 -66 33zM580 24q15 0 36 9v-37q-9 -4 -13 -4q-2 -1 -5 -1q-5 -1 -16 -1q-83 0 -91 88
q-38 -44 -110.5 -66t-138.5 -22q-48 0 -88 11.5t-69.5 43.5t-29.5 80q0 42 19.5 72.5t54 48t67.5 27t75 15.5l219 34v57q0 73 -59 110.5t-137 37.5t-124.5 -30t-75.5 -102l-30 24q31 76 87.5 109t142.5 33q98 0 166 -44.5t68 -137.5v-288q0 -67 52 -67zM247 24q37 0 76 7.5
t78 23.5t64 46t25 69v117l-202 -31q-105 -16 -152 -49q-43 -34 -43 -82q0 -37 26.5 -61t59 -32t68.5 -8z" />
    <glyph glyph-name="adieresis" unicode="&#xe4;" horiz-adv-x="671" 
d="M238 635q-14 0 -23.5 9.5t-9.5 23.5t9 23t24 9t24 -8q8 -9 8 -24t-9 -24t-23 -9zM433 635q-15 0 -24 9t-9 24q0 13 9 25q10 7 24 7q16 0 25 -8q8 -11 8 -24q0 -15 -9 -24t-24 -9zM580 24q15 0 36 9v-37q-9 -4 -13 -4q-2 -1 -5 -1q-5 -1 -16 -1q-83 0 -91 88
q-38 -44 -110.5 -66t-138.5 -22q-48 0 -88 11.5t-69.5 43.5t-29.5 80q0 42 19.5 72.5t54 48t67.5 27t75 15.5l219 34v57q0 73 -59 110.5t-137 37.5t-124.5 -30t-75.5 -102l-30 24q31 76 87.5 109t142.5 33q98 0 166 -44.5t68 -137.5v-288q0 -67 52 -67zM247 24q37 0 76 7.5
t78 23.5t64 46t25 69v117l-202 -31q-105 -16 -152 -49q-43 -34 -43 -82q0 -37 26.5 -61t59 -32t68.5 -8z" />
    <glyph glyph-name="aring" unicode="&#xe5;" horiz-adv-x="671" 
d="M336 611q-41 0 -68.5 26.5t-27.5 67.5t27.5 68t68.5 27q42 0 69 -26.5t27 -68.5t-27 -68t-69 -26zM336 765q-26 0 -43 -17.5t-17 -42.5t17 -42.5t43 -17.5t43.5 17t17.5 43t-17.5 43t-43.5 17zM580 24q15 0 36 9v-37q-9 -4 -13 -4q-2 -1 -5 -1q-5 -1 -16 -1q-83 0 -91 88
q-38 -44 -110.5 -66t-138.5 -22q-48 0 -88 11.5t-69.5 43.5t-29.5 80q0 42 19.5 72.5t54 48t67.5 27t75 15.5l219 34v57q0 73 -59 110.5t-137 37.5t-124.5 -30t-75.5 -102l-30 24q31 76 87.5 109t142.5 33q98 0 166 -44.5t68 -137.5v-288q0 -67 52 -67zM247 24q37 0 76 7.5
t78 23.5t64 46t25 69v117l-202 -31q-105 -16 -152 -49q-43 -34 -43 -82q0 -37 26.5 -61t59 -32t68.5 -8z" />
    <glyph glyph-name="ae" unicode="&#xe6;" horiz-adv-x="1021" 
d="M209 -10q-48 0 -87.5 11.5t-69 43.5t-29.5 80q0 34 13.5 60.5t34 43.5t51.5 29.5t57.5 18.5t59.5 11l218 34v57q0 73 -59 110.5t-137 37.5t-124.5 -30.5t-75.5 -101.5l-30 24q31 76 87.5 109t142.5 33q56 0 102.5 -13.5t83 -47.5t45.5 -85q33 65 94.5 103.5t140.5 38.5
q121 0 195.5 -84t74.5 -220h-501q4 -102 73.5 -165t173.5 -63q139 0 212 111l42 2q-39 -69 -105 -108.5t-149 -39.5q-85 0 -158.5 42.5t-98.5 108.5q-31 -78 -98 -114.5t-179 -36.5zM496 288h465q-3 102 -67 167.5t-167 65.5q-101 0 -164.5 -65.5t-66.5 -167.5zM214 24
q38 0 77 7.5t76.5 23.5t62.5 46t27 69v117l-202 -31q-106 -17 -151 -49q-44 -33 -44 -82q0 -37 26.5 -61t59 -32t68.5 -8z" />
    <glyph glyph-name="ccedilla" unicode="&#xe7;" horiz-adv-x="621" 
d="M323 26q133 0 201 111l42 2q-36 -63 -91.5 -101.5t-124.5 -45.5q63 -42 63 -107q0 -44 -29 -73q-29 -26 -74 -26q-40 0 -64 11.5t-48 42.5l21 30q21 -28 40 -39.5t51 -11.5q30 0 50 17q18 20 18 48q0 55 -94 110q-104 13 -166.5 91.5t-62.5 188.5q0 120 74.5 202
t193.5 82q79 0 142 -40.5t101 -110.5h-41q-31 54 -83.5 84.5t-118.5 30.5q-103 0 -167.5 -71.5t-64.5 -176.5q0 -107 64 -177.5t168 -70.5z" />
    <glyph glyph-name="egrave" unicode="&#xe8;" 
d="M358 619l-105 175h43l101 -175h-39zM538 137h42q-40 -68 -106 -107t-148 -39q-126 0 -198.5 78t-72.5 205q0 120 74.5 202t193.5 82q121 0 196 -84t75 -220h-502q5 -103 68.5 -165.5t165.5 -62.5q139 0 212 111zM323 522q-101 0 -164.5 -65.5t-66.5 -167.5h465
q-3 102 -67 167.5t-167 65.5z" />
    <glyph glyph-name="eacute" unicode="&#xe9;" 
d="M293 619h-40l102 175h42zM538 137h42q-40 -68 -106 -107t-148 -39q-126 0 -198.5 78t-72.5 205q0 120 74.5 202t193.5 82q121 0 196 -84t75 -220h-502q5 -103 68.5 -165.5t165.5 -62.5q139 0 212 111zM323 522q-101 0 -164.5 -65.5t-66.5 -167.5h465q-3 102 -67 167.5
t-167 65.5z" />
    <glyph glyph-name="ecircumflex" unicode="&#xea;" 
d="M340 789l129 -170h-42l-102 130l-101 -130h-43l130 170h29zM538 137h42q-40 -68 -106 -107t-148 -39q-126 0 -198.5 78t-72.5 205q0 120 74.5 202t193.5 82q121 0 196 -84t75 -220h-502q5 -103 68.5 -165.5t165.5 -62.5q139 0 212 111zM323 522q-101 0 -164.5 -65.5
t-66.5 -167.5h465q-3 102 -67 167.5t-167 65.5z" />
    <glyph glyph-name="edieresis" unicode="&#xeb;" 
d="M227 700q15 0 24 -8q9 -10 9 -24q0 -15 -9.5 -24t-23.5 -9t-23.5 9.5t-9.5 23.5t9.5 23t23.5 9zM423 700q15 0 24 -8q9 -10 9 -24q0 -15 -9.5 -24t-23.5 -9q-15 0 -24.5 9t-9.5 24q0 14 10 25q8 7 24 7zM538 137h42q-40 -68 -106 -107t-148 -39q-126 0 -198.5 78
t-72.5 205q0 120 74.5 202t193.5 82q121 0 196 -84t75 -220h-502q5 -103 68.5 -165.5t165.5 -62.5q139 0 212 111zM323 522q-101 0 -164.5 -65.5t-66.5 -167.5h465q-3 102 -67 167.5t-167 65.5z" />
    <glyph glyph-name="igrave" unicode="&#xec;" horiz-adv-x="189" 
d="M128 619l-105 175h42l102 -175h-39zM113 561v-561h-37v561h37z" />
    <glyph glyph-name="iacute" unicode="&#xed;" horiz-adv-x="189" 
d="M23 619l102 175h42l-105 -175h-39zM113 561v-561h-37v561h37z" />
    <glyph glyph-name="icircumflex" unicode="&#xee;" horiz-adv-x="189" 
d="M81 789h29l129 -170h-43l-101 130l-102 -130h-43zM76 0v561h37v-561h-37z" />
    <glyph glyph-name="idieresis" unicode="&#xef;" horiz-adv-x="168" 
d="M-14 700q14 0 24 -7q10 -11 10 -25q0 -15 -9.5 -24t-24.5 -9q-14 0 -23.5 9t-9.5 24q0 14 9 24q8 8 24 8zM183 700q15 0 24 -8q8 -11 8 -24q0 -15 -9 -24t-23 -9q-15 0 -24.5 9t-9.5 24q0 13 9 25q10 7 25 7zM66 0v561h37v-561h-37z" />
    <glyph glyph-name="eth" unicode="&#xf0;" horiz-adv-x="591" 
d="M506 556l134 49l11 -32l-135 -49q22 -70 22 -165q0 -370 -252 -370q-103 0 -167 61t-64 163q0 103 61.5 164t164.5 61q77 0 137 -41.5t81 -110.5q3 30 3 60q0 87 -22 164l-134 -49l-12 32l135 49q-31 76 -78 115t-126 39q-118 0 -159 -113h-38q45 146 197 146
q83 0 141 -41q30 -21 62 -61t38 -71zM452 117q24 45 24 97q0 78 -58.5 133.5t-136.5 55.5q-85 0 -137 -51.5t-52 -137.5q0 -88 53 -139.5t142 -51.5q52 0 96.5 24.5t68.5 69.5z" />
    <glyph glyph-name="ntilde" unicode="&#xf1;" horiz-adv-x="652" 
d="M470 744h36q-9 -52 -31.5 -80t-70.5 -28q-51 0 -91 40q-31 33 -66 33q-32 0 -45 -18.5t-18 -55.5h-37q9 52 31.5 80t70.5 28q30 0 47.5 -9t42.5 -32q34 -32 65 -32q32 0 44.5 18t21.5 56zM96 299v-299h-37l-4 561h37l3 -138q34 62 94.5 98.5t138.5 36.5
q120 0 194.5 -81.5t74.5 -202.5v-274h-34v274q0 105 -65.5 176.5t-169.5 71.5q-96 0 -159.5 -63.5t-72.5 -159.5z" />
    <glyph glyph-name="ograve" unicode="&#xf2;" 
d="M358 619l-105 175h43l101 -175h-39zM55 274q0 120 74.5 202t193.5 82q121 0 196 -82t75 -202q0 -121 -75 -202t-196 -81q-119 0 -193.5 81t-74.5 202zM558 274q0 105 -65 176.5t-170 71.5q-103 0 -167.5 -71.5t-64.5 -176.5q0 -107 64 -177.5t168 -70.5q106 0 170.5 70.5
t64.5 177.5z" />
    <glyph glyph-name="oacute" unicode="&#xf3;" 
d="M293 619h-40l102 175h42zM55 274q0 120 74.5 202t193.5 82q121 0 196 -82t75 -202q0 -121 -75 -202t-196 -81q-119 0 -193.5 81t-74.5 202zM558 274q0 105 -65 176.5t-170 71.5q-103 0 -167.5 -71.5t-64.5 -176.5q0 -107 64 -177.5t168 -70.5q106 0 170.5 70.5
t64.5 177.5z" />
    <glyph glyph-name="ocircumflex" unicode="&#xf4;" 
d="M340 789l129 -170h-42l-102 130l-101 -130h-43l130 170h29zM55 274q0 120 74.5 202t193.5 82q121 0 196 -82t75 -202q0 -121 -75 -202t-196 -81q-119 0 -193.5 81t-74.5 202zM558 274q0 105 -65 176.5t-170 71.5q-103 0 -167.5 -71.5t-64.5 -176.5q0 -107 64 -177.5
t168 -70.5q106 0 170.5 70.5t64.5 177.5z" />
    <glyph glyph-name="otilde" unicode="&#xf5;" 
d="M257 709q-32 0 -45 -18.5t-19 -55.5h-36q8 52 30.5 80t71.5 28q29 0 47 -9t43 -32q34 -32 64 -32q32 0 45 18t22 56h35q-8 -52 -30.5 -80t-71.5 -28q-50 0 -90 40q-33 33 -66 33zM55 274q0 120 74.5 202t193.5 82q121 0 196 -82t75 -202q0 -121 -75 -202t-196 -81
q-119 0 -193.5 81t-74.5 202zM558 274q0 105 -65 176.5t-170 71.5q-103 0 -167.5 -71.5t-64.5 -176.5q0 -107 64 -177.5t168 -70.5q106 0 170.5 70.5t64.5 177.5z" />
    <glyph glyph-name="odieresis" unicode="&#xf6;" 
d="M227 700q15 0 24 -8q9 -10 9 -24q0 -15 -9.5 -24t-23.5 -9t-23.5 9.5t-9.5 23.5t9.5 23t23.5 9zM423 700q15 0 24 -8q9 -10 9 -24q0 -15 -9.5 -24t-23.5 -9q-15 0 -24.5 9t-9.5 24q0 14 10 25q8 7 24 7zM55 274q0 120 74.5 202t193.5 82q121 0 196 -82t75 -202
q0 -121 -75 -202t-196 -81q-119 0 -193.5 81t-74.5 202zM558 274q0 105 -65 176.5t-170 71.5q-103 0 -167.5 -71.5t-64.5 -176.5q0 -107 64 -177.5t168 -70.5q106 0 170.5 70.5t64.5 177.5z" />
    <glyph glyph-name="divide" unicode="&#xf7;" horiz-adv-x="670" 
d="M335 580q13 0 24 -9q9 -11 9 -24q0 -15 -9.5 -24t-23.5 -9t-23.5 9.5t-9.5 23.5t9 23.5t24 9.5zM85 331v34h501v-34h-501zM335 184q13 0 24 -9q9 -9 9 -24q0 -14 -9.5 -23.5t-23.5 -9.5t-23.5 9.5t-9.5 23.5t9 23.5t24 9.5z" />
    <glyph glyph-name="oslash" unicode="&#xf8;" 
d="M377 554l50 154h38l-53 -164q83 -28 132.5 -101.5t49.5 -168.5q0 -121 -75 -202t-196 -81q-43 0 -87 13l-53 -164h-39l58 178q-68 35 -107.5 103t-39.5 153q0 120 74.5 202t193.5 82q31 0 54 -4zM91 274q0 -74 32.5 -133t90.5 -89l152 466q-28 4 -43 4
q-103 0 -167.5 -71.5t-64.5 -176.5zM323 26q106 0 170.5 70.5t64.5 177.5q0 83 -42.5 147.5t-114.5 88.5l-154 -472q39 -12 76 -12z" />
    <glyph glyph-name="ugrave" unicode="&#xf9;" horiz-adv-x="652" 
d="M360 619l-105 175h42l102 -175h-39zM557 246v315h37l3 -563h-35l-4 127q-34 -63 -94.5 -99.5t-138.5 -36.5q-121 0 -195.5 81t-74.5 202v289h36v-289q0 -106 65 -177t169 -71q96 0 159 63.5t73 158.5z" />
    <glyph glyph-name="uacute" unicode="&#xfa;" horiz-adv-x="652" 
d="M295 619h-40l102 175h42zM557 246v315h37l3 -563h-35l-4 127q-34 -63 -94.5 -99.5t-138.5 -36.5q-121 0 -195.5 81t-74.5 202v289h36v-289q0 -106 65 -177t169 -71q96 0 159 63.5t73 158.5z" />
    <glyph glyph-name="ucircumflex" unicode="&#xfb;" horiz-adv-x="652" 
d="M313 789h29l129 -170h-42l-102 130l-101 -130h-43zM557 246v315h37l3 -563h-35l-4 127q-34 -63 -94.5 -99.5t-138.5 -36.5q-121 0 -195.5 81t-74.5 202v289h36v-289q0 -106 65 -177t169 -71q96 0 159 63.5t73 158.5z" />
    <glyph glyph-name="udieresis" unicode="&#xfc;" horiz-adv-x="652" 
d="M229 700q15 0 24 -8q9 -10 9 -24q0 -15 -9.5 -24t-23.5 -9t-23.5 9.5t-9.5 23.5t9.5 23t23.5 9zM425 700q15 0 24 -8q9 -10 9 -24q0 -15 -9.5 -24t-23.5 -9q-15 0 -24.5 9t-9.5 24q0 14 10 25q8 7 24 7zM557 246v315h37l3 -563h-35l-4 127q-34 -63 -94.5 -99.5
t-138.5 -36.5q-121 0 -195.5 81t-74.5 202v289h36v-289q0 -106 65 -177t169 -71q96 0 159 63.5t73 158.5z" />
    <glyph glyph-name="yacute" unicode="&#xfd;" horiz-adv-x="604" 
d="M270 619h-40l102 175h42zM304 55l204 495h41l-270 -651q-27 -63 -60.5 -95t-93.5 -32q-27 0 -55 9v42q28 -16 56 -16q46 0 72 26.5t46 76.5l41 99l-230 541h41z" />
    <glyph glyph-name="ydieresis" unicode="&#xff;" horiz-adv-x="604" 
d="M204 700q15 0 24 -8q9 -10 9 -24q0 -15 -9.5 -24t-23.5 -9t-23.5 9.5t-9.5 23.5t9.5 23t23.5 9zM400 700q15 0 24 -8q9 -10 9 -24q0 -15 -9.5 -24t-23.5 -9q-15 0 -24.5 9t-9.5 24q0 14 10 25q8 7 24 7zM304 55l204 495h41l-270 -651q-27 -63 -60.5 -95t-93.5 -32
q-27 0 -55 9v42q28 -16 56 -16q46 0 72 26.5t46 76.5l41 99l-230 541h41z" />
    <glyph glyph-name="Amacron" unicode="&#x100;" horiz-adv-x="819" 
d="M246 808v34h327v-34h-327zM410 739l354 -739h-41l-112 234h-403l-111 -234h-42zM594 268l-184 388l-185 -388h369z" />
    <glyph glyph-name="amacron" unicode="&#x101;" horiz-adv-x="671" 
d="M173 643v33h325v-33h-325zM580 24q15 0 36 9v-37q-9 -4 -13 -4q-2 -1 -5 -1q-5 -1 -16 -1q-83 0 -91 88q-38 -44 -110.5 -66t-138.5 -22q-48 0 -88 11.5t-69.5 43.5t-29.5 80q0 42 19.5 72.5t54 48t67.5 27t75 15.5l219 34v57q0 73 -59 110.5t-137 37.5t-124.5 -30
t-75.5 -102l-30 24q31 76 87.5 109t142.5 33q98 0 166 -44.5t68 -137.5v-288q0 -67 52 -67zM247 24q37 0 76 7.5t78 23.5t64 46t25 69v117l-202 -31q-105 -16 -152 -49q-43 -34 -43 -82q0 -37 26.5 -61t59 -32t68.5 -8z" />
    <glyph glyph-name="Abreve" unicode="&#x102;" horiz-adv-x="819" 
d="M514 931h34q0 -70 -35.5 -109.5t-103.5 -39.5t-103.5 39.5t-35.5 109.5h34q0 -53 26.5 -83.5t78.5 -30.5t78.5 30.5t26.5 83.5zM410 739l354 -739h-41l-112 234h-403l-111 -234h-42zM594 268l-184 388l-185 -388h369z" />
    <glyph glyph-name="abreve" unicode="&#x103;" horiz-adv-x="671" 
d="M335 617q-68 0 -103 39t-35 108h34q0 -53 26 -83t78 -30t78 30t26 83h34q0 -69 -35 -108t-103 -39zM580 24q15 0 36 9v-37q-9 -4 -13 -4q-2 -1 -5 -1q-5 -1 -16 -1q-83 0 -91 88q-38 -44 -110.5 -66t-138.5 -22q-48 0 -88 11.5t-69.5 43.5t-29.5 80q0 42 19.5 72.5t54 48
t67.5 27t75 15.5l219 34v57q0 73 -59 110.5t-137 37.5t-124.5 -30t-75.5 -102l-30 24q31 76 87.5 109t142.5 33q98 0 166 -44.5t68 -137.5v-288q0 -67 52 -67zM247 24q37 0 76 7.5t78 23.5t64 46t25 69v117l-202 -31q-105 -16 -152 -49q-43 -34 -43 -82q0 -37 26.5 -61
t59 -32t68.5 -8z" />
    <glyph glyph-name="Aogonek" unicode="&#x104;" horiz-adv-x="816" 
d="M750 -154l16 -33q-28 -18 -46 -23.5t-50 -5.5q-45 0 -74.5 24.5t-29.5 69.5q0 90 145 148l-100 208h-403l-111 -234h-42l355 739l354 -739h-38q-70 -34 -93 -57q-31 -31 -31 -65q0 -29 19 -44.5t49 -15.5q46 0 80 28zM594 268l-184 388l-185 -388h369z" />
    <glyph glyph-name="aogonek" unicode="&#x105;" horiz-adv-x="674" 
d="M604 -162l16 -32q-27 -17 -45 -22.5t-50 -5.5q-46 0 -74.5 23.5t-28.5 68.5q0 79 109 133q-36 21 -40 74q-38 -43 -110.5 -65t-138.5 -22q-48 0 -88 11.5t-69.5 43.5t-29.5 80q0 42 19.5 72.5t54 48t67.5 27t75 15.5l219 34v57q0 73 -59 110.5t-137 37.5t-124.5 -30
t-75.5 -102l-30 24q31 76 87.5 109t142.5 33q98 0 166 -44.5t68 -137.5v-288q0 -67 52 -67q15 0 36 9v-37q-9 -4 -13 -4q-2 -1 -5 -1q-5 -1 -16 -1h-6q-67 -34 -89 -55q-29 -29 -29 -65q0 -29 18.5 -44t48.5 -15q45 0 79 27zM247 24q37 0 76 7.5t78 23.5t64 46t25 69v117
l-202 -31q-105 -16 -152 -49q-43 -34 -43 -82q0 -37 26.5 -61t59 -32t68.5 -8z" />
    <glyph glyph-name="Cacute" unicode="&#x106;" horiz-adv-x="822" 
d="M377 784h-40l103 177h42zM421 -11q-160 0 -263 105t-103 268q0 162 101.5 267.5t264.5 105.5q113 0 200 -53t131 -146l-40 -1q-41 77 -117 121.5t-174 44.5q-144 0 -237 -96t-93 -243q0 -145 92 -242t238 -97q108 0 189.5 55t118.5 149l38 -1q-38 -108 -129.5 -172.5
t-216.5 -64.5z" />
    <glyph glyph-name="cacute" unicode="&#x107;" horiz-adv-x="621" 
d="M275 619h-39l102 175h41zM323 -9q-119 0 -193.5 81t-74.5 202q0 120 74.5 202t193.5 82q79 0 142 -40.5t101 -110.5h-41q-31 54 -83.5 84.5t-118.5 30.5q-103 0 -167.5 -71.5t-64.5 -176.5q0 -107 64 -177.5t168 -70.5q133 0 201 111l42 2q-39 -69 -101.5 -108.5
t-141.5 -39.5z" />
    <glyph glyph-name="Ccircumflex" unicode="&#x108;" horiz-adv-x="822" 
d="M395 956h29l131 -172h-43l-102 131l-102 -131h-44zM421 -11q-160 0 -263 105t-103 268q0 162 101.5 267.5t264.5 105.5q113 0 200 -53t131 -146l-40 -1q-41 77 -117 121.5t-174 44.5q-144 0 -237 -96t-93 -243q0 -145 92 -242t238 -97q108 0 189.5 55t118.5 149l38 -1
q-38 -108 -129.5 -172.5t-216.5 -64.5z" />
    <glyph glyph-name="ccircumflex" unicode="&#x109;" horiz-adv-x="621" 
d="M294 789h29l129 -170h-43l-101 130l-101 -130h-44zM323 -9q-119 0 -193.5 81t-74.5 202q0 120 74.5 202t193.5 82q79 0 142 -40.5t101 -110.5h-41q-31 54 -83.5 84.5t-118.5 30.5q-103 0 -167.5 -71.5t-64.5 -176.5q0 -107 64 -177.5t168 -70.5q133 0 201 111l42 2
q-39 -69 -101.5 -108.5t-141.5 -39.5z" />
    <glyph glyph-name="Cdotaccent" unicode="&#x10a;" horiz-adv-x="822" 
d="M416 866q13 0 24 -8q9 -11 9 -25t-9.5 -23.5t-23.5 -9.5t-23.5 9.5t-9.5 23.5q0 15 9.5 24t23.5 9zM421 -11q-160 0 -263 105t-103 268q0 162 101.5 267.5t264.5 105.5q113 0 200 -53t131 -146l-40 -1q-41 77 -117 121.5t-174 44.5q-144 0 -237 -96t-93 -243
q0 -145 92 -242t238 -97q108 0 189.5 55t118.5 149l38 -1q-38 -108 -129.5 -172.5t-216.5 -64.5z" />
    <glyph glyph-name="cdotaccent" unicode="&#x10b;" horiz-adv-x="621" 
d="M307 700q15 0 24 -8q9 -10 9 -24q0 -15 -9.5 -24t-23.5 -9t-23.5 9.5t-9.5 23.5t9.5 23t23.5 9zM323 -9q-119 0 -193.5 81t-74.5 202q0 120 74.5 202t193.5 82q79 0 142 -40.5t101 -110.5h-41q-31 54 -83.5 84.5t-118.5 30.5q-103 0 -167.5 -71.5t-64.5 -176.5
q0 -107 64 -177.5t168 -70.5q133 0 201 111l42 2q-39 -69 -101.5 -108.5t-141.5 -39.5z" />
    <glyph glyph-name="Ccaron" unicode="&#x10c;" horiz-adv-x="822" 
d="M418 825l102 131h43l-130 -172h-30l-131 172h44zM421 -11q-160 0 -263 105t-103 268q0 162 101.5 267.5t264.5 105.5q113 0 200 -53t131 -146l-40 -1q-41 77 -117 121.5t-174 44.5q-144 0 -237 -96t-93 -243q0 -145 92 -242t238 -97q108 0 189.5 55t118.5 149l38 -1
q-38 -108 -129.5 -172.5t-216.5 -64.5z" />
    <glyph glyph-name="ccaron" unicode="&#x10d;" horiz-adv-x="621" 
d="M308 659l101 130h43l-129 -170h-29l-131 170h44zM323 -9q-119 0 -193.5 81t-74.5 202q0 120 74.5 202t193.5 82q79 0 142 -40.5t101 -110.5h-41q-31 54 -83.5 84.5t-118.5 30.5q-103 0 -167.5 -71.5t-64.5 -176.5q0 -107 64 -177.5t168 -70.5q133 0 201 111l42 2
q-39 -69 -101.5 -108.5t-141.5 -39.5z" />
    <glyph glyph-name="Dcaron" unicode="&#x10e;" horiz-adv-x="711" 
d="M356 825l102 131h43l-130 -172h-29l-132 172h44zM299 0h-244v726h244q175 0 266 -93.5t91 -268.5q0 -364 -357 -364zM299 692h-208v-658h208q321 0 321 330q0 154 -81 243q-83 85 -240 85z" />
    <glyph glyph-name="dcaron" unicode="&#x10f;" horiz-adv-x="831" 
d="M733 750q45 0 45 -58q0 -78 -73 -119l-33 24q74 29 74 89v1q-5 -4 -15 -4q-13 0 -22 10t-9 24t9.5 23.5t23.5 9.5zM557 425v295h37v-720h-37v123q-35 -62 -94 -97t-138 -35q-121 0 -195.5 81t-74.5 202t75 202.5t195 81.5q79 0 138 -35t94 -98zM557 247v52
q-10 97 -73 160t-159 63q-104 0 -169 -71.5t-65 -176.5q0 -106 64.5 -177t169.5 -71q96 0 159 63t73 158z" />
    <glyph glyph-name="Dcroat" unicode="&#x110;" horiz-adv-x="806" 
d="M394 0h-244v346h-144v35h144v345h244q175 0 266 -93.5t91 -268.5q0 -364 -357 -364zM394 692h-208v-311h148v-35h-148v-312h208q321 0 321 330q0 154 -81 243q-83 85 -240 85z" />
    <glyph glyph-name="dcroat" unicode="&#x111;" horiz-adv-x="743" 
d="M55 274q0 121 75 202.5t195 81.5q79 0 138 -35t94 -98v137h-142v36h142v122h37v-122h138v-36h-138v-562h-37v123q-35 -62 -94 -97t-138 -35q-121 0 -195.5 81t-74.5 202zM557 247v52q-10 97 -73 160t-159 63q-104 0 -169 -71.5t-65 -176.5q0 -106 64.5 -177t169.5 -71
q96 0 159 63t73 158z" />
    <glyph glyph-name="Emacron" unicode="&#x112;" horiz-adv-x="656" 
d="M165 808v34h327v-34h-327zM479 345h-386v-311h508v-34h-546v726h546v-34h-508v-312h386v-35z" />
    <glyph glyph-name="emacron" unicode="&#x113;" 
d="M487 643h-325v33h325v-33zM538 137h42q-40 -68 -106 -107t-148 -39q-126 0 -198.5 78t-72.5 205q0 120 74.5 202t193.5 82q121 0 196 -84t75 -220h-502q5 -103 68.5 -165.5t165.5 -62.5q139 0 212 111zM323 522q-101 0 -164.5 -65.5t-66.5 -167.5h465q-3 102 -67 167.5
t-167 65.5z" />
    <glyph glyph-name="Ebreve" unicode="&#x114;" horiz-adv-x="656" 
d="M433 931h34q0 -70 -35.5 -109.5t-103.5 -39.5t-103.5 39.5t-35.5 109.5h34q0 -53 26.5 -83.5t78.5 -30.5t78.5 30.5t26.5 83.5zM479 345h-386v-311h508v-34h-546v726h546v-34h-508v-312h386v-35z" />
    <glyph glyph-name="ebreve" unicode="&#x115;" 
d="M429 764h33q0 -69 -35 -108t-103 -39t-102.5 39t-34.5 108h33q0 -53 26 -83t78 -30t78.5 30t26.5 83zM538 137h42q-40 -68 -106 -107t-148 -39q-126 0 -198.5 78t-72.5 205q0 120 74.5 202t193.5 82q121 0 196 -84t75 -220h-502q5 -103 68.5 -165.5t165.5 -62.5
q139 0 212 111zM323 522q-101 0 -164.5 -65.5t-66.5 -167.5h465q-3 102 -67 167.5t-167 65.5z" />
    <glyph glyph-name="Edotaccent" unicode="&#x116;" horiz-adv-x="656" 
d="M328 867q15 0 24 -9q9 -11 9 -24q0 -15 -9.5 -24t-23.5 -9t-23.5 9.5t-9.5 23.5t9.5 23.5t23.5 9.5zM479 345h-386v-311h508v-34h-546v726h546v-34h-508v-312h386v-35z" />
    <glyph glyph-name="edotaccent" unicode="&#x117;" 
d="M324 700q16 0 25 -8q8 -11 8 -24q0 -15 -9 -24t-24 -9q-14 0 -23 9.5t-9 23.5t9 23t23 9zM538 137h42q-40 -68 -106 -107t-148 -39q-126 0 -198.5 78t-72.5 205q0 120 74.5 202t193.5 82q121 0 196 -84t75 -220h-502q5 -103 68.5 -165.5t165.5 -62.5q139 0 212 111z
M323 522q-101 0 -164.5 -65.5t-66.5 -167.5h465q-3 102 -67 167.5t-167 65.5z" />
    <glyph glyph-name="Eogonek" unicode="&#x118;" horiz-adv-x="659" 
d="M93 380h386v-35h-386v-311h508v-34h-37q-62 -30 -93 -57q-30 -32 -30 -65q0 -29 19 -44.5t49 -15.5q45 0 80 28l15 -33q-28 -18 -45.5 -23.5t-49.5 -5.5q-45 0 -74.5 24.5t-29.5 69.5q0 72 88 122h-438v726h546v-34h-508v-312z" />
    <glyph glyph-name="eogonek" unicode="&#x119;" 
d="M326 26q139 0 212 111h42q-75 -125 -213 -143l1 -2q-23 -12 -36.5 -20t-32 -22.5t-27.5 -32t-9 -38.5q0 -29 18.5 -44t48.5 -15q44 0 79 27l16 -33q-28 -17 -46 -22.5t-49 -5.5q-46 0 -74.5 24t-28.5 69q0 68 72 113q-114 9 -179 86t-65 196q0 120 74.5 202t193.5 82
q121 0 196 -84t75 -220h-502q5 -103 68.5 -165.5t165.5 -62.5zM323 522q-101 0 -164.5 -65.5t-66.5 -167.5h465q-3 102 -67 167.5t-167 65.5z" />
    <glyph glyph-name="Ecaron" unicode="&#x11a;" horiz-adv-x="656" 
d="M329 825l102 131h43l-130 -172h-30l-131 172h44zM479 345h-386v-311h508v-34h-546v726h546v-34h-508v-312h386v-35z" />
    <glyph glyph-name="ecaron" unicode="&#x11b;" 
d="M325 659l102 130h42l-129 -170h-29l-130 170h43zM538 137h42q-40 -68 -106 -107t-148 -39q-126 0 -198.5 78t-72.5 205q0 120 74.5 202t193.5 82q121 0 196 -84t75 -220h-502q5 -103 68.5 -165.5t165.5 -62.5q139 0 212 111zM323 522q-101 0 -164.5 -65.5t-66.5 -167.5
h465q-3 102 -67 167.5t-167 65.5z" />
    <glyph glyph-name="Gcircumflex" unicode="&#x11c;" horiz-adv-x="817" 
d="M394 956h29l131 -172h-43l-102 131l-102 -131h-44zM463 380h299v-380h-35v145q-48 -73 -127.5 -114.5t-178.5 -41.5q-160 0 -263 105t-103 268q0 162 101.5 267.5t264.5 105.5q113 0 200 -53t131 -146l-40 -1q-41 77 -117 121.5t-174 44.5q-144 0 -237 -96t-93 -243
q0 -145 92 -242t238 -97q106 0 187.5 54t118.5 145v123h-264v35z" />
    <glyph glyph-name="gcircumflex" unicode="&#x11d;" 
d="M311 789h29l129 -170h-42l-102 130l-101 -130h-43zM556 426v125h38l-1 -537q-5 -117 -78.5 -194t-191.5 -77q-89 0 -155 49t-98 131h37q29 -67 85 -106t131 -39q100 0 164 67.5t69 168.5v107q-34 -61 -93.5 -96t-137.5 -35q-121 0 -195.5 81.5t-74.5 201.5
q0 121 74.5 202.5t195.5 81.5q78 0 137.5 -35t93.5 -96zM556 238v71q-12 93 -74.5 152.5t-156.5 59.5q-104 0 -169 -71t-65 -177t65 -177t169 -71q93 0 156 60.5t75 152.5z" />
    <glyph glyph-name="Gbreve" unicode="&#x11e;" horiz-adv-x="817" 
d="M513 931h34q0 -70 -35.5 -109.5t-103.5 -39.5q-69 0 -104 39.5t-35 109.5h34q0 -53 26.5 -83.5t78.5 -30.5t78.5 30.5t26.5 83.5zM463 380h299v-380h-35v145q-48 -73 -127.5 -114.5t-178.5 -41.5q-160 0 -263 105t-103 268q0 162 101.5 267.5t264.5 105.5q113 0 200 -53
t131 -146l-40 -1q-41 77 -117 121.5t-174 44.5q-144 0 -237 -96t-93 -243q0 -145 92 -242t238 -97q106 0 187.5 54t118.5 145v123h-264v35z" />
    <glyph glyph-name="gbreve" unicode="&#x11f;" 
d="M429 764h33q0 -69 -35 -108t-103 -39t-102.5 39t-34.5 108h33q0 -53 26 -83t78 -30t78.5 30t26.5 83zM556 426v125h38l-1 -537q-5 -117 -78.5 -194t-191.5 -77q-89 0 -155 49t-98 131h37q29 -67 85 -106t131 -39q100 0 164 67.5t69 168.5v107q-34 -61 -93.5 -96
t-137.5 -35q-121 0 -195.5 81.5t-74.5 201.5q0 121 74.5 202.5t195.5 81.5q78 0 137.5 -35t93.5 -96zM556 238v71q-12 93 -74.5 152.5t-156.5 59.5q-104 0 -169 -71t-65 -177t65 -177t169 -71q93 0 156 60.5t75 152.5z" />
    <glyph glyph-name="Gdotaccent" unicode="&#x120;" horiz-adv-x="817" 
d="M408 867q14 0 24 -9q9 -11 9 -24q0 -15 -9.5 -24t-23.5 -9t-23.5 9.5t-9.5 23.5t9 23.5t24 9.5zM463 380h299v-380h-35v145q-48 -73 -127.5 -114.5t-178.5 -41.5q-160 0 -263 105t-103 268q0 162 101.5 267.5t264.5 105.5q113 0 200 -53t131 -146l-40 -1
q-41 77 -117 121.5t-174 44.5q-144 0 -237 -96t-93 -243q0 -145 92 -242t238 -97q106 0 187.5 54t118.5 145v123h-264v35z" />
    <glyph glyph-name="gdotaccent" unicode="&#x121;" 
d="M324 700q16 0 25 -8q8 -11 8 -24q0 -15 -9 -24t-24 -9q-14 0 -23 9.5t-9 23.5t9 23t23 9zM556 426v125h38l-1 -537q-5 -117 -78.5 -194t-191.5 -77q-89 0 -155 49t-98 131h37q29 -67 85 -106t131 -39q100 0 164 67.5t69 168.5v107q-34 -61 -93.5 -96t-137.5 -35
q-121 0 -195.5 81.5t-74.5 201.5q0 121 74.5 202.5t195.5 81.5q78 0 137.5 -35t93.5 -96zM556 238v71q-12 93 -74.5 152.5t-156.5 59.5q-104 0 -169 -71t-65 -177t65 -177t169 -71q93 0 156 60.5t75 152.5z" />
    <glyph glyph-name="Hcircumflex" unicode="&#x124;" horiz-adv-x="662" 
d="M317 956h29l131 -172h-43l-102 131l-102 -131h-44zM92 380h478v346h37v-726h-37v345h-478v-345h-37v726h37v-346z" />
    <glyph glyph-name="hcircumflex" unicode="&#x125;" 
d="M311 789h29l129 -170h-42l-102 130l-101 -130h-43zM92 299v-299h-37v720h37v-295q34 63 93 98t138 35q121 0 196 -82t75 -202v-274h-36v274q0 105 -65.5 176.5t-169.5 71.5q-96 0 -158.5 -63t-72.5 -160z" />
    <glyph glyph-name="Hbar" unicode="&#x126;" horiz-adv-x="662" 
d="M168 808v34h327v-34h-327zM92 380h478v346h37v-726h-37v345h-478v-345h-37v726h37v-346z" />
    <glyph glyph-name="hbar" unicode="&#x127;" 
d="M92 299v-299h-37v720h37v-295q34 63 93 98t138 35q121 0 196 -82t75 -202v-274h-36v274q0 105 -65.5 176.5t-169.5 71.5q-96 0 -158.5 -63t-72.5 -160zM162 643v33h325v-33h-325z" />
    <glyph glyph-name="Itilde" unicode="&#x128;" horiz-adv-x="142" 
d="M216 910h36q-10 -53 -32 -80.5t-71 -27.5q-51 0 -91 40q-33 33 -67 33q-32 0 -45 -18.5t-19 -55.5h-37q10 54 32 81.5t71 27.5q30 0 48 -9t43 -32q33 -33 65 -33q23 0 37 11.5t19 24t11 38.5zM53 0v726h37v-726h-37z" />
    <glyph glyph-name="itilde" unicode="&#x129;" horiz-adv-x="169" 
d="M228 744h36q-9 -53 -31.5 -80.5t-71.5 -27.5q-29 0 -47.5 8.5t-41.5 30.5q-24 22 -33 26q-14 8 -34 8q-32 0 -45 -18.5t-19 -55.5h-36q8 52 31 80t71 28q32 0 51 -11q14 -6 53 -37q29 -25 50 -25q32 0 45 18t22 56zM66 0v561h37v-561h-37z" />
    <glyph glyph-name="Imacron" unicode="&#x12a;" horiz-adv-x="139" 
d="M-95 808v34h329v-34h-329zM51 0v726h37v-726h-37z" />
    <glyph glyph-name="imacron" unicode="&#x12b;" horiz-adv-x="166" 
d="M-80 643v33h326v-33h-326zM65 0v561h37v-561h-37z" />
    <glyph glyph-name="Iogonek" unicode="&#x12e;" horiz-adv-x="145" 
d="M-33 -66q-30 -28 -30 -65q0 -59 68 -59q46 0 80 27l15 -33q-27 -17 -44.5 -22.5t-50.5 -5.5q-46 0 -75 24t-29 69q0 30 13 54.5t37.5 42t47 29t52.5 22.5v709h37v-723q-86 -36 -121 -69z" />
    <glyph glyph-name="iogonek" unicode="&#x12f;" horiz-adv-x="174" 
d="M83 654q-13 0 -23 10t-10 23q0 14 9.5 23.5t23.5 9.5q15 0 24 -9q9 -11 9 -24q0 -14 -9.5 -23.5t-23.5 -9.5zM103 -162l16 -32q-27 -17 -45 -22.5t-50 -5.5q-46 0 -74.5 23.5t-28.5 68.5q0 54 40.5 88t103.5 59v544h37v-558q-82 -37 -115 -68q-30 -29 -30 -65
q0 -29 18.5 -44t48.5 -15q45 0 79 27z" />
    <glyph glyph-name="Idotaccent" unicode="&#x130;" horiz-adv-x="146" 
d="M73 867q15 0 25 -9q8 -11 8 -24q0 -15 -9 -24t-24 -9q-14 0 -23.5 9.5t-9.5 23.5t9.5 23.5t23.5 9.5zM55 0v726h37v-726h-37z" />
    <glyph glyph-name="dotlessi" unicode="&#x131;" horiz-adv-x="177" 
d="M70 0v561h37v-561h-37z" />
    <glyph glyph-name="Nacute" unicode="&#x143;" horiz-adv-x="660" 
d="M298 784h-40l103 177h42zM569 59l-1 667h37v-726h-39l-475 667l1 -667h-37v726h38z" />
    <glyph glyph-name="nacute" unicode="&#x144;" horiz-adv-x="652" 
d="M295 619h-40l102 175h42zM96 299v-299h-37l-4 561h37l3 -138q34 62 94.5 98.5t138.5 36.5q120 0 194.5 -81.5t74.5 -202.5v-274h-34v274q0 105 -65.5 176.5t-169.5 71.5q-96 0 -159.5 -63.5t-72.5 -159.5z" />
    <glyph glyph-name="Ncaron" unicode="&#x147;" horiz-adv-x="660" 
d="M331 825l102 131h43l-130 -172h-30l-131 172h44zM569 59l-1 667h37v-726h-39l-475 667l1 -667h-37v726h38z" />
    <glyph glyph-name="ncaron" unicode="&#x148;" horiz-adv-x="652" 
d="M327 659l102 130h42l-129 -170h-29l-130 170h43zM96 299v-299h-37l-4 561h37l3 -138q34 62 94.5 98.5t138.5 36.5q120 0 194.5 -81.5t74.5 -202.5v-274h-34v274q0 105 -65.5 176.5t-169.5 71.5q-96 0 -159.5 -63.5t-72.5 -159.5z" />
    <glyph glyph-name="Omacron" unicode="&#x14c;" horiz-adv-x="844" 
d="M258 808v34h328v-34h-328zM421 -11q-160 0 -263 105t-103 268q0 162 101.5 267.5t264.5 105.5q161 0 264.5 -104.5t103.5 -268.5q0 -162 -102.5 -267.5t-265.5 -105.5zM421 23q146 0 239 95.5t93 243.5q0 147 -92 243t-240 96q-144 0 -237 -96t-93 -243q0 -145 92 -242
t238 -97z" />
    <glyph glyph-name="omacron" unicode="&#x14d;" 
d="M487 643h-325v33h325v-33zM55 274q0 120 74.5 202t193.5 82q121 0 196 -82t75 -202q0 -121 -75 -202t-196 -81q-119 0 -193.5 81t-74.5 202zM558 274q0 105 -65 176.5t-170 71.5q-103 0 -167.5 -71.5t-64.5 -176.5q0 -107 64 -177.5t168 -70.5q106 0 170.5 70.5
t64.5 177.5z" />
    <glyph glyph-name="Obreve" unicode="&#x14e;" horiz-adv-x="844" 
d="M526 931h34q0 -70 -35 -109.5t-104 -39.5q-68 0 -103.5 39.5t-35.5 109.5h34q0 -53 26.5 -83.5t78.5 -30.5t78.5 30.5t26.5 83.5zM421 -11q-160 0 -263 105t-103 268q0 162 101.5 267.5t264.5 105.5q161 0 264.5 -104.5t103.5 -268.5q0 -162 -102.5 -267.5t-265.5 -105.5
zM421 23q146 0 239 95.5t93 243.5q0 147 -92 243t-240 96q-144 0 -237 -96t-93 -243q0 -145 92 -242t238 -97z" />
    <glyph glyph-name="obreve" unicode="&#x14f;" 
d="M429 764h33q0 -69 -35 -108t-103 -39t-102.5 39t-34.5 108h33q0 -53 26 -83t78 -30t78.5 30t26.5 83zM55 274q0 120 74.5 202t193.5 82q121 0 196 -82t75 -202q0 -121 -75 -202t-196 -81q-119 0 -193.5 81t-74.5 202zM558 274q0 105 -65 176.5t-170 71.5
q-103 0 -167.5 -71.5t-64.5 -176.5q0 -107 64 -177.5t168 -70.5q106 0 170.5 70.5t64.5 177.5z" />
    <glyph glyph-name="Ohungarumlaut" unicode="&#x150;" horiz-adv-x="844" 
d="M279 784l103 177h42l-105 -177h-40zM419 784l104 177h41l-105 -177h-40zM421 -11q-160 0 -263 105t-103 268q0 162 101.5 267.5t264.5 105.5q161 0 264.5 -104.5t103.5 -268.5q0 -162 -102.5 -267.5t-265.5 -105.5zM421 23q146 0 239 95.5t93 243.5q0 147 -92 243
t-240 96q-144 0 -237 -96t-93 -243q0 -145 92 -242t238 -97z" />
    <glyph glyph-name="ohungarumlaut" unicode="&#x151;" 
d="M181 619l103 177h42l-105 -177h-40zM321 619l103 177h42l-105 -177h-40zM55 274q0 120 74.5 202t193.5 82q121 0 196 -82t75 -202q0 -121 -75 -202t-196 -81q-119 0 -193.5 81t-74.5 202zM558 274q0 105 -65 176.5t-170 71.5q-103 0 -167.5 -71.5t-64.5 -176.5
q0 -107 64 -177.5t168 -70.5q106 0 170.5 70.5t64.5 177.5z" />
    <glyph glyph-name="OE" unicode="&#x152;" horiz-adv-x="1482" 
d="M421 -11q-160 0 -263 105t-103 268q0 162 101.5 267.5t264.5 105.5q108 0 205.5 -57t124.5 -140v188h547v-34h-509v-312h386v-35h-386v-311h509v-34h-547v187q-48 -96 -134 -147t-196 -51zM421 23q134 0 225.5 82t104.5 217v80q-13 133 -103.5 216t-226.5 83
q-144 0 -237 -96t-93 -243q0 -145 92 -242t238 -97z" />
    <glyph glyph-name="oe" unicode="&#x153;" horiz-adv-x="1090" 
d="M817 22q140 0 212 110l43 2q-39 -68 -105.5 -108t-149.5 -40q-94 0 -166.5 48t-101.5 134q-28 -81 -94 -129t-159 -48q-119 0 -193.5 81t-74.5 202q0 120 74.5 202t193.5 82q95 0 161.5 -49.5t93.5 -133.5q27 82 92.5 130t158.5 48q120 0 195 -84t75 -220h-502
q4 -102 73.5 -164.5t173.5 -62.5zM296 26q106 0 170.5 70.5t64.5 177.5q0 105 -65 176.5t-170 71.5q-103 0 -167.5 -71.5t-64.5 -176.5q0 -107 64 -177.5t168 -70.5zM802 517q-101 0 -165 -65.5t-67 -167.5h465q-3 102 -66.5 167.5t-166.5 65.5z" />
    <glyph glyph-name="Racute" unicode="&#x154;" horiz-adv-x="661" 
d="M294 784h-40l103 177h42zM380 345l226 -345h-45l-227 345h-242v-345h-37v726h289q250 0 250 -192q0 -174 -214 -189zM344 692h-252v-312h252q214 0 214 154q0 45 -18 77t-50 49t-67.5 24.5t-78.5 7.5z" />
    <glyph glyph-name="racute" unicode="&#x155;" horiz-adv-x="522" 
d="M228 619h-40l103 175h41zM96 299v-299h-37l-4 548h37l3 -125q34 62 94.5 98.5t138.5 36.5q72 0 139 -36l-12 -36q-62 36 -127 36q-96 0 -159.5 -63.5t-72.5 -159.5z" />
    <glyph glyph-name="Rcaron" unicode="&#x158;" horiz-adv-x="661" 
d="M327 825l102 131h43l-130 -172h-30l-131 172h44zM380 345l226 -345h-45l-227 345h-242v-345h-37v726h289q250 0 250 -192q0 -174 -214 -189zM344 692h-252v-312h252q214 0 214 154q0 45 -18 77t-50 49t-67.5 24.5t-78.5 7.5z" />
    <glyph glyph-name="rcaron" unicode="&#x159;" horiz-adv-x="522" 
d="M261 659l101 130h42l-129 -170h-29l-130 170h44zM96 299v-299h-37l-4 548h37l3 -125q34 62 94.5 98.5t138.5 36.5q72 0 139 -36l-12 -36q-62 36 -127 36q-96 0 -159.5 -63.5t-72.5 -159.5z" />
    <glyph glyph-name="Sacute" unicode="&#x15a;" horiz-adv-x="733" 
d="M336 784h-40l103 177h42zM368 736q241 0 300 -182h-38q-51 148 -262 148q-40 0 -81.5 -9.5t-81 -28t-65 -52t-25.5 -76.5q0 -37 25 -72q48 -62 254 -92q46 -7 74 -12.5t72.5 -20.5t70 -33.5t46 -50.5t21.5 -74v-4q0 -51 -29 -89t-75.5 -58.5t-94 -30t-94.5 -9.5
q-287 0 -330 208h42q8 -48 37.5 -83.5t71.5 -54.5t86.5 -27.5t92.5 -8.5q40 0 81.5 8t83 24.5t68 49t26.5 75.5q0 61 -57 97q-54 36 -200 60q-40 5 -64.5 9.5t-66.5 14t-68.5 23.5t-54 34t-41 50t-13.5 67q0 51 28 91.5t72 63t92.5 34t96.5 11.5z" />
    <glyph glyph-name="sacute" unicode="&#x15b;" horiz-adv-x="585" 
d="M290 619h-40l102 175h42zM521 413h-36q-35 114 -191 114q-29 0 -60 -7t-60.5 -20.5t-48.5 -38t-19 -55.5q0 -50 59 -83q65 -23 144 -35q41 -7 66 -12.5t58 -17.5t51.5 -26.5t32 -38.5t13.5 -55q0 -40 -22 -70.5t-57.5 -46t-72 -23t-72.5 -7.5q-110 0 -174.5 41.5
t-77.5 122.5h38q7 -47 44 -77.5t79.5 -41t90.5 -10.5q43 0 83 9t73.5 36.5t33.5 68.5q0 55 -61 81q-41 19 -142 34q-44 8 -67 13t-58 17t-52.5 26t-31.5 38.5t-14 56.5q0 53 38 90t86.5 51.5t99.5 14.5q98 0 152.5 -37t74.5 -112z" />
    <glyph glyph-name="Scircumflex" unicode="&#x15c;" horiz-adv-x="733" 
d="M354 956h30l130 -172h-43l-102 131l-102 -131h-44zM368 736q241 0 300 -182h-38q-51 148 -262 148q-40 0 -81.5 -9.5t-81 -28t-65 -52t-25.5 -76.5q0 -37 25 -72q48 -62 254 -92q46 -7 74 -12.5t72.5 -20.5t70 -33.5t46 -50.5t21.5 -74v-4q0 -51 -29 -89t-75.5 -58.5
t-94 -30t-94.5 -9.5q-287 0 -330 208h42q8 -48 37.5 -83.5t71.5 -54.5t86.5 -27.5t92.5 -8.5q40 0 81.5 8t83 24.5t68 49t26.5 75.5q0 61 -57 97q-54 36 -200 60q-40 5 -64.5 9.5t-66.5 14t-68.5 23.5t-54 34t-41 50t-13.5 67q0 51 28 91.5t72 63t92.5 34t96.5 11.5z" />
    <glyph glyph-name="scircumflex" unicode="&#x15d;" horiz-adv-x="585" 
d="M309 789l129 -170h-42l-102 130l-101 -130h-43l130 170h29zM521 413h-36q-35 114 -191 114q-29 0 -60 -7t-60.5 -20.5t-48.5 -38t-19 -55.5q0 -50 59 -83q65 -23 144 -35q41 -7 66 -12.5t58 -17.5t51.5 -26.5t32 -38.5t13.5 -55q0 -40 -22 -70.5t-57.5 -46t-72 -23
t-72.5 -7.5q-110 0 -174.5 41.5t-77.5 122.5h38q7 -47 44 -77.5t79.5 -41t90.5 -10.5q43 0 83 9t73.5 36.5t33.5 68.5q0 55 -61 81q-41 19 -142 34q-44 8 -67 13t-58 17t-52.5 26t-31.5 38.5t-14 56.5q0 53 38 90t86.5 51.5t99.5 14.5q98 0 152.5 -37t74.5 -112z" />
    <glyph glyph-name="Scedilla" unicode="&#x15e;" horiz-adv-x="733" 
d="M394 372q46 -7 74 -12.5t72.5 -20.5t70 -33.5t46 -50.5t21.5 -74v-4q0 -47 -25 -83.5t-66 -57t-84.5 -31.5t-89.5 -14q62 -43 62 -107q0 -46 -29.5 -73t-74.5 -27q-39 0 -61 11v-1q-27 11 -52 45l21 29q23 -28 41.5 -39.5t50.5 -11.5q30 0 50 18q19 21 19 48
q0 55 -90 108q-114 4 -193.5 53.5t-101.5 153.5h42q8 -48 37.5 -83.5t71.5 -54.5t86.5 -27.5t92.5 -8.5q40 0 81.5 8t83 24.5t68 49t26.5 75.5q0 61 -57 97q-54 36 -200 60q-40 5 -64.5 9.5t-66.5 14t-68.5 23.5t-54 34t-41 50t-13.5 67q0 51 28 91.5t72 63t92.5 34
t96.5 11.5q241 0 300 -182h-38q-51 148 -262 148q-40 0 -81.5 -9.5t-81 -28t-65 -52t-25.5 -76.5q0 -37 25 -72q48 -62 254 -92z" />
    <glyph glyph-name="scedilla" unicode="&#x15f;" horiz-adv-x="585" 
d="M530 138q0 -35 -17 -63t-45.5 -44t-59.5 -25.5t-65 -12.5h4q64 -44 64 -108q0 -44 -29 -73q-29 -26 -74 -26q-40 0 -64 11.5t-48 42.5l21 30q21 -28 40 -39.5t51 -11.5q30 0 50 17q19 21 19 48q0 56 -90 107h5q-104 3 -165 44.5t-73 119.5h38q7 -47 44 -77.5t79.5 -41
t90.5 -10.5q43 0 83 9t73.5 36.5t33.5 68.5q0 55 -61 81q-41 19 -142 34q-44 8 -67 13t-58 17t-52.5 26t-31.5 38.5t-14 56.5q0 53 38 90t86.5 51.5t99.5 14.5q98 0 152.5 -37t74.5 -112h-36q-35 114 -191 114q-29 0 -60 -7t-60.5 -20.5t-48.5 -38t-19 -55.5q0 -50 59 -83
q65 -23 144 -35q41 -7 66 -12.5t58 -17.5t51.5 -26.5t32 -38.5t13.5 -55z" />
    <glyph glyph-name="Scaron" unicode="&#x160;" horiz-adv-x="733" 
d="M369 825l102 131h43l-130 -172h-30l-131 172h44zM368 736q241 0 300 -182h-38q-51 148 -262 148q-40 0 -81.5 -9.5t-81 -28t-65 -52t-25.5 -76.5q0 -37 25 -72q48 -62 254 -92q46 -7 74 -12.5t72.5 -20.5t70 -33.5t46 -50.5t21.5 -74v-4q0 -51 -29 -89t-75.5 -58.5
t-94 -30t-94.5 -9.5q-287 0 -330 208h42q8 -48 37.5 -83.5t71.5 -54.5t86.5 -27.5t92.5 -8.5q40 0 81.5 8t83 24.5t68 49t26.5 75.5q0 61 -57 97q-54 36 -200 60q-40 5 -64.5 9.5t-66.5 14t-68.5 23.5t-54 34t-41 50t-13.5 67q0 51 28 91.5t72 63t92.5 34t96.5 11.5z" />
    <glyph glyph-name="scaron" unicode="&#x161;" horiz-adv-x="585" 
d="M294 659l102 130h42l-129 -170h-29l-130 170h43zM521 413h-36q-35 114 -191 114q-29 0 -60 -7t-60.5 -20.5t-48.5 -38t-19 -55.5q0 -50 59 -83q65 -23 144 -35q41 -7 66 -12.5t58 -17.5t51.5 -26.5t32 -38.5t13.5 -55q0 -40 -22 -70.5t-57.5 -46t-72 -23t-72.5 -7.5
q-110 0 -174.5 41.5t-77.5 122.5h38q7 -47 44 -77.5t79.5 -41t90.5 -10.5q43 0 83 9t73.5 36.5t33.5 68.5q0 55 -61 81q-41 19 -142 34q-44 8 -67 13t-58 17t-52.5 26t-31.5 38.5t-14 56.5q0 53 38 90t86.5 51.5t99.5 14.5q98 0 152.5 -37t74.5 -112z" />
    <glyph glyph-name="Tcaron" unicode="&#x164;" horiz-adv-x="687" 
d="M345 825l102 131h42l-130 -172h-29l-131 172h43zM55 692v34h577v-34h-270v-692h-37v692h-270z" />
    <glyph glyph-name="tcaron" unicode="&#x165;" horiz-adv-x="647" 
d="M550 750q44 0 44 -58q0 -79 -72 -119l-34 24q75 29 75 89v1q-5 -4 -15 -4q-13 0 -22.5 10t-9.5 24t10 23.5t24 9.5zM298 24q54 0 95 46l20 -31q-45 -49 -115 -49q-137 0 -137 154v372h-106v34h106v170h37v-170h205v-34h-205v-372q0 -120 100 -120z" />
    <glyph glyph-name="Utilde" unicode="&#x168;" horiz-adv-x="662" 
d="M476 910h36q-10 -53 -32 -80.5t-71 -27.5q-51 0 -92 40q-31 33 -66 33q-32 0 -45 -18.5t-19 -55.5h-37q10 54 32 81.5t71 27.5q30 0 47.5 -8.5t43.5 -32.5q33 -33 65 -33t45 18t22 56zM570 234v492h37v-492q0 -244 -276 -244t-276 244v492h37v-492q0 -210 239 -210
q116 0 177.5 49t61.5 161z" />
    <glyph glyph-name="utilde" unicode="&#x169;" horiz-adv-x="652" 
d="M470 744h36q-9 -52 -31.5 -80t-70.5 -28q-51 0 -91 40q-31 33 -66 33q-32 0 -45 -18.5t-18 -55.5h-37q9 52 31.5 80t70.5 28q30 0 47.5 -9t42.5 -32q34 -32 65 -32q32 0 44.5 18t21.5 56zM557 246v315h37l3 -563h-35l-4 127q-34 -63 -94.5 -99.5t-138.5 -36.5
q-121 0 -195.5 81t-74.5 202v289h36v-289q0 -106 65 -177t169 -71q96 0 159 63.5t73 158.5z" />
    <glyph glyph-name="Umacron" unicode="&#x16a;" horiz-adv-x="662" 
d="M168 808v34h327v-34h-327zM570 234v492h37v-492q0 -244 -276 -244t-276 244v492h37v-492q0 -210 239 -210q116 0 177.5 49t61.5 161z" />
    <glyph glyph-name="umacron" unicode="&#x16b;" horiz-adv-x="652" 
d="M164 643v33h325v-33h-325zM557 246v315h37l3 -563h-35l-4 127q-34 -63 -94.5 -99.5t-138.5 -36.5q-121 0 -195.5 81t-74.5 202v289h36v-289q0 -106 65 -177t169 -71q96 0 159 63.5t73 158.5z" />
    <glyph glyph-name="Ubreve" unicode="&#x16c;" horiz-adv-x="662" 
d="M436 931h34q0 -70 -35.5 -109.5t-103.5 -39.5t-103.5 39.5t-35.5 109.5h34q0 -53 26.5 -83.5t78.5 -30.5t78.5 30.5t26.5 83.5zM570 234v492h37v-492q0 -244 -276 -244t-276 244v492h37v-492q0 -210 239 -210q116 0 177.5 49t61.5 161z" />
    <glyph glyph-name="ubreve" unicode="&#x16d;" horiz-adv-x="652" 
d="M431 764h33q0 -69 -35 -108t-103 -39t-103 39t-35 108h34q0 -53 26 -83t78 -30t78.5 30t26.5 83zM557 246v315h37l3 -563h-35l-4 127q-34 -63 -94.5 -99.5t-138.5 -36.5q-121 0 -195.5 81t-74.5 202v289h36v-289q0 -106 65 -177t169 -71q96 0 159 63.5t73 158.5z" />
    <glyph glyph-name="Uring" unicode="&#x16e;" horiz-adv-x="662" 
d="M331 967q42 0 69.5 -26.5t27.5 -68.5t-27.5 -69t-69.5 -27t-69.5 27t-27.5 69q0 41 28 68t69 27zM331 932q-25 0 -42.5 -17t-17.5 -43t17 -44t43 -18t43.5 18t17.5 44t-17.5 43t-43.5 17zM570 234v492h37v-492q0 -244 -276 -244t-276 244v492h37v-492q0 -210 239 -210
q116 0 177.5 49t61.5 161z" />
    <glyph glyph-name="uring" unicode="&#x16f;" horiz-adv-x="652" 
d="M326 800q42 0 69.5 -26.5t27.5 -68.5t-27.5 -68t-69.5 -26q-41 0 -68.5 26.5t-27.5 67.5t27.5 68t68.5 27zM326 765q-25 0 -42 -17.5t-17 -42.5t17 -42.5t42 -17.5q26 0 43.5 17t17.5 43t-17.5 43t-43.5 17zM557 246v315h37l3 -563h-35l-4 127q-34 -63 -94.5 -99.5
t-138.5 -36.5q-121 0 -195.5 81t-74.5 202v289h36v-289q0 -106 65 -177t169 -71q96 0 159 63.5t73 158.5z" />
    <glyph glyph-name="Uhungarumlaut" unicode="&#x170;" horiz-adv-x="662" 
d="M188 784l103 177h42l-105 -177h-40zM328 784l103 177h42l-105 -177h-40zM570 234v492h37v-492q0 -244 -276 -244t-276 244v492h37v-492q0 -210 239 -210q116 0 177.5 49t61.5 161z" />
    <glyph glyph-name="uhungarumlaut" unicode="&#x171;" horiz-adv-x="652" 
d="M185 619l102 175h41l-104 -175h-39zM323 619l103 175h41l-104 -175h-40zM557 246v315h37l3 -563h-35l-4 127q-34 -63 -94.5 -99.5t-138.5 -36.5q-121 0 -195.5 81t-74.5 202v289h36v-289q0 -106 65 -177t169 -71q96 0 159 63.5t73 158.5z" />
    <glyph glyph-name="Uogonek" unicode="&#x172;" horiz-adv-x="662" 
d="M271 -9l39 -1q-255 8 -255 244v492h37v-492q0 -210 239 -210q116 0 177.5 49t61.5 161v492h37v-492q0 -241 -269 -244q-57 -29 -85 -54q-30 -30 -30 -65q0 -29 19 -44t49 -15q46 0 80 27l15 -33q-27 -17 -44.5 -22.5t-50.5 -5.5q-46 0 -75 24t-29 69q0 71 84 120z" />
    <glyph glyph-name="uogonek" unicode="&#x173;" horiz-adv-x="655" 
d="M595 -162l16 -32q-27 -17 -45 -22.5t-50 -5.5q-46 0 -74.5 23.5t-28.5 68.5q0 92 149 148l-4 107q-34 -63 -94.5 -99.5t-138.5 -36.5q-121 0 -195.5 81t-74.5 202v289h36v-289q0 -106 65 -177t169 -71q96 0 159 63.5t73 158.5v315h37l3 -551v-12h-11q-83 -39 -107 -63
q-30 -30 -30 -65q0 -29 19 -44t48 -15q44 0 79 27z" />
    <glyph glyph-name="Wcircumflex" unicode="&#x174;" horiz-adv-x="1080" 
d="M686 784h-43l-102 131l-102 -131h-44l132 172h29zM554 726l219 -620l215 620h37l-252 -726l-233 657l-232 -657l-253 726h38l215 -620l219 620h27z" />
    <glyph glyph-name="wcircumflex" unicode="&#x175;" horiz-adv-x="903" 
d="M437 789h29l130 -170h-43l-101 130l-101 -130h-44zM458 561l190 -460l160 460h38l-196 -561l-199 486l-200 -486l-196 561h38l160 -460l190 460h15z" />
    <glyph glyph-name="Ycircumflex" unicode="&#x176;" horiz-adv-x="705" 
d="M339 956h29l130 -172h-42l-102 131l-103 -131h-43zM353 317l253 409h44l-280 -445v-281h-35v281l-280 445h44z" />
    <glyph glyph-name="ycircumflex" unicode="&#x177;" horiz-adv-x="604" 
d="M288 789h29l129 -170h-42l-102 130l-101 -130h-43zM304 55l204 495h41l-270 -651q-27 -63 -60.5 -95t-93.5 -32q-27 0 -55 9v42q28 -16 56 -16q46 0 72 26.5t46 76.5l41 99l-230 541h41z" />
    <glyph glyph-name="Ydieresis" unicode="&#x178;" horiz-adv-x="705" 
d="M254 867q14 0 25 -9q8 -9 8 -24t-9 -24t-24 -9q-14 0 -23.5 9.5t-9.5 23.5t9.5 23.5t23.5 9.5zM452 867q14 0 24 -9q9 -11 9 -24q0 -15 -9.5 -24t-23.5 -9q-15 0 -24.5 9t-9.5 24q0 13 9 25q11 8 25 8zM353 317l253 409h44l-280 -445v-281h-35v281l-280 445h44z" />
    <glyph glyph-name="Zacute" unicode="&#x179;" horiz-adv-x="663" 
d="M299 784h-40l103 177h42zM587 726v-28l-484 -664h505v-34h-553v28l483 664h-475v34h524z" />
    <glyph glyph-name="zacute" unicode="&#x17a;" horiz-adv-x="568" 
d="M252 619h-39l102 175h41zM513 34v-34h-449v28l383 488h-392v34h442v-28l-381 -488h397z" />
    <glyph glyph-name="Zdotaccent" unicode="&#x17b;" horiz-adv-x="663" 
d="M331 867q13 0 24 -9q9 -11 9 -24q0 -15 -9.5 -24t-23.5 -9t-23.5 9.5t-9.5 23.5t9 23.5t24 9.5zM587 726v-28l-484 -664h505v-34h-553v28l483 664h-475v34h524z" />
    <glyph glyph-name="zdotaccent" unicode="&#x17c;" horiz-adv-x="568" 
d="M284 700q15 0 24 -8q9 -10 9 -24q0 -15 -9.5 -24t-23.5 -9t-23.5 9.5t-9.5 23.5t9.5 23t23.5 9zM513 34v-34h-449v28l383 488h-392v34h442v-28l-381 -488h397z" />
    <glyph glyph-name="Zcaron" unicode="&#x17d;" horiz-adv-x="663" 
d="M332 825l102 131h43l-131 -172h-29l-131 172h44zM587 726v-28l-484 -664h505v-34h-553v28l483 664h-475v34h524z" />
    <glyph glyph-name="zcaron" unicode="&#x17e;" horiz-adv-x="568" 
d="M285 659l101 130h43l-130 -170h-29l-130 170h44zM513 34v-34h-449v28l383 488h-392v34h442v-28l-381 -488h397z" />
    <glyph glyph-name="florin" unicode="&#x192;" horiz-adv-x="445" 
d="M386 765q-97 0 -118 -127l-29 -194h177v-34h-182l-61 -387q-25 -159 -150 -159q-42 0 -80 24l15 30q30 -19 65 -19q91 0 113 127l60 384h-166v34h171l31 197q22 159 146 159q23 0 39 -3q14 -5 38 -16l-5 -34q-39 18 -64 18z" />
    <glyph glyph-name="circumflex" unicode="&#x2c6;" horiz-adv-x="308" 
d="M142 796h29l130 -172h-43l-102 131l-102 -131h-44z" />
    <glyph glyph-name="caron" unicode="&#x2c7;" horiz-adv-x="309" 
d="M154 664l102 132h43l-130 -172h-29l-132 172h44z" />
    <glyph glyph-name="uni02C9" unicode="&#x2c9;" horiz-adv-x="353" 
d="M15 648v34h328v-34h-328z" />
    <glyph glyph-name="breve" unicode="&#x2d8;" horiz-adv-x="303" 
d="M258 770h34q0 -69 -35.5 -108.5t-103.5 -39.5t-103.5 39.5t-35.5 108.5h34q0 -53 26 -83t79 -30t79 30t26 83z" />
    <glyph glyph-name="dotaccent" unicode="&#x2d9;" horiz-adv-x="93" 
d="M47 706q13 0 24 -8q9 -10 9 -25q0 -14 -9.5 -23.5t-23.5 -9.5t-23.5 9.5t-9.5 23.5q0 15 9.5 24t23.5 9z" />
    <glyph glyph-name="ring" unicode="&#x2da;" horiz-adv-x="233" 
d="M114 806q42 0 69.5 -26.5t27.5 -68.5t-27.5 -68.5t-69.5 -26.5q-41 0 -69 27t-28 68t28 68t69 27zM114 771q-26 0 -43 -17.5t-17 -42.5q0 -26 17 -43.5t43 -17.5t43.5 17.5t17.5 43.5t-17.5 43t-43.5 17z" />
    <glyph glyph-name="ogonek" unicode="&#x2db;" horiz-adv-x="223" 
d="M161 28h31l4 -17q-39 -16 -65.5 -29t-55 -42t-28.5 -62q0 -29 19 -44.5t49 -15.5q45 0 80 28l15 -33q-28 -18 -45.5 -23.5t-49.5 -5.5q-45 0 -74.5 24.5t-29.5 69.5q0 55 42.5 89.5t107.5 60.5z" />
    <glyph glyph-name="tilde" unicode="&#x2dc;" horiz-adv-x="384" 
d="M340 750h36q-10 -54 -32 -81.5t-71 -27.5q-51 0 -92 41q-33 33 -66 33t-45.5 -18.5t-18.5 -56.5h-37q10 54 32 81.5t71 27.5q30 0 47.5 -9t42.5 -32q37 -33 66 -33q32 0 45 18.5t22 56.5z" />
    <glyph glyph-name="hungarumlaut" unicode="&#x2dd;" horiz-adv-x="319" 
d="M14 624l103 177h42l-105 -177h-40zM154 624l103 177h42l-105 -177h-40z" />
    <glyph glyph-name="uni0326" unicode="&#x326;" horiz-adv-x="0" 
d="M-155 -245l59 192h41l-66 -192h-34z" />
    <glyph glyph-name="pi" unicode="&#x3c0;" horiz-adv-x="356" 
d="M335 562v-34h-95v-528h-37v528h-74v-528h-37v528h-82v34h325z" />
    <glyph glyph-name="Wgrave" unicode="&#x1e80;" horiz-adv-x="1080" 
d="M468 961h43l102 -177h-39zM554 726l219 -620l215 620h37l-252 -726l-233 657l-232 -657l-253 726h38l215 -620l219 620h27z" />
    <glyph glyph-name="wgrave" unicode="&#x1e81;" horiz-adv-x="903" 
d="M485 619l-105 175h42l101 -175h-38zM458 561l190 -460l160 460h38l-196 -561l-199 486l-200 -486l-196 561h38l160 -460l190 460h15z" />
    <glyph glyph-name="Wacute" unicode="&#x1e82;" horiz-adv-x="1080" 
d="M468 784l103 177h42l-105 -177h-40zM554 726l219 -620l215 620h37l-252 -726l-233 657l-232 -657l-253 726h38l215 -620l219 620h27z" />
    <glyph glyph-name="wacute" unicode="&#x1e83;" horiz-adv-x="903" 
d="M419 619h-39l102 175h41zM458 561l190 -460l160 460h38l-196 -561l-199 486l-200 -486l-196 561h38l160 -460l190 460h15z" />
    <glyph glyph-name="Wdieresis" unicode="&#x1e84;" horiz-adv-x="1080" 
d="M442 801q-14 0 -23.5 9.5t-9.5 23.5t9 23.5t24 9.5q14 0 24 -9q9 -11 9 -24q0 -15 -9.5 -24t-23.5 -9zM639 801q-15 0 -24.5 9t-9.5 24q0 14 10 25q11 8 24 8q15 0 25 -9q8 -11 8 -24q0 -15 -9 -24t-24 -9zM554 726l219 -620l215 620h37l-252 -726l-233 657l-232 -657
l-253 726h38l215 -620l219 620h27z" />
    <glyph glyph-name="wdieresis" unicode="&#x1e85;" horiz-adv-x="903" 
d="M354 700q15 0 24 -8q8 -11 8 -24q0 -15 -9 -24t-23 -9t-23.5 9.5t-9.5 23.5t9 23t24 9zM549 700q16 0 24 -8q9 -10 9 -24q0 -15 -9 -24t-24 -9t-24 9t-9 24t9 25q10 7 24 7zM458 561l190 -460l160 460h38l-196 -561l-199 486l-200 -486l-196 561h38l160 -460l190 460h15z
" />
    <glyph glyph-name="endash" unicode="&#x2013;" horiz-adv-x="675" 
d="M75 280v37h525v-37h-525z" />
    <glyph glyph-name="emdash" unicode="&#x2014;" horiz-adv-x="1028" 
d="M75 280v37h878v-37h-878z" />
    <glyph glyph-name="quoteleft" unicode="&#x2018;" horiz-adv-x="219" 
d="M106 649q14 0 25 -10q7 -12 7 -23q0 -14 -10 -24t-24 -10q-22 0 -33.5 17t-11.5 41q0 77 74 120l34 -25q-43 -15 -58 -40q-17 -26 -17 -48v-1q6 3 14 3z" />
    <glyph glyph-name="quoteright" unicode="&#x2019;" horiz-adv-x="218" 
d="M120 756q45 0 45 -58q0 -79 -73 -120l-34 24q75 29 75 90v1q-5 -4 -15 -4q-13 0 -22.5 10t-9.5 24t10 23.5t24 9.5z" />
    <glyph glyph-name="quotesinglbase" unicode="&#x201a;" horiz-adv-x="221" 
d="M113 62q23 0 34 -17.5t11 -41.5q0 -81 -74 -119l-32 24q32 12 53 35t21 54v1q-7 -4 -16 -4q-13 0 -22.5 10t-9.5 24t10.5 24t24.5 10z" />
    <glyph glyph-name="quotedblleft" unicode="&#x201c;" horiz-adv-x="324" 
d="M106 649q14 0 25 -10q7 -12 7 -23q0 -14 -10 -24t-24 -10q-22 0 -33.5 17t-11.5 41q0 77 74 120l34 -25q-43 -15 -58 -40q-17 -26 -17 -48v-1q6 3 14 3zM211 649q14 0 25 -10q7 -12 7 -23q0 -14 -10 -24t-24 -10q-22 0 -33.5 17t-11.5 41q0 77 74 120l34 -25
q-43 -15 -58 -40q-17 -26 -17 -48v-1q6 3 14 3z" />
    <glyph glyph-name="quotedblright" unicode="&#x201d;" horiz-adv-x="323" 
d="M120 756q45 0 45 -58q0 -79 -73 -120l-34 24q75 29 75 90v1q-5 -4 -15 -4q-13 0 -22.5 10t-9.5 24t10 23.5t24 9.5zM225 756q45 0 45 -58q0 -79 -73 -120l-34 24q75 29 75 90v1q-5 -4 -15 -4q-13 0 -22.5 10t-9.5 24t10 23.5t24 9.5z" />
    <glyph glyph-name="quotedblbase" unicode="&#x201e;" horiz-adv-x="325" 
d="M113 62q23 0 34 -17.5t11 -41.5q0 -81 -74 -119l-32 24q32 12 53 35t21 54v1q-7 -4 -16 -4q-13 0 -22.5 10t-9.5 24t10.5 24t24.5 10zM218 62q23 0 34 -17.5t11 -41.5q0 -81 -74 -119l-32 24q32 12 53 35t21 54v1q-5 -4 -15 -4q-14 0 -23.5 10t-9.5 24t10.5 24t24.5 10z
" />
    <glyph glyph-name="dagger" unicode="&#x2020;" horiz-adv-x="567" 
d="M302 726v-224h211v-33h-211v-576h-36v576h-212v33h212v224h36z" />
    <glyph glyph-name="daggerdbl" unicode="&#x2021;" horiz-adv-x="567" 
d="M302 502h211v-33h-211v-319h211v-33h-211v-224h-36v224h-212v33h212v319h-212v33h212v224h36v-224z" />
    <glyph glyph-name="bullet" unicode="&#x2022;" horiz-adv-x="488" 
d="M244 447q32 0 53 -21t21 -53q0 -31 -21 -52.5t-53 -21.5q-31 0 -52 21.5t-21 52.5q0 32 20.5 53t52.5 21z" />
    <glyph glyph-name="ellipsis" unicode="&#x2026;" horiz-adv-x="593" 
d="M108 62q14 0 25 -8q9 -12 9 -26t-9.5 -24t-24.5 -10t-24 9.5t-9 24.5t9.5 24.5t23.5 9.5zM296 62q13 0 24 -8q10 -11 10 -26q0 -14 -10 -24t-24 -10q-15 0 -24 9.5t-9 24.5t9.5 24.5t23.5 9.5zM485 62q13 0 24 -8q10 -11 10 -26q0 -14 -10 -24t-24 -10q-15 0 -24 9.5
t-9 24.5t9 24.5t24 9.5z" />
    <glyph glyph-name="perthousand" unicode="&#x2030;" horiz-adv-x="1208" 
d="M202 726q77 0 117 -54.5t40 -135.5t-39.5 -133.5t-117.5 -52.5t-118.5 53t-40.5 133t41 135t118 55zM682 726l-492 -726h-44l492 726h44zM202 692q-62 0 -92 -45t-30 -111q0 -65 30 -108.5t92 -43.5q61 0 90.5 43.5t29.5 108.5t-29.5 110.5t-90.5 45.5zM629 376
q78 0 118 -54t40 -134t-40.5 -134t-117.5 -54t-118 54t-41 134t40.5 134t118.5 54zM1008 376q78 0 117.5 -53.5t39.5 -134.5q0 -80 -40 -134t-117 -54q-78 0 -119 54t-41 134q0 81 41 134.5t119 53.5zM629 342q-61 0 -92 -45t-31 -109q0 -65 30.5 -109.5t92.5 -44.5
q61 0 91 44.5t30 109.5q0 64 -30 109t-91 45zM1008 342q-61 0 -92 -45t-31 -109q0 -65 30.5 -109.5t92.5 -44.5q61 0 90.5 44.5t29.5 109.5q0 64 -30 109t-90 45z" />
    <glyph glyph-name="guilsinglleft" unicode="&#x2039;" horiz-adv-x="314" 
d="M51 294l161 219h47l-161 -219l161 -220h-47z" />
    <glyph glyph-name="guilsinglright" unicode="&#x203a;" horiz-adv-x="314" 
d="M55 74l162 220l-162 219h47l162 -219l-162 -220h-47z" />
    <glyph glyph-name="fraction" unicode="&#x2044;" horiz-adv-x="531" 
d="M476 769l-377 -807l-44 -6l376 802z" />
    <glyph glyph-name="uni207A" unicode="&#x207a;" horiz-adv-x="375" 
d="M205 729v-132h132v-35h-132v-131h-35v131h-131v35h131v132h35z" />
    <glyph glyph-name="uni207B" unicode="&#x207b;" horiz-adv-x="375" 
d="M331 597v-35h-287v35h287z" />
    <glyph glyph-name="uni207C" unicode="&#x207c;" horiz-adv-x="441" 
d="M372 656v-34h-303v34h303zM372 538v-34h-303v34h303z" />
    <glyph glyph-name="uni208A" unicode="&#x208a;" horiz-adv-x="375" 
d="M205 170v-131h132v-35h-132v-131h-35v131h-131v35h131v131h35z" />
    <glyph glyph-name="uni208B" unicode="&#x208b;" horiz-adv-x="375" 
d="M331 39v-35h-287v35h287z" />
    <glyph glyph-name="uni208C" unicode="&#x208c;" horiz-adv-x="441" 
d="M372 98v-35h-303v35h303zM372 -20v-34h-303v34h303z" />
    <glyph glyph-name="Euro" unicode="&#x20ac;" horiz-adv-x="718" 
d="M628 213l34 -17q-25 -94 -87.5 -150t-155.5 -56q-119 0 -191 76.5t-91 199.5h-98v35h95q-3 27 -3 62q0 36 3 63h-95v35h98q18 124 89 199.5t192 75.5q180 0 235 -164l-29 -25q-53 155 -206 155q-104 0 -164 -66.5t-79 -174.5h321l-25 -35h-301q-2 -36 -2 -63q0 -26 2 -62
h283l-25 -35h-253q17 -107 79 -174.5t165 -67.5q83 0 135.5 52t73.5 137z" />
    <glyph glyph-name="trademark" unicode="&#x2122;" horiz-adv-x="832" 
d="M225 346h-35v351h-137v33h309v-33h-137v-351zM363 730h33l139 -325l139 325h33v-384h-34v294l-123 -294h-29l-124 294l1 -294h-35v384z" />
    <glyph glyph-name="uni2126" unicode="&#x2126;" horiz-adv-x="800" 
d="M549 34h183v-34h-269v31q232 87 232 343q0 142 -77 235t-218 93q-140 0 -217.5 -92t-77.5 -236q0 -256 231 -343v-31h-269v34h183q-182 112 -182 340q0 158 87 260t245 102q157 0 244 -100t87 -262q0 -232 -182 -340z" />
    <glyph glyph-name="arrowleft" unicode="&#x2190;" horiz-adv-x="824" 
d="M177 382h582v-37h-582l-78 2q146 -105 307 -309l-35 -21q-75 104 -157.5 184t-189.5 157v12q212 155 347 341l35 -21q-159 -204 -307 -309z" />
    <glyph glyph-name="arrowup" unicode="&#x2191;" horiz-adv-x="833" 
d="M409 735h12q80 -111 158.5 -191.5t183.5 -155.5l-22 -34q-195 149 -309 306l1 -77v-583h-36v583l1 78q-105 -154 -309 -307l-21 34q193 141 341 347z" />
    <glyph glyph-name="arrowright" unicode="&#x2192;" horiz-adv-x="825" 
d="M418 690l35 21q137 -186 348 -341v-12q-107 -77 -189.5 -157t-158.5 -184l-35 21q166 211 307 309l-78 -2h-582v37h582l78 -1q-151 107 -307 309z" />
    <glyph glyph-name="arrowdown" unicode="&#x2193;" horiz-adv-x="834" 
d="M744 373l22 -35q-103 -75 -183.5 -157t-158.5 -190h-11q-151 210 -343 347l22 35q201 -155 309 -307l-1 78v582h36v-582l-1 -78q103 147 309 307z" />
    <glyph glyph-name="arrowboth" unicode="&#x2194;" horiz-adv-x="1026" 
d="M622 709l34 22q75 -103 157 -183.5t189 -158.5v-11q-204 -149 -346 -342l-34 22q154 204 304 307h-827q149 -103 306 -307l-35 -22q-78 105 -159 185t-187 157v11q107 77 187 156t159 186l35 -22q-158 -206 -306 -307h827q-150 103 -304 307z" />
    <glyph glyph-name="arrowupdn" unicode="&#x2195;" horiz-adv-x="833" 
d="M433 776v-826q109 152 308 305l22 -35q-101 -73 -182.5 -156t-159.5 -190h-12q-77 107 -155.5 186.5t-185.5 159.5l21 35q197 -149 308 -305v826q-107 -150 -308 -304l-21 34q190 138 341 346h12q78 -108 159 -190.5t183 -155.5l-22 -34q-196 149 -308 304z" />
    <glyph glyph-name="partialdiff" unicode="&#x2202;" horiz-adv-x="614" 
d="M272 736q81 0 137 -30.5t84 -86t39.5 -116.5t11.5 -140q0 -71 -12 -132.5t-40 -118t-81.5 -89.5t-128.5 -33q-105 0 -171.5 66t-66.5 172q0 104 63.5 169t169.5 65q162 0 230 -114v15q0 55 -5 99.5t-20 91t-40 77.5t-68.5 51t-101.5 20q-98 0 -149 -77l-28 26
q68 85 177 85zM281 24q103 0 156.5 72t65.5 183q-52 149 -227 149q-85 0 -140 -56t-55 -142q0 -87 56.5 -146.5t143.5 -59.5z" />
    <glyph glyph-name="uni2206" unicode="&#x2206;" horiz-adv-x="669" 
d="M31 27l285 699h39l283 -699v-27h-607v27zM75 34h519l-259 643z" />
    <glyph glyph-name="product" unicode="&#x220f;" horiz-adv-x="691" 
d="M86 -137v863h520v-863h-37v829h-447v-829h-36z" />
    <glyph glyph-name="summation" unicode="&#x2211;" horiz-adv-x="632" 
d="M34 698v28h551v-34h-495l357 -382v-9l-360 -403h498v-35h-551v29l368 414z" />
    <glyph glyph-name="minus" unicode="&#x2212;" horiz-adv-x="670" 
d="M85 331v34h501v-34h-501z" />
    <glyph glyph-name="uni2215" unicode="&#x2215;" horiz-adv-x="531" 
d="M476 769l-377 -807l-44 -6l376 802z" />
    <glyph glyph-name="uni2219" unicode="&#x2219;" horiz-adv-x="229" 
d="M114 417q16 0 24 -7q10 -11 10 -26q0 -14 -9.5 -24t-24.5 -10t-24 9.5t-9 24.5t9.5 24t23.5 9z" />
    <glyph glyph-name="radical" unicode="&#x221a;" horiz-adv-x="664" 
d="M293 57l3 10l320 828h40l-347 -895h-33l-142 361h-113v34h139l129 -327z" />
    <glyph glyph-name="infinity" unicode="&#x221e;" horiz-adv-x="950" 
d="M719 550q81 0 123 -65t42 -152q0 -85 -41.5 -150t-123.5 -65q-50 0 -74.5 10.5t-59.5 46.5q-36 37 -111 130q-52 -64 -108 -128q-33 -35 -59.5 -47t-73.5 -12q-50 0 -87 27t-57 74q-23 45 -23 114q0 55 16 102t55.5 81t95.5 34q47 0 74 -12t59 -46q46 -50 109 -127
q83 98 107 123q31 34 61.5 48t75.5 14zM343 204q2 2 39 46.5t69 82.5q-91 112 -109 130q-30 30 -52 43q-20 9 -54 9q-65 0 -99 -56.5t-34 -125.5q0 -68 34.5 -124.5t98.5 -56.5q37 0 54 9q17 8 53 43zM718 152q62 0 95.5 57t33.5 124q0 106 -67 160q-31 22 -64 22
q-36 0 -60.5 -14.5t-54.5 -45.5q-31 -32 -103 -120q30 -36 67.5 -79.5t44.5 -51.5q30 -32 49.5 -42t58.5 -10z" />
    <glyph glyph-name="integral" unicode="&#x222b;" horiz-adv-x="440" 
d="M348 831q46 0 83 -25l-14 -33q-31 23 -69 23q-107 0 -107 -115v-668q0 -150 -143 -150q-48 0 -88 28l16 30q38 -23 68 -23q58 0 84.5 28.5t26.5 86.5v668q0 71 36.5 110.5t106.5 39.5z" />
    <glyph glyph-name="approxequal" unicode="&#x2248;" horiz-adv-x="670" 
d="M222 496q25 0 54 -8q31 -10 61 -26l6 -3q68 -34 109 -34q49 0 119 73v-49q-61 -58 -120 -58q-26 0 -53 9q-13 5 -62 27q-70 35 -114 35q-29 0 -53 -12q-24 -13 -70 -62v51q33 30 59.5 43.5t63.5 13.5zM222 297q33 0 68 -15q45 -18 53 -22q70 -35 109 -35q49 0 119 75v-50
q-59 -58 -120 -58q-47 0 -109 32l-6 3q-76 36 -114 36q-33 0 -53 -13q-29 -17 -70 -61v50q58 58 123 58z" />
    <glyph glyph-name="notequal" unicode="&#x2260;" horiz-adv-x="670" 
d="M418 471h157v-34h-174l-88 -184h262v-35h-278l-66 -139h-41l66 139h-160v35h178l87 184h-265v34h282l64 134h39z" />
    <glyph glyph-name="lessequal" unicode="&#x2264;" horiz-adv-x="670" 
d="M87 391v32l497 267v-42l-451 -241l451 -251v-43zM584 34v-34h-497v34h497z" />
    <glyph glyph-name="greaterequal" unicode="&#x2265;" horiz-adv-x="670" 
d="M538 407l-451 241v42l497 -267v-32l-497 -278v43zM584 34v-34h-497v34h497z" />
    <glyph glyph-name="a.alt" 
d="M325 558q79 0 138 -35t93 -97v115h37l1 -541h-37v123q-35 -62 -94 -97t-138 -35q-121 0 -195.5 81t-74.5 202t75 202.5t195 81.5zM325 26q96 0 159 63t73 158v52q-10 97 -73 160t-159 63q-104 0 -169 -71.5t-65 -176.5q0 -106 64.5 -177t169.5 -71z" />
    <glyph glyph-name="e.alt" 
d="M323 26q133 0 201 111l42 2q-39 -69 -101.5 -108.5t-141.5 -39.5q-119 0 -193.5 81t-74.5 202q0 120 74.5 202t193.5 82q121 0 196 -84t75 -220h-502q8 -97 71 -162.5t160 -65.5zM323 522q-101 0 -164.5 -65.5t-66.5 -167.5h465q-3 102 -67 167.5t-167 65.5z" />
    <glyph glyph-name="space.tf" horiz-adv-x="332" 
 />
    <glyph glyph-name="_FSHallmark" horiz-adv-x="914" 
d="M57 704h802v-95h-802v95zM686 160q-38 0 -66 9q-33 8 -56 26q-25 21 -40 46q-16 27 -16 64l93 -2q0 -4 6 -16q1 -12 13 -24q13 -13 24 -16q17 -10 46 -10q30 0 52 11q17 10 17 26q0 29 -76 44q-75 22 -117 44q-48 24 -48 79q0 45 32 73q28 23 70 39q1 0 26 3.5t40 3.5
q40 0 90 -19q46 -17 65 -63q10 -24 10 -47h-96q0 12 -7 22q-5 8 -18 17q-3 1 -10.5 4.5t-12.5 4.5q-3 0 -11 2.5t-12 2.5q-22 0 -45 -14q-19 -11 -19 -29q0 -30 18 -39q33 -13 41 -14l36 -10l29 -7q4 0 13.5 -3t15.5 -3q18 -5 22 -7l20 -9q19 -12 31 -26q11 -25 12 -44
q1 -21 -10 -47q-23 -41 -72 -58q-42 -14 -90 -14zM356 289h-194v-129h-105v399h337v-90h-232v-91h194v-89zM433 162q-16 0 -31 15q-17 14 -17 32q0 19 15 33q13 13 33 13t39 -14q16 -14 16 -32q0 -19 -16 -35q-18 -12 -39 -12zM55 111h803v-95h-803v95z" />
    <glyph glyph-name="_Fontastica" horiz-adv-x="689" 
d="M482 286h-341v-170h-98l-3 4v589h442v-87h-341v-245h341v-91zM548 709h101v-593h-442v92h341v241h-341v94h341v166zM153 81q6 -3 12 -13q5 -7 5 -16t-5 -17q-5 -7 -12 -12q-7 -4 -17 -4q-8 0 -18 4q-7 2 -13 12q-5 8 -5 17q0 6 5 16q5 9 13 13q10 4 18 4q10 0 17 -4z
M410 55q2 -1 7 -6q4 -4 4 -10q0 -7 -4 -11q-6 -6 -9 -7q-8 -2 -13 -2q-1 0 -16 3q-6 1 -14 7l7 13q4 -4 11 -7t12 -3q4 0 6 2t2 4l-1 2q-1 1 -1 2l-3 2q-3 0 -7 2q-2 1 -6 1.5t-6 1.5q-5 4 -7 6q-3 5 -3 11q0 7 3 10q5 5 10 7q6 2 13 2q4 0 14 -2q4 -1 12 -5l-7 -14
q-5 5 -11 6q-4 1 -10 1h-5l-1 -4q0 -1 1 -3l3 -3q2 0 4 -1t3 -1zM560 41l10 -10q-4 -6 -12 -9t-14 -3q-10 0 -17 4q-4 2 -12 12q-5 6 -5 17q0 6 5 16q5 11 12 13q10 4 17 4q8 0 15 -3q6 -3 11 -8l-10 -12q-2 4 -7 6q-1 0 -4 1.5t-4 1.5l-9 -3q-4 -1 -6 -6q-2 -3 -2 -10
q0 -3 2 -9t6 -7q6 -3 9 -3q1 0 4 1.5t4 1.5q5 2 7 5zM66 43v-23h-17v64h48v-13h-31v-15h29v-13h-29zM178 84h15l29 -39v39h16v-64h-15l-29 38v-38h-16v64zM245 70v14h54v-14h-18v-50h-17v50h-19zM310 20h-17l27 64h17l27 -64h-18l-4 12h-28zM443 20v50h-19v14h54v-14h-19
v-50h-16zM485 84h17v-64h-17v64zM570 20l28 64h17l27 -64h-18l-5 12h-27l-5 -12h-17zM150 42q3 3 3 10l-3 9q-2 5 -5 7q-5 3 -9 3q-6 0 -10 -3q-4 -2 -6 -7q-2 -6 -2 -9q0 -7 2 -10q4 -6 6 -7q9 -3 10 -3q6 0 9 3q1 1 2.5 3.5t2.5 3.5zM337 44l-9 23l-9 -23h18zM614 44
l-9 23l-8 -23h17z" />
    <glyph glyph-name="_www.fontastica.com" horiz-adv-x="2013" 
d="M218 246h-122v-60h-34l-2 1v209h158v-31h-122v-87h122v-32zM241 396h36v-210h-158v32h122v86h-122v33h122v59zM1322 302q16 -9 20 -16q8 -11 8 -29q0 -17 -9 -29q-8 -11 -26 -19q-15 -6 -35 -6q-21 0 -43 8q-23 8 -38 20l18 36q10 -9 32 -19q18 -8 31 -8q10 0 16 4
q7 4 7 11t-5 10q-3 2 -11 6q-4 2 -18 6q-28 9 -31 10q-15 6 -20 15q-7 10 -7 28q0 17 8 28q7 10 25 19q14 7 36 7q12 0 38 -6q15 -4 32 -14l-17 -36q-15 8 -30 13q-13 5 -27 5q-8 0 -13 -3t-5 -9q0 -5 4 -9q6 -6 11 -7q1 0 7 -2.5t11 -3.5q20 -5 31 -10zM622 371
q22 -12 33 -32q12 -21 12 -46t-12 -46t-33 -33q-22 -12 -49 -12t-48 12q-22 13 -34 33q-12 21 -12 46t12 46q11 19 34 32q21 12 48 12t49 -12zM1732 263l27 -28q-15 -15 -34 -24t-39 -9q-25 0 -46 12q-19 11 -33 33q-12 19 -12 46q0 25 12 46q11 20 33 32t48 12q23 0 39 -8
q21 -10 31 -22l-26 -32q-8 11 -20 17t-23 6q-13 0 -24 -6q-15 -9 -18 -18q-6 -16 -6 -26q0 -16 6 -26q6 -9 18 -18q10 -7 24 -7q12 0 22 5q12 6 21 15zM384 268v-62h-45v174h130v-36h-85v-39h78v-37h-78zM690 380h40l80 -105l-1 105h43v-174h-40l-79 104v-104h-43v174z
M871 343v37h150v-37h-53v-137h-45v137h-52zM1049 206h-47l75 174h47l73 -174h-48l-12 30h-76zM1410 206v137h-52v37h150v-37h-52v-137h-46zM1527 380h45v-174h-45v174zM1758 206l75 174h47l73 -174h-49l-11 30h-76l-12 -30h-47zM614 267q7 11 7 26q0 7 -7 26q-5 13 -16 19
q-10 6 -24 6t-24 -6q-12 -8 -18 -19q-6 -12 -6 -26t6 -26q5 -10 18 -19q10 -7 24 -7q12 0 24 7q6 4 16 19zM1123 271l-23 63l-25 -63h48zM1879 271l-24 63l-24 -63h48z" />
    </font>
</defs>
</svg>
