<?xml version="1.0" standalone="no"?>
<!DOCTYPE svg PUBLIC "-//W3C//DTD SVG 1.1//EN" "http://www.w3.org/Graphics/SVG/1.1/DTD/svg11.dtd" >
<svg xmlns="http://www.w3.org/2000/svg" xmlns:xlink="http://www.w3.org/1999/xlink" version="1.1">
<metadata>
Created by FontForge 20170731 at Mon Mar  9 20:33:29 2020
 By Aleksey,,,
Copyright (c) 2020 by Fontastica. All rights reserved.
</metadata>
<defs>
<font id="Groteska-LightItalic" horiz-adv-x="649" >
  <font-face 
    font-family="Groteska Light"
    font-weight="300"
    font-style="italic"
    font-stretch="normal"
    units-per-em="1000"
    panose-1="0 0 4 0 0 0 0 0 0 0"
    ascent="800"
    descent="-200"
    x-height="558"
    cap-height="726"
    bbox="-194 -260 1953 967"
    underline-thickness="50"
    underline-position="-200"
    slope="-9"
    unicode-range="U+0020-2265"
  />
<missing-glyph horiz-adv-x="550" 
d="M183 724h412l-115 -723h-412zM337 405l200 284h-307zM454 96l85 533l-187 -266zM125 98l183 265l-100 262zM127 37h307l-109 283z" />
    <glyph glyph-name=".notdef" horiz-adv-x="550" 
d="M183 724h412l-115 -723h-412zM337 405l200 284h-307zM454 96l85 533l-187 -266zM125 98l183 265l-100 262zM127 37h307l-109 283z" />
    <glyph glyph-name=".null" horiz-adv-x="0" 
 />
    <glyph glyph-name="nonmarkingreturn" horiz-adv-x="333" 
 />
    <glyph glyph-name="space" unicode=" " horiz-adv-x="350" 
 />
    <glyph glyph-name="exclam" unicode="!" horiz-adv-x="218" 
d="M120 182l86 544h37l-86 -544h-37zM119 62q14 0 23 -9q7 -12 4 -25q-2 -12 -10 -24q-13 -10 -28 -10t-22.5 9.5t-5.5 24.5q3 15 14 24.5t25 9.5z" />
    <glyph glyph-name="quotedbl" unicode="&#x22;" horiz-adv-x="281" 
d="M161 557l30 190h37l-30 -190h-37zM259 557l30 190h37l-30 -190h-37z" />
    <glyph glyph-name="numbersign" unicode="#" horiz-adv-x="698" 
d="M582 509h150l-6 -35h-155l-66 -211h156l-6 -35h-161l-70 -228h-38l70 228h-189l-70 -228h-38l70 228h-146l6 35h151l66 211h-152l6 35h157l67 217h38l-68 -217h190l67 217h38zM343 474l-65 -211h190l65 211h-190z" />
    <glyph glyph-name="dollar" unicode="$" horiz-adv-x="645" 
d="M349 0l-17 -107h-35l17 107q-95 5 -153.5 55.5t-66.5 142.5l37 19q9 -168 189 -182l48 308q-110 23 -151 50q-69 45 -54 138q14 90 92.5 141.5t173.5 53.5l17 107h35l-17 -107q177 -14 198 -172l-35 -25q-15 152 -169 162l-50 -318q82 -18 112 -29q43 -17 75 -55
q26 -38 17 -102q-14 -88 -91 -136.5t-172 -50.5zM374 381l50 311q-56 -3 -105 -22q-105 -47 -119 -139q-8 -50 15 -79q20 -29 61 -43q32 -13 98 -28zM402 336l-47 -301q78 3 143.5 41t77.5 111q8 51 -14 78q-17 20 -47.5 35t-51.5 21t-61 15z" />
    <glyph glyph-name="percent" unicode="%" horiz-adv-x="830" 
d="M317 726q77 0 108.5 -55t18.5 -135q-13 -81 -61 -133.5t-126 -52.5t-110 53t-19 133t62.5 135t126.5 55zM797 726l-607 -726h-44l607 726h44zM312 692q-62 0 -99.5 -45.5t-47.5 -110.5t13 -108.5t85 -43.5q61 0 97.5 43.5t46.5 108.5t-12 110.5t-83 45.5zM689 376
q78 0 109 -53.5t19 -134.5q-13 -80 -62 -134t-126 -54t-109.5 54t-19.5 134q13 81 62 134.5t127 53.5zM683 342q-61 0 -99 -45t-48 -109q-11 -65 12.5 -109.5t85.5 -44.5t99 45t47 109t-13 109t-84 45z" />
    <glyph glyph-name="ampersand" unicode="&#x26;" horiz-adv-x="613" 
d="M578 43q16 -13 47 -18l-6 -36q-43 5 -65 24q-30 24 -66 73q-95 -96 -229 -96q-86 0 -141.5 43t-42.5 126q5 34 21 65t35 52.5t50.5 44.5t54.5 37t61 35q-47 85 -53 105q-15 40 -8 82q11 70 62 111.5t122 41.5q67 0 104.5 -35.5t26.5 -101.5q-6 -38 -25 -70.5t-50 -59
t-59 -44.5t-69 -40l33 -56l22 -36q27 -43 56.5 -90.5t34.5 -55.5q25 32 42 66.5t25 58t21 72.5h36q-32 -138 -104 -226q36 -51 64 -72zM289 487q24 -47 41 -75q36 18 61 33.5t54 38.5t46.5 51t22.5 61q8 49 -20.5 75.5t-78.5 26.5q-52 0 -95 -32q-38 -33 -47 -86
q-7 -42 16 -93zM262 24q124 0 207 90q-12 19 -95 153q-12 18 -60 97q-45 -24 -102 -60q-86 -55 -101 -145q-10 -65 36 -100t115 -35z" />
    <glyph glyph-name="quotesingle" unicode="'" horiz-adv-x="183" 
d="M161 557l30 190h37l-30 -190h-37z" />
    <glyph glyph-name="parenleft" unicode="(" horiz-adv-x="295" 
d="M395 816l15 -27q-119 -87 -180.5 -205t-85.5 -269q-13 -95 -11.5 -178t33.5 -160t94 -136l-23 -27q-100 97 -127 217.5t-2 283.5q26 165 90.5 283.5t196.5 217.5z" />
    <glyph glyph-name="parenright" unicode=")" horiz-adv-x="296" 
d="M135 790l26 26q67 -67 101 -145t38 -165t-12 -191q-25 -161 -91 -282t-194 -219l-18 26q118 87 181 206t87 269q50 311 -118 475z" />
    <glyph glyph-name="asterisk" unicode="*" horiz-adv-x="574" 
d="M615 652l6 -36l-220 -65l102 -177l-32 -22l-100 178l-156 -178l-26 22l158 177l-198 65l16 36l198 -70l33 219h36l-37 -219z" />
    <glyph glyph-name="plus" unicode="+" horiz-adv-x="670" 
d="M449 603l-38 -238h240l-6 -34h-240l-39 -246h-37l39 246h-239l6 34h239l38 238h37z" />
    <glyph glyph-name="comma" unicode="," horiz-adv-x="213" 
d="M123 62q23 0 31 -17.5t4 -41.5q-12 -81 -92 -119l-29 24q79 28 89 89v1q-8 -4 -17 -4q-13 0 -21 10t-6 24t14.5 24t26.5 10z" />
    <glyph glyph-name="hyphen" unicode="-" horiz-adv-x="470" 
d="M119 280l6 37h320l-6 -37h-320z" />
    <glyph glyph-name="period" unicode="." horiz-adv-x="204" 
d="M111 62q13 0 24 -8q8 -12 5 -26q-2 -14 -13.5 -24t-26.5 -10t-22.5 9.5t-5.5 24.5q3 15 14 24.5t25 9.5z" />
    <glyph glyph-name="slash" unicode="/" horiz-adv-x="403" 
d="M27 -75l425 876h38l-425 -876h-38z" />
    <glyph glyph-name="zero" unicode="0" horiz-adv-x="632" 
d="M314 -10q-60 0 -103.5 22.5t-66 58.5t-33 86.5t-9.5 100t10 105.5t24 105.5t41 100t60.5 86.5t85 58.5t110.5 22.5t103 -22.5t66 -59t33 -86.5t9 -100t-10 -105t-23.5 -105t-41 -100t-60.5 -86.5t-84.5 -59t-110.5 -22.5zM320 24q53 0 97 21.5t73 55t52 80t35 90.5t20 92
t9.5 92t-6.5 90.5t-26.5 80t-56 55t-90.5 21.5q-66 0 -117 -31t-82.5 -84t-50 -107t-28.5 -117q-8 -48 -9 -92.5t7 -90.5t27 -79.5t56 -55t90 -21.5z" />
    <glyph glyph-name="one" unicode="1" horiz-adv-x="339" 
d="M367 726h32l-115 -726h-36l103 651q-84 -88 -200 -128l-8 34q141 47 224 169z" />
    <glyph glyph-name="two" unicode="2" horiz-adv-x="607" 
d="M143 42l-12 -8h426l-5 -34h-488l5 29q209 155 293 223q187 150 205 267q14 88 -30 135.5t-133 47.5q-93 0 -153.5 -55.5t-79.5 -150.5h-37q24 111 95 175.5t181 64.5q105 0 157.5 -56.5t35.5 -160.5q-12 -79 -67.5 -147t-140.5 -136q-87 -73 -252 -194z" />
    <glyph glyph-name="three" unicode="3" horiz-adv-x="581" 
d="M484 362h1q21 -11 46 -44q37 -50 25 -126q-15 -91 -89 -146.5t-168 -55.5q-96 0 -153 44.5t-64 134.5l38 2q6 -66 49 -108q50 -39 136 -39q78 0 140.5 46t74.5 123q12 75 -29.5 115.5t-118.5 40.5h-118l6 34h118q78 0 135 44q50 46 62 113q12 78 -35 123t-127 45
q-167 0 -231 -147l-38 2q73 180 275 180q94 0 150.5 -55t42.5 -147q-10 -60 -47 -107.5t-94 -65.5q8 -3 13 -6z" />
    <glyph glyph-name="four" unicode="4" horiz-adv-x="652" 
d="M526 726h38l-75 -472h148l-5 -34h-148l-35 -220h-37l35 220h-357l4 27zM518 670l-37 -42l-338 -374h309z" />
    <glyph glyph-name="five" unicode="5" horiz-adv-x="599" 
d="M385 448q101 0 155.5 -63t38.5 -165t-92 -166t-180 -64q-217 0 -224 189h38q1 -155 192 -155q86 0 150.5 54.5t78.5 141.5q14 85 -31 139.5t-131 54.5q-134 0 -218 -92h-31l98 404h403l-5 -34h-371l-77 -313q77 69 206 69z" />
    <glyph glyph-name="six" unicode="6" horiz-adv-x="596" 
d="M382 443q105 0 157 -61.5t36 -166.5q-16 -103 -90 -164t-178 -61q-61 0 -103.5 23t-64 58.5t-30.5 86.5t-7.5 100t10.5 105q11 70 35 132.5t63.5 118.5t100.5 89t136 33q78 0 120 -36t54 -111h-39q-20 113 -141 113q-123 0 -196 -100q-75 -104 -99 -253q-4 -29 -6 -60
q31 69 97.5 111.5t144.5 42.5zM312 24q89 0 151 52t75 141q14 87 -30 139t-131 52q-78 0 -145.5 -56t-80.5 -135q-13 -82 32.5 -137.5t128.5 -55.5z" />
    <glyph glyph-name="seven" unicode="7" horiz-adv-x="624" 
d="M628 692h-463l5 34h514l-4 -28q-298 -271 -397 -698h-39q50 208 141 378.5t243 313.5z" />
    <glyph glyph-name="eight" unicode="8" horiz-adv-x="613" 
d="M465 383q65 -21 99.5 -71t23.5 -121q-15 -95 -99 -148t-184 -53q-78 0 -125 26q-52 24 -78 70t-17 105q12 70 62.5 120.5t122.5 71.5q-54 19 -80.5 63t-16.5 108q14 90 85 136t166 46q93 0 149 -46t42 -136q-10 -64 -50 -108t-100 -63zM209 554q-12 -74 35.5 -114
t125.5 -40q77 0 137 40t72 114q10 63 -31 108q-46 40 -130 40q-78 0 -137.5 -37t-71.5 -111zM512 105q32 38 40 86q7 47 -13 88q-46 84 -175 84q-86 0 -157.5 -44.5t-84.5 -127.5q-13 -80 45.5 -123.5t143.5 -43.5q127 0 201 81z" />
    <glyph glyph-name="nine" unicode="9" horiz-adv-x="596" 
d="M403 735q255 0 195 -373q-11 -70 -35 -132.5t-63 -118.5t-100 -89t-136 -33q-152 0 -175 147h38q24 -113 143 -113q55 0 101.5 22t78 56.5t56 82.5t38 94.5t21.5 97.5q5 28 6 60q-32 -69 -99 -111.5t-145 -42.5q-103 0 -155.5 62t-35.5 166q16 105 89 165t178 60z
M332 317q78 0 146.5 56.5t80.5 134.5q18 109 -65 168q-38 25 -95 25q-89 0 -151 -52t-76 -141q-13 -86 30.5 -138.5t129.5 -52.5z" />
    <glyph glyph-name="colon" unicode=":" horiz-adv-x="229" 
d="M202 555q13 0 23 -8q7 -12 6 -25q-2 -15 -13.5 -25t-26.5 -10t-22.5 9.5t-4.5 25.5q2 14 13 23.5t25 9.5zM124 62q13 0 23 -8q8 -12 5 -26q-2 -14 -13 -24t-26 -10t-22.5 9.5t-5.5 24.5q3 15 14 24.5t25 9.5z" />
    <glyph glyph-name="semicolon" unicode=";" horiz-adv-x="239" 
d="M205 488q-14 0 -21.5 10t-5.5 24t13 23.5t25 9.5t22 -9q8 -11 6 -24q-2 -15 -13.5 -24.5t-25.5 -9.5zM135 62q23 0 31 -17.5t4 -41.5q-12 -81 -92 -119l-29 24q79 28 89 89v1q-7 -4 -17 -4q-13 0 -21 10t-6 24t14.5 24t26.5 10z" />
    <glyph glyph-name="less" unicode="&#x3c;" horiz-adv-x="670" 
d="M150 314l5 32l533 259l-7 -42l-483 -232l410 -233l-7 -42z" />
    <glyph glyph-name="equal" unicode="=" horiz-adv-x="670" 
d="M165 437l6 34h479l-6 -34h-479zM131 218l5 35h479l-5 -35h-479z" />
    <glyph glyph-name="greater" unicode="&#x3e;" horiz-adv-x="670" 
d="M576 331l-409 232l7 42l451 -259l-5 -32l-533 -258l7 42z" />
    <glyph glyph-name="question" unicode="?" horiz-adv-x="529" 
d="M388 736q94 0 145.5 -49t36.5 -141q-15 -101 -78 -156t-172 -87l-23 -142h-36l27 167q54 16 88 30t71 38.5t58 61.5t29 88q12 74 -32 115t-120 41q-94 0 -148.5 -41.5t-84.5 -134.5l-31 13q32 103 98.5 150t171.5 47zM264 62q14 0 22 -9q8 -11 5 -25q-2 -13 -11 -24
q-11 -10 -27 -10q-14 0 -22.5 10t-6.5 24q3 15 15 26q11 8 25 8z" />
    <glyph glyph-name="at" unicode="@" horiz-adv-x="1032" 
d="M638 736q211 0 309.5 -123.5t63.5 -339.5q-19 -126 -69 -205q-23 -36 -55.5 -59.5t-59.5 -23.5q-31 0 -47.5 24.5t-17 55.5t0.5 60q-45 -66 -113 -104t-149 -38q-121 0 -182.5 82t-41.5 204q19 122 106.5 204t208.5 82q79 0 135 -38t80 -101l13 83h35l-57 -357
q-18 -122 34 -126h3q38 2 81 71q41 70 58 186q31 196 -56.5 312.5t-285.5 116.5q-196 0 -329.5 -121t-165.5 -321q-31 -197 70 -313.5t301 -116.5q156 0 267 91l19 -30q-58 -45 -137.5 -70t-153.5 -25q-216 0 -327 123t-76 341q34 213 178 344.5t360 131.5zM507 19
q106 0 182.5 71.5t93.5 178.5t-37 179t-160 72q-105 0 -181 -72t-93 -179t36 -178.5t159 -71.5z" />
    <glyph glyph-name="A" unicode="A" horiz-adv-x="819" 
d="M527 739l237 -739h-41l-75 234h-403l-148 -234h-42zM636 268l-122 388l-247 -388h369z" />
    <glyph glyph-name="B" unicode="B" horiz-adv-x="667" 
d="M539 364q125 -36 103 -177q-30 -187 -276 -187h-311l115 726h311q103 0 157 -46.5t38 -146.5q-19 -127 -137 -169zM476 693l-275 -1l-50 -312h275q192 0 215 152q13 82 -33 120.5t-132 40.5zM146 345l-50 -311h275q212 0 236 153q7 45 -5 77.5t-40.5 49t-62.5 24t-78 7.5
h-275z" />
    <glyph glyph-name="C" unicode="C" horiz-adv-x="822" 
d="M419 -11q-160 0 -246.5 105t-60.5 268q26 162 144.5 267.5t280.5 105.5q113 0 191.5 -53t108.5 -146l-40 -1q-29 77 -98 121.5t-167 44.5q-144 0 -252.5 -96t-131.5 -243q-23 -145 54 -242t223 -97q108 0 198 55t142 149l38 -1q-55 -108 -157 -172.5t-227 -64.5z" />
    <glyph glyph-name="D" unicode="D" horiz-adv-x="711" 
d="M299 0h-244l115 726h244q174 0 250.5 -93.5t49.5 -268.5q-58 -364 -415 -364zM409 692h-208l-105 -658h208q322 0 374 330q24 154 -43 243q-70 85 -226 85z" />
    <glyph glyph-name="E" unicode="E" horiz-adv-x="656" 
d="M534 345h-386l-50 -311h508l-5 -34h-546l115 726h546l-5 -34h-508l-50 -312h386z" />
    <glyph glyph-name="F" unicode="F" horiz-adv-x="656" 
d="M534 345h-386l-55 -345h-38l115 726h546l-5 -34h-508l-50 -312h386z" />
    <glyph glyph-name="G" unicode="G" horiz-adv-x="817" 
d="M523 380h299l-60 -380h-35l23 145q-60 -73 -145.5 -114.5t-185.5 -41.5q-160 0 -246.5 105t-60.5 268q26 162 144.5 267.5t280.5 105.5q113 0 191.5 -53t108.5 -146l-40 -1q-29 77 -98 121.5t-167 44.5q-144 0 -252.5 -96t-131.5 -243q-23 -145 54 -242t223 -97
q106 0 195.5 54t141.5 145l20 123h-264z" />
    <glyph glyph-name="H" unicode="H" horiz-adv-x="662" 
d="M152 380h478l55 346h37l-115 -726h-37l55 345h-478l-55 -345h-37l115 726h37z" />
    <glyph glyph-name="I" unicode="I" horiz-adv-x="147" 
d="M55 0l115 726h37l-115 -726h-37z" />
    <glyph glyph-name="J" unicode="J" horiz-adv-x="662" 
d="M329 -10q-276 0 -237 244l23 145h37l-23 -145q-33 -210 206 -210q116 0 185 49t87 161l78 492h37l-78 -492q-38 -244 -315 -244z" />
    <glyph glyph-name="K" unicode="K" horiz-adv-x="669" 
d="M378 451l236 -451h-46l-223 424l-213 -169l-40 -255h-37l115 726h37l-66 -418l530 418h55z" />
    <glyph glyph-name="L" unicode="L" horiz-adv-x="656" 
d="M55 0l115 726h38l-109 -691h508l-6 -35h-546z" />
    <glyph glyph-name="M" unicode="M" horiz-adv-x="758" 
d="M388 56l391 670h39l-115 -726h-37l103 642l-373 -642h-35l-168 642l-101 -642h-37l115 726h39z" />
    <glyph glyph-name="N" unicode="N" horiz-adv-x="660" 
d="M578 59l105 667h37l-115 -726h-39l-369 667l-105 -667h-37l115 726h38z" />
    <glyph glyph-name="O" unicode="O" horiz-adv-x="844" 
d="M419 -11q-160 0 -246.5 105t-60.5 268q26 162 144.5 267.5t280.5 105.5t248.5 -104.5t60.5 -268.5q-25 -161 -144.5 -267t-282.5 -106zM425 23q146 0 254 95.5t131 243.5q24 147 -53 243t-225 96q-144 0 -252.5 -96t-131.5 -243q-23 -145 54 -242t223 -97z" />
    <glyph glyph-name="P" unicode="P" 
d="M92 0h-37l115 726h289q52 0 93 -9t74 -30t47 -60t6 -93q-30 -189 -280 -189h-252zM454 692h-252l-50 -312h252q214 0 239 154q7 45 -5.5 77.5t-41.5 49t-64 24t-78 7.5z" />
    <glyph glyph-name="Q" unicode="Q" horiz-adv-x="844" 
d="M846 362q-29 -184 -174 -291l93 -71l-26 -26l-99 76q-100 -61 -221 -61q-160 0 -246.5 105t-60.5 268q26 162 144.5 267.5t280.5 105.5t248.5 -104.5t60.5 -268.5zM425 23q101 0 186 48l-166 128l26 28l175 -135q65 46 108 116t56 154q24 147 -53 243t-225 96
q-144 0 -252.5 -96t-131.5 -243q-23 -145 54 -242t223 -97z" />
    <glyph glyph-name="R" unicode="R" horiz-adv-x="661" 
d="M435 345l171 -345h-45l-172 345h-242l-55 -345h-37l115 726h289q52 0 93 -9t74 -30t47 -60t6 -93q-28 -174 -244 -189zM454 692h-252l-50 -312h252q214 0 239 154q13 86 -42 122t-147 36z" />
    <glyph glyph-name="S" unicode="S" horiz-adv-x="733" 
d="M485 736q241 0 271 -182h-38q-28 148 -239 148q-40 0 -83 -9.5t-85.5 -28t-73 -52t-37.5 -76.5q-6 -35 13 -72q38 -61 240 -92q45 -7 72 -12.5t69 -20.5t65 -33.5t38 -50.5t10 -74l-1 -4q-8 -51 -43.5 -89t-85 -58.5t-98.5 -30t-96 -9.5q-287 0 -297 208h42
q1 -48 24.5 -83.5t63 -54.5t82.5 -27.5t91 -8.5q40 0 83 8t87 24.5t75.5 49t38.5 75.5q9 61 -42 97q-49 36 -190 60q-40 5 -64 9.5t-64 14t-64.5 23.5t-48.5 34t-33 50t-3 67q8 51 42.5 91.5t82.5 63t98 34t98 11.5z" />
    <glyph glyph-name="T" unicode="T" horiz-adv-x="687" 
d="M165 692l5 34h577l-5 -34h-270l-110 -692h-37l110 692h-270z" />
    <glyph glyph-name="U" unicode="U" horiz-adv-x="662" 
d="M607 234l78 492h37l-78 -492q-38 -244 -315 -244q-275 0 -237 244l78 492h37l-78 -492q-17 -111 37 -160.5t169 -49.5q116 0 185 49t87 161z" />
    <glyph glyph-name="V" unicode="V" horiz-adv-x="819" 
d="M170 726h42l211 -643l415 643h41l-469 -726z" />
    <glyph glyph-name="W" unicode="W" horiz-adv-x="1080" 
d="M669 726l121 -620l313 620h37l-367 -726l-129 657l-336 -657l-138 726h38l117 -620l317 620h27z" />
    <glyph glyph-name="X" unicode="X" horiz-adv-x="742" 
d="M640 0l-211 345l-327 -345h-47l358 376l-219 350h45l199 -322l311 322h42l-336 -352l232 -374h-47z" />
    <glyph glyph-name="Y" unicode="Y" horiz-adv-x="705" 
d="M403 317l318 409h44l-350 -445l-45 -281h-35l45 281l-210 445h44z" />
    <glyph glyph-name="Z" unicode="Z" horiz-adv-x="663" 
d="M702 726l-4 -28l-590 -664h505l-5 -34h-553l4 28l589 664h-475l5 34h524z" />
    <glyph glyph-name="bracketleft" unicode="[" horiz-adv-x="309" 
d="M211 801h213l-6 -34h-178l-144 -912h178l-6 -35h-213z" />
    <glyph glyph-name="backslash" unicode="\" horiz-adv-x="403" 
d="M352 -75h-38l-147 876h38z" />
    <glyph glyph-name="bracketright" unicode="]" horiz-adv-x="309" 
d="M133 767l6 34h213l-156 -981h-213l6 35h178l144 912h-178z" />
    <glyph glyph-name="asciicircum" unicode="^" horiz-adv-x="607" 
d="M415 801h32l180 -420h-43l-160 373l-279 -373h-44z" />
    <glyph glyph-name="underscore" unicode="_" horiz-adv-x="554" 
d="M-19 -118l6 34h554l-6 -34h-554z" />
    <glyph glyph-name="grave" unicode="`" horiz-adv-x="255" 
d="M260 624l-78 177h43l74 -177h-39z" />
    <glyph glyph-name="a" unicode="a" horiz-adv-x="671" 
d="M584 24q15 0 37 9l-6 -37q-9 -4 -13 -4q-2 -1 -5 -1q-6 -1 -17 -1q-82 0 -77 88q-44 -44 -120.5 -66t-142.5 -22q-35 0 -65 7t-56 21.5t-38 42t-6 64.5q6 42 30.5 72.5t62 48t72 27t77.5 15.5l224 34l9 57q12 73 -41.5 110.5t-131.5 37.5t-129 -30t-91 -102l-27 24
q44 76 105.5 109t147.5 33q62 0 110 -16.5t76.5 -59t18.5 -106.5l-46 -288q-10 -67 42 -67zM251 24q37 0 77.5 7.5t82 23.5t71 46t35.5 69l18 117l-206 -31q-109 -16 -160 -49q-48 -33 -56 -82q-5 -28 6.5 -49t34 -31.5t47 -15.5t50.5 -5z" />
    <glyph glyph-name="b" unicode="b" 
d="M411 558q121 0 183 -82t43 -202q-19 -121 -106.5 -202t-208.5 -81q-77 0 -131.5 35.5t-78.5 97.5l-20 -124h-37l115 726h37l-48 -302q44 62 109.5 98t142.5 36zM327 26q106 0 181.5 70.5t92.5 177.5q17 105 -36.5 176.5t-158.5 71.5q-97 0 -170.5 -63.5t-96.5 -159.5
l-8 -50q-8 -97 45 -160t151 -63z" />
    <glyph glyph-name="c" unicode="c" horiz-adv-x="621" 
d="M322 -9q-119 0 -181 81t-43 202q19 120 106.5 202t206.5 82q79 0 136 -40.5t83 -110.5h-41q-21 54 -69 84.5t-114 30.5q-103 0 -179 -71.5t-93 -176.5q-17 -107 36 -177.5t157 -70.5q133 0 219 111l42 2q-50 -69 -118.5 -108.5t-147.5 -39.5z" />
    <glyph glyph-name="d" unicode="d" 
d="M413 558q79 0 132.5 -35t78.5 -98l48 301h37l-115 -726h-37l19 123q-93 -132 -252 -132q-121 0 -183 81t-43 202t107 202.5t208 81.5zM329 26q96 0 169 63t98 158l8 52q5 97 -47.5 160t-148.5 63q-104 0 -180.5 -71.5t-93.5 -176.5q-17 -106 36.5 -177t158.5 -71z" />
    <glyph glyph-name="e" unicode="e" 
d="M560 137h42q-51 -68 -123 -107t-154 -39q-126 0 -186.5 78t-40.5 205q19 120 106.5 202t206.5 82q121 0 183 -84t40 -220h-502q-11 -103 42.5 -165.5t155.5 -62.5q139 0 230 111zM406 522q-101 0 -175 -65.5t-93 -167.5h465q13 102 -40.5 167.5t-156.5 65.5z" />
    <glyph glyph-name="f" unicode="f" horiz-adv-x="504" 
d="M365 637q-54 -38 -64 -76h183l-6 -34h-184l-88 -527h-37l88 527h-119l6 34h119q13 56 82 103q82 56 219 56l-5 -34q-121 0 -194 -49z" />
    <glyph glyph-name="g" unicode="g" 
d="M623 426l22 135h38l-88 -547q-23 -117 -109 -194t-204 -77q-89 0 -147.5 49t-76.5 131h37q18 -67 68 -106t125 -39q100 0 174.5 67.5t95.5 168.5l17 107q-44 -61 -109 -96t-143 -35q-121 0 -182.5 81.5t-42.5 201.5q19 121 106.5 202.5t208.5 81.5q78 0 132 -35t78 -96z
M594 238l11 71q2 93 -50.5 152.5t-146.5 59.5q-105 0 -181 -71t-93 -177q-17 -105 37 -176.5t158 -71.5q93 0 165.5 60.5t99.5 152.5z" />
    <glyph glyph-name="h" unicode="h" 
d="M139 299l-47 -299h-37l115 726h37l-48 -301q44 63 108.5 98t143.5 35q121 0 183 -82t43 -202l-43 -274h-36l43 274q17 105 -37 176.5t-158 71.5q-96 0 -169 -63t-98 -160z" />
    <glyph glyph-name="i" unicode="i" horiz-adv-x="176" 
d="M192 654q-14 0 -22 10t-6 23q2 14 13 23.5t25 9.5q16 0 23 -9t5 -24q-2 -14 -13 -23.5t-25 -9.5zM70 0l89 562h37l-89 -562h-37z" />
    <glyph glyph-name="j" unicode="j" horiz-adv-x="173" 
d="M199 720q15 0 23 -9q7 -9 5 -24q-2 -14 -13 -23.5t-25 -9.5t-22 10t-6 23q2 14 13 23.5t25 9.5zM53 -89l103 650h36l-103 -650q-12 -75 -58 -123t-119 -48q-49 0 -83 31l20 35q27 -31 68 -31q56 0 91.5 39t44.5 97z" />
    <glyph glyph-name="k" unicode="k" horiz-adv-x="549" 
d="M300 330l194 -330h-46l-179 303l-148 -121l-29 -182h-37l115 726h37l-78 -494l399 329h54z" />
    <glyph glyph-name="l" unicode="l" horiz-adv-x="277" 
d="M75 124l95 602h37l-95 -602q-17 -100 52 -100q31 0 64 15l-6 -38q-31 -11 -64 -11q-105 0 -83 134z" />
    <glyph glyph-name="m" unicode="m" horiz-adv-x="985" 
d="M792 559q101 0 150.5 -82t30.5 -203l-43 -275h-35l43 275q17 105 -25 176t-127 71q-84 0 -149 -71t-82 -176l-43 -275h-35l43 275q17 105 -25 176t-127 71q-79 0 -141 -63t-85 -159l-47 -300h-37l86 560h36l-17 -124q39 58 93.5 91t117.5 33q72 0 119.5 -46.5
t62.5 -121.5q38 75 101 121.5t135 46.5z" />
    <glyph glyph-name="n" unicode="n" horiz-adv-x="652" 
d="M143 299l-47 -299h-37l85 561h37l-18 -134q87 131 253 131q120 0 181.5 -81.5t42.5 -202.5l-43 -274h-34l43 274q17 105 -37 176.5t-158 71.5q-96 0 -169.5 -63.5t-98.5 -159.5z" />
    <glyph glyph-name="o" unicode="o" 
d="M98 274q19 120 106.5 202t206.5 82q121 0 183 -82t43 -202q-19 -121 -106.5 -202t-208.5 -81q-119 0 -181 81t-43 202zM601 274q17 105 -36.5 176.5t-158.5 71.5q-103 0 -179 -71.5t-93 -176.5q-17 -107 36 -177.5t157 -70.5q106 0 181.5 70.5t92.5 177.5z" />
    <glyph glyph-name="p" unicode="p" 
d="M322 -8q-79 0 -132.5 35t-77.5 98l-47 -295h-37l116 729h37l-21 -132q43 62 108 97t144 35q121 0 183 -81.5t43 -202.5q-19 -120 -107 -201.5t-209 -81.5zM406 523q-96 0 -168.5 -62.5t-97.5 -158.5l-8 -52q-5 -96 47 -159.5t148 -63.5q104 0 181 71.5t94 176.5
q17 106 -37 177t-159 71z" />
    <glyph glyph-name="q" unicode="q" 
d="M324 -8q-121 0 -182.5 81.5t-42.5 201.5q19 121 106.5 202.5t208.5 81.5q157 0 211 -132l21 132h37l-116 -729h-37l47 295q-94 -133 -253 -133zM408 523q-105 0 -180.5 -71t-92.5 -177q-17 -105 36.5 -176.5t157.5 -71.5q96 0 169 63.5t99 159.5l8 52q5 96 -48 158.5
t-149 62.5z" />
    <glyph glyph-name="r" unicode="r" horiz-adv-x="522" 
d="M143 299l-47 -299h-37l85 561h37l-19 -138q44 62 110 98.5t144 36.5q71 0 134 -36l-18 -36q-56 36 -121 36q-96 0 -169.5 -63.5t-98.5 -159.5z" />
    <glyph glyph-name="s" unicode="s" horiz-adv-x="585" 
d="M586 413h-36q-15 114 -173 114q-29 0 -61 -7t-63.5 -20.5t-54.5 -38t-28 -55.5q-8 -50 46 -83q60 -23 139 -35q40 -7 64 -12.5t55 -17.5t47.5 -26.5t26 -38.5t4.5 -55q-8 -53 -53 -88t-94.5 -47t-99.5 -12q-110 0 -168.5 41.5t-57.5 122.5h38q0 -36 17.5 -62.5t47.5 -40
t61.5 -20t66.5 -6.5q43 0 84.5 9t79.5 36.5t44 68.5q9 54 -48 81q-38 19 -137 34q-35 7 -53.5 11t-48 12.5t-45 18.5t-31.5 25t-20.5 36t-0.5 48q8 53 52 90t95 51.5t102 14.5q98 0 146.5 -37t56.5 -112z" />
    <glyph glyph-name="t" unicode="t" horiz-adv-x="468" 
d="M404 70l15 -31q-52 -49 -123 -49q-137 0 -112 154l60 383h-106l6 34h106l26 165h37l-26 -165h205l-6 -34h-205l-60 -383q-19 -120 81 -120q53 0 102 46z" />
    <glyph glyph-name="u" unicode="u" horiz-adv-x="652" 
d="M596 246l50 315h37l-86 -563h-35l16 127q-44 -63 -110.5 -99.5t-144.5 -36.5q-121 0 -182.5 81t-42.5 202l46 289h36l-46 -289q-17 -105 37 -176.5t158 -71.5q96 0 168.5 63t98.5 159z" />
    <glyph glyph-name="v" unicode="v" 
d="M144 560h41l152 -477l303 478h43l-359 -561z" />
    <glyph glyph-name="w" unicode="w" horiz-adv-x="901" 
d="M547 561l117 -460l233 460h38l-285 -561l-122 486l-277 -486l-107 561h38l87 -460l263 460h15z" />
    <glyph glyph-name="x" unicode="x" horiz-adv-x="621" 
d="M623 561l-247 -267l190 -294h-51l-170 261l-242 -261h-48l270 292l-174 269h51l154 -237l219 237h48z" />
    <glyph glyph-name="y" unicode="y" horiz-adv-x="602" 
d="M309 39l287 522h40l-378 -687q-43 -76 -80 -105q-42 -29 -95 -29q-30 0 -53 11l6 41q25 -16 54 -16q39 0 70 22q27 21 65 87l57 105l-138 571h40z" />
    <glyph glyph-name="z" unicode="z" horiz-adv-x="568" 
d="M518 34l-5 -34h-449l4 28l462 499h-392l6 34h442l-5 -28l-460 -499h397z" />
    <glyph glyph-name="braceleft" unicode="{" horiz-adv-x="297" 
d="M276 682l-41 -259q-12 -76 -83 -107q62 -32 49 -108l-41 -260q-8 -49 17 -72.5t75 -23.5l-6 -34q-66 0 -100 32t-23 98l41 260q6 42 -19 67q-29 24 -89 24l6 33q122 0 136 91l41 259q10 65 54 97t110 32l-5 -34q-107 0 -122 -95z" />
    <glyph glyph-name="bar" unicode="|" horiz-adv-x="203" 
d="M55 -180l156 981h35l-156 -981h-35z" />
    <glyph glyph-name="braceright" unicode="}" horiz-adv-x="297" 
d="M275 682l-41 -259q-8 -48 23.5 -69.5t83.5 -21.5l-6 -33q-121 0 -135 -91l-41 -260q-11 -66 -55.5 -98t-110.5 -32l6 34q53 0 86 26q29 26 37 70l41 260q11 74 82 108q-29 15 -41 43.5t-7 63.5l41 259q7 41 -15 70q-22 25 -78 25l5 34q66 0 100.5 -32t24.5 -97z" />
    <glyph glyph-name="asciitilde" unicode="~" horiz-adv-x="538" 
d="M524 443h37q-36 -121 -132 -121q-39 0 -60 11q-35 19 -53 31q-27 19 -48 29q-19 9 -43 9q-38 0 -57.5 -22t-32.5 -64h-38q37 120 133 120q42 0 60 -10q30 -15 52 -32q1 -1 9 -6t10 -6t9.5 -5.5t10.5 -5.5t9.5 -4t10.5 -4.5t10.5 -3t12 -2t11.5 -0.5q37 0 57 22.5t32 63.5
z" />
    <glyph glyph-name="exclamdown" unicode="&#xa1;" horiz-adv-x="209" 
d="M183 493q-14 0 -22 10t-6 23q2 15 13 24.5t26 9.5q13 0 24 -9q6 -11 3 -25q-2 -14 -12.5 -23.5t-25.5 -9.5zM183 373l-86 -544h-37l86 544h37z" />
    <glyph glyph-name="cent" unicode="&#xa2;" horiz-adv-x="599" 
d="M537 174l33 -10q-30 -81 -96.5 -126.5t-151.5 -47.5l-15 -97h-34l15 97q-113 7 -157 87.5t-25 199.5t88.5 200t184.5 88l16 97h34l-16 -97q83 -2 132.5 -42t57.5 -120l-36 -16q-12 141 -159 144l-80 -507q73 3 129.5 41.5t79.5 108.5zM294 25l80 505q-99 -11 -157.5 -80
t-74.5 -173t19.5 -174t132.5 -78z" />
    <glyph glyph-name="sterling" unicode="&#xa3;" horiz-adv-x="634" 
d="M583 143h35q-24 -153 -172 -153q-45 0 -75 14t-66 47q-32 -29 -69 -43q-42 -18 -92 -18q-43 0 -74 20t-25 60q7 43 46.5 63.5t85.5 20.5q40 0 68.5 -12.5t61.5 -40.5q24 33 32 73q7 44 -3 75.5t-36 74.5h-148l6 35h121q-27 49 -38 87.5t-3 85.5q15 93 85 148.5t164 55.5
q83 0 127.5 -44.5t39.5 -126.5l-38 -14q5 70 -30 110.5t-105 40.5q-82 0 -137.5 -44.5t-68.5 -125.5q-6 -37 4 -77q3 -11 20.5 -41.5t24.5 -52.5l1 -2h231l-6 -35h-204q21 -43 29 -68q6 -39 0 -79q-9 -57 -44 -99q30 -28 56.5 -41t64.5 -13q58 0 88.5 29.5t42.5 89.5z
M150 24q74 0 132 49q-19 19 -45 33q-29 13 -64 13q-30 0 -58.5 -11.5t-32.5 -37.5q-3 -20 15 -32q14 -14 53 -14z" />
    <glyph glyph-name="currency" unicode="&#xa4;" horiz-adv-x="676" 
d="M594 366q-14 -83 -61 -134l94 -113l-30 -26l-94 112q-57 -46 -140 -46q-80 0 -125 45l-128 -111l-23 27l129 112q-32 54 -19 134q12 81 58 131l-91 109l31 27l90 -109q58 48 144 48q83 0 127 -48l126 109l22 -26l-127 -111q29 -49 17 -130zM369 193q76 0 126 48t62 125
t-23 124t-111 47t-127 -47t-63 -124q-12 -78 23.5 -125.5t112.5 -47.5z" />
    <glyph glyph-name="yen" unicode="&#xa5;" horiz-adv-x="646" 
d="M374 319l295 407h43l-308 -417h208l-5 -34h-222l-16 -98h222l-6 -35h-222l-22 -142h-36l22 142h-221l6 35h221l16 98h-221l5 34h206l-176 417h44z" />
    <glyph glyph-name="brokenbar" unicode="&#xa6;" horiz-adv-x="218" 
d="M153 389l65 412h36l-65 -412h-36zM62 -180l66 412h36l-66 -412h-36z" />
    <glyph glyph-name="section" unicode="&#xa7;" horiz-adv-x="595" 
d="M605 295q-8 -51 -48 -85t-95 -50q27 -16 42 -39q15 -33 7 -80q-12 -78 -78 -118t-150 -40q-161 0 -182 104l34 21q18 -91 154 -91q68 0 122 30t64 93q5 29 -6 51.5t-27.5 35t-46 22.5t-48.5 14t-50 8q-33 5 -56 10t-54 17t-48.5 27t-28 40.5t-5.5 58.5q15 94 142 135
q-61 41 -48 119q12 78 78.5 118t150.5 40q157 0 183 -104l-36 -21q-16 91 -153 91q-68 0 -122 -30t-64 -93q-5 -29 6 -51.5t27 -35.5t46 -22.5t49 -13t50 -8.5q36 -6 57 -10t53.5 -15.5t48.5 -26.5t26.5 -41t5.5 -60zM417 181l-3 -1q141 27 156 115q7 47 -28 73
q-39 27 -140 45q-61 7 -111 24q-54 -10 -98 -38t-51 -75q-5 -32 8 -52q24 -42 160 -65q56 -8 107 -26z" />
    <glyph glyph-name="dieresis" unicode="&#xa8;" horiz-adv-x="373" 
d="M200 706q12 0 23 -8q7 -11 5 -25t-13.5 -23.5t-25.5 -9.5t-21.5 9.5t-5.5 23.5q5 33 38 33zM397 706q13 0 24 -8q5 -13 4 -25q-2 -14 -13 -23.5t-26 -9.5t-23 9t-5 24q2 15 14 25q11 8 25 8z" />
    <glyph glyph-name="copyright" unicode="&#xa9;" horiz-adv-x="874" 
d="M437 736q169 0 272 -101t103 -272q0 -167 -102.5 -270t-272.5 -103q-167 0 -271 101.5t-104 271.5q0 168 102 270.5t273 102.5zM437 702q-149 0 -244 -94t-95 -245q0 -149 94 -244t245 -95q149 0 243.5 94t94.5 245q0 150 -93.5 244.5t-244.5 94.5zM448 152
q-87 0 -143 59t-56 150t56.5 149.5t142.5 58.5q57 0 105 -30.5t76 -86.5h-38q-49 83 -143 83q-72 0 -117.5 -49t-45.5 -125t45.5 -125t117.5 -49q93 0 142 80l39 2q-29 -55 -76.5 -86t-104.5 -31z" />
    <glyph glyph-name="ordfeminine" unicode="&#xaa;" horiz-adv-x="493" 
d="M428 23q10 0 30 7l-5 -32q-10 -4 -17 -4q-5 -1 -11 -1q-60 0 -60 60q-33 -31 -86 -45.5t-102 -14.5q-57 0 -93.5 24.5t-28.5 76.5q16 99 178 120l161 26l6 38q8 53 -29.5 79t-94.5 26q-58 0 -92.5 -21.5t-66.5 -76.5l-22 21q32 58 76.5 82.5t108.5 24.5q73 0 118.5 -33
t34.5 -102l-33 -209q-8 -46 28 -46zM186 23q26 0 55 5.5t58.5 17t51 32.5t25.5 49l13 81l-148 -22q-76 -12 -114 -35q-35 -25 -39 -57q-6 -34 20 -51q23 -20 78 -20z" />
    <glyph glyph-name="guillemotleft" unicode="&#xab;" horiz-adv-x="440" 
d="M98 294l195 219h47l-195 -219l126 -220h-47zM224 294l196 219h46l-195 -219l126 -220h-46z" />
    <glyph glyph-name="logicalnot" unicode="&#xac;" horiz-adv-x="670" 
d="M601 331h-464l6 34h501l-28 -176h-37z" />
    <glyph glyph-name="uni00AD" unicode="&#xad;" horiz-adv-x="470" 
d="M119 280l6 37h320l-6 -37h-320z" />
    <glyph glyph-name="registered" unicode="&#xae;" horiz-adv-x="874" 
d="M437 736q169 0 272 -101t103 -272q0 -167 -102.5 -270t-272.5 -103q-167 0 -271 101.5t-104 271.5q0 168 102 270.5t273 102.5zM437 24q149 0 243.5 94t94.5 245q0 150 -93.5 244.5t-244.5 94.5q-149 0 -244 -94t-95 -245q0 -149 94 -244t245 -95zM492 345l129 -193h-41
l-127 192h-124v-192h-35v417h168q146 0 146 -113q0 -57 -40 -87q-31 -20 -76 -24zM462 536h-133v-160h133q113 0 113 80t-113 80z" />
    <glyph glyph-name="macron" unicode="&#xaf;" horiz-adv-x="437" 
d="M158 648l5 34h327l-5 -34h-327z" />
    <glyph glyph-name="degree" unicode="&#xb0;" horiz-adv-x="348" 
d="M279 673q-61 0 -94.5 39.5t-23.5 100.5q10 63 55 101.5t107 38.5q63 0 95 -38.5t22 -101.5q-10 -61 -54.5 -100.5t-106.5 -39.5zM284 706q49 0 81 29t40 78t-15 78t-72 29q-48 0 -80.5 -29.5t-40.5 -77.5q-8 -49 15.5 -78t71.5 -29z" />
    <glyph glyph-name="plusminus" unicode="&#xb1;" horiz-adv-x="670" 
d="M426 685h35l-42 -266h233l-5 -34h-233l-43 -271h-35l43 271h-233l5 34h233zM591 34l-5 -34h-501l5 34h501z" />
    <glyph glyph-name="uni00B2" unicode="&#xb2;" horiz-adv-x="326" 
d="M163 567h234l-5 -28h-285l4 23q121 90 168 128q103 84 114 147q7 48 -16.5 74t-72.5 26q-44 0 -83 -29q-33 -32 -45 -88h-29q14 67 55 106t107 39q62 0 92.5 -33.5t20.5 -94.5q-14 -80 -118 -164q-13 -10 -60 -45t-81 -61z" />
    <glyph glyph-name="uni00B3" unicode="&#xb3;" horiz-adv-x="288" 
d="M341 755q22 -9 32.5 -38.5t6.5 -56.5q-9 -51 -51.5 -82.5t-94.5 -31.5q-109 0 -122 105l31 3q3 -39 25 -61q28 -20 71 -20q41 0 72.5 23.5t38.5 64.5q5 35 -13 58q-22 22 -63 22h-68l5 28h68q39 0 66.5 20.5t33.5 58.5q7 40 -17 64t-66 24q-87 0 -122 -81l-29 3
q43 105 156 105q54 0 85.5 -30.5t22.5 -83.5q-9 -66 -68 -94z" />
    <glyph glyph-name="acute" unicode="&#xb4;" horiz-adv-x="255" 
d="M194 624h-40l131 177h42z" />
    <glyph glyph-name="uni00B5" unicode="&#xb5;" horiz-adv-x="607" 
d="M524 221l52 329h36l-87 -550h-36l16 102q-41 -54 -102.5 -83t-127.5 -29q-107 0 -146 78l-46 -290h-37l122 772h37l-57 -361q-12 -76 24 -120.5t112 -44.5q84 0 155.5 56.5t84.5 140.5z" />
    <glyph glyph-name="paragraph" unicode="&#xb6;" horiz-adv-x="576" 
d="M403 726h199l-132 -833h-37l127 799h-130l-127 -799h-37l60 379q-105 2 -168 62.5t-46 164.5q17 106 99.5 166.5t191.5 60.5zM332 307l61 385q-93 -5 -161.5 -53.5t-82.5 -139.5q-14 -88 38.5 -138t144.5 -54z" />
    <glyph glyph-name="periodcentered" unicode="&#xb7;" horiz-adv-x="229" 
d="M183 428q15 0 22 -9q8 -9 6 -24q-2 -14 -13 -23.5t-26 -9.5t-23 9t-5 24q2 15 14 25q11 8 25 8z" />
    <glyph glyph-name="cedilla" unicode="&#xb8;" horiz-adv-x="327" 
d="M119 6l7 17h29q36 -20 55 -33.5t34.5 -41.5t9.5 -64q-7 -46 -41 -73t-79 -27q-39 0 -60 11l-1 -1q-26 13 -43 45l25 29q18 -28 35 -39.5t49 -11.5q30 0 53 18q22 20 26 48q4 22 -4 41t-27 35.5t-32 25t-36 21.5z" />
    <glyph glyph-name="uni00B9" unicode="&#xb9;" horiz-adv-x="342" 
d="M306 953h26l-65 -407h-29l56 349q-44 -43 -105 -62l-9 26q87 28 126 94z" />
    <glyph glyph-name="ordmasculine" unicode="&#xba;" horiz-adv-x="459" 
d="M69 195q13 85 75.5 143t147.5 58t129 -58t31 -143q-14 -86 -76 -143.5t-148 -57.5q-85 0 -129 57.5t-30 143.5zM421 195q11 72 -26 121t-108 49t-123.5 -49t-63.5 -121q-12 -73 24.5 -122t108.5 -49q73 0 124.5 49t63.5 122z" />
    <glyph glyph-name="guillemotright" unicode="&#xbb;" horiz-adv-x="437" 
d="M63 74l197 220l-128 219h47l127 -219l-196 -220h-47zM189 74l197 220l-128 219h47l128 -219l-197 -220h-47z" />
    <glyph glyph-name="onequarter" unicode="&#xbc;" horiz-adv-x="1313" 
d="M803 801l-425 -876h-38l425 876h38zM151 523l-8 34q141 47 224 169h32l-115 -726h-36l103 651q-84 -88 -200 -128zM1186 726h38l-75 -472h149l-5 -34h-149l-35 -220h-37l35 220h-357l4 27zM1178 668l-374 -414h308z" />
    <glyph glyph-name="onehalf" unicode="&#xbd;" horiz-adv-x="1296" 
d="M803 801l-425 -876h-38l425 876h38zM833 42l-12 -8h425l-5 -34h-488l5 29q182 134 294 223q186 149 204 267q14 88 -29.5 135.5t-132.5 47.5q-94 0 -154.5 -55.5t-79.5 -150.5h-37q24 111 95.5 175.5t181.5 64.5q105 0 157 -56.5t35 -160.5q-12 -78 -67 -146t-140 -137
q-90 -74 -252 -194zM151 523l-8 34q141 47 224 169h32l-115 -726h-36l103 651q-84 -88 -200 -128z" />
    <glyph glyph-name="threequarters" unicode="&#xbe;" horiz-adv-x="1554" 
d="M1044 801l-424 -876h-38l424 876h38zM612 541q-10 -60 -47 -107.5t-94 -65.5q8 -3 13 -6h1q21 -11 46 -44q37 -50 25 -126q-15 -91 -89 -146.5t-168 -55.5q-96 0 -153 44.5t-64 134.5l38 2q6 -66 49 -108q50 -39 136 -39q78 0 140.5 46t74.5 123q12 75 -29.5 115.5
t-118.5 40.5h-118l6 34h118q78 0 135 44q50 46 62 113q12 78 -35 123t-127 45q-167 0 -231 -147l-38 2q73 180 275 180q94 0 150.5 -55t42.5 -147zM1427 726h38l-75 -472h149l-5 -34h-149l-35 -220h-37l35 220h-357l4 27zM1419 668l-374 -414h308z" />
    <glyph glyph-name="questiondown" unicode="&#xbf;" horiz-adv-x="524" 
d="M351 488q-15 0 -23 9t-5 25q2 15 13 25q11 8 26 8q13 0 22 -9q8 -11 6 -24q-2 -15 -13.5 -24.5t-25.5 -9.5zM226 -187q-93 0 -145 49.5t-38 140.5q16 100 79 156t172 87l23 143h36l-27 -167q-55 -16 -89 -30.5t-70.5 -39t-57.5 -61.5t-29 -88q-12 -74 32 -114.5
t120 -40.5q95 0 149.5 41.5t82.5 135.5l30 -16q-31 -102 -97 -149t-171 -47z" />
    <glyph glyph-name="Agrave" unicode="&#xc0;" horiz-adv-x="819" 
d="M567 784l-78 177h43l74 -177h-39zM527 739l237 -739h-41l-75 234h-403l-148 -234h-42zM636 268l-122 388l-247 -388h369z" />
    <glyph glyph-name="Aacute" unicode="&#xc1;" horiz-adv-x="819" 
d="M501 784h-40l131 177h42zM527 739l237 -739h-41l-75 234h-403l-148 -234h-42zM636 268l-122 388l-247 -388h369z" />
    <glyph glyph-name="Acircumflex" unicode="&#xc2;" horiz-adv-x="819" 
d="M546 956h29l104 -172h-43l-81 131l-123 -131h-44zM527 739l237 -739h-41l-75 234h-403l-148 -234h-42zM636 268l-122 388l-247 -388h369z" />
    <glyph glyph-name="Atilde" unicode="&#xc3;" horiz-adv-x="819" 
d="M699 910h36q-19 -54 -45 -81t-75 -27q-52 0 -86 40q-25 33 -60 33q-33 0 -48.5 -18.5t-27.5 -55.5h-37q19 54 45 81.5t75 27.5q30 0 46 -8.5t39 -32.5q28 -33 59 -33q32 0 48 18.5t31 55.5zM527 739l237 -739h-41l-75 234h-403l-148 -234h-42zM636 268l-122 388
l-247 -388h369z" />
    <glyph glyph-name="Adieresis" unicode="&#xc4;" horiz-adv-x="819" 
d="M448 867q14 0 23 -9q7 -10 5 -24q-2 -15 -13 -24t-25 -9t-22 9.5t-6 23.5t12.5 23.5t25.5 9.5zM645 867q15 0 23 -9q7 -10 5 -24q-5 -33 -38 -33q-15 0 -23 9t-6 24q3 14 14 25q13 8 25 8zM527 739l237 -739h-41l-75 234h-403l-148 -234h-42zM636 268l-122 388l-247 -388
h369z" />
    <glyph glyph-name="Aring" unicode="&#xc5;" horiz-adv-x="819" 
d="M563 967q42 0 65.5 -26.5t16.5 -68.5t-38.5 -69t-73.5 -27t-65.5 27t-16.5 69q7 41 39 68t73 27zM558 932q-26 0 -46 -17.5t-24 -42.5q-4 -26 10 -44t40 -18t46.5 18t24.5 44t-10.5 43t-40.5 17zM527 739l237 -739h-41l-75 234h-403l-148 -234h-42zM636 268l-122 388
l-247 -388h369z" />
    <glyph glyph-name="AE" unicode="&#xc6;" horiz-adv-x="970" 
d="M948 0h-547l37 234h-193l-148 -234h-42l464 726h544l-5 -34h-509l-50 -312h386l-5 -35h-386l-50 -311h509zM443 268l58 365l-234 -365h176z" />
    <glyph glyph-name="Ccedilla" unicode="&#xc7;" horiz-adv-x="822" 
d="M765 227l38 -1q-51 -101 -144.5 -164.5t-208.5 -71.5q61 -45 50 -109q-7 -46 -41 -73t-79 -27q-38 0 -60 11v-1q-27 13 -44 45l26 29q17 -28 34.5 -39.5t49.5 -11.5q31 0 52 18q23 21 27 48q9 59 -78 110q-146 11 -222.5 114.5t-52.5 257.5q26 162 144.5 267.5
t280.5 105.5q113 0 191.5 -53t108.5 -146l-40 -1q-29 77 -98 121.5t-167 44.5q-144 0 -252.5 -96t-131.5 -243q-23 -145 54 -242t223 -97q108 0 198 55t142 149z" />
    <glyph glyph-name="Egrave" unicode="&#xc8;" horiz-adv-x="656" 
d="M486 784l-78 177h43l74 -177h-39zM534 345h-386l-50 -311h508l-5 -34h-546l115 726h546l-5 -34h-508l-50 -312h386z" />
    <glyph glyph-name="Eacute" unicode="&#xc9;" horiz-adv-x="656" 
d="M420 784h-40l131 177h42zM534 345h-386l-50 -311h508l-5 -34h-546l115 726h546l-5 -34h-508l-50 -312h386z" />
    <glyph glyph-name="Ecircumflex" unicode="&#xca;" horiz-adv-x="656" 
d="M465 956h30l103 -172h-43l-81 131l-123 -131h-44zM534 345h-386l-50 -311h508l-5 -34h-546l115 726h546l-5 -34h-508l-50 -312h386z" />
    <glyph glyph-name="Edieresis" unicode="&#xcb;" horiz-adv-x="656" 
d="M367 867q14 0 23 -9q7 -10 5 -24q-2 -15 -13 -24t-25 -9t-22 9.5t-6 23.5t12.5 23.5t25.5 9.5zM564 867q15 0 24 -9q6 -10 4 -24q-5 -33 -38 -33q-15 0 -23 9t-6 24q3 14 14 25q13 8 25 8zM534 345h-386l-50 -311h508l-5 -34h-546l115 726h546l-5 -34h-508l-50 -312h386z
" />
    <glyph glyph-name="Igrave" unicode="&#xcc;" horiz-adv-x="160" 
d="M238 784l-78 177h43l74 -177h-39zM62 0l115 726h37l-115 -726h-37z" />
    <glyph glyph-name="Iacute" unicode="&#xcd;" horiz-adv-x="160" 
d="M172 784h-40l131 177h42zM62 0l115 726h37l-115 -726h-37z" />
    <glyph glyph-name="Icircumflex" unicode="&#xce;" horiz-adv-x="162" 
d="M219 956h29l103 -172h-43l-81 131l-123 -131h-44zM63 0l115 726h37l-115 -726h-37z" />
    <glyph glyph-name="Idieresis" unicode="&#xcf;" horiz-adv-x="140" 
d="M108 867q14 0 22 -9.5t6 -23.5t-13 -23.5t-25 -9.5t-22 9t-6 24q2 13 13 24q12 9 25 9zM306 867q15 0 24 -9q6 -8 4 -24q-5 -33 -38 -33q-15 0 -23 9t-6 24q3 14 14 25q13 8 25 8zM52 0l115 726h37l-115 -726h-37z" />
    <glyph glyph-name="Eth" unicode="&#xd0;" horiz-adv-x="708" 
d="M296 0h-244l70 444h-131l6 37h131l39 245h244q174 0 250.5 -93.5t49.5 -268.5q-58 -364 -415 -364zM406 692h-208l-34 -211h153l-6 -37h-153l-65 -410h208q322 0 374 330q24 154 -43 243q-70 85 -226 85z" />
    <glyph glyph-name="Ntilde" unicode="&#xd1;" horiz-adv-x="660" 
d="M619 910h36q-19 -54 -45 -81t-75 -27q-50 0 -86 40q-25 33 -60 33q-32 0 -48 -19t-28 -55h-37q19 54 45 81.5t75 27.5q30 0 46 -8.5t39 -32.5q28 -33 59 -33q32 0 48 18.5t31 55.5zM578 59l105 667h37l-115 -726h-39l-369 667l-105 -667h-37l115 726h38z" />
    <glyph glyph-name="Ograve" unicode="&#xd2;" horiz-adv-x="844" 
d="M579 784l-78 177h43l74 -177h-39zM419 -11q-160 0 -246.5 105t-60.5 268q26 162 144.5 267.5t280.5 105.5t248.5 -104.5t60.5 -268.5q-25 -161 -144.5 -267t-282.5 -106zM425 23q146 0 254 95.5t131 243.5q24 147 -53 243t-225 96q-144 0 -252.5 -96t-131.5 -243
q-23 -145 54 -242t223 -97z" />
    <glyph glyph-name="Oacute" unicode="&#xd3;" horiz-adv-x="844" 
d="M513 784h-40l131 177h42zM419 -11q-160 0 -246.5 105t-60.5 268q26 162 144.5 267.5t280.5 105.5t248.5 -104.5t60.5 -268.5q-25 -161 -144.5 -267t-282.5 -106zM425 23q146 0 254 95.5t131 243.5q24 147 -53 243t-225 96q-144 0 -252.5 -96t-131.5 -243
q-23 -145 54 -242t223 -97z" />
    <glyph glyph-name="Ocircumflex" unicode="&#xd4;" horiz-adv-x="844" 
d="M559 956h29l103 -172h-43l-81 131l-123 -131h-44zM419 -11q-160 0 -246.5 105t-60.5 268q26 162 144.5 267.5t280.5 105.5t248.5 -104.5t60.5 -268.5q-25 -161 -144.5 -267t-282.5 -106zM425 23q146 0 254 95.5t131 243.5q24 147 -53 243t-225 96q-144 0 -252.5 -96
t-131.5 -243q-23 -145 54 -242t223 -97z" />
    <glyph glyph-name="Otilde" unicode="&#xd5;" horiz-adv-x="844" 
d="M711 910h36q-18 -53 -44.5 -80.5t-75.5 -27.5q-51 0 -85 40q-26 33 -60 33q-33 0 -49 -19t-28 -55h-37q19 54 45.5 81.5t75.5 27.5q29 0 45.5 -9t38.5 -32q28 -33 59 -33q33 0 49 18.5t30 55.5zM419 -11q-160 0 -246.5 105t-60.5 268q26 162 144.5 267.5t280.5 105.5
t248.5 -104.5t60.5 -268.5q-25 -161 -144.5 -267t-282.5 -106zM425 23q146 0 254 95.5t131 243.5q24 147 -53 243t-225 96q-144 0 -252.5 -96t-131.5 -243q-23 -145 54 -242t223 -97z" />
    <glyph glyph-name="Odieresis" unicode="&#xd6;" horiz-adv-x="844" 
d="M460 867q16 0 23 -9q7 -10 5 -24q-5 -33 -38 -33q-14 0 -22 9.5t-6 23.5t13 23.5t25 9.5zM658 867q14 0 23 -9q7 -10 5 -24q-2 -15 -13 -24t-25 -9q-15 0 -23 9t-6 24q3 15 13 25q13 8 26 8zM419 -11q-160 0 -246.5 105t-60.5 268q26 162 144.5 267.5t280.5 105.5
t248.5 -104.5t60.5 -268.5q-25 -161 -144.5 -267t-282.5 -106zM425 23q146 0 254 95.5t131 243.5q24 147 -53 243t-225 96q-144 0 -252.5 -96t-131.5 -243q-23 -145 54 -242t223 -97z" />
    <glyph glyph-name="multiply" unicode="&#xd7;" horiz-adv-x="682" 
d="M400 373l205 176l24 -28l-205 -177l148 -176l-32 -30l-149 177l-204 -177l-24 30l204 176l-148 177l33 27z" />
    <glyph glyph-name="Oslash" unicode="&#xd8;" horiz-adv-x="844" 
d="M323 0l-37 -75h-38l41 86q-20 7 -50 25q-79 49 -111 135.5t-16 190.5q26 162 144.5 267.5t280.5 105.5q56 0 99 -11l37 77h38l-42 -87q103 -38 149.5 -135t27.5 -217q-25 -161 -144.5 -267t-282.5 -106q-55 0 -96 11zM305 44l315 648q-40 9 -88 9q-144 0 -252.5 -96
t-131.5 -243q-17 -106 24 -193.5t133 -124.5zM425 23q146 0 254 95.5t131 243.5q15 98 -15 175q-21 54 -54 86t-88 58l-314 -648q43 -10 86 -10z" />
    <glyph glyph-name="Ugrave" unicode="&#xd9;" horiz-adv-x="662" 
d="M489 784l-78 177h43l74 -177h-39zM607 234l78 492h37l-78 -492q-38 -244 -315 -244q-275 0 -237 244l78 492h37l-78 -492q-17 -111 37 -160.5t169 -49.5q116 0 185 49t87 161z" />
    <glyph glyph-name="Uacute" unicode="&#xda;" horiz-adv-x="662" 
d="M423 784h-40l131 177h42zM607 234l78 492h37l-78 -492q-38 -244 -315 -244q-275 0 -237 244l78 492h37l-78 -492q-17 -111 37 -160.5t169 -49.5q116 0 185 49t87 161z" />
    <glyph glyph-name="Ucircumflex" unicode="&#xdb;" horiz-adv-x="662" 
d="M468 956h29l104 -172h-43l-81 131l-123 -131h-44zM607 234l78 492h37l-78 -492q-38 -244 -315 -244q-275 0 -237 244l78 492h37l-78 -492q-17 -111 37 -160.5t169 -49.5q116 0 185 49t87 161z" />
    <glyph glyph-name="Udieresis" unicode="&#xdc;" horiz-adv-x="662" 
d="M370 867q14 0 23 -9q7 -10 5 -24q-2 -15 -13 -24t-25 -9t-22 9.5t-6 23.5t12.5 23.5t25.5 9.5zM567 867q15 0 23 -9q7 -10 5 -24q-5 -33 -38 -33q-15 0 -23 9t-6 24q3 14 14 25q13 8 25 8zM607 234l78 492h37l-78 -492q-38 -244 -315 -244q-275 0 -237 244l78 492h37
l-78 -492q-17 -111 37 -160.5t169 -49.5q116 0 185 49t87 161z" />
    <glyph glyph-name="Yacute" unicode="&#xdd;" horiz-adv-x="705" 
d="M444 784h-39l131 177h42zM403 317l318 409h44l-350 -445l-45 -281h-35l45 281l-210 445h44z" />
    <glyph glyph-name="germandbls" unicode="&#xdf;" horiz-adv-x="518" 
d="M442 381q33 -10 61 -49q36 -51 24 -125q-15 -91 -88.5 -146t-166.5 -55q-74 0 -117 22l7 39l16 -9q39 -18 99 -18q77 0 139 46t74 122q12 75 -28.5 115t-116.5 40h-118l6 34h118q76 0 128.5 40t64.5 115q10 56 -10 88q-18 39 -58.5 59t-90.5 20q-166 0 -229 -145
l-90 -568h-35l92 580q32 84 104.5 126t162.5 42q93 0 149.5 -54.5t42.5 -146.5q-21 -129 -140 -172z" />
    <glyph glyph-name="agrave" unicode="&#xe0;" horiz-adv-x="671" 
d="M390 794h42l73 -175h-38zM584 24q15 0 37 9l-6 -37q-9 -4 -13 -4q-2 -1 -5 -1q-6 -1 -17 -1q-82 0 -77 88q-44 -44 -120.5 -66t-142.5 -22q-35 0 -65 7t-56 21.5t-38 42t-6 64.5q6 42 30.5 72.5t62 48t72 27t77.5 15.5l224 34l9 57q12 73 -41.5 110.5t-131.5 37.5
t-129 -30t-91 -102l-27 24q44 76 105.5 109t147.5 33q62 0 110 -16.5t76.5 -59t18.5 -106.5l-46 -288q-10 -67 42 -67zM251 24q37 0 77.5 7.5t82 23.5t71 46t35.5 69l18 117l-206 -31q-109 -16 -160 -49q-48 -33 -56 -82q-5 -28 6.5 -49t34 -31.5t47 -15.5t50.5 -5z" />
    <glyph glyph-name="aacute" unicode="&#xe1;" horiz-adv-x="671" 
d="M362 619l130 175h41l-132 -175h-39zM584 24q15 0 37 9l-6 -37q-9 -4 -13 -4q-2 -1 -5 -1q-6 -1 -17 -1q-82 0 -77 88q-44 -44 -120.5 -66t-142.5 -22q-35 0 -65 7t-56 21.5t-38 42t-6 64.5q6 42 30.5 72.5t62 48t72 27t77.5 15.5l224 34l9 57q12 73 -41.5 110.5
t-131.5 37.5t-129 -30t-91 -102l-27 24q44 76 105.5 109t147.5 33q62 0 110 -16.5t76.5 -59t18.5 -106.5l-46 -288q-10 -67 42 -67zM251 24q37 0 77.5 7.5t82 23.5t71 46t35.5 69l18 117l-206 -31q-109 -16 -160 -49q-48 -33 -56 -82q-5 -28 6.5 -49t34 -31.5t47 -15.5
t50.5 -5z" />
    <glyph glyph-name="acircumflex" unicode="&#xe2;" horiz-adv-x="671" 
d="M578 619h-43l-80 130l-122 -130h-44l158 170h28zM584 24q15 0 37 9l-6 -37q-9 -4 -13 -4q-2 -1 -5 -1q-6 -1 -17 -1q-82 0 -77 88q-44 -44 -120.5 -66t-142.5 -22q-35 0 -65 7t-56 21.5t-38 42t-6 64.5q6 42 30.5 72.5t62 48t72 27t77.5 15.5l224 34l9 57
q12 73 -41.5 110.5t-131.5 37.5t-129 -30t-91 -102l-27 24q44 76 105.5 109t147.5 33q62 0 110 -16.5t76.5 -59t18.5 -106.5l-46 -288q-10 -67 42 -67zM251 24q37 0 77.5 7.5t82 23.5t71 46t35.5 69l18 117l-206 -31q-109 -16 -160 -49q-48 -33 -56 -82q-5 -28 6.5 -49
t34 -31.5t47 -15.5t50.5 -5z" />
    <glyph glyph-name="atilde" unicode="&#xe3;" horiz-adv-x="671" 
d="M369 709q-32 0 -47.5 -18.5t-27.5 -55.5h-36q16 52 43 80t76 28q30 0 46 -9t37 -32q28 -32 59 -32q32 0 47.5 18t31.5 56h35q-17 -52 -43.5 -80t-75.5 -28q-50 0 -84 40q-28 33 -61 33zM584 24q15 0 37 9l-6 -37q-9 -4 -13 -4q-2 -1 -5 -1q-6 -1 -17 -1q-82 0 -77 88
q-44 -44 -120.5 -66t-142.5 -22q-35 0 -65 7t-56 21.5t-38 42t-6 64.5q6 42 30.5 72.5t62 48t72 27t77.5 15.5l224 34l9 57q12 73 -41.5 110.5t-131.5 37.5t-129 -30t-91 -102l-27 24q44 76 105.5 109t147.5 33q62 0 110 -16.5t76.5 -59t18.5 -106.5l-46 -288
q-10 -67 42 -67zM251 24q37 0 77.5 7.5t82 23.5t71 46t35.5 69l18 117l-206 -31q-109 -16 -160 -49q-48 -33 -56 -82q-5 -28 6.5 -49t34 -31.5t47 -15.5t50.5 -5z" />
    <glyph glyph-name="adieresis" unicode="&#xe4;" horiz-adv-x="671" 
d="M339 635q-14 0 -22 9.5t-6 23.5t12.5 23t25.5 9t23 -8q6 -10 4 -24q-2 -15 -12.5 -24t-24.5 -9zM534 635q-15 0 -23 9t-5 24q2 14 13 25q11 7 25 7q16 0 24 -8q5 -13 4 -24q-5 -33 -38 -33zM584 24q15 0 37 9l-6 -37q-9 -4 -13 -4q-2 -1 -5 -1q-6 -1 -17 -1q-82 0 -77 88
q-44 -44 -120.5 -66t-142.5 -22q-35 0 -65 7t-56 21.5t-38 42t-6 64.5q6 42 30.5 72.5t62 48t72 27t77.5 15.5l224 34l9 57q12 73 -41.5 110.5t-131.5 37.5t-129 -30t-91 -102l-27 24q44 76 105.5 109t147.5 33q62 0 110 -16.5t76.5 -59t18.5 -106.5l-46 -288
q-10 -67 42 -67zM251 24q37 0 77.5 7.5t82 23.5t71 46t35.5 69l18 117l-206 -31q-109 -16 -160 -49q-48 -33 -56 -82q-5 -28 6.5 -49t34 -31.5t47 -15.5t50.5 -5z" />
    <glyph glyph-name="aring" unicode="&#xe5;" horiz-adv-x="671" 
d="M433 611q-41 0 -64.5 26.5t-16.5 67.5q6 41 38 68t73 27q42 0 65 -26.5t16 -68.5t-38 -68t-73 -26zM457 765q-26 0 -45.5 -17.5t-23.5 -42.5q-5 -25 9.5 -42.5t40.5 -17.5t46 17t25 43q4 26 -11 43t-41 17zM584 24q15 0 37 9l-6 -37q-9 -4 -13 -4q-2 -1 -5 -1
q-6 -1 -17 -1q-82 0 -77 88q-44 -44 -120.5 -66t-142.5 -22q-35 0 -65 7t-56 21.5t-38 42t-6 64.5q6 42 30.5 72.5t62 48t72 27t77.5 15.5l224 34l9 57q12 73 -41.5 110.5t-131.5 37.5t-129 -30t-91 -102l-27 24q44 76 105.5 109t147.5 33q62 0 110 -16.5t76.5 -59
t18.5 -106.5l-46 -288q-10 -67 42 -67zM251 24q37 0 77.5 7.5t82 23.5t71 46t35.5 69l18 117l-206 -31q-109 -16 -160 -49q-48 -33 -56 -82q-5 -28 6.5 -49t34 -31.5t47 -15.5t50.5 -5z" />
    <glyph glyph-name="ae" unicode="&#xe6;" horiz-adv-x="1021" 
d="M207 -10q-35 0 -65 7t-55.5 21.5t-37.5 42t-6 64.5q20 132 242 163l223 34l9 57q12 73 -41.5 110.5t-131.5 37.5t-129 -30.5t-91 -101.5l-27 24q44 76 105.5 109t147.5 33q56 0 100.5 -13.5t75.5 -47.5t32 -85q43 65 110.5 103.5t146.5 38.5q121 0 182.5 -84t39.5 -220
h-501q-12 -102 47.5 -165t163.5 -63q139 0 230 111l42 2q-50 -69 -122.5 -108.5t-155.5 -39.5q-85 0 -151.5 43t-81.5 108q-43 -78 -116 -114.5t-185 -36.5zM542 288h465q13 102 -40.5 167.5t-156.5 65.5q-101 0 -175 -65.5t-93 -167.5zM218 24q38 0 78 7.5t80.5 23.5
t69.5 46t38 69l18 117l-206 -31q-110 -17 -159 -49q-50 -33 -57 -82q-5 -28 6.5 -49t34 -31.5t47 -15.5t50.5 -5z" />
    <glyph glyph-name="ccedilla" unicode="&#xe7;" horiz-adv-x="621" 
d="M327 26q133 0 219 111l42 2q-46 -63 -107.5 -101.5t-131.5 -45.5q56 -42 46 -107q-8 -44 -41 -73q-32 -26 -78 -26q-40 0 -62.5 11.5t-40.5 42.5l25 30q17 -28 34.5 -39.5t48.5 -11.5q29 0 53 17q20 19 26 48q9 55 -77 110q-102 13 -152 91.5t-33 188.5q19 120 106.5 202
t206.5 82q79 0 136 -40.5t83 -110.5h-41q-21 54 -69 84.5t-114 30.5q-103 0 -179 -71.5t-93 -176.5q-17 -107 36 -177.5t157 -70.5z" />
    <glyph glyph-name="egrave" unicode="&#xe8;" 
d="M456 619l-77 175h43l73 -175h-39zM560 137h42q-51 -68 -123 -107t-154 -39q-126 0 -186.5 78t-40.5 205q19 120 106.5 202t206.5 82q121 0 183 -84t40 -220h-502q-11 -103 42.5 -165.5t155.5 -62.5q139 0 230 111zM406 522q-101 0 -175 -65.5t-93 -167.5h465
q13 102 -40.5 167.5t-156.5 65.5z" />
    <glyph glyph-name="eacute" unicode="&#xe9;" 
d="M391 619h-40l130 175h42zM560 137h42q-51 -68 -123 -107t-154 -39q-126 0 -186.5 78t-40.5 205q19 120 106.5 202t206.5 82q121 0 183 -84t40 -220h-502q-11 -103 42.5 -165.5t155.5 -62.5q139 0 230 111zM406 522q-101 0 -175 -65.5t-93 -167.5h465q13 102 -40.5 167.5
t-156.5 65.5z" />
    <glyph glyph-name="ecircumflex" unicode="&#xea;" 
d="M465 789l102 -170h-42l-81 130l-122 -130h-43l157 170h29zM560 137h42q-51 -68 -123 -107t-154 -39q-126 0 -186.5 78t-40.5 205q19 120 106.5 202t206.5 82q121 0 183 -84t40 -220h-502q-11 -103 42.5 -165.5t155.5 -62.5q139 0 230 111zM406 522q-101 0 -175 -65.5
t-93 -167.5h465q13 102 -40.5 167.5t-156.5 65.5z" />
    <glyph glyph-name="edieresis" unicode="&#xeb;" 
d="M338 700q15 0 23 -8q7 -11 5 -24q-2 -15 -13 -24t-25 -9t-22 9.5t-6 23.5t13 23t25 9zM534 700q15 0 23 -8q7 -11 5 -24q-2 -15 -13 -24t-25 -9q-15 0 -23.5 9t-5.5 24q2 14 14 25q10 7 25 7zM560 137h42q-51 -68 -123 -107t-154 -39q-126 0 -186.5 78t-40.5 205
q19 120 106.5 202t206.5 82q121 0 183 -84t40 -220h-502q-11 -103 42.5 -165.5t155.5 -62.5q139 0 230 111zM406 522q-101 0 -175 -65.5t-93 -167.5h465q13 102 -40.5 167.5t-156.5 65.5z" />
    <glyph glyph-name="igrave" unicode="&#xec;" horiz-adv-x="189" 
d="M226 619l-77 175h42l74 -175h-39zM202 561l-89 -561h-37l89 561h37z" />
    <glyph glyph-name="iacute" unicode="&#xed;" horiz-adv-x="189" 
d="M121 619l130 175h42l-133 -175h-39zM202 561l-89 -561h-37l89 561h37z" />
    <glyph glyph-name="icircumflex" unicode="&#xee;" horiz-adv-x="189" 
d="M206 789h29l102 -170h-43l-80 130l-123 -130h-43zM76 0l89 561h37l-89 -561h-37z" />
    <glyph glyph-name="idieresis" unicode="&#xef;" horiz-adv-x="168" 
d="M97 700q15 0 23 -7q7 -12 6 -25q-6 -33 -39 -33q-14 0 -22 9t-6 24q2 14 13 24q9 8 25 8zM294 700q15 0 23 -8q5 -13 4 -24q-2 -15 -12.5 -24t-24.5 -9q-15 0 -23.5 9t-5.5 24q1 14 13 25q11 7 26 7zM66 0l89 561h37l-89 -561h-37z" />
    <glyph glyph-name="eth" unicode="&#xf0;" horiz-adv-x="591" 
d="M594 556l142 49l6 -32l-143 -49q11 -73 -4 -165q-58 -370 -311 -370q-103 0 -157 61t-38 163q16 103 87 164t174 61q77 0 130.5 -41.5t63.5 -110.5q10 40 13 60q13 88 4 164l-142 -49l-7 32l143 49q-18 76 -59.5 115t-120.5 39q-118 0 -177 -113h-38q69 146 220 146
q84 0 135 -41q27 -21 52.5 -61t26.5 -71zM471 117q30 44 39 97q13 78 -37 133.5t-128 55.5q-86 0 -146 -52t-73 -137q-14 -88 31 -139.5t134 -51.5q52 0 100 24.5t80 69.5z" />
    <glyph glyph-name="ntilde" unicode="&#xf1;" horiz-adv-x="652" 
d="M588 744h36q-18 -53 -44.5 -80.5t-74.5 -27.5q-51 0 -85 40q-26 33 -61 33q-32 0 -47.5 -18.5t-26.5 -55.5h-37q17 52 44 80t75 28q30 0 46 -9t37 -32q28 -32 60 -32q17 0 29 5t21.5 17.5t14.5 22t13 29.5zM143 299l-47 -299h-37l85 561h37l-19 -138q44 62 110 98.5
t144 36.5q120 0 181.5 -81.5t42.5 -202.5l-43 -274h-34l43 274q17 105 -37 176.5t-158 71.5q-96 0 -169.5 -63.5t-98.5 -159.5z" />
    <glyph glyph-name="ograve" unicode="&#xf2;" 
d="M456 619l-77 175h43l73 -175h-39zM98 274q19 120 106.5 202t206.5 82q121 0 183 -82t43 -202q-19 -121 -106.5 -202t-208.5 -81q-119 0 -181 81t-43 202zM601 274q17 105 -36.5 176.5t-158.5 71.5q-103 0 -179 -71.5t-93 -176.5q-17 -107 36 -177.5t157 -70.5
q106 0 181.5 70.5t92.5 177.5z" />
    <glyph glyph-name="oacute" unicode="&#xf3;" 
d="M391 619h-40l130 175h42zM98 274q19 120 106.5 202t206.5 82q121 0 183 -82t43 -202q-19 -121 -106.5 -202t-208.5 -81q-119 0 -181 81t-43 202zM601 274q17 105 -36.5 176.5t-158.5 71.5q-103 0 -179 -71.5t-93 -176.5q-17 -107 36 -177.5t157 -70.5q106 0 181.5 70.5
t92.5 177.5z" />
    <glyph glyph-name="ocircumflex" unicode="&#xf4;" 
d="M465 789l102 -170h-42l-81 130l-122 -130h-43l157 170h29zM98 274q19 120 106.5 202t206.5 82q121 0 183 -82t43 -202q-19 -121 -106.5 -202t-208.5 -81q-119 0 -181 81t-43 202zM601 274q17 105 -36.5 176.5t-158.5 71.5q-103 0 -179 -71.5t-93 -176.5
q-17 -107 36 -177.5t157 -70.5q106 0 181.5 70.5t92.5 177.5z" />
    <glyph glyph-name="otilde" unicode="&#xf5;" 
d="M369 709q-32 0 -47.5 -18.5t-27.5 -55.5h-36q16 52 43 80t76 28q30 0 46 -9t37 -32q28 -32 59 -32q32 0 47.5 18t31.5 56h35q-17 -52 -43.5 -80t-75.5 -28q-50 0 -84 40q-28 33 -61 33zM98 274q19 120 106.5 202t206.5 82q121 0 183 -82t43 -202q-19 -121 -106.5 -202
t-208.5 -81q-119 0 -181 81t-43 202zM601 274q17 105 -36.5 176.5t-158.5 71.5q-103 0 -179 -71.5t-93 -176.5q-17 -107 36 -177.5t157 -70.5q106 0 181.5 70.5t92.5 177.5z" />
    <glyph glyph-name="odieresis" unicode="&#xf6;" 
d="M338 700q15 0 23 -8q7 -11 5 -24q-2 -15 -13 -24t-25 -9t-22 9.5t-6 23.5t13 23t25 9zM534 700q15 0 23 -8q7 -11 5 -24q-2 -15 -13 -24t-25 -9q-15 0 -23.5 9t-5.5 24q2 14 14 25q10 7 25 7zM98 274q19 120 106.5 202t206.5 82q121 0 183 -82t43 -202
q-19 -121 -106.5 -202t-208.5 -81q-119 0 -181 81t-43 202zM601 274q17 105 -36.5 176.5t-158.5 71.5q-103 0 -179 -71.5t-93 -176.5q-17 -107 36 -177.5t157 -70.5q106 0 181.5 70.5t92.5 177.5z" />
    <glyph glyph-name="divide" unicode="&#xf7;" horiz-adv-x="670" 
d="M427 580q13 0 22 -9q7 -11 6 -24q-7 -33 -39 -33q-14 0 -21.5 9.5t-5.5 23.5t12.5 23.5t25.5 9.5zM137 331l6 34h501l-6 -34h-501zM364 184q14 0 23 -9q7 -8 5 -24q-2 -14 -13 -23.5t-25 -9.5t-22 9.5t-6 23.5t12.5 23.5t25.5 9.5z" />
    <glyph glyph-name="oslash" unicode="&#xf8;" 
d="M465 554l74 154h38l-79 -164q79 -28 116.5 -101.5t22.5 -168.5q-19 -121 -106.5 -202t-208.5 -81q-44 0 -85 13l-79 -164h-39l86 178q-63 35 -91.5 103t-15.5 153q19 120 106.5 202t206.5 82q31 0 54 -4zM134 274q-11 -74 12 -133t76 -89l226 466q-28 4 -42 4
q-103 0 -179 -71.5t-93 -176.5zM327 26q106 0 181.5 70.5t92.5 177.5q14 83 -18.5 147.5t-100.5 88.5l-229 -472q38 -12 74 -12z" />
    <glyph glyph-name="ugrave" unicode="&#xf9;" horiz-adv-x="652" 
d="M458 619l-77 175h42l74 -175h-39zM596 246l50 315h37l-86 -563h-35l16 127q-44 -63 -110.5 -99.5t-144.5 -36.5q-121 0 -182.5 81t-42.5 202l46 289h36l-46 -289q-17 -105 37 -176.5t158 -71.5q96 0 168.5 63t98.5 159z" />
    <glyph glyph-name="uacute" unicode="&#xfa;" horiz-adv-x="652" 
d="M393 619h-40l130 175h42zM596 246l50 315h37l-86 -563h-35l16 127q-44 -63 -110.5 -99.5t-144.5 -36.5q-121 0 -182.5 81t-42.5 202l46 289h36l-46 -289q-17 -105 37 -176.5t158 -71.5q96 0 168.5 63t98.5 159z" />
    <glyph glyph-name="ucircumflex" unicode="&#xfb;" horiz-adv-x="652" 
d="M438 789h29l102 -170h-42l-81 130l-122 -130h-43zM596 246l50 315h37l-86 -563h-35l16 127q-44 -63 -110.5 -99.5t-144.5 -36.5q-121 0 -182.5 81t-42.5 202l46 289h36l-46 -289q-17 -105 37 -176.5t158 -71.5q96 0 168.5 63t98.5 159z" />
    <glyph glyph-name="udieresis" unicode="&#xfc;" horiz-adv-x="652" 
d="M340 700q15 0 23 -8q7 -11 5 -24q-2 -15 -13 -24t-25 -9t-22 9.5t-6 23.5t13 23t25 9zM536 700q15 0 23 -8q7 -11 5 -24q-2 -15 -13 -24t-25 -9q-15 0 -23.5 9t-5.5 24q2 14 14 25q10 7 25 7zM596 246l50 315h37l-86 -563h-35l16 127q-44 -63 -110.5 -99.5t-144.5 -36.5
q-121 0 -182.5 81t-42.5 202l46 289h36l-46 -289q-17 -105 37 -176.5t158 -71.5q96 0 168.5 63t98.5 159z" />
    <glyph glyph-name="yacute" unicode="&#xfd;" horiz-adv-x="604" 
d="M368 619h-40l130 175h42zM313 55l282 495h41l-373 -651q-37 -64 -75.5 -95.5t-98.5 -31.5q-27 0 -54 9l7 42q25 -16 53 -16q46 0 76.5 26.5t58.5 76.5l56 99l-144 541h41z" />
    <glyph glyph-name="ydieresis" unicode="&#xff;" horiz-adv-x="604" 
d="M315 700q15 0 23 -8q7 -11 5 -24q-2 -15 -13 -24t-25 -9t-22 9.5t-6 23.5t13 23t25 9zM511 700q15 0 23 -8q7 -11 5 -24q-2 -15 -13 -24t-25 -9q-15 0 -23.5 9t-5.5 24q2 14 14 25q10 7 25 7zM313 55l282 495h41l-373 -651q-37 -64 -75.5 -95.5t-98.5 -31.5q-27 0 -54 9
l7 42q25 -16 53 -16q46 0 76.5 26.5t58.5 76.5l56 99l-144 541h41z" />
    <glyph glyph-name="Amacron" unicode="&#x100;" horiz-adv-x="819" 
d="M374 808l5 34h327l-5 -34h-327zM527 739l237 -739h-41l-75 234h-403l-148 -234h-42zM636 268l-122 388l-247 -388h369z" />
    <glyph glyph-name="amacron" unicode="&#x101;" horiz-adv-x="671" 
d="M275 643l5 33h325l-5 -33h-325zM584 24q15 0 37 9l-6 -37q-9 -4 -13 -4q-2 -1 -5 -1q-6 -1 -17 -1q-82 0 -77 88q-44 -44 -120.5 -66t-142.5 -22q-35 0 -65 7t-56 21.5t-38 42t-6 64.5q6 42 30.5 72.5t62 48t72 27t77.5 15.5l224 34l9 57q12 73 -41.5 110.5t-131.5 37.5
t-129 -30t-91 -102l-27 24q44 76 105.5 109t147.5 33q62 0 110 -16.5t76.5 -59t18.5 -106.5l-46 -288q-10 -67 42 -67zM251 24q37 0 77.5 7.5t82 23.5t71 46t35.5 69l18 117l-206 -31q-109 -16 -160 -49q-48 -33 -56 -82q-5 -28 6.5 -49t34 -31.5t47 -15.5t50.5 -5z" />
    <glyph glyph-name="Abreve" unicode="&#x102;" horiz-adv-x="819" 
d="M661 931h34q-11 -70 -52.5 -109.5t-109.5 -39.5t-97.5 39.5t-18.5 109.5h34q-8 -54 13.5 -84t73.5 -30q53 0 84 30.5t39 83.5zM527 739l237 -739h-41l-75 234h-403l-148 -234h-42zM636 268l-122 388l-247 -388h369z" />
    <glyph glyph-name="abreve" unicode="&#x103;" horiz-adv-x="671" 
d="M433 617q-68 0 -97 39t-18 108h34q-9 -53 12.5 -83t73.5 -30t82.5 30t39.5 83h34q-11 -69 -52 -108t-109 -39zM584 24q15 0 37 9l-6 -37q-9 -4 -13 -4q-2 -1 -5 -1q-6 -1 -17 -1q-82 0 -77 88q-44 -44 -120.5 -66t-142.5 -22q-35 0 -65 7t-56 21.5t-38 42t-6 64.5
q6 42 30.5 72.5t62 48t72 27t77.5 15.5l224 34l9 57q12 73 -41.5 110.5t-131.5 37.5t-129 -30t-91 -102l-27 24q44 76 105.5 109t147.5 33q62 0 110 -16.5t76.5 -59t18.5 -106.5l-46 -288q-10 -67 42 -67zM251 24q37 0 77.5 7.5t82 23.5t71 46t35.5 69l18 117l-206 -31
q-109 -16 -160 -49q-48 -33 -56 -82q-5 -28 6.5 -49t34 -31.5t47 -15.5t50.5 -5z" />
    <glyph glyph-name="Aogonek" unicode="&#x104;" horiz-adv-x="816" 
d="M726 -154l10 -33q-30 -18 -49 -23.5t-51 -5.5q-45 0 -70.5 24.5t-18.5 69.5q13 90 168 148l-67 208h-403l-148 -234h-42l472 739l237 -739h-38q-76 -35 -102 -57q-37 -32 -41 -65q-5 -29 11.5 -44.5t46.5 -15.5q47 0 85 28zM636 268l-122 388l-247 -388h369z" />
    <glyph glyph-name="aogonek" unicode="&#x105;" horiz-adv-x="674" 
d="M578 -162l11 -32q-29 -17 -48 -22.5t-51 -5.5q-46 0 -71 23.5t-18 68.5q7 46 42 77.5t88 55.5q-33 22 -28 74q-45 -43 -121 -65t-142 -22q-35 0 -65 7t-56 21.5t-38 42t-6 64.5q6 42 30.5 72.5t62 48t72 27t77.5 15.5l224 34l9 57q12 73 -41.5 110.5t-131.5 37.5
t-129 -30t-91 -102l-27 24q44 76 105.5 109t147.5 33q62 0 110 -16.5t76.5 -59t18.5 -106.5l-46 -288q-10 -67 42 -67q15 0 37 9l-6 -37q-9 -4 -13 -4q-2 -1 -5 -1q-6 -1 -17 -1h-6q-74 -35 -97 -55q-34 -29 -40 -65q-4 -29 12 -44t46 -15q44 0 83 27zM251 24q37 0 77.5 7.5
t82 23.5t71 46t35.5 69l18 117l-206 -31q-109 -16 -160 -49q-48 -33 -56 -82q-5 -28 6.5 -49t34 -31.5t47 -15.5t50.5 -5z" />
    <glyph glyph-name="Cacute" unicode="&#x106;" horiz-adv-x="822" 
d="M501 784h-40l131 177h42zM419 -11q-160 0 -246.5 105t-60.5 268q26 162 144.5 267.5t280.5 105.5q113 0 191.5 -53t108.5 -146l-40 -1q-29 77 -98 121.5t-167 44.5q-144 0 -252.5 -96t-131.5 -243q-23 -145 54 -242t223 -97q108 0 198 55t142 149l38 -1
q-55 -108 -157 -172.5t-227 -64.5z" />
    <glyph glyph-name="cacute" unicode="&#x107;" horiz-adv-x="621" 
d="M373 619h-39l130 175h41zM322 -9q-119 0 -181 81t-43 202q19 120 106.5 202t206.5 82q79 0 136 -40.5t83 -110.5h-41q-21 54 -69 84.5t-114 30.5q-103 0 -179 -71.5t-93 -176.5q-17 -107 36 -177.5t157 -70.5q133 0 219 111l42 2q-50 -69 -118.5 -108.5t-147.5 -39.5z
" />
    <glyph glyph-name="Ccircumflex" unicode="&#x108;" horiz-adv-x="822" 
d="M546 956h29l104 -172h-43l-81 131l-123 -131h-44zM419 -11q-160 0 -246.5 105t-60.5 268q26 162 144.5 267.5t280.5 105.5q113 0 191.5 -53t108.5 -146l-40 -1q-29 77 -98 121.5t-167 44.5q-144 0 -252.5 -96t-131.5 -243q-23 -145 54 -242t223 -97q108 0 198 55t142 149
l38 -1q-55 -108 -157 -172.5t-227 -64.5z" />
    <glyph glyph-name="ccircumflex" unicode="&#x109;" horiz-adv-x="621" 
d="M419 789h29l102 -170h-43l-80 130l-122 -130h-44zM322 -9q-119 0 -181 81t-43 202q19 120 106.5 202t206.5 82q79 0 136 -40.5t83 -110.5h-41q-21 54 -69 84.5t-114 30.5q-103 0 -179 -71.5t-93 -176.5q-17 -107 36 -177.5t157 -70.5q133 0 219 111l42 2
q-50 -69 -118.5 -108.5t-147.5 -39.5z" />
    <glyph glyph-name="Cdotaccent" unicode="&#x10a;" horiz-adv-x="822" 
d="M553 866q13 0 23 -8q7 -9 5 -25q-2 -14 -13 -23.5t-25 -9.5t-22 9.5t-6 23.5q2 15 13 24t25 9zM419 -11q-160 0 -246.5 105t-60.5 268q26 162 144.5 267.5t280.5 105.5q113 0 191.5 -53t108.5 -146l-40 -1q-29 77 -98 121.5t-167 44.5q-144 0 -252.5 -96t-131.5 -243
q-23 -145 54 -242t223 -97q108 0 198 55t142 149l38 -1q-55 -108 -157 -172.5t-227 -64.5z" />
    <glyph glyph-name="cdotaccent" unicode="&#x10b;" horiz-adv-x="621" 
d="M418 700q15 0 23 -8q7 -11 5 -24q-2 -15 -13 -24t-25 -9t-22 9.5t-6 23.5t13 23t25 9zM322 -9q-119 0 -181 81t-43 202q19 120 106.5 202t206.5 82q79 0 136 -40.5t83 -110.5h-41q-21 54 -69 84.5t-114 30.5q-103 0 -179 -71.5t-93 -176.5q-17 -107 36 -177.5t157 -70.5
q133 0 219 111l42 2q-50 -69 -118.5 -108.5t-147.5 -39.5z" />
    <glyph glyph-name="Ccaron" unicode="&#x10c;" horiz-adv-x="822" 
d="M549 825l122 131h43l-157 -172h-30l-104 172h44zM419 -11q-160 0 -246.5 105t-60.5 268q26 162 144.5 267.5t280.5 105.5q113 0 191.5 -53t108.5 -146l-40 -1q-29 77 -98 121.5t-167 44.5q-144 0 -252.5 -96t-131.5 -243q-23 -145 54 -242t223 -97q108 0 198 55t142 149
l38 -1q-55 -108 -157 -172.5t-227 -64.5z" />
    <glyph glyph-name="ccaron" unicode="&#x10d;" horiz-adv-x="621" 
d="M412 659l122 130h43l-156 -170h-29l-104 170h44zM322 -9q-119 0 -181 81t-43 202q19 120 106.5 202t206.5 82q79 0 136 -40.5t83 -110.5h-41q-21 54 -69 84.5t-114 30.5q-103 0 -179 -71.5t-93 -176.5q-17 -107 36 -177.5t157 -70.5q133 0 219 111l42 2
q-50 -69 -118.5 -108.5t-147.5 -39.5z" />
    <glyph glyph-name="Dcaron" unicode="&#x10e;" horiz-adv-x="711" 
d="M487 825l122 131h43l-157 -172h-29l-105 172h44zM299 0h-244l115 726h244q174 0 250.5 -93.5t49.5 -268.5q-58 -364 -415 -364zM409 692h-208l-105 -658h208q322 0 374 330q24 154 -43 243q-70 85 -226 85z" />
    <glyph glyph-name="dcaron" unicode="&#x10f;" horiz-adv-x="831" 
d="M852 750q44 0 36 -58q-12 -78 -92 -119l-29 24q79 30 88 89v1q-7 -4 -16 -4q-13 0 -20 10t-5 24t13 23.5t25 9.5zM624 425l47 295h37l-114 -720h-37l19 123q-93 -132 -252 -132q-121 0 -183 81t-43 202t107 202.5t208 81.5q79 0 132.5 -35t78.5 -98zM596 247l8 52
q5 97 -47.5 160t-148.5 63q-104 0 -180.5 -71.5t-93.5 -176.5q-17 -106 36.5 -177t158.5 -71q96 0 169 63t98 158z" />
    <glyph glyph-name="Dcroat" unicode="&#x110;" horiz-adv-x="806" 
d="M394 0h-244l55 346h-144l5 35h144l55 345h244q174 0 250.5 -93.5t49.5 -268.5q-58 -364 -415 -364zM504 692h-208l-50 -311h148l-5 -35h-148l-50 -312h208q322 0 374 330q24 154 -43 243q-70 85 -226 85z" />
    <glyph glyph-name="dcroat" unicode="&#x111;" horiz-adv-x="743" 
d="M98 274q19 121 107 202.5t208 81.5q79 0 132.5 -35t78.5 -98l22 137h-142l6 36h142l19 122h37l-19 -122h138l-6 -36h-138l-89 -562h-37l19 123q-93 -132 -252 -132q-121 0 -183 81t-43 202zM596 247l8 52q5 97 -47.5 160t-148.5 63q-104 0 -180.5 -71.5t-93.5 -176.5
q-17 -106 36.5 -177t158.5 -71q96 0 169 63t98 158z" />
    <glyph glyph-name="Emacron" unicode="&#x112;" horiz-adv-x="656" 
d="M293 808l5 34h327l-5 -34h-327zM534 345h-386l-50 -311h508l-5 -34h-546l115 726h546l-5 -34h-508l-50 -312h386z" />
    <glyph glyph-name="emacron" unicode="&#x113;" 
d="M589 643h-325l5 33h325zM560 137h42q-51 -68 -123 -107t-154 -39q-126 0 -186.5 78t-40.5 205q19 120 106.5 202t206.5 82q121 0 183 -84t40 -220h-502q-11 -103 42.5 -165.5t155.5 -62.5q139 0 230 111zM406 522q-101 0 -175 -65.5t-93 -167.5h465q13 102 -40.5 167.5
t-156.5 65.5z" />
    <glyph glyph-name="Ebreve" unicode="&#x114;" horiz-adv-x="656" 
d="M580 931h34q-11 -70 -52.5 -109.5t-109.5 -39.5t-97.5 39.5t-18.5 109.5h34q-8 -54 13.5 -84t73.5 -30q53 0 84 30.5t39 83.5zM534 345h-386l-50 -311h508l-5 -34h-546l115 726h546l-5 -34h-508l-50 -312h386z" />
    <glyph glyph-name="ebreve" unicode="&#x115;" 
d="M550 764h33q-11 -69 -52 -108t-109 -39t-96.5 39t-17.5 108h33q-9 -53 12.5 -83t73.5 -30t83 30t40 83zM560 137h42q-51 -68 -123 -107t-154 -39q-126 0 -186.5 78t-40.5 205q19 120 106.5 202t206.5 82q121 0 183 -84t40 -220h-502q-11 -103 42.5 -165.5t155.5 -62.5
q139 0 230 111zM406 522q-101 0 -175 -65.5t-93 -167.5h465q13 102 -40.5 167.5t-156.5 65.5z" />
    <glyph glyph-name="Edotaccent" unicode="&#x116;" horiz-adv-x="656" 
d="M465 867q16 0 23 -9q7 -10 5 -24q-2 -15 -13 -24t-25 -9t-22 9.5t-6 23.5t13 23.5t25 9.5zM534 345h-386l-50 -311h508l-5 -34h-546l115 726h546l-5 -34h-508l-50 -312h386z" />
    <glyph glyph-name="edotaccent" unicode="&#x117;" 
d="M435 700q16 0 24 -8q5 -13 4 -24q-5 -33 -38 -33q-14 0 -21.5 9.5t-5.5 23.5t12.5 23t24.5 9zM560 137h42q-51 -68 -123 -107t-154 -39q-126 0 -186.5 78t-40.5 205q19 120 106.5 202t206.5 82q121 0 183 -84t40 -220h-502q-11 -103 42.5 -165.5t155.5 -62.5
q139 0 230 111zM406 522q-101 0 -175 -65.5t-93 -167.5h465q13 102 -40.5 167.5t-156.5 65.5z" />
    <glyph glyph-name="Eogonek" unicode="&#x118;" horiz-adv-x="659" 
d="M153 380h386l-5 -35h-386l-50 -311h508l-5 -34h-37q-65 -29 -102 -57q-36 -33 -40 -65q-5 -29 11.5 -44.5t46.5 -15.5q45 0 85 28l9 -33q-30 -18 -48.5 -23.5t-50.5 -5.5q-45 0 -70.5 24.5t-18.5 69.5q11 72 107 122h-438l115 726h546l-5 -34h-508z" />
    <glyph glyph-name="eogonek" unicode="&#x119;" 
d="M330 26q139 0 230 111h42q-94 -125 -236 -143l1 -2q-25 -12 -39.5 -20t-35.5 -22.5t-33 -32t-15 -38.5q-5 -29 11 -44t46 -15q45 0 84 27l11 -33q-31 -17 -50 -22.5t-50 -5.5q-46 0 -70.5 24t-17.5 69q11 68 90 113q-112 9 -165 86t-35 196q19 120 106.5 202t206.5 82
q121 0 183 -84t40 -220h-502q-11 -103 42.5 -165.5t155.5 -62.5zM406 522q-101 0 -175 -65.5t-93 -167.5h465q13 102 -40.5 167.5t-156.5 65.5z" />
    <glyph glyph-name="Ecaron" unicode="&#x11a;" horiz-adv-x="656" 
d="M460 825l122 131h43l-157 -172h-30l-104 172h44zM534 345h-386l-50 -311h508l-5 -34h-546l115 726h546l-5 -34h-508l-50 -312h386z" />
    <glyph glyph-name="ecaron" unicode="&#x11b;" 
d="M429 659l123 130h42l-156 -170h-29l-103 170h43zM560 137h42q-51 -68 -123 -107t-154 -39q-126 0 -186.5 78t-40.5 205q19 120 106.5 202t206.5 82q121 0 183 -84t40 -220h-502q-11 -103 42.5 -165.5t155.5 -62.5q139 0 230 111zM406 522q-101 0 -175 -65.5t-93 -167.5
h465q13 102 -40.5 167.5t-156.5 65.5z" />
    <glyph glyph-name="Gcircumflex" unicode="&#x11c;" horiz-adv-x="817" 
d="M545 956h29l104 -172h-43l-81 131l-123 -131h-44zM523 380h299l-60 -380h-35l23 145q-60 -73 -145.5 -114.5t-185.5 -41.5q-160 0 -246.5 105t-60.5 268q26 162 144.5 267.5t280.5 105.5q113 0 191.5 -53t108.5 -146l-40 -1q-29 77 -98 121.5t-167 44.5
q-144 0 -252.5 -96t-131.5 -243q-23 -145 54 -242t223 -97q106 0 195.5 54t141.5 145l20 123h-264z" />
    <glyph glyph-name="gcircumflex" unicode="&#x11d;" 
d="M436 789h29l102 -170h-42l-81 130l-122 -130h-43zM623 426l20 125h38l-86 -537q-23 -117 -109 -194t-204 -77q-89 0 -147.5 49t-76.5 131h37q18 -67 68 -106t125 -39q100 0 174.5 67.5t95.5 168.5l17 107q-44 -61 -109 -96t-143 -35q-121 0 -182.5 81.5t-42.5 201.5
q19 121 106.5 202.5t208.5 81.5q78 0 132 -35t78 -96zM594 238l11 71q2 93 -50.5 152.5t-146.5 59.5q-105 0 -181 -71t-93 -177q-17 -105 37 -176.5t158 -71.5q93 0 165.5 60.5t99.5 152.5z" />
    <glyph glyph-name="Gbreve" unicode="&#x11e;" horiz-adv-x="817" 
d="M660 931h34q-11 -70 -52.5 -109.5t-109.5 -39.5q-69 0 -98 39.5t-18 109.5h34q-8 -54 13.5 -84t73.5 -30q53 0 84 30.5t39 83.5zM523 380h299l-60 -380h-35l23 145q-60 -73 -145.5 -114.5t-185.5 -41.5q-160 0 -246.5 105t-60.5 268q26 162 144.5 267.5t280.5 105.5
q113 0 191.5 -53t108.5 -146l-40 -1q-29 77 -98 121.5t-167 44.5q-144 0 -252.5 -96t-131.5 -243q-23 -145 54 -242t223 -97q106 0 195.5 54t141.5 145l20 123h-264z" />
    <glyph glyph-name="gbreve" unicode="&#x11f;" 
d="M550 764h33q-11 -69 -52 -108t-109 -39t-96.5 39t-17.5 108h33q-9 -53 12.5 -83t73.5 -30t83 30t40 83zM623 426l20 125h38l-86 -537q-23 -117 -109 -194t-204 -77q-89 0 -147.5 49t-76.5 131h37q18 -67 68 -106t125 -39q100 0 174.5 67.5t95.5 168.5l17 107
q-44 -61 -109 -96t-143 -35q-121 0 -182.5 81.5t-42.5 201.5q19 121 106.5 202.5t208.5 81.5q78 0 132 -35t78 -96zM594 238l11 71q2 93 -50.5 152.5t-146.5 59.5q-105 0 -181 -71t-93 -177q-17 -105 37 -176.5t158 -71.5q93 0 165.5 60.5t99.5 152.5z" />
    <glyph glyph-name="Gdotaccent" unicode="&#x120;" horiz-adv-x="817" 
d="M545 867q14 0 23 -9q7 -10 5 -24q-2 -15 -13 -24t-25 -9t-22 9.5t-6 23.5t12.5 23.5t25.5 9.5zM523 380h299l-60 -380h-35l23 145q-60 -73 -145.5 -114.5t-185.5 -41.5q-160 0 -246.5 105t-60.5 268q26 162 144.5 267.5t280.5 105.5q113 0 191.5 -53t108.5 -146l-40 -1
q-29 77 -98 121.5t-167 44.5q-144 0 -252.5 -96t-131.5 -243q-23 -145 54 -242t223 -97q106 0 195.5 54t141.5 145l20 123h-264z" />
    <glyph glyph-name="gdotaccent" unicode="&#x121;" 
d="M435 700q16 0 24 -8q5 -13 4 -24q-5 -33 -38 -33q-14 0 -21.5 9.5t-5.5 23.5t12.5 23t24.5 9zM623 426l20 125h38l-86 -537q-23 -117 -109 -194t-204 -77q-89 0 -147.5 49t-76.5 131h37q18 -67 68 -106t125 -39q100 0 174.5 67.5t95.5 168.5l17 107q-44 -61 -109 -96
t-143 -35q-121 0 -182.5 81.5t-42.5 201.5q19 121 106.5 202.5t208.5 81.5q78 0 132 -35t78 -96zM594 238l11 71q2 93 -50.5 152.5t-146.5 59.5q-105 0 -181 -71t-93 -177q-17 -105 37 -176.5t158 -71.5q93 0 165.5 60.5t99.5 152.5z" />
    <glyph glyph-name="Hcircumflex" unicode="&#x124;" horiz-adv-x="662" 
d="M468 956h29l104 -172h-43l-81 131l-123 -131h-44zM152 380h478l55 346h37l-115 -726h-37l55 345h-478l-55 -345h-37l115 726h37z" />
    <glyph glyph-name="hcircumflex" unicode="&#x125;" 
d="M436 789h29l102 -170h-42l-81 130l-122 -130h-43zM139 299l-47 -299h-37l114 720h37l-47 -295q44 63 108.5 98t143.5 35q121 0 183 -82t43 -202l-43 -274h-36l43 274q17 105 -37 176.5t-158 71.5q-96 0 -169 -63t-98 -160z" />
    <glyph glyph-name="Hbar" unicode="&#x126;" horiz-adv-x="662" 
d="M296 808l5 34h327l-5 -34h-327zM152 380h478l55 346h37l-115 -726h-37l55 345h-478l-55 -345h-37l115 726h37z" />
    <glyph glyph-name="hbar" unicode="&#x127;" 
d="M139 299l-47 -299h-37l114 720h37l-47 -295q44 63 108.5 98t143.5 35q121 0 183 -82t43 -202l-43 -274h-36l43 274q17 105 -37 176.5t-158 71.5q-96 0 -169 -63t-98 -160zM264 643l5 33h325l-5 -33h-325z" />
    <glyph glyph-name="Itilde" unicode="&#x128;" horiz-adv-x="142" 
d="M360 910h36q-19 -54 -45 -81t-75 -27q-51 0 -85 40q-26 33 -61 33q-32 0 -48 -19t-28 -55h-37q19 54 45 81.5t75 27.5q30 0 46.5 -9t38.5 -32q28 -33 59 -33q23 0 39 11.5t23 24.5t17 38zM53 0l115 726h37l-115 -726h-37z" />
    <glyph glyph-name="itilde" unicode="&#x129;" horiz-adv-x="169" 
d="M346 744h36q-18 -53 -44.5 -80.5t-75.5 -27.5q-29 0 -46 8.5t-37 30.5q-19 21 -29 26q-13 8 -33 8q-32 0 -47.5 -18.5t-27.5 -55.5h-36q16 52 43.5 80t75.5 28q31 0 49 -11q13 -7 47 -37q25 -25 46 -25q17 0 29.5 5t22 17.5t14.5 22t13 29.5zM66 0l89 561h37l-89 -561
h-37z" />
    <glyph glyph-name="Imacron" unicode="&#x12a;" horiz-adv-x="139" 
d="M33 808l5 34h329l-5 -34h-329zM51 0l115 726h37l-115 -726h-37z" />
    <glyph glyph-name="imacron" unicode="&#x12b;" horiz-adv-x="166" 
d="M22 643l5 33h326l-5 -33h-326zM65 0l89 561h37l-89 -561h-37z" />
    <glyph glyph-name="Iogonek" unicode="&#x12e;" horiz-adv-x="145" 
d="M-43 -66q-35 -29 -41 -65q-8 -59 59 -59q46 0 84 27l10 -33q-31 -18 -49 -23t-50 -5q-46 0 -71.5 24t-18.5 69q14 92 174 148l112 709h37l-115 -723q-93 -37 -131 -69z" />
    <glyph glyph-name="iogonek" unicode="&#x12f;" horiz-adv-x="174" 
d="M187 654q-14 0 -22 10t-6 23q2 14 13 23.5t25 9.5q15 0 23 -9q7 -9 5 -24q-2 -14 -13 -23.5t-25 -9.5zM77 -162l11 -32q-29 -17 -48 -22.5t-51 -5.5q-46 0 -71 23.5t-18 68.5q9 54 55 88t113 59l86 544h37l-89 -558q-88 -37 -125 -68q-35 -29 -41 -65q-4 -29 12 -44
t46 -15q44 0 83 27z" />
    <glyph glyph-name="Idotaccent" unicode="&#x130;" horiz-adv-x="146" 
d="M210 867q15 0 24 -9q6 -10 4 -24q-5 -33 -38 -33q-14 0 -22 9.5t-6 23.5t13 23.5t25 9.5zM55 0l115 726h37l-115 -726h-37z" />
    <glyph glyph-name="dotlessi" unicode="&#x131;" horiz-adv-x="177" 
d="M70 0l89 561h37l-89 -561h-37z" />
    <glyph glyph-name="Nacute" unicode="&#x143;" horiz-adv-x="660" 
d="M422 784h-40l131 177h42zM578 59l105 667h37l-115 -726h-39l-369 667l-105 -667h-37l115 726h38z" />
    <glyph glyph-name="nacute" unicode="&#x144;" horiz-adv-x="652" 
d="M393 619h-40l130 175h42zM143 299l-47 -299h-37l85 561h37l-19 -138q44 62 110 98.5t144 36.5q120 0 181.5 -81.5t42.5 -202.5l-43 -274h-34l43 274q17 105 -37 176.5t-158 71.5q-96 0 -169.5 -63.5t-98.5 -159.5z" />
    <glyph glyph-name="Ncaron" unicode="&#x147;" horiz-adv-x="660" 
d="M462 825l122 131h43l-157 -172h-30l-104 172h44zM578 59l105 667h37l-115 -726h-39l-369 667l-105 -667h-37l115 726h38z" />
    <glyph glyph-name="ncaron" unicode="&#x148;" horiz-adv-x="652" 
d="M431 659l123 130h42l-156 -170h-29l-103 170h43zM143 299l-47 -299h-37l85 561h37l-19 -138q44 62 110 98.5t144 36.5q120 0 181.5 -81.5t42.5 -202.5l-43 -274h-34l43 274q17 105 -37 176.5t-158 71.5q-96 0 -169.5 -63.5t-98.5 -159.5z" />
    <glyph glyph-name="Omacron" unicode="&#x14c;" horiz-adv-x="844" 
d="M386 808l5 34h328l-5 -34h-328zM419 -11q-160 0 -246.5 105t-60.5 268q26 162 144.5 267.5t280.5 105.5t248.5 -104.5t60.5 -268.5q-25 -161 -144.5 -267t-282.5 -106zM425 23q146 0 254 95.5t131 243.5q24 147 -53 243t-225 96q-144 0 -252.5 -96t-131.5 -243
q-23 -145 54 -242t223 -97z" />
    <glyph glyph-name="omacron" unicode="&#x14d;" 
d="M589 643h-325l5 33h325zM98 274q19 120 106.5 202t206.5 82q121 0 183 -82t43 -202q-19 -121 -106.5 -202t-208.5 -81q-119 0 -181 81t-43 202zM601 274q17 105 -36.5 176.5t-158.5 71.5q-103 0 -179 -71.5t-93 -176.5q-17 -107 36 -177.5t157 -70.5q106 0 181.5 70.5
t92.5 177.5z" />
    <glyph glyph-name="Obreve" unicode="&#x14e;" horiz-adv-x="844" 
d="M673 931h34q-11 -70 -52 -109.5t-110 -39.5q-68 0 -97.5 39.5t-18.5 109.5h34q-8 -54 13.5 -84t73.5 -30q53 0 84 30.5t39 83.5zM419 -11q-160 0 -246.5 105t-60.5 268q26 162 144.5 267.5t280.5 105.5t248.5 -104.5t60.5 -268.5q-25 -161 -144.5 -267t-282.5 -106z
M425 23q146 0 254 95.5t131 243.5q24 147 -53 243t-225 96q-144 0 -252.5 -96t-131.5 -243q-23 -145 54 -242t223 -97z" />
    <glyph glyph-name="obreve" unicode="&#x14f;" 
d="M550 764h33q-11 -69 -52 -108t-109 -39t-96.5 39t-17.5 108h33q-9 -53 12.5 -83t73.5 -30t83 30t40 83zM98 274q19 120 106.5 202t206.5 82q121 0 183 -82t43 -202q-19 -121 -106.5 -202t-208.5 -81q-119 0 -181 81t-43 202zM601 274q17 105 -36.5 176.5t-158.5 71.5
q-103 0 -179 -71.5t-93 -176.5q-17 -107 36 -177.5t157 -70.5q106 0 181.5 70.5t92.5 177.5z" />
    <glyph glyph-name="Ohungarumlaut" unicode="&#x150;" horiz-adv-x="844" 
d="M403 784l131 177h42l-133 -177h-40zM543 784l132 177h41l-133 -177h-40zM419 -11q-160 0 -246.5 105t-60.5 268q26 162 144.5 267.5t280.5 105.5t248.5 -104.5t60.5 -268.5q-25 -161 -144.5 -267t-282.5 -106zM425 23q146 0 254 95.5t131 243.5q24 147 -53 243t-225 96
q-144 0 -252.5 -96t-131.5 -243q-23 -145 54 -242t223 -97z" />
    <glyph glyph-name="ohungarumlaut" unicode="&#x151;" 
d="M279 619l131 177h42l-133 -177h-40zM419 619l131 177h42l-133 -177h-40zM98 274q19 120 106.5 202t206.5 82q121 0 183 -82t43 -202q-19 -121 -106.5 -202t-208.5 -81q-119 0 -181 81t-43 202zM601 274q17 105 -36.5 176.5t-158.5 71.5q-103 0 -179 -71.5t-93 -176.5
q-17 -107 36 -177.5t157 -70.5q106 0 181.5 70.5t92.5 177.5z" />
    <glyph glyph-name="OE" unicode="&#x152;" horiz-adv-x="1482" 
d="M419 -11q-160 0 -246.5 105t-60.5 268q26 162 144.5 267.5t280.5 105.5q108 0 197 -57t102 -140l30 188h547l-5 -34h-509l-50 -312h386l-5 -35h-386l-50 -311h509l-5 -34h-547l30 187q-64 -96 -158 -147t-204 -51zM425 23q134 0 238 82t139 217l13 80q8 133 -69.5 216
t-213.5 83q-144 0 -252.5 -96t-131.5 -243q-23 -145 54 -242t223 -97z" />
    <glyph glyph-name="oe" unicode="&#x153;" horiz-adv-x="1090" 
d="M820 22q140 0 230 110l43 2q-50 -69 -122.5 -108.5t-155.5 -39.5q-94 0 -159 48t-80 134q-41 -82 -114.5 -129.5t-166.5 -47.5q-119 0 -181 81t-43 202q19 120 106.5 202t206.5 82q95 0 154 -49.5t72 -133.5q40 82 113.5 130t166.5 48q120 0 181.5 -84t39.5 -220h-502
q-11 -102 48 -164.5t163 -62.5zM300 26q106 0 181.5 70.5t92.5 177.5q17 105 -36.5 176.5t-158.5 71.5q-103 0 -179 -71.5t-93 -176.5q-17 -107 36 -177.5t157 -70.5zM884 517q-101 0 -175.5 -65.5t-93.5 -167.5h465q13 102 -40 167.5t-156 65.5z" />
    <glyph glyph-name="Racute" unicode="&#x154;" horiz-adv-x="661" 
d="M418 784h-40l131 177h42zM435 345l171 -345h-45l-172 345h-242l-55 -345h-37l115 726h289q52 0 93 -9t74 -30t47 -60t6 -93q-28 -174 -244 -189zM454 692h-252l-50 -312h252q214 0 239 154q13 86 -42 122t-147 36z" />
    <glyph glyph-name="racute" unicode="&#x155;" horiz-adv-x="522" 
d="M326 619h-40l131 175h41zM143 299l-47 -299h-37l83 548h37l-17 -125q44 62 110 98.5t144 36.5q71 0 134 -36l-18 -36q-56 36 -121 36q-96 0 -169.5 -63.5t-98.5 -159.5z" />
    <glyph glyph-name="Rcaron" unicode="&#x158;" horiz-adv-x="661" 
d="M458 825l122 131h43l-157 -172h-30l-104 172h44zM435 345l171 -345h-45l-172 345h-242l-55 -345h-37l115 726h289q52 0 93 -9t74 -30t47 -60t6 -93q-28 -174 -244 -189zM454 692h-252l-50 -312h252q214 0 239 154q13 86 -42 122t-147 36z" />
    <glyph glyph-name="rcaron" unicode="&#x159;" horiz-adv-x="522" 
d="M365 659l122 130h42l-156 -170h-29l-103 170h44zM143 299l-47 -299h-37l83 548h37l-17 -125q44 62 110 98.5t144 36.5q71 0 134 -36l-18 -36q-56 36 -121 36q-96 0 -169.5 -63.5t-98.5 -159.5z" />
    <glyph glyph-name="Sacute" unicode="&#x15a;" horiz-adv-x="733" 
d="M460 784h-40l131 177h42zM485 736q241 0 271 -182h-38q-28 148 -239 148q-40 0 -83 -9.5t-85.5 -28t-73 -52t-37.5 -76.5q-6 -35 13 -72q38 -61 240 -92q45 -7 72 -12.5t69 -20.5t65 -33.5t38 -50.5t10 -74l-1 -4q-8 -51 -43.5 -89t-85 -58.5t-98.5 -30t-96 -9.5
q-287 0 -297 208h42q1 -48 24.5 -83.5t63 -54.5t82.5 -27.5t91 -8.5q40 0 83 8t87 24.5t75.5 49t38.5 75.5q9 61 -42 97q-49 36 -190 60q-40 5 -64 9.5t-64 14t-64.5 23.5t-48.5 34t-33 50t-3 67q8 51 42.5 91.5t82.5 63t98 34t98 11.5z" />
    <glyph glyph-name="sacute" unicode="&#x15b;" horiz-adv-x="585" 
d="M388 619h-40l130 175h42zM586 413h-36q-15 114 -173 114q-29 0 -61 -7t-63.5 -20.5t-54.5 -38t-28 -55.5q-8 -50 46 -83q60 -23 139 -35q40 -7 64 -12.5t55 -17.5t47.5 -26.5t26 -38.5t4.5 -55q-8 -53 -53 -88t-94.5 -47t-99.5 -12q-110 0 -168.5 41.5t-57.5 122.5h38
q0 -36 17.5 -62.5t47.5 -40t61.5 -20t66.5 -6.5q43 0 84.5 9t79.5 36.5t44 68.5q9 54 -48 81q-38 19 -137 34q-35 7 -53.5 11t-48 12.5t-45 18.5t-31.5 25t-20.5 36t-0.5 48q8 53 52 90t95 51.5t102 14.5q98 0 146.5 -37t56.5 -112z" />
    <glyph glyph-name="Scircumflex" unicode="&#x15c;" horiz-adv-x="733" 
d="M505 956h30l103 -172h-43l-81 131l-123 -131h-44zM485 736q241 0 271 -182h-38q-28 148 -239 148q-40 0 -83 -9.5t-85.5 -28t-73 -52t-37.5 -76.5q-6 -35 13 -72q38 -61 240 -92q45 -7 72 -12.5t69 -20.5t65 -33.5t38 -50.5t10 -74l-1 -4q-8 -51 -43.5 -89t-85 -58.5
t-98.5 -30t-96 -9.5q-287 0 -297 208h42q1 -48 24.5 -83.5t63 -54.5t82.5 -27.5t91 -8.5q40 0 83 8t87 24.5t75.5 49t38.5 75.5q9 61 -42 97q-49 36 -190 60q-40 5 -64 9.5t-64 14t-64.5 23.5t-48.5 34t-33 50t-3 67q8 51 42.5 91.5t82.5 63t98 34t98 11.5z" />
    <glyph glyph-name="scircumflex" unicode="&#x15d;" horiz-adv-x="585" 
d="M434 789l102 -170h-42l-81 130l-122 -130h-43l157 170h29zM586 413h-36q-15 114 -173 114q-29 0 -61 -7t-63.5 -20.5t-54.5 -38t-28 -55.5q-8 -50 46 -83q60 -23 139 -35q40 -7 64 -12.5t55 -17.5t47.5 -26.5t26 -38.5t4.5 -55q-8 -53 -53 -88t-94.5 -47t-99.5 -12
q-110 0 -168.5 41.5t-57.5 122.5h38q0 -36 17.5 -62.5t47.5 -40t61.5 -20t66.5 -6.5q43 0 84.5 9t79.5 36.5t44 68.5q9 54 -48 81q-38 19 -137 34q-35 7 -53.5 11t-48 12.5t-45 18.5t-31.5 25t-20.5 36t-0.5 48q8 53 52 90t95 51.5t102 14.5q98 0 146.5 -37t56.5 -112z" />
    <glyph glyph-name="Scedilla" unicode="&#x15e;" horiz-adv-x="733" 
d="M453 372q45 -7 72 -12.5t69 -20.5t65 -33.5t38 -50.5t10 -74l-1 -4q-7 -47 -38 -83.5t-75 -57t-89 -31.5t-92 -14q55 -43 45 -107q-7 -46 -41 -73t-79 -27q-40 0 -59 11l-1 -1q-25 12 -44 45l25 29q19 -28 35.5 -39.5t48.5 -11.5q30 0 53 18q22 20 26 48q9 55 -72 108
q-114 4 -185.5 53.5t-77.5 153.5h42q1 -48 24.5 -83.5t63 -54.5t82.5 -27.5t91 -8.5q40 0 83 8t87 24.5t75.5 49t38.5 75.5q9 61 -42 97q-49 36 -190 60q-40 5 -64 9.5t-64 14t-64.5 23.5t-48.5 34t-33 50t-3 67q8 51 42.5 91.5t82.5 63t98 34t98 11.5q241 0 271 -182h-38
q-28 148 -239 148q-40 0 -83 -9.5t-85.5 -28t-73 -52t-37.5 -76.5q-6 -35 13 -72q38 -61 240 -92z" />
    <glyph glyph-name="scedilla" unicode="&#x15f;" horiz-adv-x="585" 
d="M552 138q-11 -67 -72 -102.5t-138 -42.5h4q57 -44 47 -108q-8 -44 -41 -73q-32 -26 -78 -26q-40 0 -62.5 11.5t-40.5 42.5l25 30q17 -28 34.5 -39.5t48.5 -11.5q29 0 53 17q21 20 27 48q9 56 -73 107h5q-104 3 -158.5 44.5t-53.5 119.5h38q0 -36 17.5 -62.5t47.5 -40
t61.5 -20t66.5 -6.5q43 0 84.5 9t79.5 36.5t44 68.5q9 54 -48 81q-38 19 -137 34q-35 7 -53.5 11t-48 12.5t-45 18.5t-31.5 25t-20.5 36t-0.5 48q8 53 52 90t95 51.5t102 14.5q98 0 146.5 -37t56.5 -112h-36q-15 114 -173 114q-29 0 -61 -7t-63.5 -20.5t-54.5 -38t-28 -55.5
q-8 -50 46 -83q60 -23 139 -35q40 -7 64 -12.5t55 -17.5t47.5 -26.5t26 -38.5t4.5 -55z" />
    <glyph glyph-name="Scaron" unicode="&#x160;" horiz-adv-x="733" 
d="M500 825l122 131h43l-157 -172h-30l-104 172h44zM485 736q241 0 271 -182h-38q-28 148 -239 148q-40 0 -83 -9.5t-85.5 -28t-73 -52t-37.5 -76.5q-6 -35 13 -72q38 -61 240 -92q45 -7 72 -12.5t69 -20.5t65 -33.5t38 -50.5t10 -74l-1 -4q-8 -51 -43.5 -89t-85 -58.5
t-98.5 -30t-96 -9.5q-287 0 -297 208h42q1 -48 24.5 -83.5t63 -54.5t82.5 -27.5t91 -8.5q40 0 83 8t87 24.5t75.5 49t38.5 75.5q9 61 -42 97q-49 36 -190 60q-40 5 -64 9.5t-64 14t-64.5 23.5t-48.5 34t-33 50t-3 67q8 51 42.5 91.5t82.5 63t98 34t98 11.5z" />
    <glyph glyph-name="scaron" unicode="&#x161;" horiz-adv-x="585" 
d="M398 659l123 130h42l-156 -170h-29l-103 170h43zM586 413h-36q-15 114 -173 114q-29 0 -61 -7t-63.5 -20.5t-54.5 -38t-28 -55.5q-8 -50 46 -83q60 -23 139 -35q40 -7 64 -12.5t55 -17.5t47.5 -26.5t26 -38.5t4.5 -55q-8 -53 -53 -88t-94.5 -47t-99.5 -12
q-110 0 -168.5 41.5t-57.5 122.5h38q0 -36 17.5 -62.5t47.5 -40t61.5 -20t66.5 -6.5q43 0 84.5 9t79.5 36.5t44 68.5q9 54 -48 81q-38 19 -137 34q-35 7 -53.5 11t-48 12.5t-45 18.5t-31.5 25t-20.5 36t-0.5 48q8 53 52 90t95 51.5t102 14.5q98 0 146.5 -37t56.5 -112z" />
    <glyph glyph-name="Tcaron" unicode="&#x164;" horiz-adv-x="687" 
d="M476 825l122 131h42l-157 -172h-29l-104 172h43zM165 692l5 34h577l-5 -34h-270l-110 -692h-37l110 692h-270z" />
    <glyph glyph-name="tcaron" unicode="&#x165;" horiz-adv-x="647" 
d="M669 750q43 0 35 -58q-12 -79 -91 -119l-30 24q80 29 89 89v1q-7 -4 -16 -4q-13 0 -20.5 10t-5.5 24t13.5 23.5t25.5 9.5zM302 24q53 0 102 46l15 -31q-52 -49 -123 -49q-137 0 -112 154l59 372h-106l5 34h106l27 170h37l-27 -170h205l-5 -34h-205l-59 -372
q-19 -120 81 -120z" />
    <glyph glyph-name="Utilde" unicode="&#x168;" horiz-adv-x="662" 
d="M620 910h36q-19 -54 -45 -81t-75 -27q-50 0 -86 40q-25 33 -60 33q-32 0 -48 -19t-28 -55h-37q19 54 45 81.5t75 27.5q30 0 46 -8.5t39 -32.5q28 -33 59 -33q32 0 48 18.5t31 55.5zM607 234l78 492h37l-78 -492q-38 -244 -315 -244q-275 0 -237 244l78 492h37l-78 -492
q-17 -111 37 -160.5t169 -49.5q116 0 185 49t87 161z" />
    <glyph glyph-name="utilde" unicode="&#x169;" horiz-adv-x="652" 
d="M588 744h36q-18 -53 -44.5 -80.5t-74.5 -27.5q-51 0 -85 40q-26 33 -61 33q-32 0 -47.5 -18.5t-26.5 -55.5h-37q17 52 44 80t75 28q30 0 46 -9t37 -32q28 -32 60 -32q17 0 29 5t21.5 17.5t14.5 22t13 29.5zM596 246l50 315h37l-86 -563h-35l16 127q-44 -63 -110.5 -99.5
t-144.5 -36.5q-121 0 -182.5 81t-42.5 202l46 289h36l-46 -289q-17 -105 37 -176.5t158 -71.5q96 0 168.5 63t98.5 159z" />
    <glyph glyph-name="Umacron" unicode="&#x16a;" horiz-adv-x="662" 
d="M296 808l5 34h327l-5 -34h-327zM607 234l78 492h37l-78 -492q-38 -244 -315 -244q-275 0 -237 244l78 492h37l-78 -492q-17 -111 37 -160.5t169 -49.5q116 0 185 49t87 161z" />
    <glyph glyph-name="umacron" unicode="&#x16b;" horiz-adv-x="652" 
d="M266 643l5 33h325l-5 -33h-325zM596 246l50 315h37l-86 -563h-35l16 127q-44 -63 -110.5 -99.5t-144.5 -36.5q-121 0 -182.5 81t-42.5 202l46 289h36l-46 -289q-17 -105 37 -176.5t158 -71.5q96 0 168.5 63t98.5 159z" />
    <glyph glyph-name="Ubreve" unicode="&#x16c;" horiz-adv-x="662" 
d="M583 931h34q-11 -70 -52.5 -109.5t-109.5 -39.5t-97.5 39.5t-18.5 109.5h34q-8 -54 13.5 -84t73.5 -30q53 0 84 30.5t39 83.5zM607 234l78 492h37l-78 -492q-38 -244 -315 -244q-275 0 -237 244l78 492h37l-78 -492q-17 -111 37 -160.5t169 -49.5q116 0 185 49t87 161z
" />
    <glyph glyph-name="ubreve" unicode="&#x16d;" horiz-adv-x="652" 
d="M552 764h33q-11 -69 -52 -108t-109 -39t-97 39t-18 108h34q-9 -53 12.5 -83t73.5 -30t83 30t40 83zM596 246l50 315h37l-86 -563h-35l16 127q-44 -63 -110.5 -99.5t-144.5 -36.5q-121 0 -182.5 81t-42.5 202l46 289h36l-46 -289q-17 -105 37 -176.5t158 -71.5
q96 0 168.5 63t98.5 159z" />
    <glyph glyph-name="Uring" unicode="&#x16e;" horiz-adv-x="662" 
d="M484 967q42 0 65.5 -26.5t16.5 -68.5t-38.5 -69t-73.5 -27t-65.5 27t-16.5 69q7 41 39 68t73 27zM479 932q-26 0 -46 -17.5t-24 -42.5q-4 -26 10 -44t40 -18t46.5 18t24.5 44t-10.5 43t-40.5 17zM607 234l78 492h37l-78 -492q-38 -244 -315 -244q-275 0 -237 244l78 492
h37l-78 -492q-17 -111 37 -160.5t169 -49.5q116 0 185 49t87 161z" />
    <glyph glyph-name="uring" unicode="&#x16f;" horiz-adv-x="652" 
d="M453 800q42 0 65.5 -26.5t16.5 -68.5t-38.5 -68t-73.5 -26q-41 0 -64.5 26.5t-16.5 67.5q6 41 38 68t73 27zM447 765q-25 0 -44.5 -17.5t-23.5 -42.5q-5 -25 9.5 -42.5t39.5 -17.5q26 0 46 17t25 43q4 26 -11 43t-41 17zM596 246l50 315h37l-86 -563h-35l16 127
q-44 -63 -110.5 -99.5t-144.5 -36.5q-121 0 -182.5 81t-42.5 202l46 289h36l-46 -289q-17 -105 37 -176.5t158 -71.5q96 0 168.5 63t98.5 159z" />
    <glyph glyph-name="Uhungarumlaut" unicode="&#x170;" horiz-adv-x="662" 
d="M312 784l131 177h42l-133 -177h-40zM452 784l131 177h42l-133 -177h-40zM607 234l78 492h37l-78 -492q-38 -244 -315 -244q-275 0 -237 244l78 492h37l-78 -492q-17 -111 37 -160.5t169 -49.5q116 0 185 49t87 161z" />
    <glyph glyph-name="uhungarumlaut" unicode="&#x171;" horiz-adv-x="652" 
d="M283 619l130 175h41l-132 -175h-39zM421 619l131 175h41l-132 -175h-40zM596 246l50 315h37l-86 -563h-35l16 127q-44 -63 -110.5 -99.5t-144.5 -36.5q-121 0 -182.5 81t-42.5 202l46 289h36l-46 -289q-17 -105 37 -176.5t158 -71.5q96 0 168.5 63t98.5 159z" />
    <glyph glyph-name="Uogonek" unicode="&#x172;" horiz-adv-x="662" 
d="M270 -9l38 -1q-254 8 -216 244l78 492h37l-78 -492q-17 -111 37 -160.5t169 -49.5q116 0 185 49t87 161l78 492h37l-78 -492q-39 -241 -308 -244q-63 -30 -93 -54q-36 -31 -40 -65q-5 -29 11.5 -44t46.5 -15q45 0 85 27l9 -33q-30 -17 -48 -22.5t-51 -5.5q-46 0 -71 24
t-18 69q10 71 103 120z" />
    <glyph glyph-name="uogonek" unicode="&#x173;" horiz-adv-x="655" 
d="M569 -162l11 -32q-29 -17 -48 -22.5t-51 -5.5q-46 0 -71 23.5t-18 68.5q14 91 173 148l13 107q-44 -63 -110.5 -99.5t-144.5 -36.5q-121 0 -182.5 81t-42.5 202l46 289h36l-46 -289q-17 -105 37 -176.5t158 -71.5q96 0 168.5 63t98.5 159l50 315h37l-84 -551l-2 -12h-11
q-89 -38 -117 -63q-35 -30 -41 -65q-4 -29 12.5 -44t45.5 -15q44 0 83 27z" />
    <glyph glyph-name="Wcircumflex" unicode="&#x174;" horiz-adv-x="1080" 
d="M810 784h-43l-81 131l-123 -131h-44l159 172h29zM669 726l121 -620l313 620h37l-367 -726l-129 657l-336 -657l-138 726h38l117 -620l317 620h27z" />
    <glyph glyph-name="wcircumflex" unicode="&#x175;" horiz-adv-x="903" 
d="M562 789h29l103 -170h-43l-80 130l-122 -130h-44zM547 561l117 -460l233 460h38l-285 -561l-122 486l-277 -486l-107 561h38l87 -460l263 460h15z" />
    <glyph glyph-name="Ycircumflex" unicode="&#x176;" horiz-adv-x="705" 
d="M490 956h29l103 -172h-42l-81 131l-124 -131h-43zM403 317l318 409h44l-350 -445l-45 -281h-35l45 281l-210 445h44z" />
    <glyph glyph-name="ycircumflex" unicode="&#x177;" horiz-adv-x="604" 
d="M413 789h29l102 -170h-42l-81 130l-122 -130h-43zM313 55l282 495h41l-373 -651q-37 -64 -75.5 -95.5t-98.5 -31.5q-27 0 -54 9l7 42q25 -16 53 -16q46 0 76.5 26.5t58.5 76.5l56 99l-144 541h41z" />
    <glyph glyph-name="Ydieresis" unicode="&#x178;" horiz-adv-x="705" 
d="M391 867q15 0 24 -9q6 -8 4 -24q-5 -33 -38 -33q-14 0 -22 9.5t-6 23.5t13 23.5t25 9.5zM589 867q14 0 23 -9q7 -10 5 -24q-2 -15 -13 -24t-25 -9q-15 0 -23 9t-6 24q3 14 13 25q13 8 26 8zM403 317l318 409h44l-350 -445l-45 -281h-35l45 281l-210 445h44z" />
    <glyph glyph-name="Zacute" unicode="&#x179;" horiz-adv-x="663" 
d="M423 784h-40l131 177h42zM702 726l-4 -28l-590 -664h505l-5 -34h-553l4 28l589 664h-475l5 34h524z" />
    <glyph glyph-name="zacute" unicode="&#x17a;" horiz-adv-x="568" 
d="M350 619h-39l130 175h41zM518 34l-5 -34h-449l4 28l461 488h-392l5 34h442l-4 -28l-459 -488h397z" />
    <glyph glyph-name="Zdotaccent" unicode="&#x17b;" horiz-adv-x="663" 
d="M468 867q14 0 23 -9q7 -10 5 -24q-2 -15 -13 -24t-25 -9t-22 9.5t-6 23.5t12.5 23.5t25.5 9.5zM702 726l-4 -28l-590 -664h505l-5 -34h-553l4 28l589 664h-475l5 34h524z" />
    <glyph glyph-name="zdotaccent" unicode="&#x17c;" horiz-adv-x="568" 
d="M395 700q15 0 23 -8q7 -11 5 -24q-2 -15 -13 -24t-25 -9t-22 9.5t-6 23.5t13 23t25 9zM518 34l-5 -34h-449l4 28l461 488h-392l5 34h442l-4 -28l-459 -488h397z" />
    <glyph glyph-name="Zcaron" unicode="&#x17d;" horiz-adv-x="663" 
d="M463 825l122 131h43l-158 -172h-29l-104 172h44zM702 726l-4 -28l-590 -664h505l-5 -34h-553l4 28l589 664h-475l5 34h524z" />
    <glyph glyph-name="zcaron" unicode="&#x17e;" horiz-adv-x="568" 
d="M389 659l122 130h43l-157 -170h-29l-103 170h44zM518 34l-5 -34h-449l4 28l461 488h-392l5 34h442l-4 -28l-459 -488h397z" />
    <glyph glyph-name="florin" unicode="&#x192;" horiz-adv-x="445" 
d="M507 765q-97 0 -138 -127l-60 -194h177l-5 -34h-182l-122 -387q-51 -159 -176 -159q-42 0 -76 24l20 30q27 -19 62 -19q91 0 133 127l121 384h-166l5 34h171l63 197q46 159 171 159q23 0 38 -3q12 -4 36 -16l-11 -34q-36 18 -61 18z" />
    <glyph glyph-name="circumflex" unicode="&#x2c6;" horiz-adv-x="308" 
d="M268 796h29l103 -172h-43l-81 131l-123 -131h-44z" />
    <glyph glyph-name="caron" unicode="&#x2c7;" horiz-adv-x="309" 
d="M259 664l123 132h43l-157 -172h-29l-105 172h44z" />
    <glyph glyph-name="uni02C9" unicode="&#x2c9;" horiz-adv-x="353" 
d="M118 648l5 34h328l-5 -34h-328z" />
    <glyph glyph-name="breve" unicode="&#x2d8;" horiz-adv-x="303" 
d="M380 770h34q-11 -69 -52.5 -108.5t-109.5 -39.5t-97.5 39.5t-18.5 108.5h34q-9 -53 12.5 -83t74.5 -30q105 0 123 113z" />
    <glyph glyph-name="dotaccent" unicode="&#x2d9;" horiz-adv-x="93" 
d="M159 706q12 0 23 -8q7 -11 5 -25t-13.5 -23.5t-25.5 -9.5t-21.5 9.5t-5.5 23.5q2 15 13 24t25 9z" />
    <glyph glyph-name="ring" unicode="&#x2da;" horiz-adv-x="233" 
d="M242 806q42 0 65.5 -26.5t16.5 -68.5t-38.5 -68.5t-73.5 -26.5q-41 0 -65 27t-17 68q6 41 38.5 68t73.5 27zM236 771q-26 0 -45.5 -17.5t-23.5 -42.5q-5 -26 9.5 -43.5t40.5 -17.5t46 17.5t25 43.5q4 26 -11 43t-41 17z" />
    <glyph glyph-name="ogonek" unicode="&#x2db;" horiz-adv-x="223" 
d="M165 28h31l2 -17q-159 -59 -170 -133q-5 -29 11.5 -44.5t46.5 -15.5q45 0 85 28l9 -33q-30 -18 -48.5 -23.5t-50.5 -5.5q-45 0 -70.5 24.5t-18.5 69.5q14 91 173 150z" />
    <glyph glyph-name="tilde" unicode="&#x2dc;" horiz-adv-x="384" 
d="M459 750h36q-19 -54 -45 -81.5t-75 -27.5q-51 0 -86 41q-28 33 -61 33q-32 0 -47.5 -18.5t-28.5 -56.5h-37q19 54 45.5 81.5t75.5 27.5q30 0 46 -9t37 -32q31 -33 61 -33q32 0 47.5 18t31.5 57z" />
    <glyph glyph-name="hungarumlaut" unicode="&#x2dd;" horiz-adv-x="319" 
d="M113 624l131 177h42l-133 -177h-40zM253 624l131 177h42l-133 -177h-40z" />
    <glyph glyph-name="uni0326" unicode="&#x326;" horiz-adv-x="0" 
d="M-194 -245l90 192h41l-97 -192h-34z" />
    <glyph glyph-name="pi" unicode="&#x3c0;" horiz-adv-x="356" 
d="M424 562l-5 -34h-95l-84 -528h-37l84 528h-74l-84 -528h-37l84 528h-82l5 34h325z" />
    <glyph glyph-name="Wgrave" unicode="&#x1e80;" horiz-adv-x="1080" 
d="M620 961h43l74 -177h-39zM669 726l121 -620l313 620h37l-367 -726l-129 657l-336 -657l-138 726h38l117 -620l317 620h27z" />
    <glyph glyph-name="wgrave" unicode="&#x1e81;" horiz-adv-x="903" 
d="M583 619l-77 175h42l73 -175h-38zM547 561l117 -460l233 460h38l-285 -561l-122 486l-277 -486l-107 561h38l87 -460l263 460h15z" />
    <glyph glyph-name="Wacute" unicode="&#x1e82;" horiz-adv-x="1080" 
d="M592 784l131 177h42l-133 -177h-40zM669 726l121 -620l313 620h37l-367 -726l-129 657l-336 -657l-138 726h38l117 -620l317 620h27z" />
    <glyph glyph-name="wacute" unicode="&#x1e83;" horiz-adv-x="903" 
d="M517 619h-39l130 175h41zM547 561l117 -460l233 460h38l-285 -561l-122 486l-277 -486l-107 561h38l87 -460l263 460h15z" />
    <glyph glyph-name="Wdieresis" unicode="&#x1e84;" horiz-adv-x="1080" 
d="M569 801q-14 0 -22 9.5t-6 23.5t12.5 23.5t25.5 9.5q14 0 23 -9q7 -10 5 -24q-2 -15 -13 -24t-25 -9zM766 801q-15 0 -23 9t-6 24q3 14 14 25q13 8 25 8q15 0 24 -9q6 -10 4 -24q-5 -33 -38 -33zM669 726l121 -620l313 620h37l-367 -726l-129 657l-336 -657l-138 726h38
l117 -620l317 620h27z" />
    <glyph glyph-name="wdieresis" unicode="&#x1e85;" horiz-adv-x="903" 
d="M465 700q15 0 23 -8q5 -13 4 -24q-2 -15 -12.5 -24t-24.5 -9t-22 9.5t-6 23.5t12.5 23t25.5 9zM660 700q16 0 23 -8q7 -11 5 -24q-5 -33 -38 -33q-15 0 -23 9t-5 24q2 15 13 25q11 7 25 7zM547 561l117 -460l233 460h38l-285 -561l-122 486l-277 -486l-107 561h38
l87 -460l263 460h15z" />
    <glyph glyph-name="endash" unicode="&#x2013;" horiz-adv-x="675" 
d="M119 280l6 37h525l-6 -37h-525z" />
    <glyph glyph-name="emdash" unicode="&#x2014;" horiz-adv-x="1028" 
d="M119 280l6 37h878l-6 -37h-878z" />
    <glyph glyph-name="quoteleft" unicode="&#x2018;" horiz-adv-x="219" 
d="M209 649q13 0 23 -10q5 -12 4 -23q-2 -14 -14 -24t-26 -10q-22 0 -30.5 17t-5.5 41q13 78 93 120l30 -25q-45 -15 -64 -40q-21 -25 -25 -48v-1q8 3 15 3z" />
    <glyph glyph-name="quoteright" unicode="&#x2019;" horiz-adv-x="218" 
d="M240 756q44 0 36 -58q-14 -80 -92 -120l-31 24q79 28 90 90v1q-7 -4 -16 -4q-13 0 -20.5 10t-5.5 24t13.5 23.5t25.5 9.5z" />
    <glyph glyph-name="quotesinglbase" unicode="&#x201a;" horiz-adv-x="221" 
d="M123 62q23 0 31 -17.5t4 -41.5q-12 -81 -92 -119l-29 24q79 28 89 89v1q-8 -4 -17 -4q-13 0 -21 10t-6 24t14.5 24t26.5 10z" />
    <glyph glyph-name="quotedblleft" unicode="&#x201c;" horiz-adv-x="324" 
d="M209 649q13 0 23 -10q5 -12 4 -23q-2 -14 -14 -24t-26 -10q-22 0 -30.5 17t-5.5 41q13 78 93 120l30 -25q-45 -15 -64 -40q-21 -25 -25 -48v-1q8 3 15 3zM314 649q13 0 23 -10q5 -12 4 -23q-2 -14 -14 -24t-26 -10q-22 0 -30.5 17t-5.5 41q13 78 93 120l30 -25
q-45 -15 -64 -40q-21 -25 -25 -48v-1q7 3 15 3z" />
    <glyph glyph-name="quotedblright" unicode="&#x201d;" horiz-adv-x="323" 
d="M240 756q44 0 36 -58q-14 -80 -92 -120l-31 24q79 28 90 90v1q-7 -4 -16 -4q-13 0 -20.5 10t-5.5 24t13.5 23.5t25.5 9.5zM345 756q44 0 36 -58q-14 -80 -92 -120l-31 24q79 28 90 90v1q-7 -4 -16 -4q-13 0 -20.5 10t-5.5 24t13.5 23.5t25.5 9.5z" />
    <glyph glyph-name="quotedblbase" unicode="&#x201e;" horiz-adv-x="325" 
d="M123 62q23 0 31 -17.5t4 -41.5q-12 -81 -92 -119l-29 24q79 28 89 89v1q-8 -4 -17 -4q-13 0 -21 10t-6 24t14.5 24t26.5 10zM228 62q23 0 31 -17.5t4 -41.5q-12 -81 -92 -119l-29 24q79 28 89 89v1q-7 -4 -16 -4q-14 0 -22 10t-6 24t14.5 24t26.5 10z" />
    <glyph glyph-name="dagger" unicode="&#x2020;" horiz-adv-x="567" 
d="M417 726l-35 -224h211l-6 -33h-211l-91 -576h-36l91 576h-212l6 33h212l35 224h36z" />
    <glyph glyph-name="daggerdbl" unicode="&#x2021;" horiz-adv-x="567" 
d="M382 502h211l-6 -33h-211l-50 -319h211l-5 -33h-211l-36 -224h-36l36 224h-212l5 33h212l50 319h-212l6 33h212l35 224h36z" />
    <glyph glyph-name="bullet" unicode="&#x2022;" horiz-adv-x="488" 
d="M315 447q32 0 49.5 -21t12.5 -53t-30 -53t-56 -21t-48.5 21.5t-12.5 52.5q5 32 29 53t56 21z" />
    <glyph glyph-name="ellipsis" unicode="&#x2026;" horiz-adv-x="593" 
d="M118 62q13 0 24 -8q7 -13 4 -26q-2 -14 -13 -24t-26 -10t-22.5 9.5t-5.5 24.5q3 15 14 24.5t25 9.5zM306 62q12 0 23 -8q8 -12 5 -26q-2 -14 -13.5 -24t-25.5 -10q-15 0 -22.5 9.5t-5.5 24.5q3 15 14 24.5t25 9.5zM495 62q12 0 23 -8q8 -12 5 -26q-2 -14 -13.5 -24
t-25.5 -10q-15 0 -22.5 9.5t-5.5 24.5q7 34 39 34z" />
    <glyph glyph-name="perthousand" unicode="&#x2030;" horiz-adv-x="1208" 
d="M317 726q77 0 108.5 -55t18.5 -135q-13 -81 -61 -133.5t-126 -52.5t-110 53t-19 133t62.5 135t126.5 55zM797 726l-607 -726h-44l607 726h44zM312 692q-62 0 -99.5 -45.5t-47.5 -110.5t13 -108.5t85 -43.5q61 0 97.5 43.5t46.5 108.5t-12 110.5t-83 45.5zM689 376
q78 0 109 -53.5t19 -134.5q-13 -80 -62 -134t-126 -54t-109.5 54t-19.5 134q13 81 62 134.5t127 53.5zM1068 376q78 0 108.5 -53.5t18.5 -134.5q-13 -80 -61.5 -134t-125.5 -54q-78 0 -110.5 54t-19.5 134q13 81 62.5 134.5t127.5 53.5zM683 342q-61 0 -99 -45t-48 -109
q-11 -65 12.5 -109.5t85.5 -44.5t99 45t47 109t-13 109t-84 45zM1062 342q-61 0 -99 -45t-48 -109q-11 -65 12.5 -109.5t85.5 -44.5q61 0 98 45t47 109t-13 109t-83 45z" />
    <glyph glyph-name="guilsinglleft" unicode="&#x2039;" horiz-adv-x="314" 
d="M98 294l195 219h47l-195 -219l126 -220h-47z" />
    <glyph glyph-name="guilsinglright" unicode="&#x203a;" horiz-adv-x="314" 
d="M67 74l197 220l-128 219h47l128 -219l-197 -220h-47z" />
    <glyph glyph-name="fraction" unicode="&#x2044;" horiz-adv-x="531" 
d="M598 769l-505 -807l-45 -6l503 802z" />
    <glyph glyph-name="uni207A" unicode="&#x207a;" horiz-adv-x="375" 
d="M320 729l-20 -132h132l-6 -35h-132l-21 -131h-35l21 131h-131l6 35h131l20 132h35z" />
    <glyph glyph-name="uni207B" unicode="&#x207b;" horiz-adv-x="375" 
d="M426 597l-6 -35h-287l6 35h287z" />
    <glyph glyph-name="uni207C" unicode="&#x207c;" horiz-adv-x="441" 
d="M476 656l-5 -34h-303l5 34h303zM457 538l-5 -34h-303l5 34h303z" />
    <glyph glyph-name="uni208A" unicode="&#x208a;" horiz-adv-x="375" 
d="M232 170l-21 -131h132l-5 -35h-132l-21 -131h-35l21 131h-131l5 35h131l21 131h35z" />
    <glyph glyph-name="uni208B" unicode="&#x208b;" horiz-adv-x="375" 
d="M337 39l-5 -35h-287l5 35h287z" />
    <glyph glyph-name="uni208C" unicode="&#x208c;" horiz-adv-x="441" 
d="M388 98l-6 -35h-303l6 35h303zM369 -20l-6 -34h-303l6 34h303z" />
    <glyph glyph-name="Euro" unicode="&#x20ac;" horiz-adv-x="718" 
d="M662 213l31 -17q-40 -94 -111.5 -150t-164.5 -56q-119 0 -178.5 76.5t-59.5 199.5h-98l6 35h95q1 25 6 62q3 18 13 63h-95l6 35h98q38 124 121 199.5t204 75.5q180 0 209 -164l-33 -25q-29 155 -182 155q-104 0 -174.5 -66.5t-106.5 -174.5h321l-31 -35h-301
q-1 -8 -5.5 -29t-6.5 -34l-7 -62h283l-31 -35h-253q0 -108 51.5 -175t154.5 -67q83 0 143.5 52t95.5 137z" />
    <glyph glyph-name="trademark" unicode="&#x2122;" horiz-adv-x="832" 
d="M225 346h-35v351h-137v33h309v-33h-137v-351zM363 730h33l139 -325l139 325h33v-384h-34v294l-123 -294h-29l-124 294l1 -294h-35v384z" />
    <glyph glyph-name="uni2126" unicode="&#x2126;" horiz-adv-x="800" 
d="M554 34h183l-5 -34h-269l5 31q246 87 286 343q23 142 -39.5 235t-203.5 93q-139 0 -231.5 -92t-115.5 -236q-40 -256 177 -343l-5 -31h-269l5 34h183q-164 112 -128 340q25 158 128.5 260t261.5 102q157 0 227.5 -100t45.5 -262q-37 -233 -236 -340z" />
    <glyph glyph-name="arrowleft" unicode="&#x2190;" horiz-adv-x="824" 
d="M238 382h582l-6 -37h-582l-78 2q129 -106 258 -309l-38 -21q-59 104 -128.5 184t-164.5 157l2 12q234 154 401 341l31 -21q-191 -204 -356 -309z" />
    <glyph glyph-name="arrowup" unicode="&#x2191;" horiz-adv-x="833" 
d="M525 735h12q63 -111 128.5 -191.5t158.5 -155.5l-27 -34q-170 147 -260 306l-12 -77l-92 -583h-36l92 583l14 78q-129 -153 -358 -307l-16 34q215 141 396 347z" />
    <glyph glyph-name="arrowright" unicode="&#x2192;" horiz-adv-x="825" 
d="M527 690l39 21q108 -187 294 -341l-2 -12q-229 -147 -402 -341l-32 21q200 212 356 309l-78 -2h-582l6 37h582l77 -1q-133 107 -258 309z" />
    <glyph glyph-name="arrowdown" unicode="&#x2193;" horiz-adv-x="834" 
d="M803 373l17 -35q-116 -75 -208.5 -156.5t-188.5 -190.5h-11q-61 108 -129 190.5t-159 156.5l27 35q177 -156 260 -307l12 78l92 582h36l-92 -582l-14 -78q127 147 358 307z" />
    <glyph glyph-name="arrowboth" unicode="&#x2194;" horiz-adv-x="1026" 
d="M734 709l38 22q59 -103 128 -183.5t164 -158.5l-2 -11q-228 -148 -400 -342l-31 22q189 206 353 307h-827q132 -102 257 -307l-38 -22q-62 105 -130 185t-162 157l2 11q119 77 211 155.5t189 186.5l31 -22q-191 -205 -354 -307h827q-132 102 -256 307z" />
    <glyph glyph-name="arrowupdn" unicode="&#x2195;" horiz-adv-x="833" 
d="M556 776l-131 -826q130 150 356 305l17 -35q-209 -135 -397 -346h-12q-59 107 -125.5 186.5t-160.5 159.5l26 35q174 -148 260 -305l131 826q-133 -152 -356 -304l-16 34q213 139 396 346h12q61 -108 129 -190.5t158 -155.5l-27 -34q-170 147 -260 304z" />
    <glyph glyph-name="partialdiff" unicode="&#x2202;" horiz-adv-x="614" 
d="M389 736q81 0 132.5 -31.5t69.5 -83.5t21.5 -119t-11.5 -139q-9 -56 -23.5 -106t-41 -100t-61 -86t-85 -58.5t-110.5 -22.5q-105 0 -160.5 66t-39.5 172q17 104 91 169t179 65q162 0 212 -114l2 15q9 55 11 99.5t-5.5 91t-28 77.5t-60.5 51t-98 20q-98 0 -161 -77l-24 26
q82 85 191 85zM285 24q103 0 168 72t94 183q-14 75 -67 112t-136 37q-85 0 -149 -56t-78 -142q-14 -87 33.5 -146.5t134.5 -59.5z" />
    <glyph glyph-name="uni2206" unicode="&#x2206;" horiz-adv-x="669" 
d="M35 27l396 699h39l172 -699l-4 -27h-607zM80 34h519l-157 643z" />
    <glyph glyph-name="product" unicode="&#x220f;" horiz-adv-x="691" 
d="M64 -137l137 863h520l-137 -863h-37l132 829h-447l-132 -829h-36z" />
    <glyph glyph-name="summation" unicode="&#x2211;" horiz-adv-x="632" 
d="M145 698l4 28h551l-5 -34h-495l296 -382l-1 -9l-424 -403h498l-6 -35h-551l5 29l433 414z" />
    <glyph glyph-name="minus" unicode="&#x2212;" horiz-adv-x="670" 
d="M137 331l6 34h501l-6 -34h-501z" />
    <glyph glyph-name="uni2215" unicode="&#x2215;" horiz-adv-x="531" 
d="M598 769l-505 -807l-45 -6l503 802z" />
    <glyph glyph-name="uni2219" unicode="&#x2219;" horiz-adv-x="229" 
d="M180 417q16 0 23 -7q8 -10 6 -26q-2 -14 -13.5 -24t-26.5 -10t-22 9.5t-5 24.5t13 24t25 9z" />
    <glyph glyph-name="radical" unicode="&#x221a;" horiz-adv-x="664" 
d="M302 57l5 10l451 828h40l-489 -895h-33l-85 361h-113l6 34h139l77 -327z" />
    <glyph glyph-name="infinity" unicode="&#x221e;" horiz-adv-x="950" 
d="M806 550q81 0 113 -65t18 -152q-14 -86 -65.5 -150.5t-133.5 -64.5q-50 0 -73.5 10.5t-51.5 46.5q-35 45 -91 130q-71 -73 -128 -128q-38 -35 -66.5 -47t-75.5 -12q-50 0 -83 27t-45 74q-16 45 -5 114q14 87 66 152t135 65q47 0 72 -12t52 -46q48 -64 89 -127
q89 89 126 123q36 34 69 48t78 14zM375 204l129 129q-74 112 -89 130q-25 30 -45 43q-18 9 -52 9q-65 0 -108.5 -56.5t-53.5 -125.5q-11 -68 14.5 -124.5t89.5 -56.5q37 0 55 9q20 9 60 43zM742 152q62 0 105 57t53 124q16 107 -42 160q-28 22 -60 22q-36 0 -63 -14.5
t-62 -45.5q-34 -30 -122 -120q24 -36 54.5 -79t36.5 -52q25 -32 43 -42t57 -10z" />
    <glyph glyph-name="integral" unicode="&#x222b;" horiz-adv-x="440" 
d="M480 831q45 0 79 -25l-20 -33q-26 23 -65 23q-107 0 -125 -115l-106 -668q-24 -150 -167 -150q-48 0 -83 28l20 30q35 -23 65 -23q58 0 89 28.5t40 86.5l106 668q11 71 54 110.5t113 39.5z" />
    <glyph glyph-name="approxequal" unicode="&#x2248;" horiz-adv-x="670" 
d="M301 496q25 0 52 -8q30 -11 57 -26l6 -3q61 -34 103 -34q49 0 131 73l-8 -49q-70 -58 -129 -58q-27 0 -52 9q-12 4 -57 27q-66 35 -109 35q-29 0 -55 -12q-27 -13 -80 -62l9 51q37 29 66 43t66 14zM269 297q32 0 66 -15q41 -18 49 -22q66 -35 104 -35q48 0 131 75l-8 -50
q-70 -58 -130 -58q-46 0 -104 32l-5 3q-72 36 -108 36q-33 0 -55 -13q-31 -16 -80 -61l8 50q66 58 132 58z" />
    <glyph glyph-name="notequal" unicode="&#x2260;" horiz-adv-x="670" 
d="M493 471h157l-6 -34h-174l-117 -184h262l-5 -35h-278l-88 -139h-41l88 139h-160l5 35h178l116 184h-265l6 34h282l85 134h39z" />
    <glyph glyph-name="lessequal" unicode="&#x2264;" horiz-adv-x="670" 
d="M149 391l5 32l539 267l-6 -42l-490 -241l412 -251l-7 -43zM589 34l-5 -34h-497l5 34h497z" />
    <glyph glyph-name="greaterequal" unicode="&#x2265;" horiz-adv-x="670" 
d="M602 407l-412 241l6 42l455 -267l-5 -32l-541 -278l7 43zM589 34l-5 -34h-497l5 34h497z" />
    <glyph glyph-name="a.alt" 
d="M413 558q79 0 132.5 -35t77.5 -97l19 115h37l-85 -541h-37l19 123q-93 -132 -252 -132q-121 0 -183 81t-43 202t107 202.5t208 81.5zM329 26q96 0 169 63t98 158l8 52q5 97 -47.5 160t-148.5 63q-104 0 -180.5 -71.5t-93.5 -176.5q-17 -106 36.5 -177t158.5 -71z" />
    <glyph glyph-name="e.alt" 
d="M327 26q133 0 219 111l42 2q-50 -69 -118.5 -108.5t-147.5 -39.5q-119 0 -181 81t-43 202q19 120 106.5 202t206.5 82q121 0 183 -84t40 -220h-502q-8 -97 45 -162.5t150 -65.5zM406 522q-101 0 -175 -65.5t-93 -167.5h465q13 102 -40.5 167.5t-156.5 65.5z" />
    <glyph glyph-name="space.tf" horiz-adv-x="332" 
 />
    <glyph glyph-name="_FSHallmark" horiz-adv-x="914" 
d="M57 704h802v-95h-802v95zM686 160q-38 0 -66 9q-33 8 -56 26q-25 21 -40 46q-16 27 -16 64l93 -2q0 -4 6 -16q1 -12 13 -24q13 -13 24 -16q17 -10 46 -10q30 0 52 11q17 10 17 26q0 29 -76 44q-75 22 -117 44q-48 24 -48 79q0 45 32 73q28 23 70 39q1 0 26 3.5t40 3.5
q40 0 90 -19q46 -17 65 -63q10 -24 10 -47h-96q0 12 -7 22q-5 8 -18 17q-3 1 -10.5 4.5t-12.5 4.5q-3 0 -11 2.5t-12 2.5q-22 0 -45 -14q-19 -11 -19 -29q0 -30 18 -39q33 -13 41 -14l36 -10l29 -7q4 0 13.5 -3t15.5 -3q18 -5 22 -7l20 -9q19 -12 31 -26q11 -25 12 -44
q1 -21 -10 -47q-23 -41 -72 -58q-42 -14 -90 -14zM356 289h-194v-129h-105v399h337v-90h-232v-91h194v-89zM433 162q-16 0 -31 15q-17 14 -17 32q0 19 15 33q13 13 33 13t39 -14q16 -14 16 -32q0 -19 -16 -35q-18 -12 -39 -12zM55 111h803v-95h-803v95z" />
    <glyph glyph-name="_Fontastica" horiz-adv-x="689" 
d="M482 286h-341v-170h-98l-3 4v589h442v-87h-341v-245h341v-91zM548 709h101v-593h-442v92h341v241h-341v94h341v166zM153 81q6 -3 12 -13q5 -7 5 -16t-5 -17q-5 -7 -12 -12q-7 -4 -17 -4q-8 0 -18 4q-7 2 -13 12q-5 8 -5 17q0 6 5 16q5 9 13 13q10 4 18 4q10 0 17 -4z
M410 55q2 -1 7 -6q4 -4 4 -10q0 -7 -4 -11q-6 -6 -9 -7q-8 -2 -13 -2q-1 0 -16 3q-6 1 -14 7l7 13q4 -4 11 -7t12 -3q4 0 6 2t2 4l-1 2q-1 1 -1 2l-3 2q-3 0 -7 2q-2 1 -6 1.5t-6 1.5q-5 4 -7 6q-3 5 -3 11q0 7 3 10q5 5 10 7q6 2 13 2q4 0 14 -2q4 -1 12 -5l-7 -14
q-5 5 -11 6q-4 1 -10 1h-5l-1 -4q0 -1 1 -3l3 -3q2 0 4 -1t3 -1zM560 41l10 -10q-4 -6 -12 -9t-14 -3q-10 0 -17 4q-4 2 -12 12q-5 6 -5 17q0 6 5 16q5 11 12 13q10 4 17 4q8 0 15 -3q6 -3 11 -8l-10 -12q-2 4 -7 6q-1 0 -4 1.5t-4 1.5l-9 -3q-4 -1 -6 -6q-2 -3 -2 -10
q0 -3 2 -9t6 -7q6 -3 9 -3q1 0 4 1.5t4 1.5q5 2 7 5zM66 43v-23h-17v64h48v-13h-31v-15h29v-13h-29zM178 84h15l29 -39v39h16v-64h-15l-29 38v-38h-16v64zM245 70v14h54v-14h-18v-50h-17v50h-19zM310 20h-17l27 64h17l27 -64h-18l-4 12h-28zM443 20v50h-19v14h54v-14h-19
v-50h-16zM485 84h17v-64h-17v64zM570 20l28 64h17l27 -64h-18l-5 12h-27l-5 -12h-17zM150 42q3 3 3 10l-3 9q-2 5 -5 7q-5 3 -9 3q-6 0 -10 -3q-4 -2 -6 -7q-2 -6 -2 -9q0 -7 2 -10q4 -6 6 -7q9 -3 10 -3q6 0 9 3q1 1 2.5 3.5t2.5 3.5zM337 44l-9 23l-9 -23h18zM614 44
l-9 23l-8 -23h17z" />
    <glyph glyph-name="_www.fontastica.com" horiz-adv-x="2013" 
d="M218 246h-122v-60h-34l-2 1v209h158v-31h-122v-87h122v-32zM241 396h36v-210h-158v32h122v86h-122v33h122v59zM1322 302q16 -9 20 -16q8 -11 8 -29q0 -17 -9 -29q-8 -11 -26 -19q-15 -6 -35 -6q-21 0 -43 8q-23 8 -38 20l18 36q10 -9 32 -19q18 -8 31 -8q10 0 16 4
q7 4 7 11t-5 10q-3 2 -11 6q-4 2 -18 6q-28 9 -31 10q-15 6 -20 15q-7 10 -7 28q0 17 8 28q7 10 25 19q14 7 36 7q12 0 38 -6q15 -4 32 -14l-17 -36q-15 8 -30 13q-13 5 -27 5q-8 0 -13 -3t-5 -9q0 -5 4 -9q6 -6 11 -7q1 0 7 -2.5t11 -3.5q20 -5 31 -10zM622 371
q22 -12 33 -32q12 -21 12 -46t-12 -46t-33 -33q-22 -12 -49 -12t-48 12q-22 13 -34 33q-12 21 -12 46t12 46q11 19 34 32q21 12 48 12t49 -12zM1732 263l27 -28q-15 -15 -34 -24t-39 -9q-25 0 -46 12q-19 11 -33 33q-12 19 -12 46q0 25 12 46q11 20 33 32t48 12q23 0 39 -8
q21 -10 31 -22l-26 -32q-8 11 -20 17t-23 6q-13 0 -24 -6q-15 -9 -18 -18q-6 -16 -6 -26q0 -16 6 -26q6 -9 18 -18q10 -7 24 -7q12 0 22 5q12 6 21 15zM384 268v-62h-45v174h130v-36h-85v-39h78v-37h-78zM690 380h40l80 -105l-1 105h43v-174h-40l-79 104v-104h-43v174z
M871 343v37h150v-37h-53v-137h-45v137h-52zM1049 206h-47l75 174h47l73 -174h-48l-12 30h-76zM1410 206v137h-52v37h150v-37h-52v-137h-46zM1527 380h45v-174h-45v174zM1758 206l75 174h47l73 -174h-49l-11 30h-76l-12 -30h-47zM614 267q7 11 7 26q0 7 -7 26q-5 13 -16 19
q-10 6 -24 6t-24 -6q-12 -8 -18 -19q-6 -12 -6 -26t6 -26q5 -10 18 -19q10 -7 24 -7q12 0 24 7q6 4 16 19zM1123 271l-23 63l-25 -63h48zM1879 271l-24 63l-24 -63h48z" />
    </font>
</defs>
</svg>
