<?xml version="1.0" standalone="no"?>
<!DOCTYPE svg PUBLIC "-//W3C//DTD SVG 1.1//EN" "http://www.w3.org/Graphics/SVG/1.1/DTD/svg11.dtd" >
<svg xmlns="http://www.w3.org/2000/svg" xmlns:xlink="http://www.w3.org/1999/xlink" version="1.1">
<metadata>
Created by FontForge 20170731 at Mon Mar  9 20:31:44 2020
 By Aleksey,,,
Copyright (c) 2020 by Fontastica. All rights reserved.
</metadata>
<defs>
<font id="Groteska-Heavy" horiz-adv-x="651" >
  <font-face 
    font-family="Groteska Heavy"
    font-weight="900"
    font-stretch="normal"
    units-per-em="1000"
    panose-1="0 0 10 0 0 0 0 0 0 0"
    ascent="800"
    descent="-200"
    x-height="552"
    cap-height="726"
    bbox="-307 -219 1953 1040"
    underline-thickness="50"
    underline-position="-200"
    unicode-range="U+0020-2265"
  />
<missing-glyph horiz-adv-x="550" 
d="M68 1v723h412v-723h-412zM121 689l152 -284l155 284h-307zM295 363l144 -267v533zM109 625v-527l142 265zM274 320l-153 -283h307z" />
    <glyph glyph-name=".notdef" horiz-adv-x="550" 
d="M68 1v723h412v-723h-412zM121 689l152 -284l155 284h-307zM295 363l144 -267v533zM109 625v-527l142 265zM274 320l-153 -283h307z" />
    <glyph glyph-name=".null" horiz-adv-x="0" 
 />
    <glyph glyph-name="nonmarkingreturn" horiz-adv-x="333" 
 />
    <glyph glyph-name="space" unicode=" " horiz-adv-x="350" 
 />
    <glyph glyph-name="exclam" unicode="!" horiz-adv-x="329" 
d="M217 160q36 -22 36 -74q0 -41 -23 -66.5t-66 -25.5q-40 0 -64 25.5t-24 66.5q0 50 38 74h-26v566h152v-566h-23z" />
    <glyph glyph-name="quotedbl" unicode="&#x22;" horiz-adv-x="496" 
d="M237 464h-164v280h164v-280zM423 464h-164v280h164v-280z" />
    <glyph glyph-name="numbersign" unicode="#" horiz-adv-x="719" 
d="M318 0l29 189h-36l-28 -189h-154l28 189h-110v152h133l9 54h-115v150h139l27 181h156l-30 -181h36l27 181h156l-30 -181h117v-150h-138l-9 -54h119v-152h-142l-29 -189h-155zM335 341h36l8 54h-35z" />
    <glyph glyph-name="dollar" unicode="$" horiz-adv-x="697" 
d="M430 573v-156q46 -9 77.5 -21.5t62.5 -34.5t46.5 -60t15.5 -90q0 -88 -54 -145t-148 -70v-95h-139v99q-178 33 -228 248l132 74q25 -134 96 -174v151q-47 10 -78.5 22.5t-63 35.5t-47.5 61t-16 92q0 85 56 145t149 74v96h139v-100q76 -21 128.5 -77.5t75.5 -141.5
l-122 -90q-32 119 -82 157zM291 449v132q-29 -11 -46 -30t-17 -41q0 -45 63 -61zM430 267v-122q61 21 61 66q0 35 -61 56z" />
    <glyph glyph-name="percent" unicode="%" horiz-adv-x="827" 
d="M592 435q94 0 143 -60.5t49 -157.5q0 -96 -49 -156.5t-143 -60.5q-90 0 -140.5 58.5t-52.5 151.5l-142 -210h-183l200 295q-24 -4 -38 -4q-95 0 -144 60t-49 157q0 96 49.5 157t143.5 61q91 0 140 -57t52 -149l140 206h182l-201 -295q26 4 43 4zM236 443q40 0 40 65
q0 29 -10.5 48.5t-29.5 19.5t-29.5 -19.5t-10.5 -48.5q0 -65 40 -65zM592 150q17 0 28 19.5t11 47.5q0 29 -10.5 47.5t-28.5 18.5q-20 0 -31.5 -18.5t-11.5 -47.5q0 -28 11.5 -47.5t31.5 -19.5z" />
    <glyph glyph-name="ampersand" unicode="&#x26;" horiz-adv-x="638" 
d="M577 148l69 -19v-150l-66 13q-67 14 -116 54q-68 -54 -177 -54q-106 0 -171.5 54.5t-65.5 146.5q0 74 33.5 122.5t94.5 89.5q-51 73 -51 138q0 85 53 137.5t142 52.5q84 0 137 -49t53 -127q0 -91 -59 -151h158q-24 -167 -55 -239l10 -9q6 -6 11 -10zM322 579
q-19 0 -29.5 -9.5t-10.5 -26.5q0 -23 25 -58q50 36 50 72q0 22 -35 22zM425 327l4 -6q2 -2 5.5 -6.5t5.5 -6.5q6 34 13 98q-22 -24 -55 -46q12 -18 16 -20q3 -2 9 -10q0 -1 2 -3zM284 143q48 0 77 18q-4 5 -13 15.5t-15.5 19t-9.5 15.5l-4 5q-4 5 -5 6l-17 22l-5 9
q-1 2 -3 3.5t-2 2.5q-2 0 -4 4l-13 16l-2 2q-1 0 -2 2q-63 -43 -63 -90q0 -23 22.5 -36.5t58.5 -13.5z" />
    <glyph glyph-name="quotesingle" unicode="'" horiz-adv-x="298" 
d="M73 464v280h152v-280h-152z" />
    <glyph glyph-name="parenleft" unicode="(" horiz-adv-x="405" 
d="M395 -65l-93 -115l-44 36q-103 88 -151.5 201t-48.5 267q0 153 59.5 275.5t186.5 229.5l91 -124l-56 -42q-128 -89 -128 -339q0 -230 184 -389z" />
    <glyph glyph-name="parenright" unicode=")" horiz-adv-x="408" 
d="M114 -180l-104 113q188 160 188 391q0 232 -188 386l108 119l48 -52q184 -184 184 -453q0 -154 -57.5 -276.5t-178.5 -227.5z" />
    <glyph glyph-name="asterisk" unicode="*" horiz-adv-x="646" 
d="M447 487l92 -127l-125 -92l-90 128l-95 -131l-122 95l92 126l-148 47l42 147l155 -50l-2 159h154l-2 -159l151 50l46 -147z" />
    <glyph glyph-name="plus" unicode="+" horiz-adv-x="706" 
d="M629 426v-150h-200v-206h-151v206h-201v150h201v198h151v-198h200z" />
    <glyph glyph-name="comma" unicode="," horiz-adv-x="376" 
d="M223 173q46 0 72 -30t26 -80q0 -43 -34.5 -90.5t-94.5 -83.5l-140 111q70 30 90 43q-10 20 -10 43q0 38 25.5 62.5t65.5 24.5z" />
    <glyph glyph-name="hyphen" unicode="-" horiz-adv-x="538" 
d="M75 234v152h388v-152h-388z" />
    <glyph glyph-name="period" unicode="." horiz-adv-x="316" 
d="M158 -6q-39 0 -64.5 26t-25.5 66q0 38 25.5 62.5t64.5 24.5t64.5 -24.5t25.5 -62.5q0 -40 -25.5 -66t-64.5 -26z" />
    <glyph glyph-name="slash" unicode="/" horiz-adv-x="519" 
d="M39 -63l280 852h160l-279 -852h-161z" />
    <glyph glyph-name="zero" unicode="0" horiz-adv-x="668" 
d="M335 -8q-136 0 -208 95.5t-72 275.5t72 275.5t208 95.5q134 0 206 -95.5t72 -275.5t-72 -275.5t-206 -95.5zM335 143q60 0 92 57t32 163t-32 163t-92 57t-93 -57t-33 -163t33 -163t93 -57z" />
    <glyph glyph-name="one" unicode="1" horiz-adv-x="444" 
d="M263 726h126v-726h-152v472q-50 -27 -125 -51l-57 138q70 26 125.5 71t82.5 96z" />
    <glyph glyph-name="two" unicode="2" horiz-adv-x="650" 
d="M352 150h243v-150h-528v110l15 17q76 84 136 124l3 2q71 46 133.5 114.5t62.5 124.5q0 43 -26 67t-71 24q-48 0 -76 -46t-32 -124h-157q11 147 81.5 234t183.5 87q117 0 183.5 -64t66.5 -178q0 -149 -218 -342z" />
    <glyph glyph-name="three" unicode="3" horiz-adv-x="640" 
d="M585 510q0 -84 -56 -146q24 -29 40 -69t16 -75q0 -102 -73.5 -165t-175.5 -63q-101 0 -175.5 67t-105.5 202l155 3q35 -121 126 -121q40 0 67 20.5t27 56.5q0 33 -22 51.5t-57 18.5h-160v152h160q34 0 56.5 18t22.5 49q0 37 -27 58t-67 21q-92 0 -126 -121l-155 3
q31 136 105 203.5t176 67.5q101 0 175 -63.5t74 -167.5z" />
    <glyph glyph-name="four" unicode="4" horiz-adv-x="684" 
d="M629 333v-150h-123v-183h-154v183h-297v103l325 440h126v-393h123zM352 431l-74 -98h74v98z" />
    <glyph glyph-name="five" unicode="5" horiz-adv-x="653" 
d="M340 -8q-221 0 -281 260l159 -1q12 -52 44 -80t78 -28q47 0 75.5 28t28.5 74q0 43 -28 70.5t-71 27.5q-83 0 -136 -74l-142 3l52 454h456v-150h-313l-8 -93q38 11 91 11q110 0 181.5 -70t71.5 -179q0 -111 -73 -182t-185 -71z" />
    <glyph glyph-name="six" unicode="6" horiz-adv-x="654" 
d="M583 240q0 -111 -71 -179.5t-184 -68.5q-135 0 -204 94t-69 277q0 178 80 274.5t211 96.5q164 0 253 -244h-164q-31 93 -89 93q-95 0 -126 -119q57 26 111 26q116 0 184 -68.5t68 -181.5zM230 242q0 -43 27 -71t70 -28q48 0 75 27t27 72q0 43 -26.5 70t-71.5 27
q-43 0 -72 -29.5t-29 -67.5z" />
    <glyph glyph-name="seven" unicode="7" horiz-adv-x="662" 
d="M367 0h-159l5 61q23 298 164 515h-322v150h552v-110q-215 -227 -240 -616z" />
    <glyph glyph-name="eight" unicode="8" horiz-adv-x="650" 
d="M326 -8q-118 0 -194.5 64.5t-76.5 162.5q0 99 80 163q-55 58 -55 139q0 98 66.5 155.5t179.5 57.5q111 0 178.5 -57.5t67.5 -155.5q0 -79 -55 -139q78 -64 78 -163t-75 -163t-194 -64zM326 455q42 0 67.5 18t25.5 48q0 28 -25.5 45t-67.5 17q-43 0 -67.5 -16.5
t-24.5 -45.5q0 -30 24.5 -48t67.5 -18zM326 143q52 0 85 21.5t33 54.5q0 36 -33.5 59.5t-84.5 23.5q-52 0 -84.5 -23.5t-32.5 -59.5q0 -33 32.5 -54.5t84.5 -21.5z" />
    <glyph glyph-name="nine" unicode="9" horiz-adv-x="649" 
d="M594 362q0 -177 -80.5 -274t-210.5 -97q-165 0 -248 245h158q35 -93 90 -93q97 0 126 118q-55 -26 -111 -26q-116 0 -183.5 68.5t-67.5 181.5q0 112 69.5 180.5t186.5 68.5q134 0 202.5 -94t68.5 -278zM318 386q44 0 73 29.5t29 67.5q0 43 -27 71t-70 28q-47 0 -75 -27
t-28 -72q0 -43 27 -70t71 -27z" />
    <glyph glyph-name="colon" unicode=":" horiz-adv-x="326" 
d="M163 404q-42 0 -65.5 25.5t-23.5 65.5q0 41 23 64.5t66 23.5q39 0 64 -24t25 -64q0 -39 -25 -65t-64 -26zM163 -6q-42 0 -65.5 25.5t-23.5 66.5q0 39 23.5 63t65.5 24q39 0 64 -24.5t25 -62.5q0 -40 -25 -66t-64 -26z" />
    <glyph glyph-name="semicolon" unicode=";" horiz-adv-x="402" 
d="M236 405q-39 0 -64 25.5t-25 64.5q0 40 25 64t64 24q41 0 64.5 -23.5t23.5 -64.5q0 -40 -23.5 -65t-64.5 -25zM233 173q46 0 73 -30.5t27 -79.5q0 -42 -34.5 -90.5t-92.5 -83.5l-142 107q70 32 91 46q-11 18 -11 44q0 37 25.5 62t63.5 25z" />
    <glyph glyph-name="less" unicode="&#x3c;" horiz-adv-x="707" 
d="M629 666v-172l-300 -158l300 -158v-173l-529 284v94z" />
    <glyph glyph-name="equal" unicode="=" horiz-adv-x="711" 
d="M96 362v152h520v-152h-520zM96 182v150h520v-150h-520z" />
    <glyph glyph-name="greater" unicode="&#x3e;" horiz-adv-x="711" 
d="M78 494v172l533 -283v-94l-533 -284v173l301 158z" />
    <glyph glyph-name="question" unicode="?" horiz-adv-x="581" 
d="M359 270v-114h-19q35 -24 35 -70q0 -40 -26 -66t-64 -26q-39 0 -65 26t-26 66q0 46 35 70h-21v224q99 31 137 60t38 74q0 33 -23 51t-63 18q-94 0 -122 -166l-142 52q35 265 264 265q108 0 173.5 -59t65.5 -161q0 -171 -177 -244z" />
    <glyph glyph-name="at" unicode="@" horiz-adv-x="1000" 
d="M508 734q206 0 320 -120.5t114 -330.5q0 -121 -36 -197q-45 -83 -112 -97l31 -41q-68 -61 -150.5 -93t-155.5 -32q-207 0 -333.5 119.5t-126.5 331.5q0 206 120 333t329 127zM519 -51q89 0 185 65q-18 20 -26 37q-79 -66 -186 -66q-125 0 -203 85t-78 211q0 127 78 211
t203 84q92 0 162 -47h74q-81 79 -220 79q-149 0 -235 -90.5t-86 -243.5q0 -151 89.5 -238t242.5 -87zM794 143q22 52 22 140q0 107 -41 183v-295q0 -43 3 -53q3 2 16 25zM650 281q0 72 -44 121t-114 49t-113 -49t-43 -121q0 -71 43 -119.5t113 -48.5q71 0 114.5 48.5
t43.5 119.5z" />
    <glyph glyph-name="A" unicode="A" horiz-adv-x="898" 
d="M673 0l-93 172h-260l-92 -172h-173l394 726l394 -726h-170zM449 410l-54 -100h108z" />
    <glyph glyph-name="B" unicode="B" horiz-adv-x="696" 
d="M377 0h-322v726h322q122 0 184.5 -56t62.5 -164q0 -86 -45 -137q62 -60 62 -152q0 -217 -264 -217zM375 577l-167 -1v-137h169q96 0 96 66q0 28 -28 47.5t-70 24.5zM377 285h-169v-135h169q114 0 114 67q0 68 -114 68z" />
    <glyph glyph-name="C" unicode="C" horiz-adv-x="843" 
d="M422 -9q-159 0 -263 104.5t-104 266.5t104 267t263 105q130 0 227 -78.5t131 -207.5h-158q-27 62 -80 98t-120 36q-96 0 -155 -62.5t-59 -157.5q0 -96 60 -157.5t154 -61.5q78 0 135.5 47t75.5 124h153q-23 -145 -122.5 -234t-241.5 -89z" />
    <glyph glyph-name="D" unicode="D" horiz-adv-x="734" 
d="M321 0h-266v726h266q175 0 266.5 -93.5t91.5 -268.5q0 -364 -358 -364zM321 576h-113v-426h113q205 0 205 214q0 101 -53 156.5t-152 55.5z" />
    <glyph glyph-name="E" unicode="E" horiz-adv-x="688" 
d="M210 285v-135h423v-150h-578v726h578v-150h-423v-137h320v-154h-320z" />
    <glyph glyph-name="F" unicode="F" horiz-adv-x="688" 
d="M530 439v-154h-320v-285h-155v726h578v-150h-423v-137h320z" />
    <glyph glyph-name="G" unicode="G" horiz-adv-x="835" 
d="M422 -9q-159 0 -263 104.5t-104 266.5t104 267t263 105q128 0 223.5 -75.5t131.5 -200.5h-159q-29 58 -80.5 91t-115.5 33q-96 0 -155 -62.5t-59 -157.5q0 -96 60 -157.5t154 -61.5q74 0 126 36t74 106h-214v154h370v-439h-151v50q-91 -59 -205 -59z" />
    <glyph glyph-name="H" unicode="H" horiz-adv-x="693" 
d="M485 0v285h-276v-285h-154v726h154v-287h276v287h153v-726h-153z" />
    <glyph glyph-name="I" unicode="I" horiz-adv-x="264" 
d="M55 0v726h154v-726h-154z" />
    <glyph glyph-name="J" unicode="J" horiz-adv-x="693" 
d="M347 -8q-292 0 -292 263v183h154v-183q0 -112 138 -112t138 112v471h153v-471q0 -140 -76 -201.5t-215 -61.5z" />
    <glyph glyph-name="K" unicode="K" horiz-adv-x="795" 
d="M513 0l-223 321l-81 -76v-245h-154v726h154v-273l299 273h232l-332 -300l293 -426h-188z" />
    <glyph glyph-name="L" unicode="L" horiz-adv-x="688" 
d="M210 726v-575h423v-151h-578v726h155z" />
    <glyph glyph-name="M" unicode="M" horiz-adv-x="771" 
d="M441 0h-110l-123 292l1 -292h-154v726h135l196 -465l198 465h132v-726h-152l1 294z" />
    <glyph glyph-name="N" unicode="N" horiz-adv-x="691" 
d="M636 0h-125l-303 424l1 -424h-154v726h126l303 -424l-1 424h153v-726z" />
    <glyph glyph-name="O" unicode="O" horiz-adv-x="844" 
d="M422 -9q-159 0 -263 104.5t-104 266.5t104 267t263 105t263 -105t104 -267t-104 -266.5t-263 -104.5zM422 143q94 0 154 62t60 157q0 96 -60 158t-154 62q-96 0 -155 -62.5t-59 -157.5q0 -96 60 -157.5t154 -61.5z" />
    <glyph glyph-name="P" unicode="P" horiz-adv-x="681" 
d="M355 285h-146v-285h-154v726h300q131 0 201 -54.5t70 -165.5q0 -221 -271 -221zM355 576h-146v-137h146q119 0 119 67q0 70 -119 70z" />
    <glyph glyph-name="Q" unicode="Q" horiz-adv-x="851" 
d="M715 129l81 -56l-94 -117l-104 71q-68 -36 -177 -36q-160 0 -263 104t-103 267q0 161 102.5 266.5t263.5 105.5q162 0 265 -103.5t103 -268.5q0 -97 -44 -188l-1 -2q-10 -19 -29 -43zM589 216q47 60 47 146q0 95 -59 157.5t-156 62.5q-94 0 -153.5 -61.5t-59.5 -158.5
q0 -95 59 -157t154 -62h6h1l-103 69l96 121z" />
    <glyph glyph-name="R" unicode="R" horiz-adv-x="743" 
d="M209 285v-285h-154v726h301q56 0 102 -10.5t85 -34.5t61 -68.5t22 -106.5q0 -164 -136 -202l198 -304h-182l-192 285h-105zM355 576h-146v-137h146q119 0 119 67q0 70 -119 70z" />
    <glyph glyph-name="S" unicode="S" horiz-adv-x="782" 
d="M405 -8q-137 0 -229 74.5t-121 219.5h162q11 -67 61.5 -105t126.5 -38q24 0 48.5 3t49.5 10.5t40.5 22t15.5 33.5q0 24 -37.5 40t-125.5 30q-172 25 -239.5 76t-67.5 150q0 93 83.5 159.5t218.5 66.5q243 0 336 -274h-162q-43 123 -174 123q-64 0 -107 -22t-43 -53
q0 -28 39.5 -45t142.5 -33q158 -25 222 -74t65 -144v-1q0 -97 -86.5 -158t-218.5 -61z" />
    <glyph glyph-name="T" unicode="T" horiz-adv-x="713" 
d="M658 726v-150h-224v-576h-153v576h-226v150h603z" />
    <glyph glyph-name="U" unicode="U" horiz-adv-x="693" 
d="M347 -8q-144 0 -218 63t-74 200v471h154v-471q0 -112 138 -112t138 112v471h153v-471q0 -137 -73.5 -200t-217.5 -63z" />
    <glyph glyph-name="V" unicode="V" horiz-adv-x="898" 
d="M227 726l222 -411l223 411h171l-394 -726l-394 726h172z" />
    <glyph glyph-name="W" unicode="W" horiz-adv-x="1092" 
d="M875 726h162l-298 -726l-193 465l-193 -465l-298 726h163l135 -334l140 334h107l139 -334z" />
    <glyph glyph-name="X" unicode="X" horiz-adv-x="886" 
d="M831 0h-193l-192 248l-196 -248h-195l296 375l-276 351h193l178 -231l189 231h190l-283 -352z" />
    <glyph glyph-name="Y" unicode="Y" horiz-adv-x="826" 
d="M590 726h181l-282 -449v-277h-151v277l-283 449h183l175 -283z" />
    <glyph glyph-name="Z" unicode="Z" horiz-adv-x="694" 
d="M619 622l-342 -472h362v-150h-584v104l344 472h-336v150h556v-104z" />
    <glyph glyph-name="bracketleft" unicode="[" horiz-adv-x="395" 
d="M236 638v-635h147v-152h-299v938h299v-151h-147z" />
    <glyph glyph-name="backslash" unicode="\" horiz-adv-x="519" 
d="M320 -63l-280 852h160l280 -852h-160z" />
    <glyph glyph-name="bracketright" unicode="]" horiz-adv-x="396" 
d="M12 638v151h300v-938h-300v152h147v635h-147z" />
    <glyph glyph-name="asciicircum" unicode="^" horiz-adv-x="732" 
d="M692 316h-177l-148 251l-146 -251h-180l278 473h97z" />
    <glyph glyph-name="underscore" unicode="_" horiz-adv-x="582" 
d="M0 -100v152h582v-152h-582z" />
    <glyph glyph-name="grave" unicode="`" horiz-adv-x="446" 
d="M217 611l-162 270h180l156 -270h-174z" />
    <glyph glyph-name="a" unicode="a" horiz-adv-x="682" 
d="M627 159v-135q-69 -30 -108 -30h-3q-49 7 -75 38q-79 -40 -168 -40q-98 0 -152 43t-54 122q0 80 51 125t168 64l122 21q-4 23 -30.5 35.5t-63.5 12.5q-57 0 -99 -69l-136 66q83 149 235 149q108 0 175.5 -53t67.5 -149v-228q3 -5 17.5 -2.5t33 12t19.5 18.5zM409 195v22
l-88 -15q-106 -18 -106 -45q0 -20 62 -20q45 0 88.5 15t43.5 43z" />
    <glyph glyph-name="b" unicode="b" 
d="M325 558q121 0 196 -82t75 -202q0 -121 -75 -201t-196 -80q-63 0 -121 28v-21h-149v726h149v-196q58 28 121 28zM325 140q56 0 91 39t35 95q0 58 -35 98t-91 40q-48 0 -80.5 -32t-40.5 -80v-50q8 -48 40.5 -79t80.5 -31z" />
    <glyph glyph-name="c" unicode="c" horiz-adv-x="648" 
d="M325 -7q-120 0 -195 80t-75 201q0 120 75 202t195 82q103 0 175 -66t93 -170h-149q-15 41 -46.5 65.5t-72.5 24.5q-54 0 -88.5 -40t-34.5 -98q0 -56 34 -95t89 -39q42 0 73.5 25t47.5 67l147 -1q-19 -106 -91.5 -172t-176.5 -66z" />
    <glyph glyph-name="d" unicode="d" 
d="M328 558q64 0 120 -27v195h148v-726h-148v21q-54 -28 -120 -28q-122 0 -197.5 80t-75.5 201t75.5 202.5t197.5 81.5zM328 140q47 0 79 31t41 79v50q-9 48 -41 80t-79 32q-57 0 -92 -40t-35 -98q0 -57 34.5 -95.5t92.5 -38.5z" />
    <glyph glyph-name="e" unicode="e" horiz-adv-x="669" 
d="M326 -9q-118 0 -194.5 80t-76.5 203q0 124 77 205t194 81q118 0 195.5 -81t77.5 -205q0 -34 -6 -66l-391 -2q38 -80 124 -80q84 0 122 71h142q-22 -95 -93.5 -150.5t-170.5 -55.5zM202 340h251q-16 40 -49.5 62.5t-77.5 22.5q-42 0 -74.5 -22.5t-49.5 -62.5z" />
    <glyph glyph-name="f" unicode="f" horiz-adv-x="537" 
d="M482 726v-133q-69 0 -92 -4.5t-47 -27.5h95v-129h-150l-1 -432h-135l1 432h-98v129h104q52 165 257 165h66z" />
    <glyph glyph-name="g" unicode="g" horiz-adv-x="658" 
d="M471 523v38h132v-493q0 -117 -76 -193.5t-193 -76.5q-91 0 -162 56.5t-112 161.5h140q42 -88 134 -88q54 0 93 30t44 73q-61 -34 -137 -34q-117 0 -192 78.5t-75 200.5t76 202t191 80q76 0 137 -35zM334 130q56 0 93.5 35t43.5 93v36q-6 59 -43.5 95.5t-93.5 36.5
q-58 0 -96.5 -43t-38.5 -107t38 -105t97 -41z" />
    <glyph glyph-name="h" unicode="h" 
d="M203 289v-289h-148v726h148v-195q57 27 122 27q121 0 196 -82t75 -202v-274h-145v274q0 58 -35 98t-91 40q-45 0 -78 -36t-44 -87z" />
    <glyph glyph-name="i" unicode="i" horiz-adv-x="281" 
d="M141 599h-1q-39 0 -64.5 26t-25.5 66q0 38 25.5 62.5t64.5 24.5h1q39 0 64.5 -24.5t25.5 -62.5q0 -40 -25.5 -66t-64.5 -26zM216 0h-148v561h148v-561z" />
    <glyph glyph-name="j" unicode="j" horiz-adv-x="247" 
d="M105 608h-1q-39 0 -64.5 26t-25.5 66q0 38 25.5 62.5t64.5 24.5h1q39 0 64.5 -24.5t25.5 -62.5q0 -40 -25.5 -66t-64.5 -26zM32 570h148l1 -581q0 -88 -49.5 -140.5t-128.5 -52.5q-28 0 -91 24l1 162q34 -41 90 -41q14 0 22 13t8 35z" />
    <glyph glyph-name="k" unicode="k" horiz-adv-x="667" 
d="M394 0l-155 209l-35 -32v-177h-149v726h149v-343l190 178h218l-266 -248l234 -313h-186z" />
    <glyph glyph-name="l" unicode="l" horiz-adv-x="361" 
d="M197 -8q-73 0 -107.5 39.5t-34.5 124.5v570h149v-570q0 -13 7 -20q15 -15 44 -6t51 32v-141q-71 -29 -109 -29z" />
    <glyph glyph-name="m" unicode="m" horiz-adv-x="917" 
d="M206 290v-291h-148l-3 562h146l1 -23q39 21 94 21q101 0 165 -77q66 77 164 77q106 0 171.5 -82t65.5 -203v-275h-146v275q0 58 -25.5 97.5t-65.5 39.5t-66 -40t-26 -97v-275h-145v275q0 57 -26 97t-66 40q-32 0 -57 -35.5t-33 -85.5z" />
    <glyph glyph-name="n" unicode="n" horiz-adv-x="654" 
d="M206 289v-289h-147l-4 561h146l2 -34q56 31 125 31q122 0 196.5 -81.5t74.5 -202.5v-274h-145v274q0 58 -35 98t-91 40q-45 0 -78 -36t-44 -87z" />
    <glyph glyph-name="o" unicode="o" 
d="M325 -7q-120 0 -195 80t-75 201q0 120 75 202t195 82q121 0 196 -82t75 -202q0 -121 -75 -201t-196 -80zM325 140q56 0 91 39t35 95q0 58 -35 98t-91 40q-54 0 -88.5 -40t-34.5 -98q0 -56 34 -95t89 -39z" />
    <glyph glyph-name="p" unicode="p" 
d="M204 21v-154h-149v694h149v-29q52 27 121 27q121 0 196 -81.5t75 -202.5q0 -120 -75 -200.5t-196 -80.5q-65 0 -121 27zM325 141q56 0 91 39t35 95q0 59 -35 98.5t-91 39.5q-45 0 -78 -36t-43 -87v-27q10 -51 43 -86.5t78 -35.5z" />
    <glyph glyph-name="q" unicode="q" 
d="M450 532v29h146v-694h-146v153q-54 -26 -123 -26q-121 0 -196.5 80.5t-75.5 200.5q0 121 75.5 202.5t196.5 81.5q71 0 123 -27zM327 141q46 0 79 35.5t44 86.5v27q-11 51 -44 87t-79 36q-55 0 -89.5 -40t-34.5 -98q0 -56 34.5 -95t89.5 -39z" />
    <glyph glyph-name="r" unicode="r" horiz-adv-x="570" 
d="M206 307v-307h-147l-4 561h146l2 -34q56 31 125 31q93 0 187 -60l-61 -130q-62 44 -126 44q-50 0 -86 -30.5t-36 -74.5z" />
    <glyph glyph-name="s" unicode="s" horiz-adv-x="622" 
d="M319 -7q-111 0 -179 57t-77 164l142 -1q26 -82 114 -82q30 0 59.5 11t29.5 29q0 7 -42 17t-62 13h-7q-46 7 -80.5 17.5t-69.5 29.5t-54 52.5t-19 79.5q0 87 73 134t161 48h1q110 0 173 -52.5t74 -173.5l-144 1q-15 91 -103 91q-28 0 -58 -14.5t-30 -33.5q0 -9 24 -16
t85 -18q32 -7 47.5 -10.5t44 -11.5t43.5 -16t35 -21.5t29.5 -29t17 -38t7.5 -49.5q0 -49 -23.5 -85t-60.5 -55t-75 -28t-76 -9z" />
    <glyph glyph-name="t" unicode="t" horiz-adv-x="526" 
d="M307 -8q-85 0 -126 44.5t-41 136.5v243h-85v145h85v165h146v-165h162v-145h-162v-243q0 -18 11.5 -27t28.5 -9q18 0 39 17t34 46l72 -114q-21 -35 -67 -64.5t-97 -29.5z" />
    <glyph glyph-name="u" unicode="u" horiz-adv-x="654" 
d="M327 -9q-122 0 -197 80t-75 201v289h147v-289q0 -56 35 -95.5t90 -39.5q45 0 78 35.5t45 86.5v302h146l3 -563h-143l-1 26q-60 -33 -128 -33z" />
    <glyph glyph-name="v" unicode="v" horiz-adv-x="727" 
d="M223 560l139 -265l141 266h169l-310 -578l-307 577h168z" />
    <glyph glyph-name="w" unicode="w" horiz-adv-x="909" 
d="M499 561l106 -224l90 224h159l-238 -583l-160 334l-163 -331l-238 580h160l88 -223l107 223h89z" />
    <glyph glyph-name="x" unicode="x" horiz-adv-x="763" 
d="M708 0h-196l-139 165l-129 -165h-188l221 286l-222 266h194l123 -147l113 147h191l-208 -264z" />
    <glyph glyph-name="y" unicode="y" horiz-adv-x="681" 
d="M202 -179q-32 0 -101 25v163q54 -42 98 -42h4q16 0 36 45l24 55l-208 494h165l124 -299l118 299h164l-245 -603q-31 -75 -73 -106t-106 -31z" />
    <glyph glyph-name="z" unicode="z" horiz-adv-x="590" 
d="M522 459l-237 -311h250v-148h-473v104l240 310h-247v147h467v-102z" />
    <glyph glyph-name="braceleft" unicode="{" horiz-adv-x="375" 
d="M353 0v-151h-56q-87 0 -136 45.5t-49 123.5v217q0 13 -103 13v150q103 0 103 14v217q0 76 64 121.5t177 45.5v-150q-90 0 -90 -17v-217q0 -50 -26 -88q26 -38 26 -89v-217q0 -18 90 -18z" />
    <glyph glyph-name="bar" unicode="|" horiz-adv-x="320" 
d="M84 -149v938h152v-938h-152z" />
    <glyph glyph-name="braceright" unicode="}" horiz-adv-x="374" 
d="M22 -151v151q89 0 89 18v217q0 48 25 89q-25 41 -25 88v217q0 17 -89 17v150q112 0 176 -45.5t64 -121.5v-217q0 -14 103 -14v-150q-103 0 -103 -13v-217q0 -78 -63.5 -123.5t-176.5 -45.5z" />
    <glyph glyph-name="asciitilde" unicode="~" horiz-adv-x="612" 
d="M207 264h-160l16 65q15 74 54 114.5t101 41.5q53 0 131 -44q37 -22 50 -22q-1 0 14 71h152l-13 -83q-25 -138 -153 -138q-66 0 -134 44q-35 22 -47 22q1 0 0 -7.5t-4 -24t-7 -39.5z" />
    <glyph glyph-name="exclamdown" unicode="&#xa1;" horiz-adv-x="321" 
d="M250 500q0 -52 -36 -74h24v-566h-153v566h26q-38 24 -38 74q0 41 24 66.5t64 25.5q43 0 66 -25.5t23 -66.5z" />
    <glyph glyph-name="cent" unicode="&#xa2;" horiz-adv-x="652" 
d="M401 0v-89h-149v89q-93 23 -141.5 98.5t-48.5 192.5t49 192.5t141 99.5v89h149v-88q67 -20 117.5 -78t71.5 -145l-139 -62q-24 86 -50 115v-242q32 37 44 110l152 -39l-16 -64q-13 -66 -62 -113.5t-118 -65.5zM252 171v240q-37 -39 -37 -120t37 -120z" />
    <glyph glyph-name="sterling" unicode="&#xa3;" horiz-adv-x="662" 
d="M472 241h151v-68q0 -90 -47.5 -135.5t-134.5 -45.5q-73 0 -127 33q-57 -33 -124 -33q-69 0 -112.5 35.5t-43.5 91.5q0 58 45 94.5t116 36.5q33 0 63 -8q-5 12 -15 28h-150v151h55q-14 39 -14 84q0 102 68 165.5t175 63.5q93 0 153 -64.5t74 -178.5l-150 -58
q-6 67 -27 108.5t-50 41.5q-42 0 -66.5 -20.5t-24.5 -57.5q0 -49 32 -84h226v-151h-133q6 -28 6 -60q0 -38 -8 -63q13 -4 32 -4q31 0 31 98zM186 102q35 0 35 19t-33 19q-36 0 -36 -20q0 -18 34 -18z" />
    <glyph glyph-name="currency" unicode="&#xa4;" horiz-adv-x="756" 
d="M278 154l-102 -104l-107 111l103 103q-20 44 -20 102q0 52 19 98l-103 101l108 111l99 -100q53 23 104 23q55 0 104 -23l100 100l105 -110l-100 -104q18 -50 18 -96q0 -49 -19 -101l101 -105l-105 -110l-103 104q-44 -22 -101 -22q-47 0 -101 22zM379 282q35 0 54.5 22
t19.5 62q0 37 -20 59t-54 22t-54 -22t-20 -59q0 -39 20 -61.5t54 -22.5z" />
    <glyph glyph-name="yen" unicode="&#xa5;" horiz-adv-x="766" 
d="M540 726h177l-201 -347h127v-135h-184v-28h184v-135h-184v-81h-151v81h-184v135h184v27h-184v136h127l-203 347h179l157 -276z" />
    <glyph glyph-name="brokenbar" unicode="&#xa6;" horiz-adv-x="333" 
d="M91 324v465h151v-465h-151zM91 -149v464h151v-464h-151z" />
    <glyph glyph-name="section" unicode="&#xa7;" horiz-adv-x="633" 
d="M596 307q0 -78 -62 -129q17 -33 17 -83q0 -84 -60.5 -139t-167.5 -55q-172 0 -241 172l133 88q-161 48 -161 169q0 81 64 130q-19 34 -19 81q0 85 61 139t170 54q173 0 241 -172l-134 -85q159 -45 159 -170zM330 583q-36 0 -57 -11t-21 -30q0 -28 113 -50q43 -7 68 -14
q-34 105 -103 105zM395 275q50 14 50 32q0 20 -106 37q-57 10 -83 16q-48 -12 -48 -30q0 -21 104 -37q20 -3 83 -18zM323 53q36 0 57 11.5t21 30.5q0 27 -116 50q-30 5 -65 14q35 -106 103 -106z" />
    <glyph glyph-name="dieresis" unicode="&#xa8;" horiz-adv-x="485" 
d="M144 602q-39 0 -64 25t-25 65q0 38 25 62t64 24t64.5 -24.5t25.5 -61.5q0 -40 -25.5 -65t-64.5 -25zM340 602q-39 0 -64 25t-25 65q0 38 25 62t64 24t64.5 -24.5t25.5 -61.5q0 -40 -25.5 -65t-64.5 -25z" />
    <glyph glyph-name="copyright" unicode="&#xa9;" horiz-adv-x="869" 
d="M807 363q0 -166 -102.5 -268.5t-269.5 -102.5h-1q-167 0 -269.5 102.5t-102.5 268.5q0 167 102.5 269t269.5 102h1q167 0 269.5 -102t102.5 -269zM435 118q109 0 177 68t68 177t-68 177t-177 68q-110 0 -178 -67.5t-68 -177.5t68 -177.5t178 -67.5zM434 175
q-80 0 -132.5 53t-52.5 134q0 82 52.5 135t132.5 53q71 0 121.5 -42.5t60.5 -111.5h-90q-24 65 -92 65q-42 0 -69 -28t-27 -71q0 -44 26.5 -71t69.5 -27q38 0 64.5 22.5t31.5 60.5h89q-6 -76 -57.5 -124t-127.5 -48z" />
    <glyph glyph-name="ordfeminine" unicode="&#xaa;" horiz-adv-x="448" 
d="M377 608l48 27v-106q-51 -22 -82 -22h-3q-33 3 -52 24q-61 -26 -115 -26q-71 0 -110.5 31.5t-39.5 89.5q0 95 104 127l-98 47q59 114 172 114q81 0 128.5 -40t47.5 -107v-159zM201 799q-34 0 -61 -42q22 5 41 8l77 13q-13 21 -57 21zM261 653v8l-54 -10
q-29 -4 -48.5 -11.5t-19.5 -13.5t36 -6q35 0 60.5 9.5t25.5 23.5z" />
    <glyph glyph-name="guillemotleft" unicode="&#xab;" horiz-adv-x="717" 
d="M229 548h190l-178 -242l178 -245h-190l-178 245zM472 548h190l-178 -242l178 -245h-190l-178 245z" />
    <glyph glyph-name="logicalnot" unicode="&#xac;" horiz-adv-x="708" 
d="M85 276v150h539v-270h-153v120h-386z" />
    <glyph glyph-name="uni00AD" unicode="&#xad;" horiz-adv-x="526" 
d="M68 234v152h390v-152h-390z" />
    <glyph glyph-name="registered" unicode="&#xae;" horiz-adv-x="869" 
d="M807 363q0 -166 -102.5 -268.5t-269.5 -102.5h-1q-167 0 -269.5 102.5t-102.5 268.5q0 167 102.5 269t269.5 102h1q167 0 269.5 -102t102.5 -269zM435 118q109 0 177 68t68 177t-68 177t-177 68q-110 0 -178 -67.5t-68 -177.5t68 -177.5t178 -67.5zM376 192h-88v350h146
q64 0 98 -28.5t34 -81.5q0 -72 -57 -97l93 -143h-105l-88 131h-33v-131zM376 454v-44h57q45 0 45 22t-45 22h-57z" />
    <glyph glyph-name="macron" unicode="&#xaf;" horiz-adv-x="506" 
d="M55 621v150h396v-150h-396z" />
    <glyph glyph-name="degree" unicode="&#xb0;" horiz-adv-x="424" 
d="M211 560q-79 0 -129 49.5t-50 127.5q0 79 50 128.5t129 49.5q77 0 126.5 -50t49.5 -128t-49.5 -127.5t-126.5 -49.5zM211 708q24 0 24 29q0 28 -24 28q-25 0 -25 -28q0 -29 25 -29z" />
    <glyph glyph-name="plusminus" unicode="&#xb1;" horiz-adv-x="708" 
d="M430 471h194v-151h-194v-170h194v-150h-539v150h196v170h-196v151h196v221h149v-221z" />
    <glyph glyph-name="uni00B2" unicode="&#xb2;" horiz-adv-x="451" 
d="M304 594h96v-146h-359v102l7 8v2q31 35 63 62q13 10 22 19q7 7 11 9q36 23 65 52.5t29 54.5q0 23 -25 23q-28 0 -31 -98h-151q8 111 56.5 176.5t125.5 65.5q80 0 126 -44t46 -123q0 -77 -81 -163z" />
    <glyph glyph-name="uni00B3" unicode="&#xb3;" horiz-adv-x="382" 
d="M331 688l-4 5q34 -44 34 -93q0 -67 -48.5 -111.5t-120.5 -44.5q-73 0 -123 51t-68 145l86 1v96l-86 1q19 94 68.5 145.5t122.5 51.5t121 -45t48 -113q0 -52 -30 -89zM201 751q34 0 34 26q0 15 -12 24.5t-31 9.5q-43 0 -62 -60h71zM192 568q19 0 31 9t12 23q0 27 -34 27
h-71q19 -59 62 -59z" />
    <glyph glyph-name="acute" unicode="&#xb4;" horiz-adv-x="446" 
d="M55 619l157 269h179l-161 -269h-175z" />
    <glyph glyph-name="uni00B5" unicode="&#xb5;" horiz-adv-x="631" 
d="M401 552h148v-552h-148v14q-50 -22 -107 -22q-36 0 -66 9v-175h-147v726h147v-344q0 -32 19 -51.5t49 -19.5q44 0 74.5 29t30.5 69v317z" />
    <glyph glyph-name="paragraph" unicode="&#xb6;" horiz-adv-x="623" 
d="M395 601h-17v-693h-126v330q-102 16 -160.5 80.5t-58.5 161.5q0 110 75 178t196 68h219v-818h-128v693zM252 371v220q-43 -12 -66.5 -41t-23.5 -70q0 -40 23.5 -68.5t66.5 -40.5z" />
    <glyph glyph-name="periodcentered" unicode="&#xb7;" horiz-adv-x="340" 
d="M170 301q-40 0 -64.5 25t-24.5 64t24.5 63.5t64.5 24.5q44 0 66.5 -24t22.5 -64q0 -41 -22.5 -65t-66.5 -24z" />
    <glyph glyph-name="cedilla" unicode="&#xb8;" horiz-adv-x="424" 
d="M115 34l26 91l95 -8q71 -34 102 -74t31 -95q0 -64 -41 -104t-105 -40q-48 0 -88 23t-80 78l83 113q62 -82 85 -82q12 0 12 11q0 13 -26 32t-94 55z" />
    <glyph glyph-name="uni00B9" unicode="&#xb9;" horiz-adv-x="380" 
d="M170 916h120v-463h-147v244l-15 -6q-26 -11 -39 -15l-54 134q46 16 82.5 45t52.5 61z" />
    <glyph glyph-name="ordmasculine" unicode="&#xba;" horiz-adv-x="421" 
d="M204 502q-84 0 -138 56t-54 144q0 86 54.5 142.5t137.5 56.5q84 0 139 -56.5t55 -142.5q0 -88 -54.5 -144t-139.5 -56zM204 639q25 0 40.5 17.5t15.5 45.5q0 27 -15.5 45t-40.5 18q-24 0 -39.5 -18t-15.5 -45q0 -28 15 -45.5t40 -17.5z" />
    <glyph glyph-name="guillemotright" unicode="&#xbb;" horiz-adv-x="713" 
d="M229 306l-178 242h190l178 -242l-178 -245h-190zM472 306l-178 242h190l178 -242l-178 -245h-190z" />
    <glyph glyph-name="onequarter" unicode="&#xbc;" horiz-adv-x="1204" 
d="M1035 333h123v-150h-123v-183h-154v183h-296v101l-114 -347h-161l20 63h-107v473q-46 -26 -124 -53l-53 139q68 26 122.5 71t79.5 96h128v-586l213 649h162l-165 -501l324 438h125v-393zM881 333v98l-74 -98h74z" />
    <glyph glyph-name="onehalf" unicode="&#xbd;" horiz-adv-x="1262" 
d="M969 150h247v-150h-529v109l17 19q34 42 95 89q20 15 24 19l11 9l2 2l-4 3q12 5 19.5 9t11 6.5t4.5 2.5l7 7q46 40 74.5 67t59 71.5t30.5 78.5q0 43 -26.5 67t-71.5 24q-48 0 -76.5 -46t-33.5 -124h-154q2 27 6 54l-174 -530h-162l21 63h-144v473q-46 -26 -124 -53
l-53 139q68 26 122.5 71t79.5 96h128v-698l251 761h161l-61 -186q73 131 213 131q117 0 183.5 -64t66.5 -178q0 -155 -221 -342z" />
    <glyph glyph-name="threequarters" unicode="&#xbe;" horiz-adv-x="1379" 
d="M1206 333h125v-150h-125v-183h-152v183h-297v95l-112 -341h-159l52 157q-34 -48 -89.5 -75t-119.5 -27q-102 0 -177 67t-106 202l155 3q34 -121 128 -121q40 0 67 20.5t27 56.5q0 33 -23 51.5t-59 18.5h-160v152h160q34 0 58 18.5t24 48.5q0 37 -27 58t-67 21
q-95 0 -128 -121l-155 3q31 137 105 204t178 67q100 0 173.5 -63.5t73.5 -167.5q0 -81 -54 -141q54 -65 54 -149v-10l190 579h159l-163 -496l321 433h123v-393zM1054 333v100l-74 -100h74z" />
    <glyph glyph-name="questiondown" unicode="&#xbf;" horiz-adv-x="574" 
d="M401 163l142 -53q-35 -265 -263 -265q-108 0 -173.5 59.5t-65.5 161.5q0 171 176 243v114h20q-35 25 -35 70q0 40 25.5 66t64.5 26t64.5 -26t25.5 -66q0 -45 -35 -70h22v-224q-99 -31 -137.5 -60t-38.5 -73q0 -33 23.5 -51t63.5 -18q93 0 121 166z" />
    <glyph glyph-name="Agrave" unicode="&#xc0;" horiz-adv-x="863" 
d="M426 759l-164 269h181l156 -269h-173zM656 0l-93 172h-260l-92 -172h-173l394 726l394 -726h-170zM432 410l-54 -100h108z" />
    <glyph glyph-name="Aacute" unicode="&#xc1;" horiz-adv-x="863" 
d="M262 767l160 268h179l-161 -268h-178zM656 0l-93 172h-260l-92 -172h-173l394 726l394 -726h-170zM432 410l-54 -100h108z" />
    <glyph glyph-name="Acircumflex" unicode="&#xc2;" horiz-adv-x="863" 
d="M678 747h-192l-55 71l-55 -71h-190l203 265h86zM656 0l-93 172h-260l-92 -172h-173l394 726l394 -726h-170zM432 410l-54 -100h108z" />
    <glyph glyph-name="Atilde" unicode="&#xc3;" horiz-adv-x="863" 
d="M364 831q5 -4 -5 -62h-153l14 68q13 75 47.5 110t97.5 35q69 0 118 -52q5 -5 11 -8q-5 1 6 61h160l-21 -84q-17 -68 -50 -99t-95 -31q-64 0 -117 51q-7 7 -13 11zM432 726l394 -726h-170l-93 172h-260l-92 -172h-173zM378 310h108l-54 100z" />
    <glyph glyph-name="Adieresis" unicode="&#xc4;" horiz-adv-x="863" 
d="M333 749q-39 0 -64 25t-25 65q0 38 25 62t64 24t64.5 -24.5t25.5 -61.5q0 -40 -25.5 -65t-64.5 -25zM529 749q-39 0 -64 25t-25 65q0 38 25 62t64 24t64.5 -24.5t25.5 -61.5q0 -40 -25.5 -65t-64.5 -25zM656 0l-93 172h-260l-92 -172h-173l394 726l394 -726h-170z
M432 410l-54 -100h108z" />
    <glyph glyph-name="Aring" unicode="&#xc5;" horiz-adv-x="863" 
d="M432 759q-62 0 -101.5 39t-39.5 101q0 61 39.5 101t101.5 40q61 0 101 -40.5t40 -100.5q0 -61 -39.5 -100.5t-101.5 -39.5zM432 872q12 0 19.5 8t7.5 19q0 12 -7.5 20t-19.5 8t-19.5 -8t-7.5 -20t7.5 -19.5t19.5 -7.5zM656 0l-93 172h-260l-92 -172h-173l394 726
l394 -726h-170zM432 410l-54 -100h108z" />
    <glyph glyph-name="AE" unicode="&#xc6;" horiz-adv-x="1002" 
d="M402 0v194h-82l-92 -194h-173l373 726h552v-150h-424v-137h322v-154h-322v-135h424v-150h-578zM405 403l-47 -79h47v79z" />
    <glyph glyph-name="Ccedilla" unicode="&#xc7;" horiz-adv-x="843" 
d="M633 314h153q-17 -110 -80.5 -190t-159.5 -113q25 -37 25 -86q0 -64 -41 -104t-105 -40q-48 0 -88 23t-80 78l83 113q61 -82 85 -82q12 0 12 11q0 12 -21.5 29t-76.5 47q-127 26 -205.5 125t-78.5 237q0 162 104 267t263 105q130 0 227 -78.5t131 -207.5h-158
q-27 62 -80 98t-120 36q-96 0 -155 -62.5t-59 -157.5q0 -96 60 -157.5t154 -61.5q78 0 135.5 47t75.5 124z" />
    <glyph glyph-name="Egrave" unicode="&#xc8;" horiz-adv-x="666" 
d="M326 759l-162 269h179l157 -269h-174zM198 285v-135h423v-150h-576v726h576v-150h-423v-137h321v-154h-321z" />
    <glyph glyph-name="Eacute" unicode="&#xc9;" horiz-adv-x="666" 
d="M166 767l157 268h179l-160 -268h-176zM198 285v-135h423v-150h-576v726h576v-150h-423v-137h321v-154h-321z" />
    <glyph glyph-name="Ecircumflex" unicode="&#xca;" horiz-adv-x="666" 
d="M579 747h-191l-56 71l-57 -71h-188l203 265h87zM198 285v-135h423v-150h-576v726h576v-150h-423v-137h321v-154h-321z" />
    <glyph glyph-name="Edieresis" unicode="&#xcb;" horiz-adv-x="666" 
d="M250 748q-39 0 -63 25.5t-24 65.5q0 38 24 62.5t63 24.5q62 0 83 -51q21 51 83 51q39 0 63.5 -24.5t24.5 -62.5q0 -40 -24.5 -65.5t-63.5 -25.5q-61 0 -83 53q-22 -53 -83 -53zM621 576h-423v-137h321v-154h-321v-135h423v-150h-576v726h576v-150z" />
    <glyph glyph-name="Igrave" unicode="&#xcc;" horiz-adv-x="304" 
d="M147 759l-163 269h180l156 -269h-173zM77 0v726h153v-726h-153z" />
    <glyph glyph-name="Iacute" unicode="&#xcd;" horiz-adv-x="305" 
d="M-16 767l158 268h179l-161 -268h-176zM76 0v726h153v-726h-153z" />
    <glyph glyph-name="Icircumflex" unicode="&#xce;" horiz-adv-x="278" 
d="M385 747h-192l-56 71l-54 -71h-190l203 265h85zM62 0v726h153v-726h-153z" />
    <glyph glyph-name="Idieresis" unicode="&#xcf;" horiz-adv-x="239" 
d="M22 752q-39 0 -64 25t-25 65q0 38 25 62t64 24t64.5 -24.5t25.5 -61.5q0 -40 -25.5 -65t-64.5 -25zM218 752q-39 0 -64 25t-25 65q0 38 25 62t64 24t64.5 -24.5t25.5 -61.5q0 -40 -25.5 -65t-64.5 -25zM44 0v726h152v-726h-152z" />
    <glyph glyph-name="Eth" unicode="&#xd0;" horiz-adv-x="707" 
d="M295 0h-266v369h-108v153h108v204h266q175 0 266 -93.5t91 -268.5q0 -364 -357 -364zM183 522h127v-153h-127v-219h112q206 0 206 214q0 101 -53.5 156.5t-152.5 55.5h-112v-54z" />
    <glyph glyph-name="Ntilde" unicode="&#xd1;" horiz-adv-x="670" 
d="M269 830q3 -7 -8 -61h-149l9 66q13 78 48 112.5t99 34.5q68 0 119 -53q9 -7 11 -7q-7 1 5 61h159l-21 -84q-17 -68 -49.5 -99t-93.5 -31q-68 0 -118 50zM472 726h153v-726h-125l-304 424l1 -424h-152v726h123l305 -424z" />
    <glyph glyph-name="Ograve" unicode="&#xd2;" horiz-adv-x="822" 
d="M404 759l-163 269h182l156 -269h-175zM409 -9q-158 0 -261 104.5t-103 266.5t103 267t261 105q160 0 264 -105t104 -267t-103.5 -266.5t-264.5 -104.5zM409 143q95 0 156 62t61 157q0 96 -61 158t-156 62t-154 -63t-59 -157q0 -96 60 -157.5t153 -61.5z" />
    <glyph glyph-name="Oacute" unicode="&#xd3;" horiz-adv-x="822" 
d="M243 767l157 268h181l-161 -268h-177zM409 -9q-158 0 -261 104.5t-103 266.5t103 267t261 105q160 0 264 -105t104 -267t-103.5 -266.5t-264.5 -104.5zM409 143q95 0 156 62t61 157q0 96 -61 158t-156 62t-154 -63t-59 -157q0 -96 60 -157.5t153 -61.5z" />
    <glyph glyph-name="Ocircumflex" unicode="&#xd4;" horiz-adv-x="822" 
d="M656 747h-190l-56 71l-56 -71h-188l203 265h85zM409 -9q-158 0 -261 104.5t-103 266.5t103 267t261 105q160 0 264 -105t104 -267t-103.5 -266.5t-264.5 -104.5zM409 143q95 0 156 62t61 157q0 96 -61 158t-156 62t-154 -63t-59 -157q0 -96 60 -157.5t153 -61.5z" />
    <glyph glyph-name="Otilde" unicode="&#xd5;" horiz-adv-x="822" 
d="M345 830q5 -8 -7 -61h-152l13 70h1q11 75 46 109t99 34q69 0 118 -53l9 -7q-4 3 7 61h160l-22 -84q-17 -68 -49 -99t-95 -31q-65 0 -117 50q-6 8 -11 11zM409 734q160 0 264 -105t104 -267t-103.5 -266.5t-264.5 -104.5q-158 0 -261 104.5t-103 266.5t103 267t261 105z
M409 143q95 0 156 62t61 157q0 96 -61 158t-156 62t-154 -63t-59 -157q0 -96 60 -157.5t153 -61.5z" />
    <glyph glyph-name="Odieresis" unicode="&#xd6;" horiz-adv-x="822" 
d="M329 748q-39 0 -64 25.5t-25 65.5q0 38 25 62.5t64 24.5q61 0 82 -51q21 51 82 51q39 0 64 -24.5t25 -62.5q0 -40 -25 -65.5t-64 -25.5q-60 0 -82 53q-22 -53 -82 -53zM409 734q160 0 264 -105t104 -267t-103.5 -266.5t-264.5 -104.5q-158 0 -261 104.5t-103 266.5
t103 267t261 105zM409 143q95 0 156 62t61 157q0 96 -61 158t-156 62t-154 -63t-59 -157q0 -96 60 -157.5t153 -61.5z" />
    <glyph glyph-name="multiply" unicode="&#xd7;" horiz-adv-x="786" 
d="M503 347l144 -147l-107 -111l-148 148l-145 -150l-108 113l145 147l-148 147l111 107l145 -145l148 145l110 -107z" />
    <glyph glyph-name="Oslash" unicode="&#xd8;" horiz-adv-x="844" 
d="M610 688q87 -45 133 -132.5t46 -193.5q0 -161 -103 -266t-265 -105q-14 0 -40 2l-19 -56h-158l31 100q-85 48 -132.5 135.5t-47.5 189.5q0 158 103 264.5t263 107.5q33 0 41 -1l20 56h164zM284 189l129 393q-91 -3 -148 -64.5t-57 -155.5q0 -111 76 -173zM429 143
q93 7 150 65.5t57 153.5q0 110 -77 175z" />
    <glyph glyph-name="Ugrave" unicode="&#xd9;" horiz-adv-x="672" 
d="M329 759l-162 269h179l157 -269h-174zM335 -8q-143 0 -216.5 63t-73.5 200v471h152v-471q0 -112 138 -112q139 0 139 112v471h153v-471q0 -137 -74 -200t-218 -63z" />
    <glyph glyph-name="Uacute" unicode="&#xda;" horiz-adv-x="672" 
d="M168 767l157 268h180l-162 -268h-175zM335 -8q-143 0 -216.5 63t-73.5 200v471h152v-471q0 -112 138 -112q139 0 139 112v471h153v-471q0 -137 -74 -200t-218 -63z" />
    <glyph glyph-name="Ucircumflex" unicode="&#xdb;" horiz-adv-x="672" 
d="M582 747h-190l-58 71l-55 -71h-190l204 265h86zM335 -8q-143 0 -216.5 63t-73.5 200v471h152v-471q0 -112 138 -112q139 0 139 112v471h153v-471q0 -137 -74 -200t-218 -63z" />
    <glyph glyph-name="Udieresis" unicode="&#xdc;" horiz-adv-x="672" 
d="M239 749q-39 0 -64 25t-25 65q0 38 25 62t64 24t64.5 -24.5t25.5 -61.5q0 -40 -25.5 -65t-64.5 -25zM435 749q-39 0 -64 25t-25 65q0 38 25 62t64 24t64.5 -24.5t25.5 -61.5q0 -40 -25.5 -65t-64.5 -25zM335 -8q-143 0 -216.5 63t-73.5 200v471h152v-471q0 -112 138 -112
q139 0 139 112v471h153v-471q0 -137 -74 -200t-218 -63z" />
    <glyph glyph-name="Yacute" unicode="&#xdd;" horiz-adv-x="788" 
d="M226 767l158 268h178l-160 -268h-176zM570 726h182l-282 -449v-277h-152v277l-282 449h183l175 -283z" />
    <glyph glyph-name="germandbls" unicode="&#xdf;" horiz-adv-x="509" 
d="M506 353q20 -22 36.5 -63.5t16.5 -74.5q0 -99 -71 -161t-169 -62q-46 0 -96 19l-2 171q62 -43 98 -43q39 0 65 20.5t26 55.5q0 31 -22 48.5t-56 17.5h-128v-280h-149v494q25 114 94 168t170 54q98 0 169 -61t71 -162q0 -82 -53 -141zM204 429h128q34 0 56 17t22 47
q0 35 -26.5 56t-64.5 21q-87 0 -115 -92v-49z" />
    <glyph glyph-name="agrave" unicode="&#xe0;" horiz-adv-x="661" 
d="M328 592l-157 262h174l153 -262h-170zM613 159v-135q-69 -30 -108 -30h-3q-49 7 -75 38q-79 -40 -168 -40q-98 0 -152 43t-54 122q0 80 51 125t168 64l122 21q-4 23 -30.5 35.5t-63.5 12.5q-57 0 -99 -69l-136 66q83 149 235 149q108 0 175.5 -53t67.5 -149v-228
q3 -5 17.5 -2.5t33 12t19.5 18.5zM395 195v22l-88 -15q-106 -18 -106 -45q0 -20 62 -20q45 0 88.5 15t43.5 43z" />
    <glyph glyph-name="aacute" unicode="&#xe1;" horiz-adv-x="661" 
d="M171 599l154 260h173l-155 -260h-172zM613 159v-135q-69 -30 -108 -30h-3q-49 7 -75 38q-79 -40 -168 -40q-98 0 -152 43t-54 122q0 80 51 125t168 64l122 21q-4 23 -30.5 35.5t-63.5 12.5q-57 0 -99 -69l-136 66q83 149 235 149q108 0 175.5 -53t67.5 -149v-228
q3 -5 17.5 -2.5t33 12t19.5 18.5zM395 195v22l-88 -15q-106 -18 -106 -45q0 -20 62 -20q45 0 88.5 15t43.5 43z" />
    <glyph glyph-name="acircumflex" unicode="&#xe2;" horiz-adv-x="661" 
d="M573 580h-186l-53 68l-55 -68h-183l198 258h83zM613 159v-135q-69 -30 -108 -30h-3q-49 7 -75 38q-79 -40 -168 -40q-98 0 -152 43t-54 122q0 80 51 125t168 64l122 21q-4 23 -30.5 35.5t-63.5 12.5q-57 0 -99 -69l-136 66q83 149 235 149q108 0 175.5 -53t67.5 -149
v-228q3 -5 17.5 -2.5t33 12t19.5 18.5zM395 195v22l-88 -15q-106 -18 -106 -45q0 -20 62 -20q45 0 88.5 15t43.5 43z" />
    <glyph glyph-name="atilde" unicode="&#xe3;" horiz-adv-x="661" 
d="M272 659q4 -8 -8 -58h-147l10 65q12 75 46.5 108t96.5 33q68 0 114 -49l4 -3l5 -3q-3 9 7 56h157l-23 -82q-15 -64 -47.5 -94t-91.5 -30q-58 0 -112 47q-8 8 -11 10zM543 131q3 -5 17.5 -2.5t33 12t19.5 18.5v-135q-69 -30 -108 -30h-3q-49 7 -75 38q-79 -40 -168 -40
q-98 0 -152 43t-54 122q0 80 51 125t168 64l122 21q-4 23 -30.5 35.5t-63.5 12.5q-57 0 -99 -69l-136 66q83 149 235 149q108 0 175.5 -53t67.5 -149v-228zM395 195v22l-88 -15q-106 -18 -106 -45q0 -20 62 -20q45 0 88.5 15t43.5 43z" />
    <glyph glyph-name="adieresis" unicode="&#xe4;" horiz-adv-x="661" 
d="M237 582q-39 0 -64 25t-25 65q0 38 25 62t64 24t64.5 -24.5t25.5 -61.5q0 -40 -25.5 -65t-64.5 -25zM433 582q-39 0 -64 25t-25 65q0 38 25 62t64 24t64.5 -24.5t25.5 -61.5q0 -40 -25.5 -65t-64.5 -25zM613 159v-135q-69 -30 -108 -30h-3q-49 7 -75 38q-79 -40 -168 -40
q-98 0 -152 43t-54 122q0 80 51 125t168 64l122 21q-4 23 -30.5 35.5t-63.5 12.5q-57 0 -99 -69l-136 66q83 149 235 149q108 0 175.5 -53t67.5 -149v-228q3 -5 17.5 -2.5t33 12t19.5 18.5zM395 195v22l-88 -15q-106 -18 -106 -45q0 -20 62 -20q45 0 88.5 15t43.5 43z" />
    <glyph glyph-name="aring" unicode="&#xe5;" horiz-adv-x="661" 
d="M334 590q-61 0 -100 38.5t-39 99.5q0 60 39.5 99.5t99.5 39.5q61 0 100.5 -39.5t39.5 -99.5q0 -61 -39 -99.5t-101 -38.5zM334 701q12 0 20 8t8 19q0 12 -8 19.5t-20 7.5q-26 0 -26 -27q0 -12 7 -19.5t19 -7.5zM613 159v-135q-69 -30 -108 -30h-3q-49 7 -75 38
q-79 -40 -168 -40q-98 0 -152 43t-54 122q0 80 51 125t168 64l122 21q-4 23 -30.5 35.5t-63.5 12.5q-57 0 -99 -69l-136 66q83 149 235 149q108 0 175.5 -53t67.5 -149v-228q3 -5 17.5 -2.5t33 12t19.5 18.5zM395 195v22l-88 -15q-106 -18 -106 -45q0 -20 62 -20
q45 0 88.5 15t43.5 43z" />
    <glyph glyph-name="ae" unicode="&#xe6;" horiz-adv-x="973" 
d="M911 201l-368 -1q33 -61 105 -61q62 0 98 49l160 -2q-30 -88 -98 -141t-160 -53q-118 0 -193 80q-56 -51 -99 -65.5t-121 -14.5q-98 0 -152 43t-54 122q0 80 51 125t168 64l122 21q-4 23 -30.5 35.5t-63.5 12.5q-57 0 -99 -69l-136 66q83 149 235 149q68 0 110 -17
t76 -60q75 73 186 73q121 0 196 -81.5t75 -202.5q0 -26 -8 -72zM542 345h214q-30 66 -108 66q-72 0 -106 -66zM371 195v22l-88 -15q-106 -18 -106 -45q0 -20 62 -20q45 0 88.5 15t43.5 43z" />
    <glyph glyph-name="ccedilla" unicode="&#xe7;" horiz-adv-x="640" 
d="M325 140q42 0 73.5 25t47.5 67l147 -1q-14 -75 -55.5 -132t-104.5 -84q17 -33 17 -75q0 -64 -41 -104t-105 -40q-48 0 -88 23t-80 78l83 113q61 -82 85 -82q12 0 12 11q0 12 -19.5 27.5t-70.5 43.5q-79 29 -125 100t-46 164q0 120 75 202t195 82q103 0 175 -66t93 -170
h-149q-15 41 -46.5 65.5t-72.5 24.5q-54 0 -88.5 -40t-34.5 -98q0 -56 34 -95t89 -39z" />
    <glyph glyph-name="egrave" unicode="&#xe8;" 
d="M316 592l-158 262h176l153 -262h-171zM326 -9q-118 0 -194.5 80t-76.5 203q0 124 77 205t194 81q118 0 195.5 -81t77.5 -205q0 -34 -6 -66l-391 -2q38 -80 124 -80q84 0 122 71h142q-22 -95 -93.5 -150.5t-170.5 -55.5zM202 340h251q-16 40 -49.5 62.5t-77.5 22.5
q-42 0 -74.5 -22.5t-49.5 -62.5z" />
    <glyph glyph-name="eacute" unicode="&#xe9;" 
d="M160 599l154 260h175l-156 -260h-173zM326 -9q-118 0 -194.5 80t-76.5 203q0 124 77 205t194 81q118 0 195.5 -81t77.5 -205q0 -34 -6 -66l-391 -2q38 -80 124 -80q84 0 122 71h142q-22 -95 -93.5 -150.5t-170.5 -55.5zM202 340h251q-16 40 -49.5 62.5t-77.5 22.5
q-42 0 -74.5 -22.5t-49.5 -62.5z" />
    <glyph glyph-name="ecircumflex" unicode="&#xea;" 
d="M561 580h-186l-53 68l-53 -68h-185l197 258h84zM326 -9q-118 0 -194.5 80t-76.5 203q0 124 77 205t194 81q118 0 195.5 -81t77.5 -205q0 -34 -6 -66l-391 -2q38 -80 124 -80q84 0 122 71h142q-22 -95 -93.5 -150.5t-170.5 -55.5zM202 340h251q-16 40 -49.5 62.5
t-77.5 22.5q-42 0 -74.5 -22.5t-49.5 -62.5z" />
    <glyph glyph-name="edieresis" unicode="&#xeb;" 
d="M225 582q-39 0 -64 25t-25 65q0 38 25 62t64 24t64.5 -24.5t25.5 -61.5q0 -40 -25.5 -65t-64.5 -25zM421 582q-39 0 -64 25t-25 65q0 38 25 62t64 24t64.5 -24.5t25.5 -61.5q0 -40 -25.5 -65t-64.5 -25zM326 -9q-118 0 -194.5 80t-76.5 203q0 124 77 205t194 81
q118 0 195.5 -81t77.5 -205q0 -34 -6 -66l-391 -2q38 -80 124 -80q84 0 122 71h142q-22 -95 -93.5 -150.5t-170.5 -55.5zM202 340h251q-16 40 -49.5 62.5t-77.5 22.5q-42 0 -74.5 -22.5t-49.5 -62.5z" />
    <glyph glyph-name="igrave" unicode="&#xec;" horiz-adv-x="324" 
d="M155 592l-157 262h175l153 -262h-171zM89 0v561h147v-561h-147z" />
    <glyph glyph-name="iacute" unicode="&#xed;" horiz-adv-x="324" 
d="M-2 599l153 260h175l-156 -260h-172zM88 0v561h147v-561h-147z" />
    <glyph glyph-name="icircumflex" unicode="&#xee;" horiz-adv-x="294" 
d="M386 580h-187l-54 68l-53 -68h-184l197 258h84zM73 0v561h147v-561h-147z" />
    <glyph glyph-name="idieresis" unicode="&#xef;" horiz-adv-x="257" 
d="M29 580q-39 0 -64 25t-25 65q0 38 25 62t64 24t64.5 -24.5t25.5 -61.5q0 -40 -25.5 -65t-64.5 -25zM225 580q-39 0 -64 25t-25 65q0 38 25 62t64 24t64.5 -24.5t25.5 -61.5q0 -40 -25.5 -65t-64.5 -25zM55 0v561h146v-561h-146z" />
    <glyph glyph-name="eth" unicode="&#xf0;" horiz-adv-x="614" 
d="M632 606l-95 -47q39 -92 39 -204q0 -182 -67.5 -275.5t-200.5 -93.5q-114 0 -182 66.5t-68 177.5q0 102 57 166.5t155 74.5l-41 82l74 36q-5 1 -14 1q-64 0 -100 -96h-141q38 113 99 171t142 58q93 0 168 -56l114 59zM358 467q39 -10 74 -28q-6 30 -17 56zM309 119
q47 0 78 32t31 81q0 44 -34 76.5t-80 32.5q-49 0 -79.5 -30t-30.5 -79q0 -52 31 -82.5t84 -30.5z" />
    <glyph glyph-name="ntilde" unicode="&#xf1;" horiz-adv-x="636" 
d="M255 660q4 -5 -6 -59h-149l12 65q13 75 46.5 108t96.5 33q65 0 114 -49q4 -4 8 -6q-3 8 6 56h157l-21 -82q-16 -65 -48 -94.5t-92 -29.5q-57 0 -111 47zM320 558q122 0 196.5 -81.5t74.5 -202.5v-274h-144v274q0 58 -35.5 98t-91.5 40q-45 0 -79 -36t-43 -87v-289h-149
l-4 561h147l2 -34q57 31 126 31z" />
    <glyph glyph-name="ograve" unicode="&#xf2;" horiz-adv-x="633" 
d="M310 592l-158 262h176l154 -262h-172zM315 -7q-120 0 -195 80t-75 201q0 120 75 202t195 82q122 0 197.5 -81.5t75.5 -202.5t-75.5 -201t-197.5 -80zM315 140q58 0 92.5 38.5t34.5 95.5q0 58 -34.5 98t-92.5 40q-54 0 -88 -40t-34 -98q0 -56 33.5 -95t88.5 -39z" />
    <glyph glyph-name="oacute" unicode="&#xf3;" horiz-adv-x="633" 
d="M152 599l155 260h175l-156 -260h-174zM315 -7q-120 0 -195 80t-75 201q0 120 75 202t195 82q122 0 197.5 -81.5t75.5 -202.5t-75.5 -201t-197.5 -80zM315 140q58 0 92.5 38.5t34.5 95.5q0 58 -34.5 98t-92.5 40q-54 0 -88 -40t-34 -98q0 -56 33.5 -95t88.5 -39z" />
    <glyph glyph-name="ocircumflex" unicode="&#xf4;" horiz-adv-x="633" 
d="M557 580h-187l-54 68l-53 -68h-184l196 258h85zM315 -7q-120 0 -195 80t-75 201q0 120 75 202t195 82q122 0 197.5 -81.5t75.5 -202.5t-75.5 -201t-197.5 -80zM315 140q58 0 92.5 38.5t34.5 95.5q0 58 -34.5 98t-92.5 40q-54 0 -88 -40t-34 -98q0 -56 33.5 -95t88.5 -39z
" />
    <glyph glyph-name="otilde" unicode="&#xf5;" horiz-adv-x="633" 
d="M255 658q4 -8 -7 -57h-150l12 65q13 75 46.5 108t97.5 33q67 0 114 -50q1 -1 4 -3t4 -3q-4 6 6 57h156l-20 -82q-15 -65 -47.5 -94.5t-92.5 -29.5q-57 0 -114 48q-4 3 -9 8zM315 558q122 0 197.5 -81.5t75.5 -202.5t-75.5 -201t-197.5 -80q-120 0 -195 80t-75 201
q0 120 75 202t195 82zM315 140q58 0 92.5 38.5t34.5 95.5q0 58 -34.5 98t-92.5 40q-54 0 -88 -40t-34 -98q0 -56 33.5 -95t88.5 -39z" />
    <glyph glyph-name="odieresis" unicode="&#xf6;" horiz-adv-x="633" 
d="M220 582q-39 0 -64 25t-25 65q0 38 25 62t64 24t64.5 -24.5t25.5 -61.5q0 -40 -25.5 -65t-64.5 -25zM416 582q-39 0 -64 25t-25 65q0 38 25 62t64 24t64.5 -24.5t25.5 -61.5q0 -40 -25.5 -65t-64.5 -25zM315 -7q-120 0 -195 80t-75 201q0 120 75 202t195 82
q122 0 197.5 -81.5t75.5 -202.5t-75.5 -201t-197.5 -80zM315 140q58 0 92.5 38.5t34.5 95.5q0 58 -34.5 98t-92.5 40q-54 0 -88 -40t-34 -98q0 -56 33.5 -95t88.5 -39z" />
    <glyph glyph-name="divide" unicode="&#xf7;" horiz-adv-x="708" 
d="M355 426q-38 0 -64 25.5t-26 62.5q0 40 26 66t64 26t63 -26t25 -66q0 -38 -25 -63t-63 -25zM85 276v150h539v-150h-539zM355 97q-38 0 -64 26t-26 64q0 40 25.5 64.5t64.5 24.5t63.5 -24.5t24.5 -64.5q0 -38 -25 -64t-63 -26z" />
    <glyph glyph-name="oslash" unicode="&#xf8;" 
d="M469 518q59 -39 93 -104t34 -140q0 -121 -75 -201t-196 -80q-5 0 -14 0.5t-13 0.5l-41 -119h-154l57 174q-49 41 -77 99.5t-28 125.5q0 123 75 202t196 82l36 119h158zM215 213l60 188q-33 -16 -52.5 -50t-19.5 -77q0 -37 12 -61zM344 141q49 7 78 44.5t29 88.5
q0 58 -33 96z" />
    <glyph glyph-name="ugrave" unicode="&#xf9;" horiz-adv-x="636" 
d="M311 592l-157 262h175l154 -262h-172zM317 -9q-122 0 -197 80t-75 201v289h148v-289q0 -56 34.5 -95.5t89.5 -39.5q46 0 80 36t44 86v302h147l3 -563h-143l-1 25q-61 -32 -130 -32z" />
    <glyph glyph-name="uacute" unicode="&#xfa;" horiz-adv-x="636" 
d="M154 599l155 260h174l-156 -260h-173zM317 -9q-122 0 -197 80t-75 201v289h148v-289q0 -56 34.5 -95.5t89.5 -39.5q46 0 80 36t44 86v302h147l3 -563h-143l-1 25q-61 -32 -130 -32z" />
    <glyph glyph-name="ucircumflex" unicode="&#xfb;" horiz-adv-x="636" 
d="M558 580h-187l-54 68l-53 -68h-184l196 258h85zM317 -9q-122 0 -197 80t-75 201v289h148v-289q0 -56 34.5 -95.5t89.5 -39.5q46 0 80 36t44 86v302h147l3 -563h-143l-1 25q-61 -32 -130 -32z" />
    <glyph glyph-name="udieresis" unicode="&#xfc;" horiz-adv-x="636" 
d="M239 581q-39 0 -63 24t-24 65q0 36 24.5 60t62.5 24q57 0 80 -47q22 47 80 47q37 0 61 -24t24 -60q0 -41 -23.5 -65t-61.5 -24q-59 0 -80 48q-22 -48 -80 -48zM588 561l3 -563h-143l-1 25q-61 -32 -130 -32q-122 0 -197 80t-75 201v289h148v-289q0 -56 34.5 -95.5
t89.5 -39.5q46 0 80 36t44 86v302h147z" />
    <glyph glyph-name="yacute" unicode="&#xfd;" horiz-adv-x="650" 
d="M160 599l155 260h174l-155 -260h-174zM186 -179q-32 0 -101 25v163q54 -42 98 -42h4q16 0 36 45l23 55l-207 494h165l124 -299l118 299h164l-245 -603q-31 -75 -73 -106t-106 -31z" />
    <glyph glyph-name="ydieresis" unicode="&#xff;" horiz-adv-x="650" 
d="M245 581q-39 0 -62.5 24t-23.5 65q0 36 23.5 60t62.5 24q58 0 80 -47q23 47 80 47q39 0 62.5 -24t23.5 -60q0 -41 -23.5 -65t-62.5 -24q-58 0 -80 48q-21 -48 -80 -48zM446 561h164l-245 -603q-31 -75 -73 -106t-106 -31q-32 0 -101 25v163q54 -42 98 -42h4q16 0 36 45
l23 55l-207 494h165l124 -299z" />
    <glyph glyph-name="Amacron" unicode="&#x100;" horiz-adv-x="863" 
d="M233 769v151h397v-151h-397zM656 0l-93 172h-260l-92 -172h-173l394 726l394 -726h-170zM432 410l-54 -100h108z" />
    <glyph glyph-name="amacron" unicode="&#x101;" horiz-adv-x="661" 
d="M142 601v147h384v-147h-384zM613 159v-135q-69 -30 -108 -30h-3q-49 7 -75 38q-79 -40 -168 -40q-98 0 -152 43t-54 122q0 80 51 125t168 64l122 21q-4 23 -30.5 35.5t-63.5 12.5q-57 0 -99 -69l-136 66q83 149 235 149q108 0 175.5 -53t67.5 -149v-228q3 -5 17.5 -2.5
t33 12t19.5 18.5zM395 195v22l-88 -15q-106 -18 -106 -45q0 -20 62 -20q45 0 88.5 15t43.5 43z" />
    <glyph glyph-name="Abreve" unicode="&#x102;" horiz-adv-x="863" 
d="M433 765q-86 0 -132 65.5t-46 180.5h151q0 -94 27 -94q24 0 24 94h151v-69q0 -83 -45.5 -130t-129.5 -47zM656 0l-93 172h-260l-92 -172h-173l394 726l394 -726h-170zM432 410l-54 -100h108z" />
    <glyph glyph-name="abreve" unicode="&#x103;" horiz-adv-x="661" 
d="M335 597q-82 0 -126.5 64t-44.5 175h145q0 -91 26 -91q24 0 24 91h146v-67q0 -81 -44 -126.5t-126 -45.5zM613 159v-135q-69 -30 -108 -30h-3q-49 7 -75 38q-79 -40 -168 -40q-98 0 -152 43t-54 122q0 80 51 125t168 64l122 21q-4 23 -30.5 35.5t-63.5 12.5
q-57 0 -99 -69l-136 66q83 149 235 149q108 0 175.5 -53t67.5 -149v-228q3 -5 17.5 -2.5t33 12t19.5 18.5zM395 195v22l-88 -15q-106 -18 -106 -45q0 -20 62 -20q45 0 88.5 15t43.5 43z" />
    <glyph glyph-name="Aogonek" unicode="&#x104;" horiz-adv-x="859" 
d="M653 -84q24 0 85 55l68 -122q-84 -65 -153 -65q-65 0 -105.5 37t-40.5 101q0 96 111 157l-53 97h-260l-92 -176h-174l394 743l336 -633v-1l58 -109l-75 -1q-61 -28 -86 -45t-25 -32q0 -6 12 -6zM433 420l-53 -103h108z" />
    <glyph glyph-name="aogonek" unicode="&#x105;" horiz-adv-x="698" 
d="M581 6l68 -122q-84 -65 -153 -65q-65 0 -105.5 37t-40.5 101q0 27 7 49q-49 -14 -98 -14q-98 0 -152 43t-54 122q0 80 51 125t168 64l122 21q-4 23 -30.5 35.5t-63.5 12.5q-57 0 -99 -69l-136 66q83 149 235 149q108 0 175.5 -53t67.5 -149v-228q3 -5 17.5 -2.5t33 12
t19.5 18.5v-135q-59 -26 -95 -29q-34 -21 -34 -38q0 -6 12 -6q24 0 85 55zM201 157q0 -20 62 -20q45 0 88.5 15t43.5 43v22l-88 -15q-106 -18 -106 -45z" />
    <glyph glyph-name="Cacute" unicode="&#x106;" horiz-adv-x="817" 
d="M238 767l157 268h180l-161 -268h-176zM409 -9q-159 0 -262.5 104.5t-103.5 266.5t103.5 267t262.5 105q131 0 228 -78.5t131 -207.5h-159q-27 62 -79.5 98t-120.5 36q-95 0 -154.5 -62.5t-59.5 -157.5t60 -157t154 -62q78 0 135.5 47t75.5 124h153q-22 -145 -121.5 -234
t-242.5 -89z" />
    <glyph glyph-name="cacute" unicode="&#x107;" horiz-adv-x="630" 
d="M147 599l154 260h174l-155 -260h-173zM315 -7q-120 0 -195 80t-75 201q0 120 75 202t195 82q103 0 175.5 -66t92.5 -170h-149q-15 41 -46 65.5t-73 24.5q-54 0 -88.5 -40t-34.5 -98q0 -56 34 -95t89 -39q43 0 74 25t47 67l148 -1q-20 -106 -92.5 -172t-176.5 -66z" />
    <glyph glyph-name="Ccircumflex" unicode="&#x108;" horiz-adv-x="817" 
d="M652 747h-192l-56 71l-55 -71h-189l203 265h86zM409 -9q-159 0 -263 104.5t-104 266.5t104 267t263 105q130 0 227 -78.5t131 -207.5h-158q-27 62 -80 98t-120 36q-96 0 -155 -62.5t-59 -157.5q0 -96 60 -157.5t154 -61.5q78 0 135.5 47t75.5 124h153
q-23 -145 -122.5 -234t-241.5 -89z" />
    <glyph glyph-name="ccircumflex" unicode="&#x109;" horiz-adv-x="630" 
d="M550 580h-187l-53 68l-53 -68h-184l197 258h83zM315 -7q-120 0 -195 80t-75 201q0 120 75 202t195 82q103 0 175.5 -66t92.5 -170h-149q-15 41 -46 65.5t-73 24.5q-54 0 -88.5 -40t-34.5 -98q0 -56 34 -95t89 -39q43 0 74 25t47 67l148 -1q-20 -106 -92.5 -172
t-176.5 -66z" />
    <glyph glyph-name="Cdotaccent" unicode="&#x10a;" horiz-adv-x="817" 
d="M405 750q-39 0 -63.5 25.5t-24.5 65.5q0 38 24.5 62.5t63.5 24.5q38 0 63.5 -25t25.5 -62q0 -40 -25.5 -65.5t-63.5 -25.5zM409 -9q-159 0 -263 104.5t-104 266.5t104 267t263 105q130 0 227 -78.5t131 -207.5h-158q-27 62 -80 98t-120 36q-96 0 -155 -62.5t-59 -157.5
q0 -96 60 -157.5t154 -61.5q78 0 135.5 47t75.5 124h153q-23 -145 -122.5 -234t-241.5 -89z" />
    <glyph glyph-name="cdotaccent" unicode="&#x10b;" horiz-adv-x="630" 
d="M311 583q-40 0 -63 24t-23 65q0 37 23.5 60.5t62.5 23.5q37 0 61.5 -24t24.5 -60q0 -41 -24 -65t-62 -24zM315 -7q-120 0 -195 80t-75 201q0 120 75 202t195 82q103 0 175.5 -66t92.5 -170h-149q-15 41 -46 65.5t-73 24.5q-54 0 -88.5 -40t-34.5 -98q0 -56 34 -95t89 -39
q43 0 74 25t47 67l148 -1q-20 -106 -92.5 -172t-176.5 -66z" />
    <glyph glyph-name="Ccaron" unicode="&#x10c;" horiz-adv-x="817" 
d="M405 955l56 72h191l-203 -264h-86l-203 264h190zM409 -9q-159 0 -262.5 104.5t-103.5 266.5t103.5 267t262.5 105q131 0 228 -78.5t131 -207.5h-159q-27 62 -79.5 98t-120.5 36q-95 0 -154.5 -62.5t-59.5 -157.5t60 -157t154 -62q78 0 135.5 47t75.5 124h153
q-22 -145 -121.5 -234t-242.5 -89z" />
    <glyph glyph-name="ccaron" unicode="&#x10d;" horiz-adv-x="630" 
d="M311 785l53 68h186l-197 -258h-83l-197 258h184zM315 -7q-120 0 -195 80t-75 201q0 120 75 202t195 82q103 0 175.5 -66t92.5 -170h-149q-15 41 -46 65.5t-73 24.5q-54 0 -88.5 -40t-34.5 -98q0 -56 34 -95t89 -39q43 0 74 25t47 67l148 -1q-20 -106 -92.5 -172
t-176.5 -66z" />
    <glyph glyph-name="Dcaron" unicode="&#x10e;" horiz-adv-x="711" 
d="M355 955l56 72h191l-202 -264h-88l-203 264h191zM310 0h-265v726h265q174 0 265 -93.5t91 -268.5q0 -364 -356 -364zM310 576h-114v-426h114q205 0 205 214q0 101 -53 156.5t-152 55.5z" />
    <glyph glyph-name="dcaron" unicode="&#x10f;" horiz-adv-x="786" 
d="M684 726q92 0 92 -103q0 -43 -33 -92t-87 -82l-67 74v-523h-148v21q-54 -28 -120 -28q-122 0 -197.5 80t-75.5 201t75.5 202.5t197.5 81.5q64 0 120 -27v195h148v-155l14 7l13 6.5t8 4.5q-21 24 -21 56q0 33 23 57t58 24zM441 250v50q-9 48 -41 80t-79 32q-57 0 -92 -40
t-35 -98q0 -57 34.5 -95.5t92.5 -38.5q47 0 79 31t41 79z" />
    <glyph glyph-name="Dcroat" unicode="&#x110;" horiz-adv-x="803" 
d="M391 0h-266v287h-119v153h119v286h266q176 0 266.5 -93t90.5 -269q0 -364 -357 -364zM280 440h121v-153h-121v-137h111q205 0 205 214q0 101 -53 156.5t-152 55.5h-111v-136z" />
    <glyph glyph-name="dcroat" unicode="&#x111;" horiz-adv-x="712" 
d="M596 707h105v-146h-105v-561h-148v21q-54 -28 -120 -28q-122 0 -197.5 80t-75.5 201t75.5 202.5t197.5 81.5q64 0 120 -27v29h-111v146h111v20h148v-19zM448 250v50q-9 48 -41 80t-79 32q-57 0 -92 -40t-35 -98q0 -57 34.5 -95.5t92.5 -38.5q47 0 79 31t41 79z" />
    <glyph glyph-name="Emacron" unicode="&#x112;" horiz-adv-x="666" 
d="M135 769v151h396v-151h-396zM198 285v-135h423v-150h-576v726h576v-150h-423v-137h321v-154h-321z" />
    <glyph glyph-name="emacron" unicode="&#x113;" 
d="M131 601v147h383v-147h-383zM326 -9q-118 0 -194.5 80t-76.5 203q0 124 77 205t194 81q118 0 195.5 -81t77.5 -205q0 -34 -6 -66l-391 -2q38 -80 124 -80q84 0 122 71h142q-22 -95 -93.5 -150.5t-170.5 -55.5zM202 340h251q-16 40 -49.5 62.5t-77.5 22.5
q-42 0 -74.5 -22.5t-49.5 -62.5z" />
    <glyph glyph-name="Ebreve" unicode="&#x114;" horiz-adv-x="666" 
d="M333 765q-86 0 -131 65.5t-45 180.5h149q0 -94 27 -94q26 0 26 94h150v-69q0 -83 -46 -130t-130 -47zM198 285v-135h423v-150h-576v726h576v-150h-423v-137h321v-154h-321z" />
    <glyph glyph-name="ebreve" unicode="&#x115;" 
d="M324 597q-83 0 -127.5 64t-44.5 175h145q0 -91 27 -91q22 0 22 91h148v-67q0 -81 -44 -126.5t-126 -45.5zM326 -9q-118 0 -194.5 80t-76.5 203q0 124 77 205t194 81q118 0 195.5 -81t77.5 -205q0 -34 -6 -66l-391 -2q38 -80 124 -80q84 0 122 71h142
q-22 -95 -93.5 -150.5t-170.5 -55.5zM202 340h251q-16 40 -49.5 62.5t-77.5 22.5q-42 0 -74.5 -22.5t-49.5 -62.5z" />
    <glyph glyph-name="Edotaccent" unicode="&#x116;" horiz-adv-x="666" 
d="M332 750q-38 0 -63 25.5t-25 65.5q0 38 25 62.5t63 24.5q39 0 64 -24.5t25 -62.5q0 -40 -25 -65.5t-64 -25.5zM198 285v-135h423v-150h-576v726h576v-150h-423v-137h321v-154h-321z" />
    <glyph glyph-name="edotaccent" unicode="&#x117;" 
d="M323 583q-40 0 -63 24t-23 65q0 37 23.5 60.5t62.5 23.5q37 0 61.5 -24t24.5 -60q0 -40 -24.5 -64.5t-61.5 -24.5zM326 -9q-118 0 -194.5 80t-76.5 203q0 124 77 205t194 81q118 0 195.5 -81t77.5 -205q0 -34 -6 -66l-391 -2q38 -80 124 -80q84 0 122 71h142
q-22 -95 -93.5 -150.5t-170.5 -55.5zM202 340h251q-16 40 -49.5 62.5t-77.5 22.5q-42 0 -74.5 -22.5t-49.5 -62.5z" />
    <glyph glyph-name="Eogonek" unicode="&#x118;" horiz-adv-x="706" 
d="M581 -3l68 -122q-84 -65 -153 -65q-65 0 -105.5 37t-40.5 101q0 26 8 52h-313v726h576v-150h-423v-137h321v-154h-321v-135h423v-150h-78q-59 -31 -59 -52q0 -6 12 -6q24 0 85 55z" />
    <glyph glyph-name="eogonek" unicode="&#x119;" horiz-adv-x="685" 
d="M599 274q0 -34 -6 -66l-391 -2q38 -80 124 -80q84 0 122 71h142q-11 -51 -42 -96q-48 -69 -127 -95q-33 -11 -67 -14q-30 -19 -30 -35q0 -6 12 -6q24 0 85 55l68 -122q-84 -65 -153 -65q-65 0 -105.5 37t-40.5 101q0 33 12 62q-68 33 -107.5 100.5t-39.5 154.5
q0 124 77 205t194 81q118 0 195.5 -81t77.5 -205zM202 340h251q-16 40 -49.5 62.5t-77.5 22.5q-42 0 -74.5 -22.5t-49.5 -62.5z" />
    <glyph glyph-name="Ecaron" unicode="&#x11a;" horiz-adv-x="666" 
d="M333 955l56 72h190l-202 -264h-87l-203 264h190zM198 285v-135h423v-150h-576v726h576v-150h-423v-137h321v-154h-321z" />
    <glyph glyph-name="ecaron" unicode="&#x11b;" 
d="M323 785l53 68h185l-196 -258h-84l-197 258h185zM326 -9q-118 0 -194.5 80t-76.5 203q0 124 77 205t194 81q118 0 195.5 -81t77.5 -205q0 -34 -6 -66l-391 -2q38 -80 124 -80q84 0 122 71h142q-22 -95 -93.5 -150.5t-170.5 -55.5zM202 340h251q-16 40 -49.5 62.5
t-77.5 22.5q-42 0 -74.5 -22.5t-49.5 -62.5z" />
    <glyph glyph-name="Gcircumflex" unicode="&#x11c;" horiz-adv-x="815" 
d="M649 747h-190l-58 71l-55 -71h-190l204 265h86zM411 -9q-159 0 -263 104.5t-104 266.5t104 267t263 105q128 0 223.5 -75.5t131.5 -200.5h-159q-29 58 -80.5 91t-115.5 33q-96 0 -155 -62.5t-59 -157.5q0 -96 60 -157.5t154 -61.5q74 0 126 36t74 106h-214v154h370v-439
h-151v50q-91 -59 -205 -59z" />
    <glyph glyph-name="gcircumflex" unicode="&#x11d;" horiz-adv-x="645" 
d="M569 580h-186l-54 68l-53 -68h-185l197 258h84zM468 523v38h132v-493q0 -117 -76 -193.5t-193 -76.5q-91 0 -162 56.5t-112 161.5h140q42 -88 134 -88q54 0 93 30t44 73q-61 -34 -137 -34q-117 0 -192 78.5t-75 200.5t76 202t191 80q76 0 137 -35zM331 130q56 0 93.5 35
t43.5 93v36q-6 59 -43.5 95.5t-93.5 36.5q-58 0 -96.5 -43t-38.5 -107t38 -105t97 -41z" />
    <glyph glyph-name="Gbreve" unicode="&#x11e;" horiz-adv-x="815" 
d="M402 765q-85 0 -130.5 66t-45.5 180h150q0 -94 26 -94t26 94h151v-68q0 -83 -46 -130.5t-131 -47.5zM411 -9q-159 0 -263 104.5t-104 266.5t104 267t263 105q128 0 223.5 -75.5t131.5 -200.5h-159q-29 58 -80.5 91t-115.5 33q-96 0 -155 -62.5t-59 -157.5
q0 -96 60 -157.5t154 -61.5q74 0 126 36t74 106h-214v154h370v-439h-151v50q-91 -59 -205 -59z" />
    <glyph glyph-name="gbreve" unicode="&#x11f;" horiz-adv-x="645" 
d="M330 597q-83 0 -127.5 64t-44.5 175h147q0 -91 25 -91q24 0 24 91h147v-67q0 -81 -44.5 -126.5t-126.5 -45.5zM468 523v38h132v-493q0 -117 -76 -193.5t-193 -76.5q-91 0 -162 56.5t-112 161.5h140q42 -88 134 -88q54 0 93 30t44 73q-61 -34 -137 -34q-117 0 -192 78.5
t-75 200.5t76 202t191 80q76 0 137 -35zM331 130q56 0 93.5 35t43.5 93v36q-6 59 -43.5 95.5t-93.5 36.5q-58 0 -96.5 -43t-38.5 -107t38 -105t97 -41z" />
    <glyph glyph-name="Gdotaccent" unicode="&#x120;" horiz-adv-x="815" 
d="M401 750q-38 0 -62.5 25.5t-24.5 65.5q0 38 24.5 62.5t62.5 24.5q39 0 64.5 -24.5t25.5 -62.5q0 -40 -25.5 -65.5t-64.5 -25.5zM411 -9q-159 0 -263 104.5t-104 266.5t104 267t263 105q128 0 223.5 -75.5t131.5 -200.5h-159q-29 58 -80.5 91t-115.5 33q-96 0 -155 -62.5
t-59 -157.5q0 -96 60 -157.5t154 -61.5q74 0 126 36t74 106h-214v154h370v-439h-151v50q-91 -59 -205 -59z" />
    <glyph glyph-name="gdotaccent" unicode="&#x121;" horiz-adv-x="645" 
d="M244 672q0 36 24 60t61 24q38 0 62.5 -24t24.5 -60q0 -26 -43 -36.5t-86 0t-43 36.5zM468 523v38h132v-493q0 -117 -76 -193.5t-193 -76.5q-91 0 -162 56.5t-112 161.5h140q42 -88 134 -88q54 0 93 30t44 73q-61 -34 -137 -34q-117 0 -192 78.5t-75 200.5t76 202t191 80
q76 0 137 -35zM331 130q56 0 93.5 35t43.5 93v36q-6 59 -43.5 95.5t-93.5 36.5q-58 0 -96.5 -43t-38.5 -107t38 -105t97 -41z" />
    <glyph glyph-name="Hcircumflex" unicode="&#x124;" horiz-adv-x="672" 
d="M582 747h-190l-58 71l-55 -71h-190l204 265h86zM474 0v285h-277v-285h-152v726h152v-287h277v287h153v-726h-153z" />
    <glyph glyph-name="hcircumflex" unicode="&#x125;" horiz-adv-x="633" 
d="M315 558q122 0 197.5 -81.5t75.5 -202.5v-274h-146v274q0 58 -35.5 98t-91.5 40q-44 0 -77 -36t-45 -87v-289h-148v726h148v-64l113 176h79l165 -258h-163l-42 63l-43 -63h-109v-49q57 27 122 27z" />
    <glyph glyph-name="Hbar" unicode="&#x126;" horiz-adv-x="672" 
d="M138 769v151h396v-151h-396zM474 0v285h-277v-285h-152v726h152v-287h277v287h153v-726h-153z" />
    <glyph glyph-name="hbar" unicode="&#x127;" horiz-adv-x="633" 
d="M315 558q122 0 197.5 -81.5t75.5 -202.5v-274h-146v274q0 58 -35 98t-92 40q-44 0 -77 -36t-44 -87v-289h-149v748h464v-147h-315v-69q54 26 121 26z" />
    <glyph glyph-name="Itilde" unicode="&#x128;" horiz-adv-x="247" 
d="M190 983h160l-21 -84q-17 -68 -49.5 -99t-94.5 -31q-66 0 -117 51q-7 7 -13 11q6 -4 -6 -62h-152l13 68q14 75 48.5 110t97.5 35q69 0 118 -53l9 -6q-3 3 7 60zM46 0v726h153v-726h-153z" />
    <glyph glyph-name="itilde" unicode="&#x129;" horiz-adv-x="258" 
d="M191 808h156l-20 -82q-15 -65 -47.5 -94.5t-92.5 -29.5q-67 0 -114 48l-9 9q3 -8 -7 -58h-146l7 63q13 77 47.5 110t97.5 33q66 0 114 -49l8 -7q-4 9 6 57zM53 0v561h146v-561h-146z" />
    <glyph glyph-name="Imacron" unicode="&#x12a;" horiz-adv-x="234" 
d="M-81 769v151h396v-151h-396zM41 0v726h152v-726h-152z" />
    <glyph glyph-name="imacron" unicode="&#x12b;" horiz-adv-x="250" 
d="M-67 601v147h384v-147h-384zM52 0v561h146v-561h-146z" />
    <glyph glyph-name="Iogonek" unicode="&#x12e;" horiz-adv-x="252" 
d="M137 0l68 -122q-84 -65 -153 -65q-65 0 -105.5 37t-40.5 101q0 96 118 166v609h155v-702l-38 -1q-101 -46 -101 -72q0 -6 12 -6q24 0 85 55z" />
    <glyph glyph-name="iogonek" unicode="&#x12f;" horiz-adv-x="275" 
d="M121 599h-1q-39 0 -64.5 26t-25.5 66q0 38 25.5 62.5t64.5 24.5h1q39 0 64.5 -24.5t25.5 -62.5q0 -40 -25.5 -66t-64.5 -26zM152 -4l68 -122q-84 -65 -153 -65q-65 0 -105.5 37t-40.5 101q0 51 29.5 91t97.5 75v448h148v-561h-80q-61 -32 -61 -53q0 -6 12 -6q24 0 85 55z
" />
    <glyph glyph-name="Idotaccent" unicode="&#x130;" horiz-adv-x="257" 
d="M128 750q-39 0 -63.5 25.5t-24.5 65.5q0 38 24.5 62.5t63.5 24.5t63.5 -24.5t24.5 -62.5q0 -40 -24.5 -65.5t-63.5 -25.5zM52 0v726h152v-726h-152z" />
    <glyph glyph-name="dotlessi" unicode="&#x131;" horiz-adv-x="287" 
d="M70 0v561h147v-561h-147z" />
    <glyph glyph-name="Nacute" unicode="&#x143;" horiz-adv-x="670" 
d="M168 767l157 268h179l-161 -268h-175zM625 0h-125l-304 424l1 -424h-152v726h123l305 -424l-1 424h153v-726z" />
    <glyph glyph-name="nacute" unicode="&#x144;" horiz-adv-x="636" 
d="M154 599l155 260h174l-156 -260h-173zM198 289v-289h-149l-4 561h147l2 -34q57 31 126 31q122 0 196.5 -81.5t74.5 -202.5v-274h-144v274q0 58 -35.5 98t-91.5 40q-45 0 -79 -36t-43 -87z" />
    <glyph glyph-name="Ncaron" unicode="&#x147;" horiz-adv-x="670" 
d="M334 955l57 72h190l-203 -264h-86l-204 264h191zM625 0h-125l-304 424l1 -424h-152v726h123l305 -424l-1 424h153v-726z" />
    <glyph glyph-name="ncaron" unicode="&#x148;" horiz-adv-x="636" 
d="M318 785l54 68h186l-197 -258h-85l-196 258h185zM198 289v-289h-149l-4 561h147l2 -34q57 31 126 31q122 0 196.5 -81.5t74.5 -202.5v-274h-144v274q0 58 -35.5 98t-91.5 40q-45 0 -79 -36t-43 -87z" />
    <glyph glyph-name="Omacron" unicode="&#x14c;" horiz-adv-x="822" 
d="M213 769v151h396v-151h-396zM409 -9q-158 0 -261 104.5t-103 266.5t103 267t261 105q160 0 264 -105t104 -267t-103.5 -266.5t-264.5 -104.5zM409 143q95 0 156 62t61 157q0 96 -61 158t-156 62t-154 -63t-59 -157q0 -96 60 -157.5t153 -61.5z" />
    <glyph glyph-name="omacron" unicode="&#x14d;" horiz-adv-x="633" 
d="M126 601v147h383v-147h-383zM315 -7q-120 0 -195 80t-75 201q0 120 75 202t195 82q122 0 197.5 -81.5t75.5 -202.5t-75.5 -201t-197.5 -80zM315 140q58 0 92.5 38.5t34.5 95.5q0 58 -34.5 98t-92.5 40q-54 0 -88 -40t-34 -98q0 -56 33.5 -95t88.5 -39z" />
    <glyph glyph-name="Obreve" unicode="&#x14e;" horiz-adv-x="822" 
d="M411 765q-85 0 -130.5 65.5t-45.5 180.5h149q0 -94 27 -94q26 0 26 94h150v-69q0 -83 -46 -130t-130 -47zM409 -9q-158 0 -261 104.5t-103 266.5t103 267t261 105q160 0 264 -105t104 -267t-103.5 -266.5t-264.5 -104.5zM409 143q95 0 156 62t61 157q0 96 -61 158
t-156 62t-154 -63t-59 -157q0 -96 60 -157.5t153 -61.5z" />
    <glyph glyph-name="obreve" unicode="&#x14f;" horiz-adv-x="633" 
d="M317 597q-83 0 -127 64t-44 175h146q0 -91 25 -91t25 91h146v-67q0 -81 -44.5 -126.5t-126.5 -45.5zM315 -7q-120 0 -195 80t-75 201q0 120 75 202t195 82q122 0 197.5 -81.5t75.5 -202.5t-75.5 -201t-197.5 -80zM315 140q58 0 92.5 38.5t34.5 95.5q0 58 -34.5 98
t-92.5 40q-54 0 -88 -40t-34 -98q0 -56 33.5 -95t88.5 -39z" />
    <glyph glyph-name="Ohungarumlaut" unicode="&#x150;" horiz-adv-x="822" 
d="M168 763l157 269h179l-163 -269h-173zM350 763l156 269h179l-163 -269h-172zM409 -9q-158 0 -261 104.5t-103 266.5t103 267t261 105q160 0 264 -105t104 -267t-103.5 -266.5t-264.5 -104.5zM409 143q95 0 156 62t61 157q0 96 -61 158t-156 62t-154 -63t-59 -157
q0 -96 60 -157.5t153 -61.5z" />
    <glyph glyph-name="ohungarumlaut" unicode="&#x151;" horiz-adv-x="633" 
d="M60 594l156 270h179l-163 -270h-172zM269 594l156 270h179l-163 -270h-172zM315 -7q-120 0 -195 80t-75 201q0 120 75 202t195 82q122 0 197.5 -81.5t75.5 -202.5t-75.5 -201t-197.5 -80zM315 140q58 0 92.5 38.5t34.5 95.5q0 58 -34.5 98t-92.5 40q-54 0 -88 -40
t-34 -98q0 -56 33.5 -95t88.5 -39z" />
    <glyph glyph-name="OE" unicode="&#x152;" horiz-adv-x="1397" 
d="M421 -9q-160 0 -263 104t-103 267q0 160 103 266t263 106q117 0 213 -59v51h579v-150h-424v-137h320v-154h-320v-135h424v-150h-579v55q-90 -64 -213 -64zM421 143q77 0 136.5 55.5t76.5 135.5v56q-17 80 -76 136t-137 56q-94 0 -153.5 -62t-59.5 -158q0 -94 59 -156.5
t154 -62.5z" />
    <glyph glyph-name="oe" unicode="&#x153;" horiz-adv-x="1024" 
d="M913 201l-370 -1q33 -61 105 -61q64 0 102 54h159q-29 -91 -98 -146t-163 -55q-62 0 -91 11t-77 53q-72 -63 -181 -63q-121 0 -196 80t-75 201q0 120 75 202t196 82q116 0 184 -65q29 37 63.5 50.5t101.5 13.5q121 0 196 -81.5t75 -202.5q0 -18 -6 -72zM299 140
q57 0 91 38.5t34 95.5q0 58 -34.5 98t-90.5 40q-55 0 -89 -40t-34 -98q0 -57 34 -95.5t89 -38.5zM544 348l-1 -3h213q-30 66 -108 66q-70 0 -104 -63z" />
    <glyph glyph-name="Racute" unicode="&#x154;" horiz-adv-x="713" 
d="M177 767l157 268h180l-161 -268h-176zM198 285v-285h-153v726h301q269 0 269 -220q0 -164 -136 -202l199 -304h-183l-191 285h-106zM345 576h-147v-137h147q119 0 119 67q0 70 -119 70z" />
    <glyph glyph-name="racute" unicode="&#x155;" horiz-adv-x="547" 
d="M106 599l155 260h174l-156 -260h-173zM198 307v-307h-149l-4 561h147l2 -34q57 31 126 31q71 0 185 -58l-53 -145q-103 57 -132 57q-50 0 -86 -30.5t-36 -74.5z" />
    <glyph glyph-name="Rcaron" unicode="&#x158;" horiz-adv-x="713" 
d="M344 955l56 72h190l-202 -264h-86l-204 264h191zM198 285v-285h-153v726h301q269 0 269 -220q0 -164 -136 -202l199 -304h-183l-191 285h-106zM345 576h-147v-137h147q119 0 119 67q0 70 -119 70z" />
    <glyph glyph-name="rcaron" unicode="&#x159;" horiz-adv-x="564" 
d="M284 785l54 68h184l-196 -258h-84l-197 258h186zM211 307v-307h-149l-4 561h147l2 -34q57 31 126 31q71 0 185 -58l-53 -145q-103 57 -132 57q-50 0 -86 -30.5t-36 -74.5z" />
    <glyph glyph-name="Sacute" unicode="&#x15a;" horiz-adv-x="755" 
d="M207 767l157 268h180l-161 -268h-176zM393 -8q-137 0 -229.5 74.5t-121.5 219.5h162q11 -67 62 -105t127 -38q24 0 48 3t49 10.5t40.5 22t15.5 33.5q0 24 -37.5 40.5t-125.5 29.5q-172 25 -238.5 75.5t-66.5 150.5q0 93 83.5 159.5t218.5 66.5q244 0 334 -274h-162
q-43 123 -172 123q-66 0 -108.5 -22t-42.5 -53q0 -28 39.5 -45t141.5 -33q159 -25 223 -74t65 -144v-1q0 -97 -86.5 -158t-218.5 -61z" />
    <glyph glyph-name="sacute" unicode="&#x15b;" horiz-adv-x="573" 
d="M118 599l155 260h174l-155 -260h-174zM296 -7q-111 0 -179 57t-77 164l142 -1q26 -82 114 -82q30 0 59.5 11t29.5 29q0 7 -42 17t-62 13h-7q-46 7 -80.5 17.5t-69.5 29.5t-54 52.5t-19 79.5q0 60 38.5 103t90 61t105.5 18h1q110 0 173 -52.5t74 -173.5l-144 1
q-15 91 -103 91q-28 0 -58 -14.5t-30 -33.5q0 -8 21 -14t88 -20q32 -7 47.5 -10.5t44 -11.5t43.5 -16t35 -21.5t29.5 -29t17 -38t7.5 -49.5q0 -49 -23.5 -85t-60.5 -55t-75 -28t-76 -9z" />
    <glyph glyph-name="Scircumflex" unicode="&#x15c;" horiz-adv-x="755" 
d="M620 747h-191l-55 71l-56 -71h-189l203 265h86zM390 -8q-137 0 -229 74.5t-121 219.5h162q11 -67 61.5 -105t126.5 -38q24 0 48.5 3t49.5 10.5t40.5 22t15.5 33.5q0 24 -37.5 40t-125.5 30q-172 25 -239.5 76t-67.5 150q0 93 83.5 159.5t218.5 66.5q243 0 336 -274h-162
q-43 123 -174 123q-64 0 -107 -22t-43 -53q0 -28 39.5 -45t142.5 -33q158 -25 222 -74t65 -144v-1q0 -97 -86.5 -158t-218.5 -61z" />
    <glyph glyph-name="scircumflex" unicode="&#x15d;" horiz-adv-x="595" 
d="M534 580h-186l-53 68l-54 -68h-184l198 258h83zM296 -7q-111 0 -179 57t-77 164l142 -1q26 -82 114 -82q30 0 59.5 11t29.5 29q0 7 -42 17t-62 13h-7q-46 7 -80.5 17.5t-69.5 29.5t-54 52.5t-19 79.5q0 60 38.5 103t90 61t105.5 18h1q110 0 173 -52.5t74 -173.5l-144 1
q-15 91 -103 91q-28 0 -58 -14.5t-30 -33.5q0 -8 21 -14t88 -20q32 -7 47.5 -10.5t44 -11.5t43.5 -16t35 -21.5t29.5 -29t17 -38t7.5 -49.5q0 -49 -23.5 -85t-60.5 -55t-75 -28t-76 -9z" />
    <glyph glyph-name="Scedilla" unicode="&#x15e;" horiz-adv-x="782" 
d="M423 430q158 -25 222 -74t65 -144v-1q0 -71 -48 -124t-130 -77q21 -34 21 -81q0 -64 -41 -104t-105 -40q-48 0 -88 23t-80 78l83 113q62 -82 85 -82q12 0 12 11q0 22 -89 70q-107 18 -178.5 91t-96.5 197h162q11 -67 61.5 -105t126.5 -38q24 0 48.5 3t49.5 10.5t40.5 22
t15.5 33.5q0 24 -37.5 40t-125.5 30q-172 25 -239.5 76t-67.5 150q0 93 83.5 159.5t218.5 66.5q243 0 336 -274h-162q-43 123 -174 123q-64 0 -107 -22t-43 -53q0 -28 39.5 -45t142.5 -33z" />
    <glyph glyph-name="scedilla" unicode="&#x15f;" horiz-adv-x="621" 
d="M306 346q32 -7 47.5 -10.5t44 -11.5t43.5 -16t35 -21.5t29.5 -29t17 -38t7.5 -49.5q0 -97 -90 -143q19 -34 19 -77q0 -64 -41 -104t-105 -40q-48 0 -88 23t-80 78l70 95q-77 18 -123 72t-53 140l142 -1q26 -82 114 -82q30 0 59.5 11t29.5 29q0 7 -42 17t-62 13h-7
q-46 7 -80.5 17.5t-69.5 29.5t-54 52.5t-19 79.5q0 60 38.5 103t90 61t105.5 18h1q110 0 173 -52.5t74 -173.5l-144 1q-15 91 -103 91q-28 0 -58 -14.5t-30 -33.5q0 -8 21 -14t88 -20zM313 -62q12 0 12 11q0 17 -44 44l-35 3q47 -58 67 -58z" />
    <glyph glyph-name="Scaron" unicode="&#x160;" horiz-adv-x="755" 
d="M375 955l55 72h190l-202 -264h-86l-203 264h190zM393 -8q-137 0 -229.5 74.5t-121.5 219.5h162q11 -67 62 -105t127 -38q24 0 48 3t49 10.5t40.5 22t15.5 33.5q0 24 -37.5 40.5t-125.5 29.5q-172 25 -238.5 75.5t-66.5 150.5q0 93 83.5 159.5t218.5 66.5q244 0 334 -274
h-162q-43 123 -172 123q-66 0 -108.5 -22t-42.5 -53q0 -28 39.5 -45t141.5 -33q159 -25 223 -74t65 -144v-1q0 -97 -86.5 -158t-218.5 -61z" />
    <glyph glyph-name="scaron" unicode="&#x161;" horiz-adv-x="573" 
d="M285 785l53 68h184l-195 -258h-84l-198 258h186zM296 -7q-111 0 -179 57t-77 164l142 -1q26 -82 114 -82q30 0 59.5 11t29.5 29q0 7 -42 17t-62 13h-7q-46 7 -80.5 17.5t-69.5 29.5t-54 52.5t-19 79.5q0 60 38.5 103t90 61t105.5 18h1q110 0 173 -52.5t74 -173.5l-144 1
q-15 91 -103 91q-28 0 -58 -14.5t-30 -33.5q0 -8 21 -14t88 -20q32 -7 47.5 -10.5t44 -11.5t43.5 -16t35 -21.5t29.5 -29t17 -38t7.5 -49.5q0 -49 -23.5 -85t-60.5 -55t-75 -28t-76 -9z" />
    <glyph glyph-name="Tcaron" unicode="&#x164;" horiz-adv-x="692" 
d="M346 955l55 72h190l-202 -264h-85l-204 264h190zM647 726v-150h-224v-576h-153v576h-225v150h602z" />
    <glyph glyph-name="tcaron" unicode="&#x165;" horiz-adv-x="635" 
d="M569 709q47 0 71 -28t24 -76q0 -41 -32 -87.5t-84 -79.5l-100 74v-96h-162v-243q0 -18 11.5 -27t28.5 -9q18 0 39 17t34 46l72 -114q-21 -35 -67 -64.5t-97 -29.5q-85 0 -126 44.5t-41 136.5v243h-85v145h85v165h146v-165h147q45 17 59 27q-7 14 -7 36q0 33 24.5 59
t59.5 26z" />
    <glyph glyph-name="Utilde" unicode="&#x168;" horiz-adv-x="672" 
d="M269 830q5 -5 -7 -61h-149l9 66q13 78 48 112.5t99 34.5q68 0 119 -53q9 -7 11 -7q-7 1 5 61h159l-21 -84q-17 -68 -49.5 -99t-93.5 -31q-68 0 -118 50q-10 10 -12 11zM474 726h153v-471q0 -137 -74 -200t-218 -63q-143 0 -216.5 63t-73.5 200v471h152v-471
q0 -112 138 -112q139 0 139 112v471z" />
    <glyph glyph-name="utilde" unicode="&#x169;" horiz-adv-x="636" 
d="M255 660q4 -5 -6 -59h-149l12 65q13 75 46.5 108t96.5 33q65 0 114 -49q4 -4 8 -6q-3 8 6 56h157l-21 -82q-16 -65 -48 -94.5t-92 -29.5q-57 0 -111 47zM588 561l3 -563h-143l-1 25q-61 -32 -130 -32q-122 0 -197 80t-75 201v289h148v-289q0 -56 34.5 -95.5t89.5 -39.5
q46 0 80 36t44 86v302h147z" />
    <glyph glyph-name="Umacron" unicode="&#x16a;" horiz-adv-x="672" 
d="M138 769v151h396v-151h-396zM335 -8q-143 0 -216.5 63t-73.5 200v471h152v-471q0 -112 138 -112q139 0 139 112v471h153v-471q0 -137 -74 -200t-218 -63z" />
    <glyph glyph-name="umacron" unicode="&#x16b;" horiz-adv-x="636" 
d="M127 601v147h384v-147h-384zM317 -9q-122 0 -197 80t-75 201v289h148v-289q0 -56 34.5 -95.5t89.5 -39.5q46 0 80 36t44 86v302h147l3 -563h-143l-1 25q-61 -32 -130 -32z" />
    <glyph glyph-name="Ubreve" unicode="&#x16c;" horiz-adv-x="672" 
d="M335 765q-85 0 -130 65.5t-45 180.5h148q0 -94 27 -94q26 0 26 94h151v-69q0 -83 -46 -130t-131 -47zM335 -8q-143 0 -216.5 63t-73.5 200v471h152v-471q0 -112 138 -112q139 0 139 112v471h153v-471q0 -137 -74 -200t-218 -63z" />
    <glyph glyph-name="ubreve" unicode="&#x16d;" horiz-adv-x="636" 
d="M319 597q-83 0 -127 64t-44 175h145q0 -91 26 -91q25 0 25 91h145v-67q0 -81 -44 -126.5t-126 -45.5zM317 -9q-122 0 -197 80t-75 201v289h148v-289q0 -56 34.5 -95.5t89.5 -39.5q46 0 80 36t44 86v302h147l3 -563h-143l-1 25q-61 -32 -130 -32z" />
    <glyph glyph-name="Uring" unicode="&#x16e;" horiz-adv-x="672" 
d="M334 759q-62 0 -101.5 39.5t-39.5 100.5q0 60 40 100.5t101 40.5q62 0 102 -40.5t40 -100.5q0 -61 -40 -100.5t-102 -39.5zM334 872q12 0 20 8t8 19q0 12 -7.5 20t-20.5 8q-12 0 -19.5 -8t-7.5 -20q0 -11 7.5 -19t19.5 -8zM335 -8q-143 0 -216.5 63t-73.5 200v471h152
v-471q0 -112 138 -112q139 0 139 112v471h153v-471q0 -137 -74 -200t-218 -63z" />
    <glyph glyph-name="uring" unicode="&#x16f;" horiz-adv-x="636" 
d="M318 590q-61 0 -100 38.5t-39 99.5q0 60 39.5 99.5t99.5 39.5t100 -39.5t40 -99.5q0 -61 -39.5 -99.5t-100.5 -38.5zM318 701q12 0 19.5 8t7.5 19q0 12 -7.5 19.5t-19.5 7.5q-26 0 -26 -27q0 -12 7 -19.5t19 -7.5zM317 -9q-122 0 -197 80t-75 201v289h148v-289
q0 -56 34.5 -95.5t89.5 -39.5q46 0 80 36t44 86v302h147l3 -563h-143l-1 25q-61 -32 -130 -32z" />
    <glyph glyph-name="Uhungarumlaut" unicode="&#x170;" horiz-adv-x="672" 
d="M80 762l156 270h179l-163 -270h-172zM289 762l156 270h179l-163 -270h-172zM335 -8q-143 0 -216.5 63t-73.5 200v471h152v-471q0 -112 138 -112q139 0 139 112v471h153v-471q0 -137 -74 -200t-218 -63z" />
    <glyph glyph-name="uhungarumlaut" unicode="&#x171;" horiz-adv-x="636" 
d="M60 594l156 270h179l-163 -270h-172zM269 594l156 270h179l-163 -270h-172zM317 -9q-122 0 -197 80t-75 201v289h148v-289q0 -56 34.5 -95.5t89.5 -39.5q46 0 80 36t44 86v302h147l3 -563h-143l-1 25q-61 -32 -130 -32z" />
    <glyph glyph-name="Uogonek" unicode="&#x172;" horiz-adv-x="692" 
d="M484 255v471h153v-471q0 -245 -253 -262q-69 -35 -69 -57q0 -6 12 -6q24 0 85 55l68 -122q-84 -65 -153 -65q-65 0 -105.5 37t-40.5 101q0 44 20 77q-146 52 -146 242v471h152v-471q0 -112 138 -112q139 0 139 112z" />
    <glyph glyph-name="uogonek" unicode="&#x173;" horiz-adv-x="677" 
d="M570 -1l63 -110q-93 -63 -154 -63q-63 0 -102 34.5t-39 96.5q0 20 4 35q-5 -1 -15 -1q-122 0 -197 80t-75 201v289h148v-289q0 -56 34.5 -95.5t89.5 -39.5q45 0 78.5 36t44.5 86v302h146l3 -561z" />
    <glyph glyph-name="Wcircumflex" unicode="&#x174;" horiz-adv-x="1064" 
d="M778 747h-191l-56 71l-55 -71h-189l203 265h86zM861 726h162l-298 -726l-193 465l-193 -465l-298 726h163l135 -334l140 334h107l139 -334z" />
    <glyph glyph-name="wcircumflex" unicode="&#x175;" horiz-adv-x="878" 
d="M677 580h-185l-53 68l-54 -68h-185l198 258h84zM482 561l106 -224l90 224h159l-238 -583l-160 334l-163 -331l-238 580h160l88 -223l107 223h89z" />
    <glyph glyph-name="Ycircumflex" unicode="&#x176;" horiz-adv-x="788" 
d="M640 747h-192l-55 71l-55 -71h-191l203 265h87zM570 726h182l-282 -449v-277h-152v277l-282 449h183l175 -283z" />
    <glyph glyph-name="ycircumflex" unicode="&#x177;" horiz-adv-x="650" 
d="M564 580h-187l-53 68l-54 -68h-183l196 258h84zM186 -179q-32 0 -101 25v163q54 -42 98 -42h4q16 0 36 45l23 55l-207 494h165l124 -299l118 299h164l-245 -603q-31 -75 -73 -106t-106 -31z" />
    <glyph glyph-name="Ydieresis" unicode="&#x178;" horiz-adv-x="788" 
d="M311 748q-39 0 -63.5 25.5t-24.5 65.5q0 38 24.5 62.5t63.5 24.5q60 0 83 -50q22 50 83 50q38 0 63 -25t25 -62q0 -40 -25 -65.5t-63 -25.5q-61 0 -83 52q-23 -52 -83 -52zM570 726h182l-282 -449v-277h-152v277l-282 449h183l175 -283z" />
    <glyph glyph-name="Zacute" unicode="&#x179;" horiz-adv-x="673" 
d="M168 767l157 268h180l-161 -268h-176zM609 622l-343 -472h362v-150h-583v104l342 472h-335v150h557v-104z" />
    <glyph glyph-name="zacute" unicode="&#x17a;" horiz-adv-x="571" 
d="M121 599l154 260h176l-157 -260h-173zM514 459l-238 -311h250v-148h-472v104l239 310h-248v147h469v-102z" />
    <glyph glyph-name="Zdotaccent" unicode="&#x17b;" horiz-adv-x="673" 
d="M335 750q-38 0 -62.5 25.5t-24.5 65.5q0 38 24.5 62.5t62.5 24.5q39 0 64 -24.5t25 -62.5q0 -40 -25 -65.5t-64 -25.5zM609 622l-343 -472h362v-150h-583v104l342 472h-335v150h557v-104z" />
    <glyph glyph-name="zdotaccent" unicode="&#x17c;" horiz-adv-x="571" 
d="M286 583q-39 0 -62.5 24t-23.5 65q0 36 24 60t62 24q37 0 61.5 -24t24.5 -60q0 -41 -24 -65t-62 -24zM514 459l-238 -311h250v-148h-472v104l239 310h-248v147h469v-102z" />
    <glyph glyph-name="Zcaron" unicode="&#x17d;" horiz-adv-x="673" 
d="M335 955l57 72h190l-203 -264h-86l-203 264h190zM609 622l-343 -472h362v-150h-583v104l342 472h-335v150h557v-104z" />
    <glyph glyph-name="zcaron" unicode="&#x17e;" horiz-adv-x="571" 
d="M286 785l53 68h186l-197 -258h-84l-197 258h186zM514 459l-238 -311h250v-148h-472v104l239 310h-248v147h469v-102z" />
    <glyph glyph-name="florin" unicode="&#x192;" horiz-adv-x="475" 
d="M82 -106q-52 0 -139 55l60 130q70 -39 79 -39q19 0 31 52l36 232h-122v145h144l16 105v-1q14 92 56.5 134t117.5 42q41 0 124 -40l-15 -154q-99 48 -104 48q-23 0 -32 -51l-13 -83h129v-145h-151l-40 -255q-27 -175 -177 -175z" />
    <glyph glyph-name="circumflex" unicode="&#x2c6;" horiz-adv-x="510" 
d="M503 601h-193l-55 71l-55 -71h-190l203 263h87z" />
    <glyph glyph-name="caron" unicode="&#x2c7;" horiz-adv-x="511" 
d="M254 809l55 71h192l-203 -265h-87l-203 265h191z" />
    <glyph glyph-name="uni02C9" unicode="&#x2c9;" horiz-adv-x="419" 
d="M15 623v150h394v-150h-394z" />
    <glyph glyph-name="breve" unicode="&#x2d8;" horiz-adv-x="378" 
d="M190 617q-85 0 -130.5 66t-45.5 180h150q0 -94 26 -94t26 94h151v-68q0 -83 -46 -130.5t-131 -47.5z" />
    <glyph glyph-name="dotaccent" unicode="&#x2d9;" horiz-adv-x="204" 
d="M102 604q-39 0 -63.5 25t-24.5 65q0 37 25 61.5t63 24.5q39 0 64 -24t25 -62q0 -40 -25 -65t-64 -25z" />
    <glyph glyph-name="ring" unicode="&#x2da;" horiz-adv-x="323" 
d="M159 612q-62 0 -101.5 39.5t-39.5 100.5t39.5 101t101.5 40q61 0 101.5 -40t40.5 -101t-40 -100.5t-102 -39.5zM159 725q12 0 20 8t8 19q0 13 -8 20.5t-20 7.5t-19.5 -7.5t-7.5 -20.5q0 -11 7.5 -19t19.5 -8z" />
    <glyph glyph-name="ogonek" unicode="&#x2db;" horiz-adv-x="323" 
d="M157 -216q-65 0 -105.5 37t-40.5 101q0 60 41 105t136 83h85l11 -86l-28 -25q-61 -28 -86 -45t-25 -32q0 -6 12 -6q24 0 85 55l68 -122q-84 -65 -153 -65z" />
    <glyph glyph-name="tilde" unicode="&#x2dc;" horiz-adv-x="476" 
d="M308 835h160l-21 -84q-17 -68 -50 -98.5t-95 -30.5q-58 0 -117 51q-7 5 -12 9q4 -5 -6 -61h-153l14 67q12 76 47 111.5t98 35.5q93 0 118 -52l1 -2q2 -4 10 -8q-5 4 6 62z" />
    <glyph glyph-name="hungarumlaut" unicode="&#x2dd;" horiz-adv-x="578" 
d="M14 614l156 270h179l-163 -270h-172zM223 614l156 270h179l-163 -270h-172z" />
    <glyph glyph-name="uni0326" unicode="&#x326;" horiz-adv-x="0" 
d="M-307 -203l88 281h164l-96 -281h-156z" />
    <glyph glyph-name="pi" unicode="&#x3c0;" horiz-adv-x="487" 
d="M260 0v416h-38v-416h-147v416h-65v146h456v-146h-58v-416h-148z" />
    <glyph glyph-name="Wgrave" unicode="&#x1e80;" horiz-adv-x="1064" 
d="M525 759l-162 269h181l156 -269h-175zM861 726h162l-298 -726l-193 465l-193 -465l-298 726h163l135 -334l140 334h107l139 -334z" />
    <glyph glyph-name="wgrave" unicode="&#x1e81;" horiz-adv-x="878" 
d="M433 592l-158 262h175l153 -262h-170zM482 561l106 -224l90 224h159l-238 -583l-160 334l-163 -331l-238 580h160l88 -223l107 223h89z" />
    <glyph glyph-name="Wacute" unicode="&#x1e82;" horiz-adv-x="1064" 
d="M365 767l157 268h180l-161 -268h-176zM861 726h162l-298 -726l-193 465l-193 -465l-298 726h163l135 -334l140 334h107l139 -334z" />
    <glyph glyph-name="wacute" unicode="&#x1e83;" horiz-adv-x="878" 
d="M275 599l154 260h174l-155 -260h-173zM482 561l106 -224l90 224h159l-238 -583l-160 334l-163 -331l-238 580h160l88 -223l107 223h89z" />
    <glyph glyph-name="Wdieresis" unicode="&#x1e84;" horiz-adv-x="1064" 
d="M450 748q-39 0 -64 25.5t-25 65.5q0 38 25 62.5t64 24.5q60 0 82 -50q23 50 83 50q39 0 63.5 -24.5t24.5 -62.5q0 -40 -24.5 -65.5t-63.5 -25.5q-60 0 -83 52q-22 -52 -82 -52zM861 726h162l-298 -726l-193 465l-193 -465l-298 726h163l135 -334l140 334h107l139 -334z
" />
    <glyph glyph-name="wdieresis" unicode="&#x1e85;" horiz-adv-x="878" 
d="M359 581q-39 0 -62 24t-23 65q0 37 23.5 60.5t61.5 23.5q58 0 80 -48q22 48 80 48q39 0 62.5 -24t23.5 -60q0 -41 -23.5 -65t-62.5 -24q-59 0 -80 49q-21 -49 -80 -49zM678 561h159l-238 -583l-160 334l-163 -331l-238 580h160l88 -223l107 223h89l106 -224z" />
    <glyph glyph-name="endash" unicode="&#x2013;" horiz-adv-x="708" 
d="M75 234v152h558v-152h-558z" />
    <glyph glyph-name="emdash" unicode="&#x2014;" horiz-adv-x="1003" 
d="M75 234v152h853v-152h-853z" />
    <glyph glyph-name="quoteleft" unicode="&#x2018;" horiz-adv-x="384" 
d="M187 765l145 -104q-62 -27 -94 -48q10 -16 10 -39q0 -39 -25 -64.5t-64 -25.5q-49 0 -74.5 29.5t-25.5 80.5q0 45 35 92.5t93 78.5z" />
    <glyph glyph-name="quoteright" unicode="&#x2019;" horiz-adv-x="399" 
d="M248 750q46 0 72 -30t26 -80q0 -43 -34.5 -90.5t-94.5 -83.5l-140 111q70 30 90 43q-10 20 -10 43q0 38 25.5 62.5t65.5 24.5z" />
    <glyph glyph-name="quotesinglbase" unicode="&#x201a;" horiz-adv-x="358" 
d="M282 130l4 -2q16 -33 16 -65q0 -43 -33.5 -90.5t-92.5 -83.5l-138 108q72 34 87 45q-12 22 -12 44q0 37 26 62t65 25q48 0 78 -43z" />
    <glyph glyph-name="quotedblleft" unicode="&#x201c;" horiz-adv-x="552" 
d="M563 661q-67 -30 -93 -48q9 -17 9 -39q0 -39 -25 -64.5t-64 -25.5q-49 0 -74.5 29.5t-25.5 80.5q0 26 12 53q-33 -15 -64 -34q10 -16 10 -39q0 -39 -25 -64.5t-64 -25.5q-49 0 -74.5 29.5t-25.5 80.5q0 45 35 92.5t93 78.5l129 -92q36 57 102 92z" />
    <glyph glyph-name="quotedblright" unicode="&#x201d;" horiz-adv-x="555" 
d="M463 758q49 0 74.5 -29.5t25.5 -80.5q0 -45 -35 -93t-92 -78l-129 92q-37 -57 -102 -92l-146 104q67 30 94 48q-10 16 -10 39q0 39 25.5 64.5t63.5 25.5q49 0 74.5 -29.5t25.5 -80.5q0 -26 -12 -53q41 19 64 34q-10 16 -10 39q0 39 25.5 64.5t63.5 25.5z" />
    <glyph glyph-name="quotedblbase" unicode="&#x201e;" horiz-adv-x="525" 
d="M462 180q50 0 75 -29.5t25 -80.5q0 -45 -35 -93t-92 -78l-129 92q-37 -57 -102 -92l-146 104q64 28 94 47q-10 17 -10 40q0 39 25.5 64.5t63.5 25.5q49 0 74.5 -29.5t25.5 -80.5q0 -26 -12 -53q34 16 64 33q-10 17 -10 40q0 39 25.5 64.5t63.5 25.5z" />
    <glyph glyph-name="dagger" unicode="&#x2020;" horiz-adv-x="612" 
d="M558 539v-148h-175v-480h-152v480h-177v148h177v187h152v-187h175z" />
    <glyph glyph-name="daggerdbl" unicode="&#x2021;" horiz-adv-x="612" 
d="M558 247v-151h-175v-185h-152v185h-177v151h177v144h-177v148h177v187h152v-187h175v-148h-175v-144h175z" />
    <glyph glyph-name="bullet" unicode="&#x2022;" horiz-adv-x="584" 
d="M291 248q-54 0 -87 34.5t-33 90.5q0 52 33.5 86t86.5 34t88 -34t35 -86q0 -55 -35 -90t-88 -35z" />
    <glyph glyph-name="ellipsis" unicode="&#x2026;" horiz-adv-x="701" 
d="M156 173q41 0 65 -24t24 -63q0 -40 -24 -66t-65 -26q-38 0 -63 26t-25 66q0 38 25 62.5t63 24.5zM351 173q41 0 65 -24t24 -63q0 -40 -24 -66t-65 -26h-1q-38 0 -63 26t-25 66q0 38 25 62.5t63 24.5h1zM545 173q41 0 65 -24t24 -63q0 -40 -24 -66t-65 -26q-38 0 -63 26
t-25 66q0 38 25 62.5t63 24.5z" />
    <glyph glyph-name="perthousand" unicode="&#x2030;" horiz-adv-x="1141" 
d="M907 435q93 0 142 -60.5t49 -157.5q0 -96 -49 -156.5t-142 -60.5q-106 0 -159 81q-50 -81 -156 -81q-90 0 -140.5 58.5t-52.5 151.5l-142 -210h-183l200 295q-24 -4 -38 -4q-95 0 -144 60t-49 157q0 96 49.5 157t143.5 61q91 0 140 -57t52 -149l140 206h182l-201 -295
q26 4 43 4q106 0 156 -81q53 81 159 81zM236 443q40 0 40 65q0 29 -10.5 48.5t-29.5 19.5t-29.5 -19.5t-10.5 -48.5q0 -65 40 -65zM592 150q17 0 28 19.5t11 47.5q0 29 -10.5 47.5t-28.5 18.5q-20 0 -31.5 -18.5t-11.5 -47.5q0 -28 11.5 -47.5t31.5 -19.5zM907 150
q18 0 28.5 19.5t10.5 47.5q0 29 -10.5 47.5t-28.5 18.5q-20 0 -31 -18.5t-11 -47.5q0 -28 11.5 -47.5t30.5 -19.5z" />
    <glyph glyph-name="guilsinglleft" unicode="&#x2039;" horiz-adv-x="474" 
d="M229 548h190l-178 -242l178 -245h-190l-178 245z" />
    <glyph glyph-name="guilsinglright" unicode="&#x203a;" horiz-adv-x="477" 
d="M55 548h195l177 -242l-177 -245h-195l181 245z" />
    <glyph glyph-name="fraction" unicode="&#x2044;" horiz-adv-x="669" 
d="M55 -44l371 789l188 36l-380 -812z" />
    <glyph glyph-name="uni207A" unicode="&#x207a;" horiz-adv-x="433" 
d="M402 618v-151h-108v-108h-152v108h-110v151h110v111h152v-111h108z" />
    <glyph glyph-name="uni207B" unicode="&#x207b;" horiz-adv-x="435" 
d="M37 467v151h361v-151h-361z" />
    <glyph glyph-name="uni207C" unicode="&#x207c;" horiz-adv-x="497" 
d="M59 687v-136h376v136h-376zM435 401v136h-376v-136h376z" />
    <glyph glyph-name="uni208A" unicode="&#x208a;" horiz-adv-x="446" 
d="M408 154v-151h-108v-109h-153v109h-108v151h108v110h153v-110h108z" />
    <glyph glyph-name="uni208B" unicode="&#x208b;" horiz-adv-x="447" 
d="M44 3v151h359v-151h-359z" />
    <glyph glyph-name="uni208C" unicode="&#x208c;" horiz-adv-x="513" 
d="M68 223v-136h376v136h-376zM444 -63v136h-376v-136h376z" />
    <glyph glyph-name="Euro" unicode="&#x20ac;" horiz-adv-x="747" 
d="M566 313l125 -63l-4 -45q-10 -102 -87.5 -161t-175.5 -59q-109 0 -185 63t-104 175h-96v138h94v17h-94v126h95q26 116 100.5 176.5t189.5 60.5q98 0 166.5 -55t99.5 -158l-115 -101l-11 28l-56 -78h-224v-16l278 -1l-102 -137h-176q42 -98 140 -98q46 0 83.5 50t58.5 138
zM424 601q-97 0 -140 -97h260q-50 97 -120 97z" />
    <glyph glyph-name="trademark" unicode="&#x2122;" horiz-adv-x="845" 
d="M323 604h-24v-304h-128v304h-118v126h378l88 -209l91 209h106v-430h-124v66l-28 -66h-89l-27 64v-64h-125v304z" />
    <glyph glyph-name="uni2126" unicode="&#x2126;" horiz-adv-x="811" 
d="M743 374q0 -132 -61 -224h61v-150h-676v150h62q-61 91 -61 224q0 162 93.5 261t243.5 99q152 0 245 -99t93 -261zM406 134q87 33 134.5 94.5t47.5 145.5q0 95 -49.5 152t-133.5 57q-83 0 -133 -57t-50 -152q0 -84 48 -145.5t136 -94.5z" />
    <glyph glyph-name="arrowleft" unicode="&#x2190;" horiz-adv-x="820" 
d="M310 442h445v-156h-445q80 -79 181 -209l-138 -86l-28 46q-118 155 -301 291v72q101 75 178 152.5t153 182.5l136 -85q-108 -138 -181 -208z" />
    <glyph glyph-name="arrowup" unicode="&#x2191;" horiz-adv-x="880" 
d="M516 444v-444h-153v445q-81 -82 -212 -179l-83 134q109 79 186.5 156t148.5 178h77l20 -34q72 -128 310 -300l-81 -134q-134 99 -213 178z" />
    <glyph glyph-name="arrowright" unicode="&#x2192;" horiz-adv-x="824" 
d="M331 650l136 85l40 -55q47 -75 113.5 -136t179.5 -144v-72q-200 -146 -334 -335l-135 84q110 139 180 209h-446v156h446q-91 93 -180 208z" />
    <glyph glyph-name="arrowdown" unicode="&#x2193;" horiz-adv-x="890" 
d="M480 -8h-65l-21 16q-128 177 -324 318l85 137q128 -99 212 -182v445h152v-445q92 92 214 182l89 -158l-68 -22q-138 -100 -274 -291z" />
    <glyph glyph-name="arrowboth" unicode="&#x2194;" horiz-adv-x="980" 
d="M620 8l-128 87q113 144 177 209h-360q79 -80 181 -215l-136 -74q-159 206 -330 329v73q185 135 330 333l136 -83q-119 -149 -180 -211h359q-71 74 -176 207l134 93l38 -63q43 -66 123 -139.5t168 -136.5v-73q-174 -123 -336 -336z" />
    <glyph glyph-name="arrowupdn" unicode="&#x2195;" horiz-adv-x="882" 
d="M478 -105h-71l-18 22q-128 169 -319 315l84 130q143 -110 212 -179v361q-78 -78 -207 -173l-91 121q111 85 191.5 164.5t146.5 174.5h72q69 -99 146.5 -176.5t187.5 -159.5l-82 -129q-142 107 -211 176v-358q79 77 211 178l82 -133q-214 -161 -334 -334z" />
    <glyph glyph-name="partialdiff" unicode="&#x2202;" 
d="M304 -8q-115 0 -187.5 72.5t-72.5 186.5t70.5 185t184.5 71q59 0 115 -18q-28 94 -121 94q-49 0 -111 -94l-120 106q113 139 231 139q149 0 218.5 -90t69.5 -281q0 -180 -71.5 -275.5t-205.5 -95.5zM303 143q47 0 78 38.5t42 103.5q-27 71 -125 71q-45 0 -73 -29.5
t-28 -74.5q0 -48 29.5 -78.5t76.5 -30.5z" />
    <glyph glyph-name="uni2206" unicode="&#x2206;" horiz-adv-x="690" 
d="M289 726h116l254 -630v-96h-628v96zM346 460l-125 -310h248z" />
    <glyph glyph-name="product" unicode="&#x220f;" horiz-adv-x="727" 
d="M489 -113v689h-250v-689h-153v839h556v-839h-153z" />
    <glyph glyph-name="summation" unicode="&#x2211;" horiz-adv-x="663" 
d="M500 287l-222 -250h338v-150h-582v109l286 319l-286 301v110h582v-150h-332l216 -232v-57z" />
    <glyph glyph-name="minus" unicode="&#x2212;" horiz-adv-x="708" 
d="M85 276v150h539v-150h-539z" />
    <glyph glyph-name="uni2215" unicode="&#x2215;" horiz-adv-x="643" 
d="M43 -44l372 789l186 36l-379 -812z" />
    <glyph glyph-name="uni2219" unicode="&#x2219;" horiz-adv-x="326" 
d="M163 291q-42 0 -65.5 24.5t-23.5 64.5t23.5 64.5t65.5 24.5q39 0 64 -25t25 -64t-25 -64t-64 -25z" />
    <glyph glyph-name="radical" unicode="&#x221a;" horiz-adv-x="705" 
d="M308 279l225 587h164l-334 -866h-111l-118 300h-113v150h217z" />
    <glyph glyph-name="infinity" unicode="&#x221e;" horiz-adv-x="935" 
d="M671 579q86 0 142 -65t56 -176q0 -110 -56 -175.5t-142 -65.5q-48 0 -86 17.5t-59.5 39t-56.5 64.5q-33 -41 -55.5 -62.5t-61.5 -40t-86 -18.5q-87 0 -143.5 65.5t-56.5 175.5q0 111 56.5 176t143.5 65q57 0 85.5 -12.5t69.5 -53.5l25 -24q13 -13 24 -27q6 5 16 17
q26 28 29 31q35 37 69 53t87 16zM313 274q21 19 57 64q-18 20 -19 22q-34 41 -39 45q-22 22 -43 22t-35 -24.5t-14 -64.5t14 -65t35 -25q14 0 22 5t22 21zM670 248q19 0 32.5 25.5t13.5 64.5q0 40 -13.5 64.5t-33.5 24.5q-27 0 -53 -30l-6 -8q-14 -14 -42 -49l7 -7
q6 -6 16 -18q3 -4 8.5 -11t10 -12.5t8.5 -9.5q5 -3 10 -10q20 -24 42 -24z" />
    <glyph glyph-name="integral" unicode="&#x222b;" horiz-adv-x="525" 
d="M162 -113q-59 0 -152 65l68 133q71 -48 80 -48q32 0 32 35v556q0 91 45.5 138t132.5 47q53 0 148 -57l-67 -149q-67 54 -81 54q-27 0 -27 -33v-556q0 -185 -179 -185z" />
    <glyph glyph-name="approxequal" unicode="&#x2248;" horiz-adv-x="703" 
d="M84 274v178q78 81 160 81q43 0 127 -37q61 -28 81 -28q29 0 157 142v-172q-99 -98 -158 -98q-55 0 -129 37q-54 27 -78 27q-54 0 -160 -130zM84 79v175q88 98 160 98q51 0 127 -38q60 -26 81 -26q26 0 68.5 34t88.5 91v-173q-85 -82 -158 -82q-43 0 -125 37
q-61 28 -82 28q-31 0 -160 -144z" />
    <glyph glyph-name="notequal" unicode="&#x2260;" horiz-adv-x="711" 
d="M616 332v-150h-252l-55 -116h-172l56 116h-97v150h169l15 30h-184v152h254l52 112h170l-53 -112h97v-152h-168l-14 -30h182z" />
    <glyph glyph-name="lessequal" unicode="&#x2264;" horiz-adv-x="708" 
d="M446 150l-359 201v97l535 287v-170l-309 -166l309 -173v-226h-535v150h359z" />
    <glyph glyph-name="greaterequal" unicode="&#x2265;" horiz-adv-x="708" 
d="M396 399l-309 166v170l535 -287v-97l-359 -201h359v-150h-535v226z" />
    <glyph glyph-name="a.alt" 
d="M327 -7q-122 0 -197 80t-75 201q0 120 75.5 202t196.5 82q69 0 123 -26v11h146v-543h-146v20q-56 -27 -123 -27zM327 140q46 0 79 35t44 85v29q-11 51 -44 87t-79 36q-55 0 -89.5 -40t-34.5 -98q0 -56 34.5 -95t89.5 -39z" />
    <glyph glyph-name="e.alt" horiz-adv-x="658" 
d="M331 -8h-1q-129 0 -202 78t-73 204q0 120 75 202t195 82q122 0 196.5 -98.5t74.5 -258.5h-376q30 -62 110 -62q52 0 96 47l163 -1q-43 -90 -110 -141.5t-148 -51.5zM219 346h215q-33 66 -109 66q-73 0 -106 -66z" />
    <glyph glyph-name="space.tf" horiz-adv-x="332" 
 />
    <glyph glyph-name="_FSHallmark" horiz-adv-x="914" 
d="M57 609v95h802v-95h-802zM686 160q-38 0 -66 9q-33 8 -56 26q-25 21 -40 46q-16 27 -16 64l93 -2q0 -4 6 -16q1 -12 13 -24q13 -13 24 -16q17 -10 46 -10q30 0 52 11q17 10 17 26q0 29 -76 44q-75 22 -117 44q-48 24 -48 79q0 45 32 73q28 23 70 39q1 0 26 3.5t40 3.5
q40 0 90 -19q46 -17 65 -63q10 -24 10 -47h-96q0 12 -7 22q-5 8 -18 17q-3 1 -10.5 4.5t-12.5 4.5q-3 0 -11 2.5t-12 2.5q-22 0 -45 -14q-19 -11 -19 -29q0 -30 18 -39q33 -13 41 -14l36 -10l29 -7q4 0 13.5 -3t15.5 -3q18 -5 22 -7l20 -9q19 -12 31 -26q11 -25 12 -44
q1 -21 -10 -47q-23 -41 -72 -58q-42 -14 -90 -14zM356 378v-89h-194v-129h-105v399h337v-90h-232v-91h194zM433 162q-16 0 -31 15q-17 14 -17 32q0 19 15 33q13 13 33 13t39 -14q16 -14 16 -32q0 -19 -16 -35q-18 -12 -39 -12zM55 16v95h803v-95h-803z" />
    <glyph glyph-name="_Fontastica" horiz-adv-x="689" 
d="M482 377v-91h-341v-170h-98l-3 4v589h442v-87h-341v-245h341zM548 543v166h101v-593h-442v92h341v241h-341v94h341zM136 19q-8 0 -18 4q-7 2 -13 12q-5 8 -5 17q0 6 5 16q5 9 13 13q10 4 18 4q10 0 17 -4q6 -3 12 -13q5 -7 5 -16t-5 -17q-5 -7 -12 -12q-7 -4 -17 -4z
M395 19q-1 0 -16 3q-6 1 -14 7l7 13q4 -4 11 -7t12 -3q4 0 6 2t2 4l-1 2q-1 1 -1 2l-3 2q-3 0 -7 2q-2 1 -6 1.5t-6 1.5q-5 4 -7 6q-3 5 -3 11q0 7 3 10q5 5 10 7q6 2 13 2q4 0 14 -2q4 -1 12 -5l-7 -14q-5 5 -11 6q-4 1 -10 1h-5l-1 -4q0 -1 1 -3l3 -3q2 0 4 -1t3 -1l12 -4
q2 -1 7 -6q4 -4 4 -10q0 -7 -4 -11q-6 -6 -9 -7q-8 -2 -13 -2zM544 19q-10 0 -17 4q-4 2 -12 12q-5 6 -5 17q0 6 5 16q5 11 12 13q10 4 17 4q8 0 15 -3q6 -3 11 -8l-10 -12q-2 4 -7 6q-1 0 -4 1.5t-4 1.5l-9 -3q-4 -1 -6 -6q-2 -3 -2 -10q0 -3 2 -9t6 -7q6 -3 9 -3
q1 0 4 1.5t4 1.5q5 2 7 5l10 -10q-4 -6 -12 -9t-14 -3zM95 56v-13h-29v-23h-17v64h48v-13h-31v-15h29zM238 20h-15l-29 38v-38h-16v64h15l29 -39v39h16v-64zM299 84v-14h-18v-50h-17v50h-19v14h54zM346 20l-4 12h-28l-4 -12h-17l27 64h17l27 -64h-18zM478 84v-14h-19v-50
h-16v50h-19v14h54zM485 20v64h17v-64h-17zM624 20l-5 12h-27l-5 -12h-17l28 64h17l27 -64h-18zM136 32q6 0 9 3q1 1 2.5 3.5t2.5 3.5q3 3 3 10l-3 9q-2 5 -5 7q-5 3 -9 3q-6 0 -10 -3q-4 -2 -6 -7q-2 -6 -2 -9q0 -7 2 -10q4 -6 6 -7q9 -3 10 -3zM328 67l-9 -23h18zM605 67
l-8 -23h17z" />
    <glyph glyph-name="_www.fontastica.com" horiz-adv-x="2013" 
d="M218 278v-32h-122v-60h-34l-2 1v209h158v-31h-122v-87h122zM241 337v59h36v-210h-158v32h122v86h-122v33h122zM1280 203q-21 0 -43 8q-23 8 -38 20l18 36q10 -9 32 -19q18 -8 31 -8q10 0 16 4q7 4 7 11t-5 10q-3 2 -11 6q-4 2 -18 6q-28 9 -31 10q-15 6 -20 15
q-7 10 -7 28q0 17 8 28q7 10 25 19q14 7 36 7q12 0 38 -6q15 -4 32 -14l-17 -36q-15 8 -30 13q-13 5 -27 5q-8 0 -13 -3t-5 -9q0 -5 4 -9q6 -6 11 -7q1 0 7 -2.5t11 -3.5q20 -5 31 -10q16 -9 20 -16q8 -11 8 -29q0 -17 -9 -29q-8 -11 -26 -19q-15 -6 -35 -6zM573 202
q-27 0 -48 12q-22 13 -34 33q-12 21 -12 46t12 46q11 19 34 32q21 12 48 12t49 -12t33 -32q12 -21 12 -46t-12 -46t-33 -33q-22 -12 -49 -12zM1686 202q-25 0 -46 12q-19 11 -33 33q-12 19 -12 46q0 25 12 46q11 20 33 32t48 12q23 0 39 -8q21 -10 31 -22l-26 -32
q-8 11 -20 17t-23 6q-13 0 -24 -6q-15 -9 -18 -18q-6 -16 -6 -26q0 -16 6 -26q6 -9 18 -18q10 -7 24 -7q12 0 22 5q12 6 21 15l27 -28q-15 -15 -34 -24t-39 -9zM462 305v-37h-78v-62h-45v174h130v-36h-85v-39h78zM852 206h-40l-79 104v-104h-43v174h40l80 -105l-1 105h43
v-174zM1021 380v-37h-53v-137h-45v137h-52v37h150zM1149 206l-12 30h-76l-12 -30h-47l75 174h47l73 -174h-48zM1508 380v-37h-52v-137h-46v137h-52v37h150zM1527 206v174h45v-174h-45zM1904 206l-11 30h-76l-12 -30h-47l75 174h47l73 -174h-49zM574 241q12 0 24 7q6 4 16 19
q7 11 7 26q0 7 -7 26q-5 13 -16 19q-10 6 -24 6t-24 -6q-12 -8 -18 -19q-6 -12 -6 -26t6 -26q5 -10 18 -19q10 -7 24 -7zM1100 334l-25 -63h48zM1855 334l-24 -63h48z" />
    </font>
</defs>
</svg>
